<?xml version="1.0" encoding="UTF-8" standalone="no"?>
<!-- Created with Inkscape (http://www.inkscape.org/) -->
<svg
   xmlns:dc="http://purl.org/dc/elements/1.1/"
   xmlns:cc="http://creativecommons.org/ns#"
   xmlns:rdf="http://www.w3.org/1999/02/22-rdf-syntax-ns#"
   xmlns:svg="http://www.w3.org/2000/svg"
   xmlns="http://www.w3.org/2000/svg"
   xmlns:xlink="http://www.w3.org/1999/xlink"
   xmlns:sodipodi="http://sodipodi.sourceforge.net/DTD/sodipodi-0.dtd"
   xmlns:inkscape="http://www.inkscape.org/namespaces/inkscape"
   width="210mm"
   height="297mm"
   id="svg20632"
   sodipodi:version="0.32"
   inkscape:version="0.46"
   sodipodi:docname="collective_logo.svg"
   inkscape:output_extension="org.inkscape.output.svg.inkscape"
   inkscape:export-filename="/home/brutkasten/Dokumente/naev/FLF_logo.png"
   inkscape:export-xdpi="90"
   inkscape:export-ydpi="90">
  <defs
     id="defs20634">
    <linearGradient
       inkscape:collect="always"
       xlink:href="#linearGradient6288"
       id="linearGradient6770"
       gradientUnits="userSpaceOnUse"
       gradientTransform="translate(-2428.4674,-608.90056)"
       x1="-1578.8463"
       y1="750.07733"
       x2="-1662.8076"
       y2="932.7063" />
    <linearGradient
       id="linearGradient6288">
      <stop
         id="stop6298"
         offset="0"
         style="stop-color:#d9d9d9;stop-opacity:1;" />
      <stop
         style="stop-color:#444444;stop-opacity:1;"
         offset="1"
         id="stop6292" />
    </linearGradient>
    <linearGradient
       inkscape:collect="always"
       xlink:href="#linearGradient6288"
       id="linearGradient6768"
       gradientUnits="userSpaceOnUse"
       gradientTransform="translate(-2428.4674,-608.90056)"
       x1="-1588.0897"
       y1="749.22992"
       x2="-1664.6733"
       y2="918.88086" />
    <inkscape:perspective
       sodipodi:type="inkscape:persp3d"
       inkscape:vp_x="0 : 526.18109 : 1"
       inkscape:vp_y="0 : 1000 : 0"
       inkscape:vp_z="744.09448 : 526.18109 : 1"
       inkscape:persp3d-origin="372.04724 : 350.78739 : 1"
       id="perspective20640" />
    <inkscape:perspective
       id="perspective2457"
       inkscape:persp3d-origin="60 : 14 : 1"
       inkscape:vp_z="120 : 21 : 1"
       inkscape:vp_y="0 : 1000 : 0"
       inkscape:vp_x="0 : 21 : 1"
       sodipodi:type="inkscape:persp3d" />
    <inkscape:perspective
       sodipodi:type="inkscape:persp3d"
       inkscape:vp_x="0 : 21 : 1"
       inkscape:vp_y="0 : 1000 : 0"
       inkscape:vp_z="120 : 21 : 1"
       inkscape:persp3d-origin="60 : 14 : 1"
       id="perspective38983" />
    <inkscape:perspective
       id="perspective22068"
       inkscape:persp3d-origin="372.04724 : 350.78739 : 1"
       inkscape:vp_z="744.09448 : 526.18109 : 1"
       inkscape:vp_y="0 : 1000 : 0"
       inkscape:vp_x="0 : 526.18109 : 1"
       sodipodi:type="inkscape:persp3d" />
    <linearGradient
       inkscape:collect="always"
       xlink:href="#linearGradient6288"
       id="linearGradient4294"
       gradientUnits="userSpaceOnUse"
       gradientTransform="matrix(0.9999724,-7.4244406e-3,7.4244406e-3,0.9999724,1984.6428,-382.49451)"
       x1="-1578.8463"
       y1="750.07733"
       x2="-1662.8076"
       y2="932.7063" />
    <linearGradient
       inkscape:collect="always"
       xlink:href="#linearGradient6288"
       id="linearGradient4297"
       gradientUnits="userSpaceOnUse"
       gradientTransform="matrix(0.9999724,-7.4244406e-3,7.4244406e-3,0.9999724,1984.6428,-382.49451)"
       x1="-1588.0897"
       y1="749.22992"
       x2="-1664.6733"
       y2="918.88086" />
    <linearGradient
       inkscape:collect="always"
       xlink:href="#linearGradient6288"
       id="linearGradient4353"
       gradientUnits="userSpaceOnUse"
       x1="522.18475"
       y1="492.16702"
       x2="221.55882"
       y2="510.24921" />
  </defs>
  <sodipodi:namedview
     id="base"
     pagecolor="#ffffff"
     bordercolor="#666666"
     borderopacity="1.0"
     inkscape:pageopacity="0.0"
     inkscape:pageshadow="2"
     inkscape:zoom="1"
     inkscape:cx="646.13246"
     inkscape:cy="509.73467"
     inkscape:document-units="px"
     inkscape:current-layer="layer1"
     showgrid="false"
     inkscape:window-width="1910"
     inkscape:window-height="999"
     inkscape:window-x="0"
     inkscape:window-y="25" />
  <metadata
     id="metadata20637">
    <rdf:RDF>
      <cc:Work
         rdf:about="">
        <dc:format>image/svg+xml</dc:format>
        <dc:type
           rdf:resource="http://purl.org/dc/dcmitype/StillImage" />
      </cc:Work>
    </rdf:RDF>
  </metadata>
  <g
     inkscape:label="Ebene 1"
     inkscape:groupmode="layer"
     id="layer1">
    <g
       id="g3302"
       inkscape:label="Ebene 1"
       transform="translate(25.770808,43.735378)">
      <flowRoot
         transform="matrix(0.3357359,0,0,0.3357359,341.56403,429.79393)"
         style="font-size:40px;font-style:normal;font-weight:normal;fill:#000000;fill-opacity:1;stroke:none;stroke-width:1px;stroke-linecap:butt;stroke-linejoin:miter;stroke-opacity:1;font-family:Bitstream Vera Sans"
         id="flowRoot15342"
         xml:space="preserve"><flowRegion
           id="flowRegion15344"><rect
             y="689.50507"
             x="338.57144"
             height="91.428574"
             width="290"
             id="rect15346" /></flowRegion><flowPara
           id="flowPara15348">by enigmatic</flowPara></flowRoot>      <flowRoot
         transform="matrix(0.3357359,0,0,0.3357359,341.03393,447.30925)"
         style="font-size:23.82825279px;font-style:normal;font-weight:normal;fill:#000000;fill-opacity:1;stroke:none;stroke-width:1px;stroke-linecap:butt;stroke-linejoin:miter;stroke-opacity:1;font-family:Bitstream Vera Sans"
         id="flowRoot21123"
         xml:space="preserve"><flowRegion
           id="flowRegion21125"><rect
             style="font-size:23.82825279px"
             y="689.50507"
             x="338.57144"
             height="193.72675"
             width="742.82013"
             id="rect21127" /></flowRegion><flowPara
           id="flowPara38883">released under</flowPara><flowPara
           id="flowPara2451">creative commons</flowPara><flowPara
           id="flowPara21131">cc by v3.0</flowPara></flowRoot>      <g
         transform="matrix(0.6885364,0,0,0.6885364,455.68287,628.81639)"
         inkscape:label="Layer 1"
         id="g38986">
        <g
           transform="matrix(0.9937728,0,0,0.9936696,-177.69267,6.25128e-7)"
           id="g260"
           inkscape:export-filename="/mnt/hgfs/Bov/Documents/Work/2007/cc/identity/srr buttons/big/by.png"
           inkscape:export-xdpi="300.23013"
           inkscape:export-ydpi="300.23013">
          <path
             id="path3817_1_"
             nodetypes="ccccccc"
             d="M 181.96579,0.51074 L 296.02975,0.71338 C 297.6235,0.71338 299.04733,0.47705 299.04733,3.89404 L 298.90768,41.46093 L 179.08737,41.46093 L 179.08737,3.75439 C 179.08737,2.06934 179.25046,0.51074 181.96579,0.51074 z"
             style="fill:#aab2ab" />
          <path
             d="M 297.29636,0 L 181.06736,0 C 179.82078,0 178.80613,1.01416 178.80613,2.26074 L 178.80613,41.75732 C 178.80613,42.03906 179.03513,42.26757 179.31687,42.26757 L 299.04734,42.26757 C 299.32908,42.26757 299.55808,42.03905 299.55808,41.75732 L 299.55808,2.26074 C 299.55807,1.01416 298.54343,0 297.29636,0 z M 181.06735,1.02148 L 297.29635,1.02148 C 297.98043,1.02148 298.53658,1.57714 298.53658,2.26074 C 298.53658,2.26074 298.53658,18.20898 298.53658,29.71045 L 215.19234,29.71045 C 212.14742,35.21631 206.28121,38.95459 199.54879,38.95459 C 192.81344,38.95459 186.94869,35.21973 183.90524,29.71045 L 179.8276,29.71045 C 179.8276,18.20899 179.8276,2.26074 179.8276,2.26074 C 179.82761,1.57715 180.38376,1.02148 181.06735,1.02148 z"
             id="path263" />
          <g
             enable-background="new    "
             id="g265">
            <path
               d="M 253.07761,32.95605 C 253.39499,32.95605 253.68503,32.98437 253.94773,33.04003 C 254.20945,33.09569 254.43308,33.18749 254.62058,33.31542 C 254.8071,33.44237 254.95261,33.6123 255.05515,33.82323 C 255.15769,34.03514 255.20945,34.29589 255.20945,34.60741 C 255.20945,34.94335 255.13328,35.22264 254.97996,35.44628 C 254.82762,35.67089 254.60105,35.85351 254.30223,35.99706 C 254.71434,36.11522 255.02196,36.32226 255.22508,36.61815 C 255.4282,36.91404 255.52977,37.27049 255.52977,37.68749 C 255.52977,38.02343 255.46434,38.31444 255.33348,38.56054 C 255.20262,38.80566 255.02586,39.00683 254.80516,39.1621 C 254.58348,39.31835 254.33055,39.43358 254.04735,39.5078 C 253.76317,39.583 253.47215,39.6201 253.17235,39.6201 L 249.936,39.6201 L 249.936,32.95604 L 253.07761,32.95604 L 253.07761,32.95605 z M 252.89011,35.65137 C 253.15183,35.65137 253.36667,35.58887 253.53562,35.46485 C 253.70359,35.34083 253.78757,35.13965 253.78757,34.86036 C 253.78757,34.70509 253.75925,34.57716 253.70359,34.47852 C 253.64695,34.37891 253.57273,34.30176 253.47898,34.24512 C 253.38523,34.18946 253.27781,34.15039 253.15671,34.12891 C 253.03561,34.10743 252.90866,34.09668 252.77878,34.09668 L 251.40476,34.09668 L 251.40476,35.65137 L 252.89011,35.65137 z M 252.97604,38.47949 C 253.11959,38.47949 253.25631,38.46582 253.38717,38.4375 C 253.51803,38.40918 253.63326,38.3623 253.73385,38.29785 C 253.83346,38.23242 253.91256,38.14355 253.97213,38.03125 C 254.0317,37.91992 254.061,37.77637 254.061,37.60254 C 254.061,37.26074 253.96432,37.0166 253.77096,36.87012 C 253.5776,36.72461 253.32174,36.65137 253.00436,36.65137 L 251.40475,36.65137 L 251.40475,38.47949 L 252.97604,38.47949 z"
               id="path267"
               style="fill:#ffffff" />
            <path
               d="M 255.78854,32.95605 L 257.43209,32.95605 L 258.99264,35.58789 L 260.54342,32.95605 L 262.17721,32.95605 L 259.70358,37.0625 L 259.70358,39.62012 L 258.23483,39.62012 L 258.23483,37.02539 L 255.78854,32.95605 z"
               id="path269"
               style="fill:#ffffff" />
          </g>
          <g
             id="g5908_1_"
             transform="matrix(0.872921,0,0,0.872921,50.12536,143.2144)">
            <path
               id="path5906_1_"
               cx="296.35416"
               ry="22.939548"
               cy="264.3577"
               type="arc"
               rx="22.939548"
               d="M 186.90065,-141.46002 C 186.90623,-132.77923 179.87279,-125.73852 171.19257,-125.73291 C 162.51235,-125.72736 155.47051,-132.76025 155.46547,-141.44098 C 155.46547,-141.44714 155.46547,-141.45331 155.46547,-141.46002 C 155.46043,-150.14081 162.49333,-157.18152 171.17355,-157.18658 C 179.8549,-157.19213 186.89561,-150.15924 186.90065,-141.47845 C 186.90065,-141.4729 186.90065,-141.46619 186.90065,-141.46002 z"
               style="fill:#ffffff" />
            <g
               id="g5706_1_"
               transform="translate(-289.6157,99.0653)">
              <path
                 id="path5708_1_"
                 d="M 473.57574,-253.32751 C 477.06115,-249.8421 478.80413,-245.5736 478.80413,-240.52532 C 478.80413,-235.47594 477.09136,-231.25329 473.66582,-227.85741 C 470.03051,-224.28081 465.734,-222.49309 460.77635,-222.49309 C 455.87858,-222.49309 451.65648,-224.26628 448.11122,-227.81261 C 444.56541,-231.35845 442.79277,-235.59563 442.79277,-240.52532 C 442.79277,-245.45391 444.56541,-249.7213 448.11122,-253.32751 C 451.56642,-256.81402 455.7885,-258.557 460.77635,-258.557 C 465.82465,-258.55701 470.09039,-256.81403 473.57574,-253.32751 z M 450.45776,-250.98267 C 447.51104,-248.00629 446.03823,-244.51978 446.03823,-240.52033 C 446.03823,-236.52198 447.49651,-233.06507 450.41247,-230.14966 C 453.32897,-227.23316 456.80096,-225.77545 460.82952,-225.77545 C 464.85808,-225.77545 468.35967,-227.24768 471.33605,-230.19385 C 474.16198,-232.9303 475.57549,-236.37091 475.57549,-240.52033 C 475.57549,-244.63837 474.13903,-248.13379 471.26781,-251.00501 C 468.39714,-253.87568 464.9179,-255.31159 460.82952,-255.31159 C 456.74112,-255.31158 453.28314,-253.86841 450.45776,-250.98267 z M 458.21225,-242.27948 C 457.76196,-243.26117 457.08795,-243.75232 456.18903,-243.75232 C 454.59986,-243.75232 453.80558,-242.68225 453.80558,-240.54321 C 453.80558,-238.40368 454.59986,-237.33471 456.18903,-237.33471 C 457.23841,-237.33471 457.98795,-237.85546 458.43769,-238.89922 L 460.64045,-237.72625 C 459.59052,-235.86077 458.01536,-234.92779 455.91496,-234.92779 C 454.29506,-234.92779 452.99733,-235.42449 452.0229,-236.4168 C 451.0468,-237.41021 450.56016,-238.77953 450.56016,-240.52532 C 450.56016,-242.24035 451.06245,-243.60186 452.06764,-244.61034 C 453.07283,-245.61888 454.32466,-246.12291 455.82545,-246.12291 C 458.04557,-246.12291 459.63526,-245.24803 460.59626,-243.50005 L 458.21225,-242.27948 z M 468.57562,-242.27948 C 468.12475,-243.26117 467.46417,-243.75232 466.5932,-243.75232 C 464.97217,-243.75232 464.16107,-242.68225 464.16107,-240.54321 C 464.16107,-238.40368 464.97217,-237.33471 466.5932,-237.33471 C 467.64429,-237.33471 468.38037,-237.85546 468.80048,-238.89922 L 471.05249,-237.72625 C 470.00421,-235.86077 468.43127,-234.92779 466.33478,-234.92779 C 464.7171,-234.92779 463.42218,-235.42449 462.44831,-236.4168 C 461.47614,-237.41021 460.98896,-238.77953 460.98896,-240.52532 C 460.98896,-242.24035 461.48341,-243.60186 462.47181,-244.61034 C 463.45966,-245.61888 464.71711,-246.12291 466.24531,-246.12291 C 468.4615,-246.12291 470.04896,-245.24803 471.0066,-243.50005 L 468.57562,-242.27948 z" />
            </g>
          </g>
          <g
             id="g275">
            <circle
               cx="255.55124"
               cy="15.31348"
               r="10.80664"
               id="circle277"
               sodipodi:cx="255.55124"
               sodipodi:cy="15.31348"
               sodipodi:rx="10.80664"
               sodipodi:ry="10.80664"
               style="fill:#ffffff" />
            <g
               id="g279">
              <path
                 d="M 258.67819,12.18701 C 258.67819,11.77051 258.3403,11.4331 257.92526,11.4331 L 253.15182,11.4331 C 252.73678,11.4331 252.39889,11.7705 252.39889,12.18701 L 252.39889,16.95996 L 253.72994,16.95996 L 253.72994,22.61182 L 257.34713,22.61182 L 257.34713,16.95996 L 258.67818,16.95996 L 258.67818,12.18701 L 258.67819,12.18701 z"
                 id="path281" />
              <circle
                 cx="255.53854"
                 cy="9.1723604"
                 r="1.63281"
                 id="circle283"
                 sodipodi:cx="255.53854"
                 sodipodi:cy="9.1723604"
                 sodipodi:rx="1.63281"
                 sodipodi:ry="1.63281" />
            </g>
            <path
               clip-rule="evenodd"
               d="M 255.5239,3.40723 C 252.29148,3.40723 249.55515,4.53516 247.31589,6.79102 C 245.01804,9.12452 243.8696,11.88672 243.8696,15.07569 C 243.8696,18.26466 245.01804,21.00733 247.31589,23.30225 C 249.61374,25.59668 252.35007,26.74414 255.5239,26.74414 C 258.73679,26.74414 261.52195,25.58789 263.87742,23.27295 C 266.09715,21.07568 267.2075,18.34326 267.2075,15.07568 C 267.2075,11.8081 266.07762,9.04687 263.8198,6.79101 C 261.56003,4.53516 258.79538,3.40723 255.5239,3.40723 z M 255.55319,5.50684 C 258.20163,5.50684 260.45065,6.44092 262.30026,8.30811 C 264.1694,10.15528 265.10397,12.41114 265.10397,15.07569 C 265.10397,17.75928 264.18893,19.98633 262.35885,21.75587 C 260.43014,23.66212 258.16256,24.61476 255.55319,24.61476 C 252.94284,24.61476 250.69381,23.67189 248.80612,21.78517 C 246.91647,19.89845 245.97311,17.66212 245.97311,15.0757 C 245.97311,12.48879 246.92721,10.23341 248.83541,8.30812 C 250.6655,6.44092 252.90475,5.50684 255.55319,5.50684 z"
               id="path285"
               style="fill-rule:evenodd" />
          </g>
        </g>
      </g>
    </g>
    <g
       id="g2491">
      <g
         id="g4307">
        <path
           style="fill:url(#linearGradient4353);fill-opacity:1;fill-rule:evenodd;stroke:url(#linearGradient4297);stroke-width:11.48600006000000029;stroke-linecap:butt;stroke-linejoin:miter;marker-start:none;stroke-miterlimit:4;stroke-dasharray:68.91599735000001203, 11.48599955999999978;stroke-dashoffset:0;stroke-opacity:1"
           d="M 287.54312,591.29536 C 262.32123,575.25458 259.25242,524.04242 201.53253,507.50172 C 277.75672,491.53954 388.14082,385.3852 402.26239,353.58274 C 423.44558,393.60072 479.02812,462.17251 530.24836,488.0099 C 487.00143,503.53403 343.69917,588.46766 357.28175,591.19004"
           id="path6726"
           sodipodi:nodetypes="ccccc" />
        <path
           style="fill:url(#linearGradient4294);fill-opacity:1;fill-rule:evenodd;stroke:none;stroke-width:11.48567581;stroke-linecap:butt;stroke-linejoin:miter;marker-start:none;stroke-miterlimit:4;stroke-dasharray:68.91405048, 11.48567509;stroke-dashoffset:0;stroke-opacity:1"
           d="M 290.85366,586.80407 C 266.84775,571.53661 264.21547,524.44849 210.36449,506.21115 C 282.91399,491.01849 387.81411,393.14331 402.18994,363.61068 C 422.35188,401.69943 474.48224,463.06722 523.23316,487.65902 C 482.07123,502.43475 345.67736,583.27382 358.60505,585.86492"
           id="path6728"
           sodipodi:nodetypes="ccccc" />
        <path
           style="fill:#4d4d4d;fill-opacity:1;fill-rule:evenodd;stroke:none;stroke-width:11.48567581;stroke-linecap:butt;stroke-linejoin:miter;marker-start:none;stroke-miterlimit:4;stroke-dasharray:68.91405048, 11.48567509;stroke-dashoffset:0;stroke-opacity:1"
           d="M 300.70988,579.86022 C 278.83448,565.94765 276.17284,521.53018 226.11105,507.18407 C 292.22198,493.33975 387.81243,404.15072 400.91249,377.23904 C 419.28508,411.9475 466.78908,467.86908 511.21348,490.27841 C 473.70451,503.74283 349.41521,577.40764 361.19567,579.76884"
           id="path6730"
           sodipodi:nodetypes="ccccc" />
        <path
           sodipodi:type="spiral"
           style="fill:none;fill-rule:evenodd;stroke:#000000;stroke-width:10;stroke-linecap:round;stroke-linejoin:miter;stroke-miterlimit:4;stroke-dasharray:none;stroke-opacity:1"
           id="path6732"
           sodipodi:cx="-1841.7922"
           sodipodi:cy="591.63794"
           sodipodi:expansion="1"
           sodipodi:revolution="1.5091813"
           sodipodi:radius="36.584259"
           sodipodi:argument="-18.750643"
           sodipodi:t0="0"
           d="M -1841.7922,591.63794 C -1838.1638,591.99801 -1840.4875,596.70661 -1842.3907,597.6686 C -1847.5483,600.27552 -1852.83,595.26102 -1853.8536,590.44101 C -1855.6845,581.81915 -1848.1342,574.44628 -1839.9968,573.54596 C -1828.0549,572.22471 -1818.3439,582.59957 -1817.6696,594.0318 C -1816.7708,609.26916 -1830.0625,621.3829 -1844.7846,621.79124 C -1863.3107,622.30509 -1877.8538,606.05725 -1877.9762,588.04715 C -1877.981,587.34191 -1877.9651,586.63653 -1877.9288,585.93221"
           transform="matrix(1.081431,-0.4011848,0.4011848,1.081431,2159.5443,-915.98438)" />
        <g
           id="g6734"
           transform="matrix(0.9060636,0.3613978,-0.3613978,0.9060636,2150.5334,295.01905)"
           style="fill:#e6e6e6">
          <rect
             transform="matrix(-0.8757396,-0.4827838,-0.4829096,0.8756702,0,0)"
             ry="1.7665977"
             rx="18.5219"
             y="1537.923"
             x="959.76172"
             height="22.774298"
             width="22.778187"
             id="rect6736"
             style="opacity:1;fill:#cccccc;fill-opacity:1;stroke:#000000;stroke-width:1.87299991;stroke-miterlimit:4;stroke-dasharray:none;stroke-dashoffset:0;stroke-opacity:1" />
          <rect
             transform="matrix(-0.9767069,-0.2145779,-0.2147181,0.9766761,0,0)"
             ry="1.766597"
             rx="18.5219"
             y="1137.0887"
             x="1322.7458"
             height="22.774286"
             width="22.778185"
             id="rect6738"
             style="opacity:1;fill:#cccccc;fill-opacity:1;stroke:#000000;stroke-width:1.87299991;stroke-miterlimit:4;stroke-dasharray:none;stroke-dashoffset:0;stroke-opacity:1" />
          <rect
             transform="matrix(-0.8757396,-0.4827838,-0.4829096,0.8756702,0,0)"
             ry="1.7665974"
             rx="18.5219"
             y="1515.5879"
             x="944.86554"
             height="22.774292"
             width="22.778185"
             id="rect6740"
             style="opacity:1;fill:#cccccc;fill-opacity:1;stroke:#000000;stroke-width:1.87299991;stroke-miterlimit:4;stroke-dasharray:none;stroke-dashoffset:0;stroke-opacity:1" />
          <rect
             transform="matrix(-0.8757396,-0.4827838,-0.4829096,0.8756702,0,0)"
             ry="1.7665977"
             rx="18.5219"
             y="1538.5865"
             x="985.13239"
             height="22.774298"
             width="22.778187"
             id="rect6742"
             style="opacity:1;fill:#cccccc;fill-opacity:1;stroke:#000000;stroke-width:1.87299991;stroke-miterlimit:4;stroke-dasharray:none;stroke-dashoffset:0;stroke-opacity:1" />
          <rect
             transform="matrix(-0.8757396,-0.4827838,-0.4829096,0.8756702,0,0)"
             ry="1.7665973"
             rx="18.5219"
             y="1491.7417"
             x="939.51782"
             height="22.77429"
             width="22.778185"
             id="rect6744"
             style="opacity:1;fill:#cccccc;fill-opacity:1;stroke:#000000;stroke-width:1.87299991;stroke-miterlimit:4;stroke-dasharray:none;stroke-dashoffset:0;stroke-opacity:1" />
          <rect
             transform="matrix(-0.8757396,-0.4827838,-0.4829096,0.8756702,0,0)"
             ry="1.7665977"
             rx="18.5219"
             y="1537.9703"
             x="1010.2406"
             height="22.774298"
             width="22.778187"
             id="rect6746"
             style="opacity:1;fill:#cccccc;fill-opacity:1;stroke:#000000;stroke-width:1.87299991;stroke-miterlimit:4;stroke-dasharray:none;stroke-dashoffset:0;stroke-opacity:1" />
          <rect
             transform="matrix(-0.8757396,-0.4827838,-0.4829096,0.8756702,0,0)"
             ry="1.7665972"
             rx="18.5219"
             y="1515.8278"
             x="1023.853"
             height="22.774288"
             width="22.778185"
             id="rect6748"
             style="opacity:1;fill:#cccccc;fill-opacity:1;stroke:#000000;stroke-width:1.87299991;stroke-miterlimit:4;stroke-dasharray:none;stroke-dashoffset:0;stroke-opacity:1" />
          <rect
             transform="matrix(-0.8757396,-0.4827838,-0.4829096,0.8756702,0,0)"
             ry="1.7665972"
             rx="18.5219"
             y="1492.6298"
             x="1029.5348"
             height="22.774288"
             width="22.778185"
             id="rect6750"
             style="opacity:1;fill:#cccccc;fill-opacity:1;stroke:#000000;stroke-width:1.87299991;stroke-miterlimit:4;stroke-dasharray:none;stroke-dashoffset:0;stroke-opacity:1" />
          <rect
             inkscape:transform-center-x="1.1048543"
             transform="matrix(-0.847359,-0.5310204,-0.5311422,0.8472827,0,0)"
             ry="1.7665973"
             rx="18.5219"
             y="1525.127"
             x="943.73608"
             height="22.77429"
             width="22.778185"
             id="rect6752"
             style="opacity:1;fill:#cccccc;fill-opacity:1;stroke:#000000;stroke-width:1.87300003;stroke-miterlimit:4;stroke-dasharray:none;stroke-dashoffset:0;stroke-opacity:1" />
          <rect
             transform="matrix(-0.8757396,-0.4827838,-0.4829096,0.8756702,0,0)"
             ry="1.7665977"
             rx="18.5219"
             y="1562.8785"
             x="998.59125"
             height="22.774298"
             width="22.778187"
             id="rect6754"
             style="opacity:1;fill:#cccccc;fill-opacity:1;stroke:#000000;stroke-width:1.87299991;stroke-miterlimit:4;stroke-dasharray:none;stroke-dashoffset:0;stroke-opacity:1" />
          <rect
             transform="matrix(-0.8757396,-0.4827838,-0.4829096,0.8756702,0,0)"
             ry="1.7665977"
             rx="18.5219"
             y="1562.4232"
             x="971.69916"
             height="22.774298"
             width="22.778187"
             id="rect6756"
             style="opacity:1;fill:#cccccc;fill-opacity:1;stroke:#000000;stroke-width:1.87299991;stroke-miterlimit:4;stroke-dasharray:none;stroke-dashoffset:0;stroke-opacity:1" />
          <rect
             transform="matrix(-0.7839127,-0.620871,-0.6209837,0.7838235,0,0)"
             ry="1.7665969"
             rx="18.521902"
             y="1729.3425"
             x="697.00159"
             height="22.774296"
             width="22.778193"
             id="rect6758"
             style="opacity:1;fill:#cccccc;fill-opacity:1;stroke:#000000;stroke-width:1.87300003;stroke-miterlimit:4;stroke-dasharray:none;stroke-dashoffset:0;stroke-opacity:1" />
          <rect
             transform="matrix(-0.7474145,-0.664358,-0.6644652,0.7473192,0,0)"
             ry="1.7665976"
             rx="18.5219"
             y="1773.9095"
             x="622.89343"
             height="22.774302"
             width="22.778193"
             id="rect6760"
             style="opacity:1;fill:#cccccc;fill-opacity:1;stroke:#000000;stroke-width:1.87299991;stroke-miterlimit:4;stroke-dasharray:none;stroke-dashoffset:0;stroke-opacity:1" />
          <rect
             transform="matrix(-0.6616868,-0.7497803,-0.7498753,0.6615792,0,0)"
             ry="1.7665977"
             rx="18.521902"
             y="1854.1626"
             x="374.98444"
             height="22.774303"
             width="22.778193"
             id="rect6762"
             style="opacity:1;fill:#cccccc;fill-opacity:1;stroke:#000000;stroke-width:1.87300003;stroke-miterlimit:4;stroke-dasharray:none;stroke-dashoffset:0;stroke-opacity:1" />
          <rect
             transform="matrix(-0.6874343,-0.7262466,-0.7263451,0.6873302,0,0)"
             ry="1.7665972"
             rx="18.521898"
             y="1846.7836"
             x="465.34448"
             height="22.774298"
             width="22.778189"
             id="rect6764"
             style="opacity:1;fill:#cccccc;fill-opacity:1;stroke:#000000;stroke-width:1.87299991;stroke-miterlimit:4;stroke-dasharray:none;stroke-dashoffset:0;stroke-opacity:1" />
        </g>
        <path
           style="fill:#444444;fill-opacity:1;fill-rule:evenodd;stroke:none;stroke-width:1px;stroke-linecap:butt;stroke-linejoin:miter;stroke-opacity:1"
           d="M 284.04678,595.80182 C 307.73707,596.25132 324.41744,595.37792 355.78406,596.63845 C 356.71987,596.86505 361.85435,593.43589 361.53969,592.21579 C 359.03378,584.27768 359.78341,586.08372 356.48358,585.90262 C 337.11725,585.0285 314.05486,587.64679 287.86876,584.44501 C 281.66354,585.07053 282.21197,591.28213 284.04678,595.80182 z"
           id="path6766"
           sodipodi:nodetypes="cccccc" />
        <rect
           transform="matrix(-0.6345586,-0.7728747,-0.7729659,0.6344476,0,0)"
           ry="1.014572"
           rx="10.637283"
           y="30.371572"
           x="-627.13953"
           height="13.079472"
           width="13.081702"
           id="rect6820"
           style="fill:#ececec;fill-opacity:1;stroke:none;stroke-width:1.87299991;stroke-miterlimit:4;stroke-dasharray:none;stroke-dashoffset:0;stroke-opacity:1" />
        <rect
           transform="matrix(-0.6345586,-0.7728747,-0.7729659,0.6344476,0,0)"
           ry="1.014572"
           rx="10.637283"
           y="29.577139"
           x="-602.58899"
           height="13.079472"
           width="13.081703"
           id="rect6822"
           style="fill:#ececec;fill-opacity:1;stroke:none;stroke-width:1.87299991;stroke-miterlimit:4;stroke-dasharray:none;stroke-dashoffset:0;stroke-opacity:1" />
        <rect
           transform="matrix(-0.6345586,-0.7728747,-0.7729659,0.6344476,0,0)"
           ry="1.014572"
           rx="10.637283"
           y="8.212636"
           x="-589.02234"
           height="13.079472"
           width="13.081703"
           id="rect6824"
           style="fill:#ececec;fill-opacity:1;stroke:none;stroke-width:1.87299991;stroke-miterlimit:4;stroke-dasharray:none;stroke-dashoffset:0;stroke-opacity:1" />
        <rect
           transform="matrix(-0.6345586,-0.7728747,-0.7729659,0.6344476,0,0)"
           ry="1.014572"
           rx="10.637283"
           y="-14.451915"
           x="-584.13123"
           height="13.079472"
           width="13.081703"
           id="rect6826"
           style="fill:#ececec;fill-opacity:1;stroke:none;stroke-width:1.87299991;stroke-miterlimit:4;stroke-dasharray:none;stroke-dashoffset:0;stroke-opacity:1" />
        <rect
           transform="matrix(-0.6345586,-0.7728747,-0.7729659,0.6344476,0,0)"
           ry="1.014572"
           rx="10.637283"
           y="-37.129894"
           x="-584.79456"
           height="13.079472"
           width="13.081703"
           id="rect6828"
           style="fill:#ececec;fill-opacity:1;stroke:none;stroke-width:1.87299991;stroke-miterlimit:4;stroke-dasharray:none;stroke-dashoffset:0;stroke-opacity:1" />
        <rect
           transform="matrix(-0.8373556,-0.5466586,-0.5467789,0.837277,0,0)"
           ry="1.014572"
           rx="10.637282"
           y="162.2399"
           x="-648.12555"
           height="13.079472"
           width="13.081704"
           id="rect6830"
           style="fill:#ececec;fill-opacity:1;stroke:none;stroke-width:1.87299991;stroke-miterlimit:4;stroke-dasharray:none;stroke-dashoffset:0;stroke-opacity:1" />
        <rect
           transform="matrix(-0.6345586,-0.7728747,-0.7729659,0.6344476,0,0)"
           ry="1.014572"
           rx="10.637283"
           y="-15.084971"
           x="-671.61902"
           height="13.079472"
           width="13.081703"
           id="rect6832"
           style="fill:#ececec;fill-opacity:1;stroke:none;stroke-width:1.87299991;stroke-miterlimit:4;stroke-dasharray:none;stroke-dashoffset:0;stroke-opacity:1" />
        <rect
           transform="matrix(-0.6345586,-0.7728747,-0.7729659,0.6344476,0,0)"
           ry="1.014572"
           rx="10.637283"
           y="8.07372"
           x="-666.40857"
           height="13.079472"
           width="13.081703"
           id="rect6834"
           style="fill:#ececec;fill-opacity:1;stroke:none;stroke-width:1.87299991;stroke-miterlimit:4;stroke-dasharray:none;stroke-dashoffset:0;stroke-opacity:1" />
        <rect
           transform="matrix(-0.6345586,-0.7728747,-0.7729659,0.6344476,0,0)"
           ry="1.014572"
           rx="10.637283"
           y="29.920645"
           x="-651.86292"
           height="13.079472"
           width="13.081703"
           id="rect6836"
           style="fill:#ececec;fill-opacity:1;stroke:none;stroke-width:1.87299991;stroke-miterlimit:4;stroke-dasharray:none;stroke-dashoffset:0;stroke-opacity:1" />
        <rect
           transform="matrix(-0.6345586,-0.7728747,-0.7729659,0.6344476,0,0)"
           ry="1.014572"
           rx="10.637283"
           y="54.043449"
           x="-613.99329"
           height="13.079472"
           width="13.081703"
           id="rect6838"
           style="fill:#ececec;fill-opacity:1;stroke:none;stroke-width:1.87299991;stroke-miterlimit:4;stroke-dasharray:none;stroke-dashoffset:0;stroke-opacity:1" />
        <rect
           transform="matrix(-0.6345586,-0.7728747,-0.7729659,0.6344476,0,0)"
           ry="1.014572"
           rx="10.637283"
           y="53.510979"
           x="-640.75891"
           height="13.079472"
           width="13.081703"
           id="rect6840"
           style="fill:#ececec;fill-opacity:1;stroke:none;stroke-width:1.87299991;stroke-miterlimit:4;stroke-dasharray:none;stroke-dashoffset:0;stroke-opacity:1" />
        <rect
           transform="matrix(-0.4577609,-0.8890753,-0.8891411,0.4576332,0,0)"
           ry="1.0145719"
           rx="10.637282"
           y="-49.066864"
           x="-615.66589"
           height="13.07947"
           width="13.081704"
           id="rect6842"
           style="fill:#ececec;fill-opacity:1;stroke:none;stroke-width:1.87299991;stroke-miterlimit:4;stroke-dasharray:none;stroke-dashoffset:0;stroke-opacity:1" />
        <rect
           transform="matrix(-0.4681376,-0.8836556,-0.8837228,0.4680106,0,0)"
           ry="1.014572"
           rx="10.637283"
           y="-48.39085"
           x="-641.65393"
           height="13.07947"
           width="13.081705"
           id="rect6844"
           style="fill:#ececec;fill-opacity:1;stroke:none;stroke-width:1.87299991;stroke-miterlimit:4;stroke-dasharray:none;stroke-dashoffset:0;stroke-opacity:1" />
        <rect
           transform="matrix(-0.2392959,-0.9709467,-0.970981,0.2391565,0,0)"
           ry="1.014572"
           rx="10.637283"
           y="-175.17026"
           x="-617.20587"
           height="13.079472"
           width="13.081706"
           id="rect6846"
           style="fill:#ececec;fill-opacity:1;stroke:none;stroke-width:1.87299991;stroke-miterlimit:4;stroke-dasharray:none;stroke-dashoffset:0;stroke-opacity:1" />
        <rect
           transform="matrix(-0.3440762,-0.9389417,-0.9389911,0.3439413,0,0)"
           ry="1.014572"
           rx="10.637283"
           y="-99.795937"
           x="-607.54272"
           height="13.079469"
           width="13.081705"
           id="rect6848"
           style="fill:#ececec;fill-opacity:1;stroke:none;stroke-width:1.87299991;stroke-miterlimit:4;stroke-dasharray:none;stroke-dashoffset:0;stroke-opacity:1" />
        <path
           style="fill:#d9d9d9;fill-opacity:1;fill-rule:evenodd;stroke:none;stroke-width:1px;stroke-linecap:butt;stroke-linejoin:miter;stroke-opacity:1"
           d="M 524.5181,484.99318 C 524.16119,485.46417 522.9898,486.42653 522.18969,487.06131 C 521.32199,486.57909 520.55562,486.23506 519.7881,485.85839 C 519.38562,485.66087 519.95679,484.67192 520.11865,484.34223 C 520.38197,483.80554 520.75921,483.45854 521.57688,483.45247 C 522.82113,483.72302 523.40819,484.36279 524.5181,484.99318 z"
           id="path6850"
           sodipodi:nodetypes="cccscc" />
        <path
           style="fill:none;fill-rule:evenodd;stroke:#ffffff;stroke-width:0.1;stroke-linecap:butt;stroke-linejoin:miter;stroke-miterlimit:4;stroke-dasharray:none;stroke-opacity:1"
           d="M 401.87972,340.88017 C 401.87972,340.9289 401.87972,341.05152 401.87972,341.13429 C 401.87972,341.14902 401.87972,341.16375 401.87972,341.17849"
           id="path7893" />
        <path
           style="fill:none;fill-rule:evenodd;stroke:#ffffff;stroke-width:0.1;stroke-linecap:butt;stroke-linejoin:miter;stroke-miterlimit:4;stroke-dasharray:none;stroke-opacity:1"
           d="M 544.11452,488.8598 C 544.16324,488.86049 544.28585,488.86224 544.36861,488.86342 C 544.38334,488.86363 544.39807,488.86383 544.4128,488.86404"
           id="path7895" />
        <path
           style="fill:none;fill-rule:evenodd;stroke:#808080;stroke-width:0.1;stroke-linecap:butt;stroke-linejoin:miter;stroke-miterlimit:4;stroke-dasharray:none;stroke-opacity:1"
           d="M 179.63276,506.6946 C 179.68148,506.69529 179.80409,506.69704 179.88685,506.69822 C 179.90158,506.69843 179.91631,506.69863 179.93104,506.69884"
           id="path7897" />
      </g>
      <path
         style="fill:#333333;fill-opacity:1;fill-rule:evenodd;stroke:none;stroke-width:1px;stroke-linecap:butt;stroke-linejoin:miter;stroke-opacity:1"
         d="M 282.68732,599.61793 C 306.13238,600.02139 322.64008,599.23745 353.68201,600.36887 C 354.60813,600.57226 359.68946,597.49433 359.37806,596.39919 C 361.39809,592.39914 365.76496,590.7702 361.37429,590.35765 C 342.20842,589.57306 312.38477,592.29817 286.46974,589.42433 C 270.95375,585.36078 280.8715,595.56116 282.68732,599.61793 z"
         id="path2489"
         sodipodi:nodetypes="cccccc" />
    </g>
  </g>
</svg>
