<?xml version="1.0" encoding="UTF-8" standalone="no"?>
<!-- Created with Inkscape (http://www.inkscape.org/) -->
<svg
   xmlns:dc="http://purl.org/dc/elements/1.1/"
   xmlns:cc="http://creativecommons.org/ns#"
   xmlns:rdf="http://www.w3.org/1999/02/22-rdf-syntax-ns#"
   xmlns:svg="http://www.w3.org/2000/svg"
   xmlns="http://www.w3.org/2000/svg"
   xmlns:xlink="http://www.w3.org/1999/xlink"
   xmlns:sodipodi="http://sodipodi.sourceforge.net/DTD/sodipodi-0.dtd"
   xmlns:inkscape="http://www.inkscape.org/namespaces/inkscape"
   width="210mm"
   height="297mm"
   id="svg20632"
   sodipodi:version="0.32"
   inkscape:version="0.46"
   sodipodi:docname="FLF_logo.svg"
   inkscape:output_extension="org.inkscape.output.svg.inkscape"
   inkscape:export-filename="/home/brutkasten/Dokumente/naev/FLF_logo.png"
   inkscape:export-xdpi="90"
   inkscape:export-ydpi="90">
  <defs
     id="defs20634">
    <filter
       id="filter15966"
       inkscape:collect="always">
      <feGaussianBlur
         id="feGaussianBlur15968"
         stdDeviation="1.8708548"
         inkscape:collect="always" />
    </filter>
    <filter
       id="filter15646"
       inkscape:collect="always">
      <feGaussianBlur
         id="feGaussianBlur15648"
         stdDeviation="2.8062822"
         inkscape:collect="always" />
    </filter>
    <filter
       height="2.7400067"
       y="-0.87000337"
       width="1.2427341"
       x="-0.12136706"
       id="filter15740"
       inkscape:collect="always">
      <feGaussianBlur
         id="feGaussianBlur15742"
         stdDeviation="4.4678318"
         inkscape:collect="always" />
    </filter>
    <filter
       height="1.3946332"
       y="-0.19731662"
       width="1.446426"
       x="-0.22321299"
       id="filter15690"
       inkscape:collect="always">
      <feGaussianBlur
         id="feGaussianBlur15692"
         stdDeviation="5.6510621"
         inkscape:collect="always" />
    </filter>
    <filter
       height="1.5392518"
       y="-0.26962588"
       width="1.3821931"
       x="-0.19109657"
       id="filter15894"
       inkscape:collect="always">
      <feGaussianBlur
         id="feGaussianBlur15896"
         stdDeviation="3.6839064"
         inkscape:collect="always" />
    </filter>
    <filter
       height="1.0611113"
       y="-0.030555644"
       width="5.877134"
       x="-2.438567"
       id="filter17020"
       inkscape:collect="always">
      <feGaussianBlur
         id="feGaussianBlur17022"
         stdDeviation="2.2496797"
         inkscape:collect="always" />
    </filter>
    <filter
       id="filter16956"
       inkscape:collect="always">
      <feGaussianBlur
         id="feGaussianBlur16958"
         stdDeviation="3.2798"
         inkscape:collect="always" />
    </filter>
    <filter
       height="1.0944433"
       y="-0.04722167"
       width="1.2360605"
       x="-0.11803024"
       id="filter17110"
       inkscape:collect="always">
      <feGaussianBlur
         id="feGaussianBlur17112"
         stdDeviation="2.8453748"
         inkscape:collect="always" />
    </filter>
    <filter
       height="1.1663563"
       y="-0.08317817"
       width="2.1645157"
       x="-0.58225784"
       id="filter17240"
       inkscape:collect="always">
      <feGaussianBlur
         id="feGaussianBlur17242"
         stdDeviation="2.4260743"
         inkscape:collect="always" />
    </filter>
    <filter
       inkscape:collect="always"
       id="filter19714">
      <feGaussianBlur
         inkscape:collect="always"
         stdDeviation="1.6959337"
         id="feGaussianBlur19716" />
    </filter>
    <filter
       inkscape:collect="always"
       id="filter19800"
       x="-0.18297445"
       width="1.3659489"
       y="-0.052555485"
       height="1.105111">
      <feGaussianBlur
         inkscape:collect="always"
         stdDeviation="4.207695"
         id="feGaussianBlur19802" />
    </filter>
    <filter
       inkscape:collect="always"
       id="filter20618"
       x="-0.55950814"
       width="2.1190163"
       y="-0.57685122"
       height="2.1537024">
      <feGaussianBlur
         inkscape:collect="always"
         stdDeviation="1.080527"
         id="feGaussianBlur20620" />
    </filter>
    <inkscape:perspective
       sodipodi:type="inkscape:persp3d"
       inkscape:vp_x="0 : 526.18109 : 1"
       inkscape:vp_y="0 : 1000 : 0"
       inkscape:vp_z="744.09448 : 526.18109 : 1"
       inkscape:persp3d-origin="372.04724 : 350.78739 : 1"
       id="perspective20640" />
  </defs>
  <sodipodi:namedview
     id="base"
     pagecolor="#ffffff"
     bordercolor="#666666"
     borderopacity="1.0"
     inkscape:pageopacity="0.0"
     inkscape:pageshadow="2"
     inkscape:zoom="0.49497475"
     inkscape:cx="269.72601"
     inkscape:cy="511.0021"
     inkscape:document-units="px"
     inkscape:current-layer="layer1"
     showgrid="false"
     inkscape:window-width="1920"
     inkscape:window-height="1003"
     inkscape:window-x="0"
     inkscape:window-y="25" />
  <metadata
     id="metadata20637">
    <rdf:RDF>
      <cc:Work
         rdf:about="">
        <dc:format>image/svg+xml</dc:format>
        <dc:type
           rdf:resource="http://purl.org/dc/dcmitype/StillImage" />
      </cc:Work>
    </rdf:RDF>
  </metadata>
  <g
     inkscape:label="Ebene 1"
     inkscape:groupmode="layer"
     id="layer1">
    <path
       sodipodi:nodetypes="ccccssssssssssssssssssssssssssscssssssssssssssssssssssssssssscc"
       id="path16750"
       d="M 463.61401,319.29648 C 462.17921,322.02968 460.72251,324.92558 459.24701,327.96918 C 457.88591,330.77718 456.50891,333.71088 455.11851,336.75858 C 453.81361,339.61898 452.49691,342.57988 451.17071,345.63158 C 449.91081,348.53048 448.64221,351.51128 447.36691,354.56558 C 446.14371,357.49498 443.00291,367.05198 441.18011,369.79928 C 440.52351,370.78888 435.13631,363.66108 434.19871,365.07298 C 433.11691,366.70188 436.68551,382.49648 435.51551,385.55808 C 434.37241,388.54918 433.17951,389.53938 432.26211,392.67818 C 431.85331,394.07698 425.73021,387.11508 424.60821,390.17978 C 423.50301,393.19838 427.57761,405.88578 426.47571,408.95108 C 425.38641,411.98138 424.29931,415.03198 423.21541,418.09788 C 422.14041,421.13868 416.52291,413.33538 415.45531,416.40148 C 414.39321,419.45198 417.88101,433.37168 416.82831,436.43758 C 415.77771,439.49768 414.73241,442.56308 413.69331,445.62918 C 412.65341,448.69748 406.79841,441.23068 405.77221,444.29558 C 404.74191,447.37268 408.54031,460.98138 407.52581,464.04548 C 406.50431,467.13048 405.49141,470.20648 404.48811,473.26858 C 403.47451,476.36228 402.47071,479.44178 401.47781,482.50198 C 400.47131,485.60418 399.47601,488.68658 398.49321,491.74388 C 397.49321,494.85448 396.50611,497.93918 395.53301,500.99228 C 394.53871,504.11218 393.55901,507.19928 392.59531,510.24738 C 391.60571,513.37778 390.63291,516.46718 389.67841,519.50918 C 388.69251,522.65138 387.72611,525.74298 386.78071,528.77698 C 385.79711,531.93368 384.83641,535.02788 383.90011,538.05188 C 382.91751,541.22568 381.96201,544.32198 381.03541,547.33158 C 380.05161,550.52768 379.10041,553.62598 378.18451,556.61568 C 377.19591,559.84258 376.24831,562.94278 375.34471,565.90248 C 374.34521,569.17648 373.39961,572.27858 372.51201,575.19008 C 371.48771,578.54958 370.54081,581.65528 369.67741,584.47838 C 368.58761,588.04158 367.63101,591.15448 366.82031,593.75928 C 365.04031,599.47838 363.96361,602.74758 363.72511,602.95418 C 363.45911,602.97588 362.24021,599.64028 360.24461,593.63338 C 359.36111,590.97378 358.32521,587.79038 357.15241,584.14288 C 356.22381,581.25488 355.20931,578.07578 354.11661,574.63528 C 353.16951,571.65348 352.16371,568.47538 351.10401,565.12008 C 350.14621,562.08748 349.14441,558.91018 348.10231,555.60248 C 347.13671,552.53748 346.13651,549.36048 345.10451,546.08278 C 344.13261,542.99578 343.13251,539.81948 342.10681,536.56328 C 341.12921,533.46008 340.12831,530.28438 339.10611,527.04418 C 338.12331,523.92888 337.12091,520.75408 336.10071,517.52698 C 335.11281,514.40218 334.10821,511.22838 333.08871,508.01218 C 332.09571,504.87968 331.08851,501.70698 330.06871,498.50008 C 329.07031,495.36088 328.05991,492.18898 327.03881,488.99008 C 326.03501,485.84538 325.02091,482.67448 323.99791,479.48298 C 322.98851,476.33398 321.97051,473.16478 320.94511,469.98068 C 319.92981,466.82798 318.90741,463.66058 317.87911,460.48378 C 316.85721,457.32688 315.82961,454.16058 314.79741,450.98978 C 313.76891,447.83028 312.73591,444.66638 311.69961,441.50298 C 310.66361,438.34028 309.62441,435.17808 308.58331,432.02138 C 307.53931,428.85628 306.49341,425.69658 305.44681,422.54728 C 304.39391,419.37898 303.34031,416.22128 302.28721,413.07908 C 301.22471,409.90858 300.16281,406.75388 299.10271,403.62028 C 298.02941,400.44728 296.95811,397.29588 295.89011,394.17138 C 294.80441,390.99518 293.72221,387.84688 292.64501,384.73198 C 291.54561,381.55318 290.45141,378.40928 289.36381,375.30628 C 288.24851,372.12428 287.14031,368.98528 286.04081,365.89588 C 284.90681,362.70968 283.78211,359.57628 282.66851,356.50248 C 281.51221,353.31118 280.36791,350.18418 279.23761,347.12958 C 278.05431,343.93178 276.88621,340.81328 275.73591,337.78318 C 274.51851,334.57658 273.32091,331.46898 272.14581,328.47118 C 270.88351,325.25098 261.81861,299.42898 260.61181,296.47558 C 325.63071,297.05668 409.46901,294.84658 474.47311,297.07308"
       style="fill:#b3b3b3;fill-rule:evenodd;stroke:none;stroke-width:1px;stroke-linecap:butt;stroke-linejoin:miter;stroke-opacity:1" />
    <path
       transform="matrix(1.637472,0,0,1.637472,-1104.2222,-2054.2512)"
       sodipodi:nodetypes="cccc"
       id="path16692"
       d="M 833.63839,1437.1518 C 835.83647,1439.7882 837.88669,1442.5442 840.01315,1445.2382 C 846.0743,1453.0837 852.09813,1460.9582 858.14109,1468.8177 C 867.87731,1481.5853 877.57295,1494.3838 887.21359,1507.2237 C 890.2574,1511.281 893.28181,1515.3527 896.29464,1519.4331 C 900.24755,1514.6666 904.09731,1509.8156 907.99044,1505.0004 C 924.19331,1484.7504 940.37065,1464.4799 956.55724,1444.2169 C 958.38958,1441.9186 960.23098,1439.6275 962.07589,1437.3393 C 942.79264,1437.2683 923.5094,1437.1857 904.22607,1437.1431 C 884.67451,1437.1227 865.12288,1437.0581 845.57134,1437.1034 C 841.59369,1437.1195 837.61604,1437.1357 833.63839,1437.1518 z"
       style="opacity:1;fill:#666666;fill-rule:evenodd;stroke:none;stroke-width:1px;stroke-linecap:butt;stroke-linejoin:miter;stroke-opacity:1;filter:url(#filter15966)" />
    <path
       sodipodi:nodetypes="cccc"
       id="path16694"
       d="M 364.79381,421.64318 C 367.93081,418.31768 455.59491,308.09468 456.76681,306.87688 C 453.71841,306.88178 325.76841,306.28318 277.17481,306.59308 C 278.92571,308.31498 336.73641,383.50828 364.79381,421.64318 z"
       style="fill:#c8ab37;fill-rule:evenodd;stroke:none;stroke-width:2.5999999;stroke-linecap:butt;stroke-linejoin:miter;stroke-miterlimit:4;stroke-dasharray:none;stroke-opacity:1" />
    <path
       transform="matrix(1.2615537,0,0,1.2615537,-766.69374,-1502.9323)"
       sodipodi:nodetypes="cccc"
       id="path16696"
       d="M 833.63839,1437.1518 C 835.83647,1439.7882 837.88669,1442.5442 840.01315,1445.2382 C 846.0743,1453.0837 852.09813,1460.9582 858.14109,1468.8177 C 867.87731,1481.5853 877.57295,1494.3838 887.21359,1507.2237 C 890.2574,1511.281 893.28181,1515.3527 896.29464,1519.4331 C 900.24755,1514.6666 904.09731,1509.8156 907.99044,1505.0004 C 924.19331,1484.7504 940.37065,1464.4799 956.55724,1444.2169 C 958.38958,1441.9186 960.23098,1439.6275 962.07589,1437.3393 C 942.79264,1437.2683 923.5094,1437.1857 904.22607,1437.1431 C 884.67451,1437.1227 865.12288,1437.0581 845.57134,1437.1034 C 841.59369,1437.1195 837.61604,1437.1357 833.63839,1437.1518 z"
       style="opacity:0.88323352;fill:#ffcc00;fill-rule:evenodd;stroke:none;stroke-width:1px;stroke-linecap:butt;stroke-linejoin:miter;stroke-opacity:1;filter:url(#filter15646)" />
    <path
       transform="matrix(0.6633304,0,0,0.992883,-264.45691,-1119.3786)"
       id="path16698"
       d="M 850.53571,1449.1479 C 850.65476,1449.1479 850.77381,1449.1479 850.89286,1449.1479 C 854.35762,1449.1479 857.73895,1451.2907 861.42857,1451.2907 C 865.55077,1451.2907 869.35823,1450.5765 873.39286,1450.5765 C 877.84761,1450.5765 882.19023,1452.3622 886.78571,1452.3622 C 892.4473,1452.3622 898.03259,1450.9336 903.75,1450.9336 C 906.25327,1450.9336 908.74978,1451.6479 911.42857,1451.6479 C 914.56895,1451.6479 917.54366,1450.3979 920.71428,1450.3979 C 922.71129,1450.3979 924.72354,1450.9336 926.78571,1450.9336 C 929.06894,1450.9336 930.51649,1450.9528 932.14286,1449.3265 C 933.26766,1448.2017 934.06901,1447.0241 935.17857,1446.4693 C 936.15611,1445.9805 936.73045,1445.2746 937.5,1444.505 C 938.41535,1443.5897 939.11893,1443.4572 938.39286,1442.005 C 937.32276,1439.8648 930.76138,1440.0407 929.10714,1440.0407 C 921.67299,1440.0407 915.3156,1441.548 908.03571,1442.5407 C 902.32919,1443.3189 899.66962,1444.6456 894.10714,1443.255 C 890.32927,1442.3106 886.22207,1442.5407 882.32143,1442.5407 C 879.29616,1442.5407 876.11428,1442.3179 873.21428,1442.8979 C 871.18598,1443.3035 869.06063,1443.255 866.96428,1443.255 C 864.71408,1443.255 862.49379,1442.7193 860.17857,1442.7193 C 858.56645,1442.7193 857.05954,1442.2253 855.71428,1442.8979 C 854.76864,1443.3707 853.78326,1443.7575 853.21428,1444.3265 C 852.38582,1445.1549 851.91497,1444.5237 851.60714,1445.755 C 851.34851,1446.7896 850.73913,1447.0842 850.53571,1447.8979 C 850.34572,1448.6579 850.22043,1447.5715 850.53571,1449.1479 z"
       style="opacity:0.7994012;fill:#ff6600;fill-rule:evenodd;stroke:none;stroke-width:1px;stroke-linecap:butt;stroke-linejoin:miter;stroke-opacity:1;filter:url(#filter15740)" />
    <path
       transform="matrix(1.3979757,0,0,1.3979757,-889.15764,-1702.7272)"
       id="path16700"
       d="M 847.67857,1440.5765 C 849.18574,1440.5519 852.10612,1441.0049 854.10714,1441.2908 C 855.57842,1441.5009 856.69324,1442.1823 858.03572,1442.7193 C 859.82577,1443.4353 862.25084,1445.1487 863.57143,1446.4693 C 865.29086,1448.1888 867.58211,1450.012 868.21429,1452.5408 C 868.81781,1454.9548 873.25029,1457.5411 874.82143,1459.505 C 877.21177,1462.493 879.69725,1465.1495 881.42857,1468.6122 C 882.62853,1471.0121 882.49543,1473.9022 883.92857,1476.2908 C 885.19507,1478.4016 888.17657,1477.8602 889.64286,1479.3265 C 891.41492,1481.0985 891.22475,1484.276 892.32143,1486.4693 C 893.43719,1488.7008 894.54618,1491.1247 895.53572,1493.4336 C 896.47656,1495.6289 898.07953,1497.4947 899.28572,1499.505 C 900.4571,1501.4573 899.98975,1503.7497 900.53572,1505.9336 C 900.59524,1506.1717 900.65476,1506.4098 900.71429,1506.6479 C 901.10411,1508.2072 900.72285,1507.9404 899.46429,1508.255 C 898.30849,1508.544 896.93844,1508.191 896.07143,1507.5408 C 895.07146,1506.7908 892.3967,1506.0417 891.25,1505.755 C 889.47628,1505.3116 888.80984,1500.8158 888.39286,1499.1479 C 887.78218,1496.7052 887.52999,1492.3772 885,1491.1122 C 883.03516,1490.1298 881.166,1488.9 879.10714,1488.0765 C 877.51849,1487.441 876.32419,1487.5453 875.35714,1485.9336 C 873.96385,1483.6115 873.41452,1480.7839 871.78572,1478.6122 C 870.80237,1477.3011 869.32922,1476.6588 867.85714,1476.2908 C 865.29013,1475.649 864.10587,1473.0739 863.03572,1470.9336 C 862.13,1469.1222 861.76958,1467.1567 860.71429,1465.3979 C 860.29486,1464.6988 859.57553,1463.902 858.92857,1463.255 C 858.28779,1462.6143 857.62589,1461.5425 857.32143,1460.9336 C 857.06646,1460.4237 855.11023,1459.8109 854.46429,1459.3265 C 853.5215,1458.6194 853.21631,1457.7234 852.67857,1456.6479 C 852.13481,1455.5604 851.42304,1454.494 850.89286,1453.4336 C 850.26621,1452.1803 849.86772,1451.0576 848.75,1450.2193 C 847.81607,1449.5189 847.05589,1447.1929 846.78572,1446.1122 C 846.54064,1445.1319 845.96566,1444.4391 845.71429,1443.4336 C 845.42792,1442.2881 845.03567,1441.6479 843.75,1441.6479 C 842.85194,1441.6479 841.8648,1441.3105 841.07143,1441.1122 C 839.88777,1440.8163 840.07247,1440.108 840.17857,1439.6836 C 840.21324,1439.5449 843.88237,1439.6836 844.28572,1439.6836 C 845.81046,1439.6836 846.44085,1439.5863 847.67857,1440.5765 z"
       style="opacity:0.84730542;fill:#d45500;fill-rule:evenodd;stroke:none;stroke-width:1px;stroke-linecap:butt;stroke-linejoin:miter;stroke-opacity:1;filter:url(#filter15690)" />
    <path
       id="path16702"
       d="M 311.63721,312.53658 C 313.66481,312.53658 321.40371,312.53658 325.95031,312.53658 C 328.16801,312.53658 330.01531,312.93408 332.31171,312.93408 C 334.82981,312.93408 337.34781,312.93408 339.86591,312.93408 C 343.17491,312.93408 345.59571,311.88228 344.63691,315.71718 C 343.99131,318.30008 344.34671,321.14438 343.84181,323.66898 C 343.42531,325.75128 343.92981,328.08778 343.44421,330.03038 C 342.93041,332.08538 343.44421,335.05878 343.44421,337.18688 C 343.44421,339.61898 343.59541,342.14798 343.04661,344.34348 C 342.47841,346.61608 343.04661,349.91948 343.04661,352.29528 C 343.04661,354.94578 343.04661,357.59638 343.04661,360.24688 C 343.04661,362.36748 343.04661,364.48778 343.04661,366.60838 C 343.04661,368.92198 342.64901,369.99698 342.64901,372.17458 C 342.64901,372.88398 337.73871,372.57208 337.08281,372.57208 C 334.27121,372.57208 335.09491,370.02878 335.09491,367.40358 C 335.09491,364.88548 335.09491,362.36748 335.09491,359.84938 C 335.09491,357.46378 335.09491,355.07838 335.09491,352.69278 C 335.09491,350.34098 335.13251,348.11038 334.69731,345.93378 C 334.24271,343.66128 334.58011,341.72378 333.90211,340.36768 C 333.60621,339.77588 325.33361,340.36768 324.36001,340.36768 C 322.02391,340.36768 319.97581,340.36218 318.39621,339.57248 C 317.46241,339.10558 317.99861,333.91508 317.99861,332.81348 C 317.99861,330.56048 322.50461,332.81348 324.75761,332.81348 C 326.87811,332.81348 328.99851,332.81348 331.11901,332.81348 C 333.22451,332.81348 332.31171,327.03548 332.31171,324.86168 C 332.31171,322.96258 332.23851,320.59308 331.91421,319.29548 C 331.82811,318.95128 324.67441,319.29548 323.56481,319.29548 C 321.33231,319.29548 319.50841,319.69308 317.20341,319.69308 C 315.21551,319.69308 313.22751,319.69308 311.23961,319.69308 C 309.27431,319.69308 310.04691,316.68868 310.04691,314.92198 C 310.04691,313.96638 311.10711,313.33168 311.63721,312.53658 z"
       style="fill:#000000;fill-rule:evenodd;stroke:#000000;stroke-width:1.11324346px;stroke-linecap:butt;stroke-linejoin:miter;stroke-opacity:1" />
    <path
       transform="matrix(1.3979757,0,0,1.3979757,-889.15764,-1702.7272)"
       id="path16704"
       d="M 947.5,1446.2907 C 945.93721,1444.0301 942.28411,1442.3082 938.92857,1441.4693 C 934.74016,1440.4222 930.38052,1440.755 926.07143,1440.755 C 923.7782,1440.755 921.43315,1440.755 919.10714,1440.755 C 917.08613,1440.755 915.78602,1440.7458 914.10714,1442.005 C 912.25631,1443.3931 911.46098,1445.7226 909.82143,1447.3621 C 908.38735,1448.7962 906.34025,1449.4373 904.82143,1450.5764 C 903.20928,1451.7855 901.42857,1452.313 901.42857,1454.505 C 901.42857,1458.5011 902.01347,1460.2685 904.82143,1463.0764 C 906.38288,1464.6379 908.39981,1465.913 910.17857,1467.1836 C 911.36344,1468.0299 911.63117,1469.669 912.5,1470.755 C 913.83371,1472.4221 916.2002,1472.9747 918.03572,1473.4336 C 920.13073,1473.9573 922.98328,1471.0469 924.46429,1469.8621 C 926.08942,1468.562 928.3844,1466.1121 930.35714,1466.1121 C 934.45332,1466.1121 936.2657,1461.0651 937.32143,1457.8979 C 937.78727,1456.5003 939.34715,1453.9093 940.53572,1453.6121 C 941.57119,1453.3533 941.97744,1453.427 942.67857,1453.0764 C 943.55834,1452.6365 944.17118,1452.3301 944.82143,1452.005 C 945.81993,1451.5058 946.23651,1451.1391 946.78572,1450.0407 C 947.2219,1449.1684 947.48756,1447.9476 947.67857,1447.1836 C 947.75219,1446.8891 947.55953,1446.5883 947.5,1446.2907 z"
       style="fill:#ffe680;fill-rule:evenodd;stroke:none;stroke-width:1px;stroke-linecap:butt;stroke-linejoin:miter;stroke-opacity:1;filter:url(#filter15894)" />
    <path
       id="path16708"
       d="M 353.53161,312.14238 C 353.53161,313.69918 353.53161,317.04518 353.53161,319.36598 C 353.53161,321.90218 353.28181,324.50408 353.28181,327.07108 C 353.28181,329.63258 353.03201,332.32648 353.03201,335.01688 C 353.03201,337.82598 353.03201,340.63518 353.03201,343.44448 C 353.03201,346.20138 352.78221,349.05818 352.78221,351.87188 C 352.78221,354.14788 352.84451,356.68788 352.28251,358.85458 C 351.83581,360.57688 352.28251,363.09938 352.28251,364.87418 C 352.28251,367.20168 352.28251,369.52928 352.28251,371.85688 C 352.28251,374.02408 352.28251,376.19108 352.28251,378.35818 C 352.28251,379.64218 352.28251,380.92638 352.28251,382.21058 C 352.28251,383.57678 352.40731,384.61818 352.78221,385.34078 C 353.00581,385.77188 356.14371,385.10008 356.52941,385.10008 C 358.19491,385.10008 359.86031,385.10008 361.52581,385.10008 C 363.52431,385.10008 365.52291,385.10008 367.52141,385.10008 C 369.39571,385.10008 371.17101,385.34078 373.01741,385.34078 C 374.73771,385.34078 376.45311,385.52158 378.01371,385.82238 C 379.45221,386.09958 381.28451,385.82238 382.76031,385.82238 C 384.22511,385.82238 385.80511,385.69068 386.25771,385.58148 C 386.38921,385.54998 386.25771,381.83188 386.25771,381.48828 C 386.25771,380.02078 385.83651,379.14178 385.50821,377.87648 C 385.24031,376.84338 381.29541,377.15408 380.01231,377.15408 C 378.09701,377.15408 376.18171,377.15408 374.26651,377.15408 C 372.85081,377.15408 371.43521,377.15408 370.01961,377.15408 C 368.75211,377.15408 367.35271,376.91338 366.02251,376.91338 C 364.69011,376.91338 363.35781,376.91338 362.02541,376.91338 C 361.02831,376.91338 361.52581,372.42018 361.52581,371.37528 C 361.52581,369.20818 361.52581,367.04118 361.52581,364.87418 C 361.52581,363.25838 361.77561,361.93668 361.77561,360.29928 C 361.77561,358.85458 361.77561,357.40978 361.77561,355.96518 C 361.77561,354.27468 361.52581,352.27068 361.52581,350.42718 C 361.52581,348.50078 361.52581,346.57448 361.52581,344.64838 C 361.52581,342.88248 361.52581,341.11678 361.52581,339.35098 C 361.52581,337.65318 361.27591,335.83148 361.27591,334.05378 C 361.27591,331.80648 361.27591,329.55918 361.27591,327.31178 C 361.27591,325.22508 361.27591,323.13828 361.27591,321.05148 C 361.27591,319.28558 361.27591,317.51998 361.27591,315.75418 C 361.27591,314.60408 361.23001,313.16908 361.02611,312.38328 C 360.79471,311.49108 358.06881,312.18278 357.02911,312.38328 C 355.98201,312.58508 354.52071,312.33308 353.53161,312.14238 z"
       style="fill:#000000;fill-rule:evenodd;stroke:#000000;stroke-width:1.37345147px;stroke-linecap:butt;stroke-linejoin:miter;stroke-opacity:0.9719623" />
    <path
       sodipodi:nodetypes="cc"
       id="path16748"
       d="M 363.70271,422.30878 C 363.70271,596.13278 364.42981,597.52338 364.42981,597.52338"
       style="fill:#4d4d4d;fill-rule:evenodd;stroke:#666666;stroke-width:1.48699999;stroke-linecap:round;stroke-linejoin:miter;stroke-miterlimit:4;stroke-dasharray:none;stroke-opacity:1;filter:url(#filter17020)" />
    <path
       sodipodi:nodetypes="cccc"
       id="path16710"
       d="M 364.43641,421.24818 C 367.57331,417.92268 455.23741,307.69978 456.40931,306.48198 C 453.36101,306.48688 325.41091,305.88828 276.81731,306.19818 C 278.56821,307.92008 336.37891,383.11338 364.43641,421.24818 z"
       style="fill:none;fill-rule:evenodd;stroke:#000000;stroke-width:3.63473678;stroke-linecap:butt;stroke-linejoin:miter;stroke-miterlimit:4;stroke-dasharray:none;stroke-opacity:1" />
    <path
       id="path16712"
       d="M 419.61021,312.56818 C 417.58261,312.56818 409.84371,312.56818 405.29711,312.56818 C 403.07941,312.56818 401.23211,312.96568 398.93571,312.96568 C 396.41761,312.96568 393.89961,312.96568 391.38151,312.96568 C 388.07251,312.96568 385.65171,311.91388 386.61051,315.74878 C 387.25611,318.33168 386.90071,321.17598 387.40561,323.70058 C 387.82211,325.78288 387.31761,328.11938 387.80321,330.06198 C 388.31701,332.11698 387.80321,335.09038 387.80321,337.21848 C 387.80321,339.65058 387.65201,342.17958 388.20081,344.37508 C 388.76901,346.64768 388.20081,349.95108 388.20081,352.32688 C 388.20081,354.97738 388.20081,357.62798 388.20081,360.27848 C 388.20081,362.39908 388.20081,364.51938 388.20081,366.63998 C 388.20081,368.95358 388.59841,370.02858 388.59841,372.20618 C 388.59841,372.91558 393.50871,372.60368 394.16461,372.60368 C 396.97621,372.60368 396.15251,370.06038 396.15251,367.43518 C 396.15251,364.91708 396.15251,362.39908 396.15251,359.88098 C 396.15251,357.49538 396.15251,355.10998 396.15251,352.72438 C 396.15251,350.37258 396.11491,348.14198 396.55011,345.96538 C 397.00471,343.69288 396.66731,341.75538 397.34531,340.39928 C 397.64121,339.80748 405.91381,340.39928 406.88741,340.39928 C 409.22351,340.39928 411.27161,340.39378 412.85121,339.60408 C 413.78501,339.13718 413.24881,333.94668 413.24881,332.84508 C 413.24881,330.59208 408.74281,332.84508 406.48981,332.84508 C 404.36931,332.84508 402.24891,332.84508 400.12841,332.84508 C 398.02291,332.84508 398.93571,327.06708 398.93571,324.89328 C 398.93571,322.99418 399.00891,320.62468 399.33321,319.32708 C 399.41931,318.98288 406.57301,319.32708 407.68261,319.32708 C 409.91511,319.32708 411.73901,319.72468 414.04401,319.72468 C 416.03191,319.72468 418.01991,319.72468 420.00781,319.72468 C 421.97311,319.72468 421.20051,316.72028 421.20051,314.95358 C 421.20051,313.99798 420.14031,313.36328 419.61021,312.56818 z"
       style="fill:#000000;fill-rule:evenodd;stroke:#000000;stroke-width:1.11324346px;stroke-linecap:butt;stroke-linejoin:miter;stroke-opacity:1" />
    <path
       id="path16762"
       d="M 278.11041,342.11508 C 283.74991,344.40758 293.17121,354.14548 299.32361,360.29778 C 303.19491,364.16918 305.96831,369.54648 308.41501,374.43998 C 311.09811,379.80628 313.54901,385.71808 316.49621,391.61258 C 320.20741,399.03498 322.52501,406.04858 327.60791,412.82578 C 331.70201,418.28448 333.91041,423.41038 336.69931,428.98818 C 339.56291,434.71558 340.24831,440.15378 341.75001,446.16078 C 343.26731,452.22988 347.34871,455.42368 348.82111,461.31308 C 350.07261,466.31918 353.69811,473.08738 355.89221,477.47548 C 357.49361,480.67848 356.90231,488.97378 356.90231,492.62778 C 356.90231,498.18028 356.67261,503.83068 357.91251,508.79028 C 359.07721,513.44898 357.91251,520.15308 357.91251,524.95268 C 357.91251,530.34018 357.91251,535.72768 357.91251,541.11508 C 357.91251,546.50258 357.91251,551.89008 357.91251,557.27758 C 357.91251,559.13738 352.32751,541.53288 350.84141,537.07448 C 348.74571,530.78748 346.24671,524.75668 344.78051,518.89178 C 343.31521,513.03068 338.84631,508.09688 336.69931,502.72928 C 334.46501,497.14378 335.37131,490.98208 332.65861,485.55678 C 330.18051,480.60038 330.15021,475.48908 327.60791,470.40448 C 325.42401,466.03658 323.88691,460.57128 322.55711,455.25218 C 321.18851,449.77778 318.74541,445.60838 316.49621,441.10998 C 313.64851,435.41458 311.94631,429.98128 310.43531,423.93738 C 309.04081,418.35948 306.53871,413.40198 305.38451,408.78518 C 303.89941,402.84468 299.72071,398.25188 298.31351,392.62268 C 296.72561,386.27118 293.83891,382.80558 292.25251,376.46028 C 290.75091,370.45358 289.87891,368.68258 287.20181,363.32828 C 285.05811,359.04098 284.24191,353.50888 283.16121,349.18618 C 282.72901,347.45728 278.89861,343.42868 278.11041,342.11508 z"
       style="fill:#cccccc;fill-rule:evenodd;stroke:none;stroke-width:1px;stroke-linecap:butt;stroke-linejoin:miter;stroke-opacity:1;filter:url(#filter16956)" />
    <path
       id="path17024"
       d="M 292.28051,360.88658 C 295.39341,363.09808 302.95411,370.00928 304.42341,375.88658 C 305.44521,379.97368 307.01371,383.38788 309.42341,386.60088 C 312.18381,390.28148 314.08751,393.82888 315.13771,398.02938 C 316.21681,402.34598 318.90861,407.71408 320.85201,411.60088 C 322.48841,414.87368 324.16331,419.13198 325.13771,423.02938 C 326.52551,428.58078 330.35871,433.56228 333.70911,438.02938 C 336.90361,442.28878 337.74361,448.17058 340.85201,452.31518 C 343.14641,455.37438 342.99481,459.91238 342.99481,463.74368 C 342.99481,468.06238 343.44221,473.39038 344.42341,477.31518 C 345.81521,482.88238 346.58751,487.72528 348.70911,493.02938 C 350.12041,496.55758 350.13771,499.80118 350.13771,503.74368 C 350.13771,510.33748 344.67141,496.38258 343.70911,494.45798 C 340.94171,488.92308 339.16981,483.95078 336.56621,478.74368 C 334.81481,475.24078 333.02101,470.27708 332.28051,467.31518 C 331.07241,462.48268 331.07641,457.00848 330.13771,452.31518 C 329.38501,448.55148 329.44461,445.27838 328.70911,441.60088 C 327.99371,438.02378 325.84621,433.73228 324.42341,430.88658 C 322.70371,427.44728 322.66401,425.22498 320.85201,421.60088 C 319.21541,418.32778 318.20771,414.88378 316.56621,411.60088 C 315.03541,408.53908 314.38401,405.83408 312.28051,403.02938 C 309.86181,399.80448 308.00621,396.13978 305.13771,392.31518 C 302.46021,388.74508 301.28441,385.32298 299.42341,381.60088 C 297.52861,377.81128 298.50471,372.62068 296.56621,368.74368 C 294.92631,365.46388 294.96121,364.23748 292.28051,360.88658 z"
       style="fill:#f2f2f2;fill-rule:evenodd;stroke:none;stroke-width:1px;stroke-linecap:butt;stroke-linejoin:miter;stroke-opacity:1;filter:url(#filter17110)" />
    <path
       id="path17114"
       d="M 359.42341,573.02938 C 358.52831,571.58068 358.70911,564.02078 358.70911,559.45798 C 358.70911,555.50958 358.88101,551.57418 357.99481,548.02938 C 356.88001,543.57018 355.85201,540.00808 355.85201,535.17228 C 355.85201,531.12468 355.85201,527.07708 355.85201,523.02938 C 355.85201,519.11638 355.18951,514.71708 354.42341,510.88658 C 353.31321,505.33548 352.79811,504.48908 350.85201,503.02938 C 350.66731,502.89098 349.42341,514.01718 349.42341,515.17228 C 349.42341,519.50988 350.13771,522.94908 350.13771,527.31518 C 350.13771,531.05458 350.72001,534.90828 352.28051,538.02938 C 354.44531,542.35908 354.35111,547.59558 355.13771,552.31518 C 355.74861,555.98088 357.10061,559.45278 357.99481,563.02938 C 358.92501,566.75008 357.84851,569.09218 359.42341,573.02938 z"
       style="fill:#f9f9f9;fill-rule:evenodd;stroke:none;stroke-width:1px;stroke-linecap:butt;stroke-linejoin:miter;stroke-opacity:1;filter:url(#filter17240)" />
    <path
       id="path17544"
       d="M 533.17391,527.47808 C 533.17391,527.47808 533.17391,527.47808 533.17391,527.47808 z"
       style="fill:none;fill-rule:evenodd;stroke:#000000;stroke-width:1px;stroke-linecap:butt;stroke-linejoin:miter;stroke-opacity:1" />
    <path
       style="fill:#cccccc;fill-rule:evenodd;stroke:none;stroke-width:1px;stroke-linecap:butt;stroke-linejoin:miter;stroke-opacity:1"
       d="M 364.22591,596.67348 C 372.84161,549.55088 389.18541,504.26818 403.11681,458.53518 C 403.11681,457.27248 403.11681,456.00978 403.11681,454.74708 C 403.11681,453.68188 402.61171,452.81278 402.61171,451.46408 C 402.61171,450.20138 402.61171,448.93868 402.61171,447.67598 C 402.61171,446.41328 402.61171,445.15068 402.61171,443.88798 C 402.61171,442.62528 402.61171,441.36258 402.61171,440.09988 C 402.61171,439.76318 402.61171,439.42648 402.61171,439.08968 C 402.61171,437.47828 402.82191,435.84908 403.62191,435.04908 C 404.12451,434.54648 407.13621,435.17008 407.66251,435.30168 C 408.88961,435.60848 409.66441,436.30718 410.69291,436.56438 C 411.54221,436.77668 411.19801,432.73058 411.19801,431.76608 C 411.19801,430.38418 411.25311,428.95598 410.94551,427.72548 C 410.67021,426.62428 410.94551,425.07928 410.94551,423.93738 C 410.94551,422.40608 410.69291,421.18448 410.69291,419.64428 C 410.69291,418.02768 410.80621,416.30948 410.44041,414.84608 C 410.05691,413.31188 410.44041,411.12208 410.44041,409.54278 C 410.44041,407.97378 410.30001,406.54048 410.94551,405.24958 C 411.24471,404.65108 413.84001,404.99708 414.48101,404.99708 C 416.05301,404.99708 416.96491,404.96598 418.01651,405.75468 C 418.89611,406.41438 419.44841,406.97568 420.54191,407.52248 C 422.27951,408.39128 422.50141,408.92538 422.05711,406.25978 C 421.75661,404.45618 422.05711,402.29688 422.05711,400.45138 C 422.05711,399.16778 421.60581,398.14078 421.29951,396.91588 C 420.97031,395.59878 420.87881,394.22288 420.54191,392.87528 C 420.22421,391.60438 420.28941,390.19228 420.28941,388.83458 C 420.28941,387.70928 420.03681,385.80838 420.03681,384.28898 C 420.03681,383.02628 420.03681,381.76358 420.03681,380.50088 C 420.03681,378.78228 421.57101,378.85458 423.06731,378.48058 C 424.28661,378.17578 425.15741,379.00308 426.09781,379.23818 C 427.17391,379.50718 428.94011,380.95648 429.63331,381.51098 C 430.15991,381.93228 431.51231,383.13748 431.65361,383.27878 C 432.72501,384.35018 431.65361,380.24838 431.65361,378.73308 C 431.65361,377.36628 431.22421,376.51028 430.89601,375.19758 C 430.56341,373.86718 429.65271,372.74958 429.38081,371.66208 C 429.04841,370.33268 428.87571,369.32748 428.87571,367.87398 C 428.87571,366.52708 428.87571,365.18018 428.87571,363.83338 C 428.87571,362.57068 428.87571,361.30798 428.87571,360.04528 C 428.87571,358.72188 428.88791,357.21848 429.12821,356.25718 C 429.44491,354.99068 429.47051,354.23688 431.14851,354.23688 C 432.45591,354.23688 433.56331,353.98438 434.93661,353.98438 C 436.89381,353.98438 436.81391,354.09388 437.96711,355.24708 C 438.79181,356.07178 438.98751,357.02508 439.73481,357.77248 C 440.64781,358.68548 441.05091,359.14188 441.50261,360.04528 C 441.22281,360.60488 442.32281,360.99178 442.76531,361.43428 C 443.14631,361.81528 443.56901,362.07708 444.02801,362.19188 C 444.29911,362.25968 444.15421,363.70048 444.15421,363.95958 C 444.15421,364.60878 443.75581,364.89258 443.52291,365.47488 C 443.50081,365.53008 443.43871,365.55898 443.39661,365.60108 C 443.01331,365.98438 442.67001,366.67558 442.51271,366.99008 C 442.23591,367.54368 441.87991,368.00218 441.50261,368.50528 C 441.10441,369.03618 441.27621,369.52858 440.23991,369.01038 C 439.59271,368.68678 439.11631,368.51168 438.59841,368.25278 C 437.91991,367.91348 437.44711,367.35398 436.95691,366.86378 C 436.57111,366.47798 436.14571,366.43138 435.82051,366.10618 C 435.35341,365.63908 434.99391,365.31408 434.55781,365.09608 C 434.28341,364.95888 434.17901,366.50968 434.17901,366.73758 C 434.17901,367.36888 434.17901,368.00028 434.17901,368.63158 C 434.17901,369.35648 434.30711,369.77528 434.43151,370.27308 C 434.58351,370.88108 434.68821,371.67878 434.81031,372.16708 C 434.97501,372.82568 435.06291,373.16808 435.06291,373.93488 C 435.06291,374.62538 435.18911,374.97088 435.18911,375.70268 C 435.18911,376.33398 435.18911,376.96538 435.18911,377.59668 C 435.18911,378.02288 435.06291,378.75558 435.06291,379.36448 C 435.06291,379.99578 435.06291,380.62718 435.06291,381.25848 C 435.06291,381.88978 435.06291,382.52118 435.06291,383.15248 C 435.06291,383.87538 435.18911,384.19848 435.18911,384.92028 C 435.18911,385.68648 435.32071,386.17238 435.06291,386.68808 C 434.74671,387.32038 434.57301,387.66768 434.30521,388.20328 C 433.98761,388.83868 433.74601,389.26758 433.42141,389.59228 C 433.18571,389.82788 432.82091,390.91948 432.66371,391.23378 C 432.38151,391.79818 432.37111,392.03148 431.90611,392.49648 C 431.48551,392.91708 430.32871,391.77088 430.01211,391.61258 C 429.51901,391.36598 429.12361,391.10278 428.74941,390.72868 C 428.30761,390.28688 427.45421,390.08108 426.98161,389.84478 C 426.55671,389.63228 425.92791,389.58138 425.46641,389.46598 C 424.67281,389.26758 424.48061,389.74728 424.33001,390.34988 C 424.16381,391.01448 424.20371,391.68008 424.20371,392.37018 C 424.20371,393.08328 424.29951,393.63738 424.45631,394.26418 C 424.59771,394.83008 424.71771,395.43608 424.83511,395.90568 C 424.98901,396.52128 425.08761,396.83858 425.08761,397.54718 C 425.08761,398.28608 425.18161,398.80718 425.34011,399.44118 C 425.47301,399.97268 425.60141,400.61258 425.71901,401.08268 C 425.88751,401.75688 425.83431,402.30188 425.97151,402.85048 C 426.12691,403.47218 426.22401,404.07608 426.22401,404.74458 C 426.22401,405.36558 426.60281,405.97298 426.60281,406.63858 C 426.60281,406.76738 426.47661,407.06088 426.47661,407.26988 C 426.47661,408.02528 426.23291,408.62348 426.09781,409.16398 C 425.95921,409.71808 425.85711,410.15038 425.59271,410.67918 C 425.38881,411.08698 425.32141,411.89058 425.21391,412.32068 C 425.02471,413.07718 424.67491,413.77738 424.33001,414.46728 C 424.10681,414.91358 423.96221,415.43348 423.82491,415.98248 C 423.66391,416.62658 423.15301,417.20008 422.94101,417.62398 C 422.67011,418.16588 422.71511,418.70388 421.93091,418.50788 C 421.41671,418.37928 420.99671,417.90218 420.79451,417.49768 C 420.57971,417.06818 419.61901,416.72058 419.15301,416.48758 C 418.67381,416.24798 418.38671,415.98028 417.89031,415.85618 C 417.30131,415.70898 416.80661,415.72998 416.12251,415.72998 C 415.18141,415.72998 415.17961,415.71328 414.98611,416.48758 C 414.83221,417.10318 414.85981,417.72758 414.85981,418.38158 C 414.85981,418.95918 415.36381,419.51378 415.49121,420.02308 C 415.61591,420.52218 415.61741,421.24208 415.61741,421.91708 C 415.61741,422.54848 415.61741,423.17978 415.61741,423.81118 C 415.61741,424.36158 415.74201,425.19348 415.87001,425.70518 C 416.01881,426.30068 415.99621,426.94038 415.99621,427.59928 C 415.99621,428.14408 416.10221,428.78068 416.24881,429.36698 C 416.39601,429.95598 416.37501,430.45068 416.37501,431.13478 C 416.37501,431.73798 416.39831,432.49048 416.50131,432.90258 C 416.63901,433.45318 416.50131,434.22568 416.50131,434.79658 C 416.50131,435.39338 416.62761,436.03078 416.62761,436.69058 C 416.62761,437.19278 416.24921,437.95168 416.12251,438.45838 C 415.98451,439.01038 415.71141,439.65938 415.49121,440.09988 C 415.15851,440.76518 414.90651,441.17568 414.73351,441.86768 C 414.58451,442.46378 414.14111,442.97488 413.97591,443.63538 C 413.84851,444.14498 413.49171,444.56198 413.34461,445.15068 C 413.15151,445.92288 412.62041,445.85348 411.82941,445.65568 C 411.09641,445.47248 410.70921,445.22188 410.06161,444.89808 C 409.49471,444.61468 409.05021,444.39238 408.54641,444.14048 C 408.11351,443.92408 407.01441,443.97848 406.65231,443.88798 C 405.91191,443.70278 405.39471,443.86758 405.26341,444.39298 C 405.12571,444.94368 405.26341,445.71618 405.26341,446.28708 C 405.26341,447.06128 405.45291,447.54998 405.76841,448.18108 C 406.02711,448.69848 406.02101,449.43168 406.02101,449.94888 C 406.02101,450.61738 406.01781,451.19898 406.14721,451.71658 C 406.28561,452.27008 406.39981,452.87598 406.39981,453.48438 C 406.39981,453.97448 406.52611,454.67638 406.52611,455.25218 C 406.52611,455.94258 406.65231,456.28818 406.65231,457.01988 C 406.65231,457.33818 406.82711,457.84518 406.90491,458.15638 C 406.74991,458.77648 407.26501,460.10198 407.40991,460.68168 C 407.57471,461.34078 407.73211,461.46548 407.91501,462.19698 C 408.04811,462.72948 407.87351,463.62588 407.78871,463.96468 C 407.64191,464.55188 407.55681,464.89238 407.40991,465.47998 C 407.27491,466.01998 407.01181,466.69378 406.90491,467.12148 C 406.77271,467.64998 406.56601,468.09828 406.39981,468.76298 C 406.25481,469.34278 406.02811,469.61848 405.89471,470.15188 C 405.72991,470.81128 405.50251,471.34178 405.38961,471.79338 C 405.22271,472.46098 404.89711,472.77848 404.63201,473.30868 C 404.30241,473.96788 404.31631,474.44518 404.00071,475.07638 C 403.65721,475.76348 403.54321,476.14888 403.36931,476.84418 C 403.19651,477.53538 403.03521,478.18068 402.86421,478.86448 C 402.70241,479.51178 402.62611,479.94338 402.48541,480.50598 C 402.33141,481.12228 402.09011,481.80168 401.85411,482.27378 C 401.58831,482.80538 401.39321,483.10698 401.22281,483.78898 C 401.06621,484.41508 400.74061,485.13208 400.46511,485.68298 C 400.17381,486.26558 399.82921,486.82858 399.58131,487.32448 C 399.28931,487.90838 398.99271,488.54238 398.82361,489.21858 C 398.65661,489.88678 398.35121,490.35078 398.19231,490.98628 C 398.02861,491.64108 397.94861,492.21358 397.81351,492.75408 C 397.65091,493.40428 397.44921,493.83238 397.30841,494.39558 C 397.15571,495.00618 396.89331,495.73078 396.67711,496.16338 C 396.39821,496.72108 396.38711,497.24828 396.17201,497.67858 C 395.99271,498.03718 396.08521,498.27828 396.04571,498.43618 C 395.36001,499.80758 395.36251,501.42138 395.03561,502.72928 C 394.76731,503.80238 394.68181,504.95208 394.27801,505.75978 C 393.70921,506.89728 393.47161,508.13008 393.01531,509.04278 C 392.43811,510.19698 392.53941,511.19858 392.25761,512.32578 C 391.98331,513.42298 391.49271,514.10818 390.99501,515.10368 C 390.37981,516.33398 390.06901,517.54498 389.73231,518.89178 C 389.39611,520.23658 389.00291,521.30398 388.72211,522.42728 C 388.38691,523.76808 387.96451,524.59738 387.96451,525.96288 C 387.96451,527.08428 386.99271,528.58718 386.70181,529.75088 C 386.43361,530.82398 385.69111,532.27748 385.18661,533.28648 C 384.63631,534.38698 384.79521,535.33188 384.17641,536.56948 C 383.67021,537.58188 383.39521,539.18918 383.16631,540.10498 C 382.82581,541.46698 382.77121,542.44268 382.40871,543.89308 C 382.06241,545.27818 381.75851,546.24128 381.39851,547.68108 C 381.15401,548.65918 380.58001,550.07578 380.13581,550.96408 C 379.55961,552.11648 379.21481,552.88048 378.87311,554.24708 C 378.51161,555.69338 377.91861,556.80248 377.61041,558.03518 C 377.26521,559.41598 376.67621,560.76188 376.34771,562.07578 C 376.04221,563.29808 376.10461,564.56348 375.84271,565.61128 C 375.58261,566.65148 375.24751,567.81178 374.83251,568.64178 C 374.21101,569.88488 373.65201,570.83848 373.31731,572.17728 C 372.93721,573.69778 372.40911,575.05238 372.05461,576.47048 C 371.69461,577.91038 371.15391,578.81048 370.79191,580.25858 C 370.46561,581.56388 369.76271,582.60768 369.52921,583.54158 C 369.28201,584.53018 369.07321,585.87048 368.77161,587.07708 C 368.40471,588.54478 368.10771,589.48008 367.76141,590.86518 C 367.48611,591.96668 366.98651,593.20738 366.75131,594.14818 C 366.42321,595.46028 366.10641,596.44808 365.48861,597.68368 C 365.04861,598.56368 364.95231,599.82908 364.73101,600.71408 C 364.14791,603.04668 364.22591,599.99348 364.22591,598.94638 C 364.22591,598.18878 364.22591,597.43108 364.22591,596.67348 z"
       id="path19514"
       sodipodi:nodetypes="ccssssssssssssssssssssssssssssssssssssssssscssssssssssssssssssssssssssssssssssssssssssssssssssssssssssssssssssssssssssssssssssscssssssssssssssssssssssscssssssssssssssssssssssssssssssc" />
    <path
       style="fill:#e6e6e6;fill-rule:evenodd;stroke:none;stroke-width:1px;stroke-linecap:butt;stroke-linejoin:miter;stroke-opacity:1;filter:url(#filter19714)"
       d="M 363.39551,594.65958 C 372.01121,547.53698 388.35501,502.25428 402.28641,456.52128 C 402.28641,455.25858 402.28641,453.99588 402.28641,452.73318 C 402.28641,451.66798 401.78131,450.79888 401.78131,449.45018 C 401.78131,448.18748 401.78131,446.92478 401.78131,445.66208 C 401.78131,444.39938 401.78131,443.13678 401.78131,441.87408 C 401.78131,440.61138 401.78131,439.34868 401.78131,438.08598 C 401.78131,437.74928 401.78131,437.41258 401.78131,437.07578 C 401.78131,435.46438 401.99151,433.83518 402.79151,433.03518 C 403.29411,432.53258 406.30581,433.15618 406.83211,433.28778 C 408.05921,433.59458 408.83401,434.29328 409.86251,434.55048 C 410.71181,434.76278 410.36761,430.71668 410.36761,429.75218 C 410.36761,428.37028 410.42271,426.94208 410.11511,425.71158 C 409.83981,424.61038 410.11511,423.06538 410.11511,421.92348 C 410.11511,420.39218 409.86251,419.17058 409.86251,417.63038 C 409.86251,416.01378 409.97581,414.29558 409.61001,412.83218 C 409.22651,411.29798 409.61001,409.10818 409.61001,407.52888 C 409.61001,405.95988 409.46961,404.52658 410.11511,403.23568 C 410.41431,402.63718 413.00961,402.98318 413.65061,402.98318 C 415.22261,402.98318 416.13451,402.95208 417.18611,403.74078 C 418.06571,404.40048 418.61801,404.96178 419.71151,405.50858 C 421.44911,406.37738 421.67101,406.91148 421.22671,404.24588 C 420.92621,402.44228 421.22671,400.28298 421.22671,398.43748 C 421.22671,397.15388 420.77541,396.12688 420.46911,394.90198 C 420.13991,393.58488 420.04841,392.20898 419.71151,390.86138 C 419.39381,389.59048 419.45901,388.17838 419.45901,386.82068 C 419.45901,385.69538 419.20641,383.79448 419.20641,382.27508 C 419.20641,381.01238 419.20641,379.74968 419.20641,378.48698 C 419.20641,376.76838 420.74061,376.84068 422.23691,376.46668 C 423.45621,376.16188 424.32701,376.98918 425.26741,377.22428 C 426.34351,377.49328 428.10971,378.94258 428.80291,379.49708 C 429.32951,379.91838 430.68191,381.12358 430.82321,381.26488 C 431.89461,382.33628 430.82321,378.23448 430.82321,376.71918 C 430.82321,375.35238 430.39381,374.49638 430.06561,373.18368 C 429.73301,371.85328 428.82231,370.73568 428.55041,369.64818 C 428.21801,368.31878 428.04531,367.31358 428.04531,365.86008 C 428.04531,364.51318 428.04531,363.16628 428.04531,361.81948 C 428.04531,360.55678 428.04531,359.29408 428.04531,358.03138 C 428.04531,356.70798 428.05751,355.20458 428.29781,354.24328 C 428.61451,352.97678 428.64011,352.22298 430.31811,352.22298 C 431.62551,352.22298 432.73291,351.97048 434.10621,351.97048 C 436.06341,351.97048 435.98351,352.07998 437.13671,353.23318 C 437.96141,354.05788 438.15711,355.01118 438.90441,355.75858 C 439.81741,356.67158 440.22051,357.12798 440.67221,358.03138 C 440.39241,358.59098 441.49241,358.97788 441.93491,359.42038 C 442.31591,359.80138 442.73861,360.06318 443.19761,360.17798 C 443.46871,360.24578 443.32381,361.68658 443.32381,361.94568 C 443.32381,362.59488 442.92541,362.87868 442.69251,363.46098 C 442.67041,363.51618 442.60831,363.54508 442.56621,363.58718 C 442.18291,363.97048 441.83961,364.66168 441.68231,364.97618 C 441.40551,365.52978 441.04951,365.98828 440.67221,366.49138 C 440.27401,367.02228 440.44581,367.51468 439.40951,366.99648 C 438.76231,366.67288 438.28591,366.49778 437.76801,366.23888 C 437.08951,365.89958 436.61671,365.34008 436.12651,364.84988 C 435.74071,364.46408 435.31531,364.41748 434.99011,364.09228 C 434.52301,363.62518 434.16351,363.30018 433.72741,363.08218 C 433.45301,362.94498 433.34861,364.49578 433.34861,364.72368 C 433.34861,365.35498 433.34861,365.98638 433.34861,366.61768 C 433.34861,367.34258 433.47671,367.76138 433.60111,368.25918 C 433.75311,368.86718 433.85781,369.66488 433.97991,370.15318 C 434.14461,370.81178 434.23251,371.15418 434.23251,371.92098 C 434.23251,372.61148 434.35871,372.95698 434.35871,373.68878 C 434.35871,374.32008 434.35871,374.95148 434.35871,375.58278 C 434.35871,376.00898 434.23251,376.74168 434.23251,377.35058 C 434.23251,377.98188 434.23251,378.61328 434.23251,379.24458 C 434.23251,379.87588 434.23251,380.50728 434.23251,381.13858 C 434.23251,381.86148 434.35871,382.18458 434.35871,382.90638 C 434.35871,383.67258 434.49031,384.15848 434.23251,384.67418 C 433.91631,385.30648 433.74261,385.65378 433.47481,386.18938 C 433.15721,386.82478 432.91561,387.25368 432.59101,387.57838 C 432.35531,387.81398 431.99051,388.90558 431.83331,389.21988 C 431.55111,389.78428 431.54071,390.01758 431.07571,390.48258 C 430.65511,390.90318 429.49831,389.75698 429.18171,389.59868 C 428.68861,389.35208 428.29321,389.08888 427.91901,388.71478 C 427.47721,388.27298 426.62381,388.06718 426.15121,387.83088 C 425.72631,387.61838 425.09751,387.56748 424.63601,387.45208 C 423.84241,387.25368 423.65021,387.73338 423.49961,388.33598 C 423.33341,389.00058 423.37331,389.66618 423.37331,390.35628 C 423.37331,391.06938 423.46911,391.62348 423.62591,392.25028 C 423.76731,392.81618 423.88731,393.42218 424.00471,393.89178 C 424.15861,394.50738 424.25721,394.82468 424.25721,395.53328 C 424.25721,396.27218 424.35121,396.79328 424.50971,397.42728 C 424.64261,397.95878 424.77101,398.59868 424.88861,399.06878 C 425.05711,399.74298 425.00391,400.28798 425.14111,400.83658 C 425.29651,401.45828 425.39361,402.06218 425.39361,402.73068 C 425.39361,403.35168 425.77241,403.95908 425.77241,404.62468 C 425.77241,404.75348 425.64621,405.04698 425.64621,405.25598 C 425.64621,406.01138 425.40251,406.60958 425.26741,407.15008 C 425.12881,407.70418 425.02671,408.13648 424.76231,408.66528 C 424.55841,409.07308 424.49101,409.87668 424.38351,410.30678 C 424.19431,411.06328 423.84451,411.76348 423.49961,412.45338 C 423.27641,412.89968 423.13181,413.41958 422.99451,413.96858 C 422.83351,414.61268 422.32261,415.18618 422.11061,415.61008 C 421.83971,416.15198 421.88471,416.68998 421.10051,416.49398 C 420.58631,416.36538 420.16631,415.88828 419.96411,415.48378 C 419.74931,415.05428 418.78861,414.70668 418.32261,414.47368 C 417.84341,414.23408 417.55631,413.96638 417.05991,413.84228 C 416.47091,413.69508 415.97621,413.71608 415.29211,413.71608 C 414.35101,413.71608 414.34921,413.69938 414.15571,414.47368 C 414.00181,415.08928 414.02941,415.71368 414.02941,416.36768 C 414.02941,416.94528 414.53341,417.49988 414.66081,418.00918 C 414.78551,418.50828 414.78701,419.22818 414.78701,419.90318 C 414.78701,420.53458 414.78701,421.16588 414.78701,421.79728 C 414.78701,422.34768 414.91161,423.17958 415.03961,423.69128 C 415.18841,424.28678 415.16581,424.92648 415.16581,425.58538 C 415.16581,426.13018 415.27181,426.76678 415.41841,427.35308 C 415.56561,427.94208 415.54461,428.43678 415.54461,429.12088 C 415.54461,429.72408 415.56791,430.47658 415.67091,430.88868 C 415.80861,431.43928 415.67091,432.21178 415.67091,432.78268 C 415.67091,433.37948 415.79721,434.01688 415.79721,434.67668 C 415.79721,435.17888 415.41881,435.93778 415.29211,436.44448 C 415.15411,436.99648 414.88101,437.64548 414.66081,438.08598 C 414.32811,438.75128 414.07611,439.16178 413.90311,439.85378 C 413.75411,440.44988 413.31071,440.96098 413.14551,441.62148 C 413.01811,442.13108 412.66131,442.54808 412.51421,443.13678 C 412.32111,443.90898 411.79001,443.83958 410.99901,443.64178 C 410.26601,443.45858 409.87881,443.20798 409.23121,442.88418 C 408.66431,442.60078 408.21981,442.37848 407.71601,442.12658 C 407.28311,441.91018 406.18401,441.96458 405.82191,441.87408 C 405.08151,441.68888 404.56431,441.85368 404.43301,442.37908 C 404.29531,442.92978 404.43301,443.70228 404.43301,444.27318 C 404.43301,445.04738 404.62251,445.53608 404.93801,446.16718 C 405.19671,446.68458 405.19061,447.41778 405.19061,447.93498 C 405.19061,448.60348 405.18741,449.18508 405.31681,449.70268 C 405.45521,450.25618 405.56941,450.86208 405.56941,451.47048 C 405.56941,451.96058 405.69571,452.66248 405.69571,453.23828 C 405.69571,453.92868 405.82191,454.27428 405.82191,455.00598 C 405.82191,455.32428 405.99671,455.83128 406.07451,456.14248 C 405.91951,456.76258 406.43461,458.08808 406.57951,458.66778 C 406.74431,459.32688 406.90171,459.45158 407.08461,460.18308 C 407.21771,460.71558 407.04311,461.61198 406.95831,461.95078 C 406.81151,462.53798 406.72641,462.87848 406.57951,463.46608 C 406.44451,464.00608 406.18141,464.67988 406.07451,465.10758 C 405.94231,465.63608 405.73561,466.08438 405.56941,466.74908 C 405.42441,467.32888 405.19771,467.60458 405.06431,468.13798 C 404.89951,468.79738 404.67211,469.32788 404.55921,469.77948 C 404.39231,470.44708 404.06671,470.76458 403.80161,471.29478 C 403.47201,471.95398 403.48591,472.43128 403.17031,473.06248 C 402.82681,473.74958 402.71281,474.13498 402.53891,474.83028 C 402.36611,475.52148 402.20481,476.16678 402.03381,476.85058 C 401.87201,477.49788 401.79571,477.92948 401.65501,478.49208 C 401.50101,479.10838 401.25971,479.78778 401.02371,480.25988 C 400.75791,480.79148 400.56281,481.09308 400.39241,481.77508 C 400.23581,482.40118 399.91021,483.11818 399.63471,483.66908 C 399.34341,484.25168 398.99881,484.81468 398.75091,485.31058 C 398.45891,485.89448 398.16231,486.52848 397.99321,487.20468 C 397.82621,487.87288 397.52081,488.33688 397.36191,488.97238 C 397.19821,489.62718 397.11821,490.19968 396.98311,490.74018 C 396.82051,491.39038 396.61881,491.81848 396.47801,492.38168 C 396.32531,492.99228 396.06291,493.71688 395.84671,494.14948 C 395.56781,494.70718 395.55671,495.23438 395.34161,495.66468 C 395.16231,496.02328 395.25481,496.26438 395.21531,496.42228 C 394.52961,497.79368 394.53211,499.40748 394.20521,500.71538 C 393.93691,501.78848 393.85141,502.93818 393.44761,503.74588 C 392.87881,504.88338 392.64121,506.11618 392.18491,507.02888 C 391.60771,508.18308 391.70901,509.18468 391.42721,510.31188 C 391.15291,511.40908 390.66231,512.09428 390.16461,513.08978 C 389.54941,514.32008 389.23861,515.53108 388.90191,516.87788 C 388.56571,518.22268 388.17251,519.29008 387.89171,520.41338 C 387.55651,521.75418 387.13411,522.58348 387.13411,523.94898 C 387.13411,525.07038 386.16231,526.57328 385.87141,527.73698 C 385.60321,528.81008 384.86071,530.26358 384.35621,531.27258 C 383.80591,532.37308 383.96481,533.31798 383.34601,534.55558 C 382.83981,535.56798 382.56481,537.17528 382.33591,538.09108 C 381.99541,539.45308 381.94081,540.42878 381.57831,541.87918 C 381.23201,543.26428 380.92811,544.22738 380.56811,545.66718 C 380.32361,546.64528 379.74961,548.06188 379.30541,548.95018 C 378.72921,550.10258 378.38441,550.86658 378.04271,552.23318 C 377.68121,553.67948 377.08821,554.78858 376.78001,556.02128 C 376.43481,557.40208 375.84581,558.74798 375.51731,560.06188 C 375.21181,561.28418 375.27421,562.54958 375.01231,563.59738 C 374.75221,564.63758 374.41711,565.79788 374.00211,566.62788 C 373.38061,567.87098 372.82161,568.82458 372.48691,570.16338 C 372.10681,571.68388 371.57871,573.03848 371.22421,574.45658 C 370.86421,575.89648 370.32351,576.79658 369.96151,578.24468 C 369.63521,579.54998 368.93231,580.59378 368.69881,581.52768 C 368.45161,582.51628 368.24281,583.85658 367.94121,585.06318 C 367.57431,586.53088 367.27731,587.46618 366.93101,588.85128 C 366.65571,589.95278 366.15611,591.19348 365.92091,592.13428 C 365.59281,593.44638 365.27601,594.43418 364.65821,595.66978 C 364.21821,596.54978 364.12191,597.81518 363.90061,598.70018 C 363.31751,601.03278 363.39551,597.97958 363.39551,596.93248 C 363.39551,596.17488 363.39551,595.41718 363.39551,594.65958 z"
       id="path19516"
       sodipodi:nodetypes="ccssssssssssssssssssssssssssssssssssssssssscssssssssssssssssssssssssssssssssssssssssssssssssssssssssssssssssssssssssssssssssssscssssssssssssssssssssssscssssssssssssssssssssssssssssssc" />
    <path
       style="fill:#cccccc;fill-rule:evenodd;stroke:none;stroke-width:1px;stroke-linecap:butt;stroke-linejoin:miter;stroke-opacity:1;filter:url(#filter19800)"
       d="M 370.03431,432.01868 C 371.41011,430.91318 374.91451,428.65368 377.10541,426.46278 C 379.82081,423.74738 381.10591,421.69468 384.17641,419.39178 C 386.59061,417.58118 388.31521,413.87338 390.23731,411.31048 C 392.26761,408.60358 393.27661,406.41638 395.28811,403.73438 C 397.84861,400.32028 398.75871,397.08668 401.34901,393.63288 C 402.94991,391.49838 404.51081,389.08038 406.39981,386.56178 C 408.19041,384.17428 410.25911,382.37878 411.45051,379.99578 C 412.32081,378.25538 414.37161,376.56968 415.99621,374.94498 C 417.61911,373.32218 419.13311,371.19668 420.03681,369.38918 C 422.00501,365.45288 420.61121,370.76598 420.03681,371.91458 C 419.03161,373.92498 418.03251,375.89148 417.51151,377.97548 C 416.62711,381.51298 415.71391,385.44798 414.98611,389.08718 C 414.23751,392.82998 413.86351,395.68178 412.46071,399.18868 C 410.67771,403.64618 408.08931,408.08788 406.90491,412.82578 C 405.93791,416.69358 403.03561,421.57438 401.34901,424.94758 C 399.66321,428.31928 398.72511,433.42298 397.81351,437.06938 C 397.72221,437.43468 397.47681,437.74288 397.30841,438.07958 C 395.30761,442.08118 395.16071,448.81798 394.27801,453.23188 C 393.61741,456.53468 393.41041,459.58978 392.76271,462.82828 C 391.98121,466.73598 391.19711,470.10078 390.23731,473.93998 C 389.21511,478.02908 388.49731,482.19058 387.20691,486.06178 C 386.05241,489.52508 385.04441,493.23568 383.67141,496.66838 C 382.08791,500.62708 381.02091,504.49468 379.12571,508.28518 C 377.80621,510.92408 376.79651,515.07628 376.09521,517.88158 C 375.19901,521.46628 374.46801,524.89568 373.56981,528.48818 C 372.56761,532.49718 371.81001,536.27708 371.04441,540.10498 C 370.34311,543.61178 369.73231,546.66578 369.02411,550.20648 C 368.40831,553.28548 367.11871,556.81818 366.49881,559.29788 C 365.47711,563.38448 365.99371,550.88328 365.99371,546.67098 C 365.99371,542.63038 365.99371,538.58978 365.99371,534.54918 C 365.99371,531.68708 365.99371,528.82498 365.99371,525.96288 C 365.99371,521.85538 366.49881,517.80828 366.49881,513.84098 C 366.49881,509.80038 366.49881,505.75978 366.49881,501.71918 C 366.49881,497.55368 367.00381,493.70938 367.00381,489.59738 C 367.00381,485.92788 366.67121,481.83658 367.50891,478.48568 C 368.32791,475.20958 367.50891,470.77768 367.50891,467.37398 C 367.50891,461.96248 367.75341,457.30458 369.02411,452.22168 C 369.87441,448.82068 369.52921,444.64068 369.52921,441.10998 C 369.52921,438.19158 370.03431,435.09598 370.03431,432.01868 z"
       id="path19718" />
    <path
       style="fill:#ffffff;fill-rule:evenodd;stroke:none;stroke-width:1px;stroke-linecap:butt;stroke-linejoin:miter;stroke-opacity:1;filter:url(#filter20618)"
       d="M 414.22851,441.10998 C 414.35531,441.80188 413.42731,443.80978 413.21831,444.64558 C 412.85711,446.09058 411.82841,445.59208 410.94551,445.15068 C 409.84921,444.60248 409.41381,443.70138 409.68281,442.62528 C 410.07021,441.07578 412.74551,441.70318 414.22851,441.10998 z"
       id="path19824" />
    <path
       style="fill:#ffffff;fill-rule:evenodd;stroke:none;stroke-width:1px;stroke-linecap:butt;stroke-linejoin:miter;stroke-opacity:1;filter:url(#filter20618)"
       d="M 423.87181,412.92448 C 423.99861,413.61638 423.07061,415.62428 422.86161,416.46008 C 422.50041,417.90508 421.47171,417.40658 420.58881,416.96518 C 419.49251,416.41698 419.05711,415.51588 419.32611,414.43978 C 419.71351,412.89028 422.38881,413.51768 423.87181,412.92448 z"
       id="path20624" />
    <path
       style="fill:#ffffff;fill-rule:evenodd;stroke:none;stroke-width:1px;stroke-linecap:butt;stroke-linejoin:miter;stroke-opacity:1;filter:url(#filter20618)"
       d="M 433.33611,385.78168 C 433.46291,386.47358 432.53491,388.48148 432.32591,389.31728 C 431.96471,390.76228 430.93601,390.26378 430.05311,389.82238 C 428.95681,389.27418 428.52141,388.37308 428.79041,387.29698 C 429.17781,385.74748 431.85311,386.37488 433.33611,385.78168 z"
       id="path20626" />
    <path
       style="fill:#ffffff;fill-rule:evenodd;stroke:none;stroke-width:1px;stroke-linecap:butt;stroke-linejoin:miter;stroke-opacity:1;filter:url(#filter20618)"
       d="M 442.26471,362.56738 C 442.39151,363.25928 441.46351,365.26718 441.25451,366.10298 C 440.89331,367.54798 439.86461,367.04948 438.98171,366.60808 C 437.88541,366.05988 437.45001,365.15878 437.71901,364.08268 C 438.10641,362.53318 440.78171,363.16058 442.26471,362.56738 z"
       id="path20628" />
    <flowRoot
       xml:space="preserve"
       id="flowRoot15342"
       style="font-size:40px;font-style:normal;font-weight:normal;fill:#000000;fill-opacity:1;stroke:none;stroke-width:1px;stroke-linecap:butt;stroke-linejoin:miter;stroke-opacity:1;font-family:Bitstream Vera Sans"
       transform="matrix(0.3357359,0,0,0.3357359,363.63958,490.72931)"><flowRegion
         id="flowRegion15344"><rect
           id="rect15346"
           width="290"
           height="91.428574"
           x="338.57144"
           y="689.50507" /></flowRegion><flowPara
         id="flowPara15348">by enigmatic</flowPara></flowRoot>    <image
       y="684.7132"
       x="474.4744"
       id="image15359"
       height="31"
       width="88"
       sodipodi:absref="/home/brutkasten/Dokumente/naev/pastedpic_09172009_162558.png"
       xlink:href="pastedpic_09172009_162558.png" />
    <flowRoot
       xml:space="preserve"
       id="flowRoot21123"
       style="font-size:40px;font-style:normal;font-weight:normal;fill:#000000;fill-opacity:1;stroke:none;stroke-width:1px;stroke-linecap:butt;stroke-linejoin:miter;stroke-opacity:1;font-family:Bitstream Vera Sans"
       transform="matrix(0.3357359,0,0,0.3357359,367.15009,508.24463)"><flowRegion
         id="flowRegion21125"><rect
           id="rect21127"
           width="290"
           height="91.428574"
           x="338.57144"
           y="689.50507" /></flowRegion><flowPara
         id="flowPara21129">cc v3.0</flowPara><flowPara
         id="flowPara21131" /></flowRoot>  </g>
</svg>
