<?xml version="1.0" encoding="UTF-8" standalone="no"?>
<!-- Created with Inkscape (http://www.inkscape.org/) -->
<svg
   xmlns:dc="http://purl.org/dc/elements/1.1/"
   xmlns:cc="http://creativecommons.org/ns#"
   xmlns:rdf="http://www.w3.org/1999/02/22-rdf-syntax-ns#"
   xmlns:svg="http://www.w3.org/2000/svg"
   xmlns="http://www.w3.org/2000/svg"
   xmlns:xlink="http://www.w3.org/1999/xlink"
   xmlns:sodipodi="http://sodipodi.sourceforge.net/DTD/sodipodi-0.dtd"
   xmlns:inkscape="http://www.inkscape.org/namespaces/inkscape"
   width="210mm"
   height="297mm"
   id="svg22060"
   sodipodi:version="0.32"
   inkscape:version="0.46"
   sodipodi:docname="frontier_logo.svg"
   inkscape:output_extension="org.inkscape.output.svg.inkscape">
  <defs
     id="defs22062">
    <filter
       inkscape:collect="always"
       id="filter34720">
      <feGaussianBlur
         inkscape:collect="always"
         stdDeviation="3.8786055"
         id="feGaussianBlur34722" />
    </filter>
    <filter
       inkscape:collect="always"
       id="filter34008">
      <feGaussianBlur
         inkscape:collect="always"
         stdDeviation="5.8654354"
         id="feGaussianBlur34010" />
    </filter>
    <filter
       height="1.5392518"
       y="-0.26962588"
       width="1.3821931"
       x="-0.19109657"
       id="filter15894"
       inkscape:collect="always">
      <feGaussianBlur
         id="feGaussianBlur15896"
         stdDeviation="3.6839064"
         inkscape:collect="always" />
    </filter>
    <filter
       id="filter15646"
       inkscape:collect="always">
      <feGaussianBlur
         id="feGaussianBlur15648"
         stdDeviation="2.8062822"
         inkscape:collect="always" />
    </filter>
    <filter
       id="filter15966"
       inkscape:collect="always">
      <feGaussianBlur
         id="feGaussianBlur15968"
         stdDeviation="1.8708548"
         inkscape:collect="always" />
    </filter>
    <filter
       inkscape:collect="always"
       id="filter21931"
       x="-0.22838603"
       width="1.4567721"
       y="-3.6088594"
       height="8.2177187">
      <feGaussianBlur
         inkscape:collect="always"
         stdDeviation="6.4710961"
         id="feGaussianBlur21933" />
    </filter>
    <filter
       inkscape:collect="always"
       id="filter21877"
       x="-2.4734495"
       width="5.9468991"
       y="-0.26753253"
       height="1.5350651">
      <feGaussianBlur
         inkscape:collect="always"
         stdDeviation="4.4351769"
         id="feGaussianBlur21879" />
    </filter>
    <filter
       inkscape:collect="always"
       id="filter21563"
       x="-0.86982249"
       width="2.739645"
       y="-0.86982249"
       height="2.739645">
      <feGaussianBlur
         inkscape:collect="always"
         stdDeviation="17.939174"
         id="feGaussianBlur21565" />
    </filter>
    <filter
       inkscape:collect="always"
       id="filter21647"
       x="-0.28646147"
       width="1.5729229"
       y="-0.25313594"
       height="1.5062719">
      <feGaussianBlur
         inkscape:collect="always"
         stdDeviation="2.6270468"
         id="feGaussianBlur21649" />
    </filter>
    <filter
       height="1.3946332"
       y="-0.19731662"
       width="1.446426"
       x="-0.22321299"
       id="filter15690"
       inkscape:collect="always">
      <feGaussianBlur
         id="feGaussianBlur15692"
         stdDeviation="5.6510621"
         inkscape:collect="always" />
    </filter>
    <filter
       height="2.7400067"
       y="-0.87000337"
       width="1.2427341"
       x="-0.12136706"
       id="filter15740"
       inkscape:collect="always">
      <feGaussianBlur
         id="feGaussianBlur15742"
         stdDeviation="4.4678318"
         inkscape:collect="always" />
    </filter>
    <inkscape:perspective
       sodipodi:type="inkscape:persp3d"
       inkscape:vp_x="0 : 526.18109 : 1"
       inkscape:vp_y="0 : 1000 : 0"
       inkscape:vp_z="744.09448 : 526.18109 : 1"
       inkscape:persp3d-origin="372.04724 : 350.78739 : 1"
       id="perspective22068" />
  </defs>
  <sodipodi:namedview
     id="base"
     pagecolor="#ffffff"
     bordercolor="#666666"
     borderopacity="1.0"
     inkscape:pageopacity="0.0"
     inkscape:pageshadow="2"
     inkscape:zoom="0.7"
     inkscape:cx="280.86858"
     inkscape:cy="516.91233"
     inkscape:document-units="px"
     inkscape:current-layer="layer1"
     showgrid="false"
     inkscape:window-width="1920"
     inkscape:window-height="1003"
     inkscape:window-x="0"
     inkscape:window-y="25" />
  <metadata
     id="metadata22065">
    <rdf:RDF>
      <cc:Work
         rdf:about="">
        <dc:format>image/svg+xml</dc:format>
        <dc:type
           rdf:resource="http://purl.org/dc/dcmitype/StillImage" />
      </cc:Work>
    </rdf:RDF>
  </metadata>
  <g
     inkscape:label="Ebene 1"
     inkscape:groupmode="layer"
     id="layer1">
    <flowRoot
       xml:space="preserve"
       id="flowRoot15342"
       style="font-size:40px;font-style:normal;font-weight:normal;fill:#000000;fill-opacity:1;stroke:none;stroke-width:1px;stroke-linecap:butt;stroke-linejoin:miter;stroke-opacity:1;font-family:Bitstream Vera Sans"
       transform="matrix(0.3357359,0,0,0.3357359,341.56403,429.79393)"><flowRegion
         id="flowRegion15344"><rect
           id="rect15346"
           width="290"
           height="91.428574"
           x="338.57144"
           y="689.50507" /></flowRegion><flowPara
         id="flowPara15348">by enigmatic</flowPara></flowRoot>    <image
       y="623.77783"
       x="452.39883"
       id="image15359"
       height="31"
       width="88"
       sodipodi:absref="/home/brutkasten/Dokumente/naev/pastedpic_09172009_162558.png"
       xlink:href="pastedpic_09172009_162558.png" />
    <flowRoot
       xml:space="preserve"
       id="flowRoot21123"
       style="font-size:40px;font-style:normal;font-weight:normal;fill:#000000;fill-opacity:1;stroke:none;stroke-width:1px;stroke-linecap:butt;stroke-linejoin:miter;stroke-opacity:1;font-family:Bitstream Vera Sans"
       transform="matrix(0.3357359,0,0,0.3357359,345.07454,447.30925)"><flowRegion
         id="flowRegion21125"><rect
           id="rect21127"
           width="290"
           height="91.428574"
           x="338.57144"
           y="689.50507" /></flowRegion><flowPara
         id="flowPara21129">cc v3.0</flowPara><flowPara
         id="flowPara21131" /></flowRoot>    <g
       id="g35013"
       transform="matrix(0.5886226,0,0,0.5886226,-64.829833,-1301.7646)"
       inkscape:export-filename="/home/brutkasten/Dokumente/naev/frontier_logo.png"
       inkscape:export-xdpi="90"
       inkscape:export-ydpi="90">
      <path
         sodipodi:nodetypes="cccc"
         id="path33904"
         d="M 745.93936,2890.0142 C 740.15762,2896.1433 578.58557,3099.2932 576.42566,3101.5377 C 582.0441,3101.5287 817.86634,3102.6319 907.42828,3102.0608 C 904.20105,3098.8872 797.65142,2960.2999 745.93936,2890.0142 z"
         style="fill:#c8ab37;fill-rule:evenodd;stroke:none;stroke-width:2.5999999;stroke-linecap:butt;stroke-linejoin:miter;stroke-miterlimit:4;stroke-dasharray:none;stroke-opacity:1" />
      <path
         transform="matrix(-2.3251458,0,0,-2.3251458,2831.3625,6437.1631)"
         sodipodi:nodetypes="cccc"
         id="path33906"
         d="M 833.63839,1437.1518 C 835.83647,1439.7882 837.88669,1442.5442 840.01315,1445.2382 C 846.0743,1453.0837 852.09813,1460.9582 858.14109,1468.8177 C 867.87731,1481.5853 877.57295,1494.3838 887.21359,1507.2237 C 890.2574,1511.281 893.28181,1515.3527 896.29464,1519.4331 C 900.24755,1514.6666 904.09731,1509.8156 907.99044,1505.0004 C 924.19331,1484.7504 940.37065,1464.4799 956.55724,1444.2169 C 958.38958,1441.9186 960.23098,1439.6275 962.07589,1437.3393 C 942.79264,1437.2683 923.5094,1437.1857 904.22607,1437.1431 C 884.67451,1437.1227 865.12288,1437.0581 845.57134,1437.1034 C 841.59369,1437.1195 837.61604,1437.1357 833.63839,1437.1518 z"
         style="opacity:0.88323352;fill:#f2bf0b;fill-opacity:1;fill-rule:evenodd;stroke:none;stroke-width:1px;stroke-linecap:butt;stroke-linejoin:miter;stroke-opacity:1;filter:url(#filter15646)" />
      <path
         id="path33990"
         d="M 742.46212,2904.2749 C 745.45499,2905.6354 749.24436,2911.7642 752.36162,2914.8815 C 753.06872,2915.5886 753.77583,2916.2957 754.48294,2917.0028 C 756.61743,2919.1373 758.82313,2924.4641 759.43268,2926.9023 C 760.30342,2930.3852 762.61547,2934.4458 764.38243,2936.8018 C 767.00855,2940.3033 767.8337,2944.4957 770.74639,2947.4084 C 774.24889,2950.9109 775.95764,2953.7368 778.52457,2958.015 C 780.89161,2961.96 782.97494,2964.7944 784.88853,2968.6216 C 786.48747,2971.8195 790.87226,2973.8982 793.37381,2976.3997 C 795.48518,2978.5111 797.58105,2980.5716 799.03066,2983.4708 C 800.38893,2986.1873 802.97261,2988.5263 804.68752,2991.9561 C 806.48111,2995.5433 809.98805,2998.3145 811.75859,3001.8556 C 813.07877,3004.496 816.63714,3007.3701 818.12255,3010.3409 C 819.83768,3013.7711 823.06229,3017.3919 824.48651,3020.2404 C 826.95386,3025.1751 830.27609,3028.4755 832.97179,3032.9683 C 835.01579,3036.375 838.22437,3039.5003 840.74996,3042.8678 C 843.28476,3046.2475 845.73876,3048.6027 847.82103,3052.7673 C 849.71853,3056.5623 853.3897,3059.7208 855.59921,3062.6668 C 858.6088,3066.6796 862.03272,3069.1003 865.4987,3072.5663 C 867.9235,3074.9911 870.57681,3079.0586 872.56977,3081.0515 C 875.7535,3084.2353 877.19611,3087.6914 879.64084,3090.951 C 882.15459,3094.3027 885.32282,3097.3401 888.12612,3100.1434 C 891.84218,3096.9738 893.91956,3098.8578 897.31851,3097.315 C 894.6382,3095.3048 891.27015,3092.3034 889.66165,3089.6226 C 887.79365,3086.5093 886.00938,3082.3181 884.7119,3079.7231 C 882.81296,3075.9252 881.02255,3071.1196 877.51952,3067.6165 C 873.51745,3063.6145 869.69705,3059.087 865.4987,3054.8886 C 862.07202,3051.4619 859.46029,3046.1303 857.01342,3042.8678 C 853.92287,3038.747 851.97788,3034.2967 848.52814,3030.847 C 845.5744,3027.8932 844.11723,3023.6076 841.45707,3020.9475 C 839.19219,3018.6826 837.47667,3015.8151 835.80022,3012.4622 C 834.10877,3009.0793 831.47135,3005.9258 830.14336,3003.2698 C 828.6458,3000.2747 825.50438,2997.2166 823.07229,2994.7845 C 819.81341,2991.5256 817.80205,2987.5218 815.29412,2984.1779 C 812.76993,2980.8123 809.5928,2977.0624 807.51594,2974.9855 C 805.13452,2972.6041 803.03136,2970.5614 800.44488,2968.6216 C 798.00855,2966.7943 796.09943,2964.1733 794.78802,2961.5505 C 793.69652,2959.3675 790.41903,2955.7673 788.42406,2953.7723 C 785.68744,2951.0357 784.18402,2947.4136 782.76721,2944.5799 C 781.35779,2941.7611 779.30652,2938.9979 777.11035,2936.8018 C 774.54863,2934.24 771.85548,2928.515 770.03929,2925.4881 C 768.12766,2922.302 765.82689,2920.5686 763.67532,2918.417 C 761.50873,2916.2504 758.77086,2914.9267 756.60426,2912.7601 C 754.62193,2910.7778 752.49622,2908.4613 750.9474,2906.3962 C 748.43483,2903.0461 746.09085,2901.5396 744.58344,2900.0322 C 743.46541,2898.9142 743.04934,2902.8068 742.46212,2904.2749 z"
         style="fill:#ffe680;fill-rule:evenodd;stroke:none;stroke-width:1px;stroke-linecap:butt;stroke-linejoin:miter;stroke-opacity:1;filter:url(#filter34008)"
         sodipodi:nodetypes="cssssssssssssssssssssccssssssssssssssssssssssc" />
      <path
         sodipodi:nodetypes="csssssssssssssssssssssssssssssccssssssc"
         id="path34658"
         d="M 751.58579,2895.8475 C 756.17062,2899.2913 756.23145,2905.5561 753.58579,2910.8475 C 751.2918,2915.4354 749.46391,2917.0912 747.58579,2920.8475 C 746.07496,2923.8691 740.54355,2928.8897 738.58579,2930.8475 C 734.78532,2934.6479 732.397,2942.0992 729.58579,2945.8475 C 726.44341,2950.0373 724.4516,2952.9817 721.58579,2955.8475 C 717.90524,2959.528 715.99876,2965.4345 712.58579,2968.8475 C 708.03824,2973.395 705.82593,2978.6073 701.58579,2982.8475 C 698.14269,2986.2906 696.00461,2989.4286 692.58579,2992.8475 C 689.06761,2996.3656 686.12533,3001.1281 682.58579,3005.8475 C 680.13073,3009.1209 677.60595,3016.7668 676.58579,3020.8475 C 675.47276,3025.2996 670.54239,3030.9053 667.58579,3034.8475 C 664.05831,3039.5508 660.46892,3043.0812 657.58579,3048.8475 C 655.18317,3053.6527 649.70854,3059.7247 646.58579,3062.8475 C 642.72006,3066.7132 640.07933,3071.1894 636.58579,3075.8475 C 633.3502,3080.1616 626.3942,3084.0391 623.58579,3086.8475 C 619.58615,3090.8471 619.38158,3095.0006 615.58579,3097.8475 C 611.96365,3100.5641 607.75935,3099.8041 603.58579,3100.8475 C 599.29511,3101.9201 594.45297,3101.8475 589.58579,3101.8475 C 583.64327,3101.8475 588.9247,3093.1697 589.58579,3091.8475 C 591.84727,3087.3245 594.72471,3082.6622 597.58579,3078.8475 C 600.27823,3075.2576 602.07646,3072.1932 604.58579,3068.8475 C 607.63484,3064.7821 610.57442,3060.8588 613.58579,3057.8475 C 616.84333,3054.5899 620.26224,3051.0901 624.58579,3047.8475 C 628.41931,3044.9723 629.99792,3041.0232 631.58579,3037.8475 C 634.5482,3031.9227 635.03675,3030.3965 639.58579,3025.8475 C 642.97813,3022.4551 645.54023,3017.5749 647.58579,3014.8475 C 650.41667,3011.073 651.62613,3007.8273 657.58579,3004.8475 C 662.34807,3002.4663 664.45346,2998.1121 666.58579,2993.8475 C 668.21156,2990.5959 672.83515,2989.3487 674.58579,2985.8475 C 676.34558,2982.3279 679.43533,2978.7147 681.58579,2975.8475 C 691.80476,2965.5447 686.76787,2968.1697 697.17158,2957.0191 C 698.92311,2953.516 702.40065,2951.497 704.81802,2949.0797 C 708.44263,2945.4551 710.3591,2943.4724 712.17158,2939.8475 C 714.51727,2935.1561 719.16302,2931.2702 721.58579,2928.8475 C 725.00831,2925.4249 727.13898,2921.2943 729.58579,2918.8475 C 733.59302,2914.8402 734.55316,2913.6219 739.58579,2909.8475 C 743.97134,2906.5583 748.98879,2904.4445 751.58579,2901.8475 C 753,2900.4333 751.58579,2897.8475 751.58579,2895.8475 z"
         style="fill:#ff7f2a;fill-rule:evenodd;stroke:none;stroke-width:1px;stroke-linecap:butt;stroke-linejoin:miter;stroke-opacity:1;filter:url(#filter34720)" />
      <path
         sodipodi:nodetypes="csssssccc"
         style="fill:#ffe680;fill-rule:evenodd;stroke:none;stroke-width:1px;stroke-linecap:butt;stroke-linejoin:miter;stroke-opacity:1;filter:url(#filter15894)"
         d="M 969.59934,1402.1489 C 967.30611,1402.1489 949.544,1415.3214 947.21799,1415.3214 C 945.19698,1415.3214 915.78602,1440.7458 914.10714,1442.005 C 912.25631,1443.3931 911.46098,1445.7226 909.82143,1447.3621 C 908.38735,1448.7962 906.34025,1449.4373 904.82143,1450.5764 C 903.20928,1451.7855 893.43169,1458.5896 893.43169,1460.7816 C 893.43169,1464.7777 902.01347,1460.2685 904.82143,1463.0764 C 943.63365,1452.9021 963.00809,1441.8281 972.87064,1411.8028 C 967.22403,1407.5838 972.24561,1407.7149 969.59934,1402.1489 z"
         id="path34040"
         transform="matrix(-9.7485576e-3,1.7436371,-1.6056351,-8.9769974e-3,3099.1056,1356.9357)" />
      <path
         sodipodi:nodetypes="cccc"
         id="path33912"
         d="M 746.59826,2890.7421 C 740.81651,2896.8713 579.24447,3100.021 577.08456,3102.2655 C 582.70282,3102.2565 818.52505,3103.3598 908.087,3102.7886 C 904.85995,3099.6151 798.31033,2961.0276 746.59826,2890.7421 z"
         style="fill:none;fill-rule:evenodd;stroke:#000000;stroke-width:7.80544853;stroke-linecap:butt;stroke-linejoin:miter;stroke-miterlimit:4;stroke-dasharray:none;stroke-opacity:1" />
      <path
         style="fill:#000000;fill-rule:evenodd;stroke:#000000;stroke-width:0.43533835px;stroke-linecap:butt;stroke-linejoin:miter;stroke-opacity:1"
         d="M 645.56349,3004.229 C 627.85057,3007.3941 480.44083,3058.6945 521.14105,3070.8852 C 866.67477,3156.5582 1259.1687,2904.2261 803.28235,2950.9295 C 805.8737,2955.7338 816.58297,2969.5699 822.48435,2967.5565 C 1127.4402,3015.2604 445.62792,3111.8588 630.47823,3023.5027"
         id="path29925"
         sodipodi:nodetypes="ccccc" />
      <path
         sodipodi:nodetypes="ccc"
         id="path34042"
         d="M 853.01341,2958.6215 C 956.53876,2968.2194 979.59551,2991.3535 861.59963,3046.415 C 1018.5168,3013.86 1042.6186,2942.4618 853.01341,2958.6215 z"
         style="fill:#333333;fill-rule:evenodd;stroke:#000000;stroke-width:1px;stroke-linecap:butt;stroke-linejoin:miter;stroke-opacity:1" />
      <path
         sodipodi:nodetypes="ccc"
         id="path34724"
         d="M 632.86057,3015.9978 C 496.3359,3069.6408 628.7982,3072.5663 640.01308,3076.6143 C 469.74038,3073.4125 523.036,3052.9717 632.86057,3015.9978 z"
         style="fill:#333333;fill-rule:evenodd;stroke:#000000;stroke-width:1px;stroke-linecap:butt;stroke-linejoin:miter;stroke-opacity:1" />
    </g>
  </g>
</svg>
