<?xml version="1.0" encoding="UTF-8" standalone="no"?>
<!-- Created with Inkscape (http://www.inkscape.org/) -->

<svg
   xmlns:dc="http://purl.org/dc/elements/1.1/"
   xmlns:cc="http://creativecommons.org/ns#"
   xmlns:rdf="http://www.w3.org/1999/02/22-rdf-syntax-ns#"
   xmlns:svg="http://www.w3.org/2000/svg"
   xmlns="http://www.w3.org/2000/svg"
   xmlns:xlink="http://www.w3.org/1999/xlink"
   xmlns:sodipodi="http://sodipodi.sourceforge.net/DTD/sodipodi-0.dtd"
   xmlns:inkscape="http://www.inkscape.org/namespaces/inkscape"
   sodipodi:docname="naev.svg"
   inkscape:export-ydpi="90"
   inkscape:export-xdpi="90"
   inkscape:export-filename="D:\shared\logobluealpha.png"
   inkscape:version="0.92.4 5da689c313, 2019-01-14"
   version="1.1"
   id="svg2"
   height="190"
   width="360">
  <defs
     id="defs4">
    <linearGradient
       id="linearGradient3688">
      <stop
         style="stop-color:#b8bcc8;stop-opacity:1;"
         offset="0"
         id="stop3690" />
      <stop
         id="stop3692"
         offset="0.30000001"
         style="stop-color:#9499ac;stop-opacity:1;" />
      <stop
         id="stop3694"
         offset="0.40000001"
         style="stop-color:#ffffff;stop-opacity:1;" />
      <stop
         id="stop3696"
         offset="0.40000001"
         style="stop-color:#9499ac;stop-opacity:1;" />
      <stop
         id="stop3698"
         offset="0.75"
         style="stop-color:#707890;stop-opacity:1;" />
      <stop
         style="stop-color:#000f40;stop-opacity:1;"
         offset="1"
         id="stop3700" />
    </linearGradient>
    <linearGradient
       id="linearGradient5890">
      <stop
         id="stop5892"
         offset="0"
         style="stop-color:#c0c0c0;stop-opacity:1;" />
      <stop
         style="stop-color:#a0a0a0;stop-opacity:1;"
         offset="0.30000001"
         id="stop5902" />
      <stop
         style="stop-color:#ffffff;stop-opacity:1;"
         offset="0.40000001"
         id="stop5900" />
      <stop
         style="stop-color:#a0a0a0;stop-opacity:1;"
         offset="0.40000001"
         id="stop5898" />
      <stop
         style="stop-color:#808080;stop-opacity:1;"
         offset="0.75"
         id="stop5894" />
      <stop
         id="stop5896"
         offset="1"
         style="stop-color:#202020;stop-opacity:1;" />
    </linearGradient>
    <linearGradient
       id="linearGradient5866">
      <stop
         id="stop5868"
         offset="0"
         style="stop-color:#c0c0c0;stop-opacity:1;" />
      <stop
         style="stop-color:#b8b8b8;stop-opacity:1;"
         offset="0.2"
         id="stop5880" />
      <stop
         style="stop-color:#ffffff;stop-opacity:1;"
         offset="0.25"
         id="stop5878" />
      <stop
         style="stop-color:#a0a0a0;stop-opacity:1;"
         offset="0.30000001"
         id="stop5876" />
      <stop
         style="stop-color:#808080;stop-opacity:1;"
         offset="0.5"
         id="stop5870" />
      <stop
         id="stop5872"
         offset="1"
         style="stop-color:#202020;stop-opacity:1;" />
    </linearGradient>
    <linearGradient
       id="linearGradient5856">
      <stop
         style="stop-color:#c0c0c0;stop-opacity:1;"
         offset="0"
         id="stop5858" />
      <stop
         id="stop5864"
         offset="0.5"
         style="stop-color:#808080;stop-opacity:1;" />
      <stop
         style="stop-color:#202020;stop-opacity:1;"
         offset="1"
         id="stop5860" />
    </linearGradient>
    <inkscape:perspective
       sodipodi:type="inkscape:persp3d"
       inkscape:vp_x="0 : 100 : 1"
       inkscape:vp_y="0 : 1000 : 0"
       inkscape:vp_z="400 : 100 : 1"
       inkscape:persp3d-origin="200 : 66.666667 : 1"
       id="perspective4340" />
    <linearGradient
       id="linearGradient3861">
      <stop
         style="stop-color:#c4c4c4;stop-opacity:1;"
         offset="0"
         id="stop3863" />
      <stop
         id="stop3871"
         offset="0.2"
         style="stop-color:#808080;stop-opacity:1;" />
      <stop
         id="stop3869"
         offset="0.25"
         style="stop-color:#ffffff;stop-opacity:1;" />
      <stop
         style="stop-color:#808080;stop-opacity:1;"
         offset="0.30000001"
         id="stop3873" />
      <stop
         id="stop3875"
         offset="0.69999999"
         style="stop-color:#808080;stop-opacity:1;" />
      <stop
         style="stop-color:#404040;stop-opacity:1;"
         offset="1"
         id="stop3865" />
    </linearGradient>
    <linearGradient
       id="linearGradient3727">
      <stop
         style="stop-color:#000000;stop-opacity:1;"
         offset="0"
         id="stop3729" />
      <stop
         id="stop3735"
         offset="0.81"
         style="stop-color:#000000;stop-opacity:1;" />
      <stop
         style="stop-color:#0d343d;stop-opacity:1;"
         offset="0.97000003"
         id="stop3737" />
      <stop
         style="stop-color:#ffffff;stop-opacity:1;"
         offset="1"
         id="stop3731" />
    </linearGradient>
    <linearGradient
       id="linearGradient3693">
      <stop
         style="stop-color:#ffffff;stop-opacity:1;"
         offset="0"
         id="stop3695" />
      <stop
         style="stop-color:#ffffff;stop-opacity:0;"
         offset="1"
         id="stop3697" />
    </linearGradient>
    <linearGradient
       id="linearGradient3681">
      <stop
         style="stop-color:#ffffff;stop-opacity:1;"
         offset="0"
         id="stop3683" />
      <stop
         id="stop3689"
         offset="0.80000001"
         style="stop-color:#ffffff;stop-opacity:0.78431374;" />
      <stop
         style="stop-color:#ffffff;stop-opacity:0;"
         offset="1"
         id="stop3685" />
    </linearGradient>
    <linearGradient
       id="linearGradient3653">
      <stop
         style="stop-color:#070707;stop-opacity:1;"
         offset="0"
         id="stop3655" />
      <stop
         style="stop-color:#afafaf;stop-opacity:1;"
         offset="1"
         id="stop3657" />
    </linearGradient>
    <linearGradient
       inkscape:collect="always"
       xlink:href="#linearGradient3861"
       id="linearGradient3867"
       x1="149.75"
       y1="871.36218"
       x2="149.75"
       y2="1003.3625"
       gradientUnits="userSpaceOnUse"
       gradientTransform="translate(30,0)" />
    <clipPath
       clipPathUnits="userSpaceOnUse"
       id="clipPath3944">
      <path
         sodipodi:nodetypes="cccsscccssccssscsccccccccsssccsscsccccccscsczc"
         id="path3946"
         d="m 40,170.00002 c 19.094983,0 20,-59.91744 20,-100.00002 29.929966,0 30,-0.67333 30,70 11.23411,0 20,-34.82168 20,-70 0,-11.77279 -7.05758,-20 -20,-20 l -50,0 0,120.00002 z M 120,50 l 50,0 c 10.53296,0 20,7.76039 20,20 l 0,80.00002 -50,0 c -10.69958,0 -20,-7.95613 -20,-20.00002 l 0,-20 c 0,-10.25897 7.41888,-20 20,-20 l 30,0 c 0,-11.37896 1.15689,-20 -10,-20 -18.093,0 -40,-9.49028 -40,-20 z m 20,60 0,20 30,0 0,-20 -30,0 z m 90,20 c -9.3565,0 -10,-9.69282 -10,-20 l 30,0 c 11.67019,0 20,-10.31738 20,-20 l 0,-20 c 0,-10.86499 -8.29609,-20 -20,-20 l -50,0 0,80 c 0,11.20053 8.11815,20.00002 20,20.00002 l 50,0 C 270,137.45687 248.21461,130 230,130 z m -10,-40 0,-20 30,0 0,20 -30,0 z m 60,-40 c 9.45388,-2.79386 21.967,3.31852 25,20 l 10,55 10,-55 c 2.66075,-14.63411 16.91327,-22.16683 25,-20 -6.93702,24.97329 -15.77641,100.00002 -35,100.00002 -18.51769,0 -25.60652,-64.94308 -35,-100.00002 z"
         style="fill:#ffffff;fill-opacity:1;stroke:#ffffff;stroke-width:2;stroke-linecap:butt;stroke-linejoin:miter;stroke-miterlimit:4;stroke-opacity:1;stroke-dasharray:none" />
    </clipPath>
    <inkscape:perspective
       id="perspective4350"
       inkscape:persp3d-origin="0.5 : 0.33333333 : 1"
       inkscape:vp_z="1 : 0.5 : 1"
       inkscape:vp_y="0 : 1000 : 0"
       inkscape:vp_x="0 : 0.5 : 1"
       sodipodi:type="inkscape:persp3d" />
    <linearGradient
       inkscape:collect="always"
       xlink:href="#linearGradient3861-2"
       id="linearGradient3879-4"
       gradientUnits="userSpaceOnUse"
       gradientTransform="translate(30,0)"
       x1="165"
       y1="900.71112"
       x2="165"
       y2="1023.3622" />
    <linearGradient
       id="linearGradient3861-2">
      <stop
         style="stop-color:#c4c4c4;stop-opacity:1;"
         offset="0"
         id="stop3863-7" />
      <stop
         id="stop3871-9"
         offset="0.2"
         style="stop-color:#808080;stop-opacity:1;" />
      <stop
         id="stop3869-2"
         offset="0.25"
         style="stop-color:#ffffff;stop-opacity:1;" />
      <stop
         style="stop-color:#808080;stop-opacity:1;"
         offset="0.30000001"
         id="stop3873-3" />
      <stop
         id="stop3875-7"
         offset="0.69999999"
         style="stop-color:#808080;stop-opacity:1;" />
      <stop
         style="stop-color:#404040;stop-opacity:1;"
         offset="1"
         id="stop3865-3" />
    </linearGradient>
    <linearGradient
       inkscape:collect="always"
       xlink:href="#linearGradient3861-2"
       id="linearGradient4397"
       gradientUnits="userSpaceOnUse"
       gradientTransform="matrix(-1,0,0,-1,53.00348,2063.7244)"
       x1="168.85043"
       y1="1029.3623"
       x2="168.85043"
       y2="872.36218" />
    <linearGradient
       inkscape:collect="always"
       xlink:href="#linearGradient3861-2"
       id="linearGradient4425"
       gradientUnits="userSpaceOnUse"
       gradientTransform="translate(-276.85044,159.00037)"
       x1="168.85043"
       y1="875.29083"
       x2="168.85043"
       y2="1033.4338" />
    <linearGradient
       inkscape:collect="always"
       xlink:href="#linearGradient3861-2"
       id="linearGradient4427"
       gradientUnits="userSpaceOnUse"
       gradientTransform="matrix(-1,0,0,-1,231.50348,1905.7244)"
       x1="165.00174"
       y1="1023.3622"
       x2="165.00174"
       y2="881.36218" />
    <linearGradient
       inkscape:collect="always"
       xlink:href="#linearGradient3861"
       id="linearGradient4961"
       x1="195"
       y1="24.500122"
       x2="195"
       y2="172.50012"
       gradientUnits="userSpaceOnUse" />
    <linearGradient
       inkscape:collect="always"
       xlink:href="#linearGradient3861"
       id="linearGradient4971"
       x1="195"
       y1="18.986292"
       x2="195"
       y2="181"
       gradientUnits="userSpaceOnUse" />
    <linearGradient
       inkscape:collect="always"
       xlink:href="#linearGradient3861"
       id="linearGradient4974"
       gradientUnits="userSpaceOnUse"
       x1="195"
       y1="24.500122"
       x2="195"
       y2="172.50012" />
    <linearGradient
       inkscape:collect="always"
       xlink:href="#linearGradient3861"
       id="linearGradient4977"
       gradientUnits="userSpaceOnUse"
       x1="195"
       y1="24.500122"
       x2="195"
       y2="172.50012"
       gradientTransform="translate(927.7241,652.36218)" />
    <linearGradient
       inkscape:collect="always"
       xlink:href="#linearGradient3861"
       id="linearGradient4991"
       x1="165"
       y1="876.86218"
       x2="165"
       y2="1032.4073"
       gradientUnits="userSpaceOnUse" />
    <linearGradient
       inkscape:collect="always"
       xlink:href="#linearGradient3861"
       id="linearGradient4999"
       x1="215"
       y1="874.36218"
       x2="215"
       y2="1030.3622"
       gradientUnits="userSpaceOnUse" />
    <linearGradient
       inkscape:collect="always"
       xlink:href="#linearGradient3861"
       id="linearGradient5008"
       gradientUnits="userSpaceOnUse"
       x1="165"
       y1="876.86218"
       x2="165"
       y2="1032.4073"
       gradientTransform="translate(0,-852.36218)" />
    <linearGradient
       inkscape:collect="always"
       xlink:href="#linearGradient3861"
       id="linearGradient5013"
       gradientUnits="userSpaceOnUse"
       gradientTransform="matrix(-1,0,0,-1,380,1900.7244)"
       x1="165"
       y1="876.86218"
       x2="165"
       y2="1032.4073" />
    <linearGradient
       inkscape:collect="always"
       xlink:href="#linearGradient3861"
       id="linearGradient5017"
       gradientUnits="userSpaceOnUse"
       gradientTransform="matrix(-1,0,0,-1,380,1900.7247)"
       x1="165"
       y1="876.86218"
       x2="165"
       y2="1032.4073" />
    <linearGradient
       inkscape:collect="always"
       xlink:href="#linearGradient3861"
       id="linearGradient5021"
       gradientUnits="userSpaceOnUse"
       gradientTransform="matrix(-1,0,0,-1,400,1866.7244)"
       x1="165"
       y1="876.86218"
       x2="165"
       y2="1032.4073" />
    <linearGradient
       inkscape:collect="always"
       xlink:href="#linearGradient3861"
       id="linearGradient5025"
       gradientUnits="userSpaceOnUse"
       gradientTransform="translate(-307,297.99998)"
       x1="165"
       y1="876.86218"
       x2="165"
       y2="1032.4073" />
    <inkscape:perspective
       id="perspective5786"
       inkscape:persp3d-origin="0.5 : 0.33333333 : 1"
       inkscape:vp_z="1 : 0.5 : 1"
       inkscape:vp_y="0 : 1000 : 0"
       inkscape:vp_x="0 : 0.5 : 1"
       sodipodi:type="inkscape:persp3d" />
    <linearGradient
       inkscape:collect="always"
       xlink:href="#linearGradient3861-1"
       id="linearGradient5776"
       gradientUnits="userSpaceOnUse"
       gradientTransform="matrix(-1,0,0,-1,410,1890.7245)"
       x1="205"
       y1="1019.3623"
       x2="205"
       y2="857.3623" />
    <linearGradient
       id="linearGradient3861-1">
      <stop
         style="stop-color:#c4c4c4;stop-opacity:1;"
         offset="0"
         id="stop3863-5" />
      <stop
         id="stop3871-3"
         offset="0.2"
         style="stop-color:#808080;stop-opacity:1;" />
      <stop
         id="stop3869-4"
         offset="0.25"
         style="stop-color:#ffffff;stop-opacity:1;" />
      <stop
         style="stop-color:#808080;stop-opacity:1;"
         offset="0.30000001"
         id="stop3873-2" />
      <stop
         id="stop3875-3"
         offset="0.69999999"
         style="stop-color:#808080;stop-opacity:1;" />
      <stop
         style="stop-color:#404040;stop-opacity:1;"
         offset="1"
         id="stop3865-2" />
    </linearGradient>
    <linearGradient
       inkscape:collect="always"
       xlink:href="#linearGradient3688"
       id="linearGradient5862"
       x1="191"
       y1="871.36218"
       x2="191"
       y2="1033.3622"
       gradientUnits="userSpaceOnUse"
       gradientTransform="translate(-11.299999,5.2999789)" />
    <linearGradient
       inkscape:collect="always"
       xlink:href="#linearGradient5890"
       id="linearGradient5888"
       x1="191"
       y1="1025.3622"
       x2="191"
       y2="1187.3622"
       gradientUnits="userSpaceOnUse" />
    <clipPath
       clipPathUnits="userSpaceOnUse"
       id="clipPath5921">
      <path
         id="path5923"
         style="fill:#ffffff;fill-opacity:1;stroke:#ffffff;stroke-width:2;stroke-linecap:butt;stroke-linejoin:miter;stroke-miterlimit:4;stroke-opacity:1;stroke-dasharray:none"
         d="m 213.09375,274.31252 c -2.48347,-2.9142 -4.87472,-6.317 -7.09375,-10.3125 15.50945,-15.5094 27.19503,-31.6996 48.5,-44 4.66834,17.4226 -15.00798,49.2846 -41.40625,54.3125 z M 231,304.00002 c 19.78157,0 33.5,-8.5344 45,-30 -17.05781,13.7934 -40.34663,21.3442 -58.71875,4.6563 C 244.2985,281.47652 276,246.41342 276,204.00002 c -36.46291,0 -67.9064,37.9064 -90,60 10.08837,17.4736 25.57199,40 45,40 z m -205,30 c 0,-47.7098 2.083524,-98.5487 35,-130 31.16673,28.1026 35,67.8908 35,100 -9.317262,0 -11.915719,-46.9157 -35,-70 -23.404142,23.4041 -24.635125,100 -35,100 z m 330,-160 c 0,47.7098 -2.08352,98.5486 -35,130 -31.16673,-28.1027 -35,-67.8908 -35,-100 8.61071,0 11.91572,46.9157 35,70 23.40414,-23.4042 23.58049,-100 35,-100 z m -187.09375,59.6875 c 2.48347,2.9142 4.87472,6.317 7.09375,10.3125 -15.50945,15.5094 -27.19503,31.6996 -48.5,44 -4.66834,-17.4226 15.00798,-49.2846 41.40625,-54.3125 z M 151,204.00002 c -19.78157,0 -33.5,8.5344 -45,30 17.05781,-13.7934 40.34663,-21.3442 58.71875,-4.6563 C 137.7015,226.52352 106,261.58662 106,304.00002 c 36.46291,0 67.9064,-37.9064 90,-60 -10.08837,-17.4736 -25.57199,-40 -45,-40 z"
         inkscape:export-filename="C:\Users\Kastor\Pictures\Entwürfe\inkscape\naev\logo.png"
         inkscape:export-xdpi="90"
         inkscape:export-ydpi="90"
         sodipodi:nodetypes="cccccccccccccccccccccccccccccc" />
    </clipPath>
    <inkscape:perspective
       id="perspective5945"
       inkscape:persp3d-origin="0.5 : 0.33333333 : 1"
       inkscape:vp_z="1 : 0.5 : 1"
       inkscape:vp_y="0 : 1000 : 0"
       inkscape:vp_x="0 : 0.5 : 1"
       sodipodi:type="inkscape:persp3d" />
    <filter
       inkscape:collect="always"
       id="filter5953"
       color-interpolation-filters="sRGB">
      <feGaussianBlur
         inkscape:collect="always"
         stdDeviation="6.1250003"
         id="feGaussianBlur5955" />
    </filter>
    <inkscape:perspective
       id="perspective9117"
       inkscape:persp3d-origin="60 : 14 : 1"
       inkscape:vp_z="120 : 21 : 1"
       inkscape:vp_y="0 : 1000 : 0"
       inkscape:vp_x="0 : 21 : 1"
       sodipodi:type="inkscape:persp3d" />
  </defs>
  <sodipodi:namedview
     id="base"
     pagecolor="#000000"
     bordercolor="#666666"
     borderopacity="1.0"
     inkscape:pageopacity="0"
     inkscape:pageshadow="2"
     inkscape:zoom="1"
     inkscape:cx="229.35253"
     inkscape:cy="-15.185474"
     inkscape:document-units="px"
     inkscape:current-layer="layer1"
     showgrid="false"
     inkscape:window-width="1916"
     inkscape:window-height="1014"
     inkscape:window-x="2"
     inkscape:window-y="64"
     inkscape:window-maximized="1"
     borderlayer="true" />
  <metadata
     id="metadata7">
    <rdf:RDF>
      <cc:Work
         rdf:about="">
        <dc:format>image/svg+xml</dc:format>
        <dc:type
           rdf:resource="http://purl.org/dc/dcmitype/StillImage" />
        <dc:title></dc:title>
        <cc:license
           rdf:resource="https://creativecommons.org/licenses/by/3.0/" />
        <dc:creator>
          <cc:Agent>
            <dc:title>Scaatis</dc:title>
          </cc:Agent>
        </dc:creator>
      </cc:Work>
    </rdf:RDF>
  </metadata>
  <g
     inkscape:label="Layer 1"
     inkscape:groupmode="layer"
     id="layer1"
     transform="translate(0,-862.36218)">
    <path
       style="fill:url(#linearGradient4427);fill-opacity:1;stroke:#404040;stroke-width:2;stroke-linecap:butt;stroke-linejoin:miter;stroke-miterlimit:4;stroke-opacity:1;stroke-dasharray:none"
       d="m -68.5,1023.3622 0,-100.00002 c 47.95343,0 26.490356,70 50,70 0,-61.73163 0.94216,-90 -70,-90 0,60.50029 -1.079425,120.00002 20,120.00002 z"
       id="path4407"
       sodipodi:nodetypes="ccccc" />
    <path
       id="path4403"
       style="fill:url(#linearGradient4397);fill-opacity:1;stroke:#404040;stroke-width:2;stroke-linecap:butt;stroke-linejoin:miter;stroke-miterlimit:4;stroke-opacity:1;stroke-dasharray:none"
       d="m -167,1121.3622 c 0,20.4619 13.71159,20 30,20 l 0,-20 -30,0 z m -20,-60 c 76.78502,0 70,0.3749 70,100 -34.80537,0 -70,0.4576 -70,-30 0,-30.1041 23.18429,-30 50,-30 0,-39.7042 -50,-1.1415 -50,-40 z"
       sodipodi:nodetypes="cccccczcc"
       inkscape:export-filename="C:\Users\Kastor\Pictures\Entwürfe\inkscape\naev\logo.png"
       inkscape:export-xdpi="90"
       inkscape:export-ydpi="90" />
    <path
       sodipodi:nodetypes="cccccczcc"
       d="m -56.84696,1101.3626 c 0,-20.4619 -13.71159,-20 -30,-20 l 0,20 30,0 z m 20,60 c -76.78502,0 -70,-0.375 -70,-100 34.80537,0 70,-0.4576 70,30 0,30.1041 -23.18429,30 -50,30 0,39.7041 50,1.1414 50,40 z"
       style="fill:url(#linearGradient4425);fill-opacity:1;stroke:#404040;stroke-width:2;stroke-linecap:butt;stroke-linejoin:miter;stroke-miterlimit:4;stroke-opacity:1;stroke-dasharray:none"
       id="path4423"
       inkscape:export-filename="C:\Users\Kastor\Pictures\Entwürfe\inkscape\naev\logo.png"
       inkscape:export-xdpi="90"
       inkscape:export-ydpi="90" />
    <path
       style="fill:url(#linearGradient4977);fill-opacity:1;stroke:#404040;stroke-width:2;stroke-linecap:butt;stroke-linejoin:miter;stroke-miterlimit:4;stroke-opacity:1;stroke-dasharray:none"
       d="m 1112.7241,672.36218 c 0,10.06528 -0.013,20.02536 0,29.78125 -18.0033,0.008 -39.3285,0.21875 -65,0.21875 0,10.34401 32.5418,14.25033 65.0625,17.375 0.053,8.20444 0.1556,16.16506 0.3125,23.84375 -32.6243,3.49048 -65.375,9.87433 -65.375,28.78125 0,26.57869 18.8692,30.56932 69.375,30.62502 2.8912,18.2928 7.6746,29.375 15.625,29.375 0,-9.789 0.013,-19.6592 0,-29.4375 18.19,-0.1716 39.5982,-0.5625 65,-0.5625 0,-11.1487 -32.5417,-14.31896 -65.0625,-16.87502 -0.062,-9.06366 -0.2018,-17.94391 -0.4063,-26.5 32.6558,-3.48284 65.4688,-9.12694 65.4688,-26.625 0,-25.17546 -15.4062,-29.62082 -69.4688,-30.15625 -2.9041,-18.3771 -7.6821,-29.84375 -15.5312,-29.84375 z m 17.75,49.0625 c 25.5878,2.46431 47.25,5.09451 47.25,10.9375 0,5.74768 -20.9622,7.29038 -46,9.46875 -0.3118,-7.18219 -0.7206,-14.02064 -1.25,-20.40625 z m -16.875,39.40625 c 0.3165,8.278 0.7253,16.0808 1.3125,23.25 -25.5602,-2.09762 -47.1875,-4.68351 -47.1875,-11.71875 0,-6.91476 20.8923,-9.1366 45.875,-11.53125 z"
       id="path4953" />
    <path
       style="fill:url(#linearGradient5025);fill-opacity:1;stroke:#404040;stroke-width:2;stroke-linecap:butt;stroke-linejoin:miter;stroke-miterlimit:4;stroke-opacity:1;stroke-dasharray:none"
       d="m -187,1216.3622 c 11.5,-21.4656 25.21843,-30 45,-30 19.42801,0 34.91163,42.5264 45,60 -42.47744,42.4774 -69.31796,70 -90,70 0,-63.7817 41.49779,-106.4558 70,-90 -29.84863,0 -50,35.7229 -50,60 21.30497,-12.3004 34.49055,-24.4906 50,-40 -8.08547,-30.1754 -30.62114,-69.3789 -70,-30 z"
       id="path5023"
       sodipodi:nodetypes="czcccccc"
       inkscape:export-filename="C:\Users\Kastor\Pictures\Entwürfe\inkscape\naev\logo.png"
       inkscape:export-xdpi="90"
       inkscape:export-ydpi="90" />
    <path
       id="path5028"
       style="fill:#808080;fill-opacity:1;stroke:#404040;stroke-width:2;stroke-linecap:butt;stroke-linejoin:miter;stroke-miterlimit:4;stroke-opacity:1;stroke-dasharray:none"
       d="m 1201.8276,1032.3622 c 19.7815,0 33.5,-8.5344 45,-30 -29.4334,29.4334 -49.4494,14.9734 -61.0625,-6.81252 27.4915,4.45252 61.0625,-35.81845 61.0625,-93.1875 -20.6821,0 -47.5226,27.52256 -90,70 10.0883,17.4736 25.572,60.00002 45,60.00002 z m -18,-40.68752 c -2.9767,-6.29881 -5.3092,-13.00208 -7,-19.3125 15.5094,-15.5094 28.695,-27.6996 50,-40 0,22.32283 -17.0521,54.30518 -43,59.3125 z m -42,-115.3125 c -19.7816,0 -33.5,8.5344 -45,30 29.4334,-29.43341 49.4494,-14.97345 61.0625,6.8125 -27.4916,-4.45247 -61.0625,35.81845 -61.0625,93.18752 20.682,0 47.5225,-27.52258 90,-70.00002 -10.0884,-17.4736 -25.572,-60 -45,-60 z m 18,40.6875 c 2.9766,6.29881 5.3091,13.00209 7,19.3125 -15.5095,15.5094 -28.6951,27.6996 -50,40 0,-22.32283 17.052,-54.30517 43,-59.3125 z m 167,-44.6875 c 0,47.70979 -2.0836,98.54867 -35,130.00002 -31.1668,-28.10272 -35,-67.89082 -35,-100.00004 11.0783,0 11.9157,46.91574 35,70.00002 23.4041,-23.40414 20.0449,-100 35,-100 z m -310,160.00002 c 0,-47.70979 2.0835,-98.54869 35,-130.00002 31.1667,28.10266 35,67.8908 35,100.00002 -11.0784,0 -11.9158,-46.91574 -35,-70.00002 -23.4042,23.40414 -20.045,100.00002 -35,100.00002 z"
       inkscape:export-filename="C:\Users\Kastor\Pictures\Entwürfe\inkscape\naev\logo.png"
       inkscape:export-xdpi="90"
       inkscape:export-ydpi="90" />
    <path
       sodipodi:nodetypes="cccccccccccccccccccccccccccccc"
       inkscape:export-ydpi="90"
       inkscape:export-xdpi="90"
       inkscape:export-filename="C:\Users\Kastor\Pictures\Entwürfe\inkscape\naev\logo.png"
       d="m 935.09375,471.67466 c -2.48347,-2.9142 -4.87472,-6.317 -7.09375,-10.3125 15.50945,-15.5094 27.19503,-31.6996 48.5,-44 4.66834,17.4226 -15.00798,49.2846 -41.40625,54.3125 z M 953,501.36218 c 19.78157,0 33.5,-8.53442 45,-30.00002 -17.05781,13.7934 -40.34663,21.3442 -58.71875,4.6563 C 966.2985,478.83866 998,443.77556 998,401.36216 c -36.46291,0 -67.9064,37.9064 -90,60 10.08837,17.4736 25.57199,40.00002 45,40.00002 z m -205,30 c 0,-47.70982 2.08352,-98.54872 35,-130.00002 31.16673,28.1026 35,67.8908 35,100.00002 -9.31726,0 -11.91572,-46.91572 -35,-70.00002 -23.40414,23.4041 -24.63513,100.00002 -35,100.00002 z m 330,-160.00002 c 0,47.7098 -2.0835,98.5486 -35,130.00002 -31.1667,-28.10272 -35,-67.89082 -35,-100.00002 8.6107,0 11.9157,46.9157 35,70 23.4041,-23.4042 23.5805,-100 35,-100 z m -187.09375,59.6875 c 2.48347,2.9142 4.87472,6.317 7.09375,10.3125 -15.50945,15.5094 -27.19503,31.6996 -48.5,44 -4.66834,-17.4226 15.00798,-49.2846 41.40625,-54.3125 z M 873,401.36216 c -19.78157,0 -33.5,8.5344 -45,30 17.05781,-13.7934 40.34663,-21.3442 58.71875,-4.6563 C 859.7015,423.88566 828,458.94876 828,501.36218 c 36.46291,0 67.9064,-37.90642 90,-60.00002 -10.08837,-17.4736 -25.57199,-40 -45,-40 z"
       style="fill:#ffffff;fill-opacity:1;stroke:none;filter:url(#filter5953)"
       id="path5951" />
    <path
       id="path5957"
       style="fill:#013dff;fill-opacity:1;stroke:none;filter:url(#filter5953)"
       d="m 201.79375,977.97466 c -2.48347,-2.9142 -4.87472,-6.317 -7.09375,-10.3125 15.50945,-15.5094 27.19503,-31.6996 48.5,-44 4.66834,17.4226 -15.00798,49.2846 -41.40625,54.3125 z M 219.7,1007.6622 c 19.78157,0 33.5,-8.53444 45,-30.00004 -17.05781,13.7934 -40.34663,21.3442 -58.71875,4.6563 27.01725,2.8202 58.71875,-32.2429 58.71875,-74.6563 -36.46291,0 -67.9064,37.9064 -90,60 10.08837,17.4736 25.57199,40.00004 45,40.00004 z m -204.999999,30 c 0,-47.70984 2.08352,-98.54874 35,-130.00004 31.16673,28.1026 35,67.8908 35,100.00004 -9.31726,0 -11.91572,-46.91574 -35,-70.00004 -23.40414,23.4041 -24.63513,100.00004 -35,100.00004 z M 344.7,877.66216 c 0,47.7098 -2.08352,98.5486 -35,130.00004 -31.16673,-28.10274 -35,-67.89084 -35,-100.00004 8.61071,0 11.91572,46.9157 35,70 23.40414,-23.4042 23.58049,-100 35,-100 z m -187.09375,59.6875 c 2.48347,2.9142 4.87472,6.317 7.09375,10.3125 -15.50945,15.5094 -27.19503,31.6996 -48.5,44 -4.66834,-17.4226 15.00798,-49.2846 41.40625,-54.3125 z M 139.7,907.66216 c -19.78157,0 -33.5,8.5344 -44.999999,30 17.057809,-13.7934 40.346629,-21.3442 58.718749,-4.6563 -27.01725,-2.8202 -58.718749,32.2429 -58.718749,74.65634 36.462909,0 67.906399,-37.90644 89.999999,-60.00004 -10.08837,-17.4736 -25.57199,-40 -45,-40 z"
       inkscape:export-filename="C:\Users\Kastor\Pictures\Entwürfe\inkscape\naev\logo.png"
       inkscape:export-xdpi="90.150253"
       inkscape:export-ydpi="90.150253"
       sodipodi:nodetypes="cccccccccccccccccccccccccccccc" />
    <path
       id="path5841"
       style="fill:url(#linearGradient5862);fill-opacity:1;stroke:#31384f;stroke-width:2;stroke-linecap:butt;stroke-linejoin:miter;stroke-miterlimit:4;stroke-opacity:1;stroke-dasharray:none"
       d="m 201.79375,977.97466 c -2.48347,-2.9142 -4.87472,-6.317 -7.09375,-10.3125 15.50945,-15.5094 27.19503,-31.6996 48.5,-44 4.66834,17.4226 -15.00798,49.2846 -41.40625,54.3125 z M 219.7,1007.6622 c 19.78157,0 33.5,-8.53444 45,-30.00004 -17.05781,13.7934 -40.34663,21.3442 -58.71875,4.6563 27.01725,2.8202 58.71875,-32.2429 58.71875,-74.6563 -36.46291,0 -67.9064,37.9064 -90,60 10.08837,17.4736 25.57199,40.00004 45,40.00004 z m -204.999999,30 c 0,-47.70984 2.08352,-98.54874 35,-130.00004 31.16673,28.1026 35,67.8908 35,100.00004 -9.31726,0 -11.91572,-46.91574 -35,-70.00004 -23.40414,23.4041 -24.63513,100.00004 -35,100.00004 z M 344.7,877.66216 c 0,47.7098 -2.0835,98.5486 -35,130.00004 -31.1667,-28.10274 -35,-67.89084 -35,-100.00004 8.6107,0 11.9157,46.9157 35,70 23.4041,-23.4042 23.5805,-100 35,-100 z m -187.09375,59.6875 c 2.48347,2.9142 4.87472,6.317 7.09375,10.3125 -15.50945,15.5094 -27.19503,31.6996 -48.5,44 -4.66834,-17.4226 15.00798,-49.2846 41.40625,-54.3125 z M 139.7,907.66216 c -19.78157,0 -33.5,8.5344 -44.999999,30 17.057809,-13.7934 40.346629,-21.3442 58.718749,-4.6563 -27.01725,-2.8202 -58.718749,32.2429 -58.718749,74.65634 36.462909,0 67.906399,-37.90644 89.999999,-60.00004 -10.08837,-17.4736 -25.57199,-40 -45,-40 z"
       inkscape:export-filename="C:\Users\Kastor\Pictures\Entwürfe\inkscape\naev\logo.png"
       inkscape:export-xdpi="90.150253"
       inkscape:export-ydpi="90.150253"
       sodipodi:nodetypes="cccccccccccccccccccccccccccccc" />
  </g>
</svg>
