<?xml version="1.0" encoding="UTF-8" standalone="no"?>
<!-- Created with Inkscape (http://www.inkscape.org/) -->

<svg
   xmlns:dc="http://purl.org/dc/elements/1.1/"
   xmlns:cc="http://creativecommons.org/ns#"
   xmlns:rdf="http://www.w3.org/1999/02/22-rdf-syntax-ns#"
   xmlns:svg="http://www.w3.org/2000/svg"
   xmlns="http://www.w3.org/2000/svg"
   xmlns:sodipodi="http://sodipodi.sourceforge.net/DTD/sodipodi-0.dtd"
   xmlns:inkscape="http://www.inkscape.org/namespaces/inkscape"
   width="210mm"
   height="297mm"
   id="svg22060"
   sodipodi:version="0.32"
   inkscape:version="0.92.4 5da689c313, 2019-01-14"
   sodipodi:docname="trader.svg"
   inkscape:output_extension="org.inkscape.output.svg.inkscape"
   version="1.1">
  <defs
     id="defs22062">
    <inkscape:perspective
       sodipodi:type="inkscape:persp3d"
       inkscape:vp_x="0 : 561.25983 : 1"
       inkscape:vp_y="0 : 1066.6667 : 0"
       inkscape:vp_z="793.70078 : 561.25983 : 1"
       inkscape:persp3d-origin="396.85039 : 374.17322 : 1"
       id="perspective22068" />
  </defs>
  <sodipodi:namedview
     id="base"
     pagecolor="#ffffff"
     bordercolor="#666666"
     borderopacity="1.0"
     inkscape:pageopacity="0.0"
     inkscape:pageshadow="2"
     inkscape:zoom="0.98994949"
     inkscape:cx="179.57012"
     inkscape:cy="449.22976"
     inkscape:document-units="px"
     inkscape:current-layer="layer1"
     showgrid="false"
     inkscape:window-width="1916"
     inkscape:window-height="1014"
     inkscape:window-x="2"
     inkscape:window-y="64"
     inkscape:window-maximized="1" />
  <metadata
     id="metadata22065">
    <rdf:RDF>
      <cc:Work
         rdf:about="">
        <dc:format>image/svg+xml</dc:format>
        <dc:type
           rdf:resource="http://purl.org/dc/dcmitype/StillImage" />
        <dc:title></dc:title>
        <cc:license
           rdf:resource="https://creativecommons.org/licenses/by/3.0/" />
        <dc:creator>
          <cc:Agent>
            <dc:title>enigmatic</dc:title>
          </cc:Agent>
        </dc:creator>
      </cc:Work>
    </rdf:RDF>
  </metadata>
  <g
     inkscape:label="Ebene 1"
     inkscape:groupmode="layer"
     id="layer1">
    <g
       id="g38610"
       transform="translate(4975.9643,-6280.4563)">
      <path
         inkscape:export-ydpi="90"
         inkscape:export-xdpi="90"
         inkscape:export-filename="/home/brutkasten/Dokumente/naev/whichtraderlogo.png"
         style="fill:#b3b3b3;fill-rule:evenodd;stroke:#000000;stroke-width:3.45577478;stroke-linecap:butt;stroke-linejoin:miter;stroke-miterlimit:4;stroke-dasharray:none;stroke-opacity:1"
         d="M -4631.5949,6619.2857 C -4610.7987,6611.4289 -4592.859,6611.3011 -4573.574,6620.4322 C -4571.3049,6624.9703 -4569.4503,6632.9109 -4567.5796,6637.5877 C -4565.6423,6642.431 -4563.9781,6647.1243 -4563.0182,6651.9235 C -4562.0648,6656.6906 -4559.9728,6661.9241 -4557.8052,6666.2593 C -4556.0435,6669.7827 -4554.9475,6673.278 -4553.2438,6676.6853 C -4550.6348,6681.9034 -4548.7509,6686.8373 -4547.3792,6692.3244 C -4545.3483,6700.4478 -4541.8381,6708.4601 -4539.5597,6716.4346 C -4539.1253,6717.955 -4538.6908,6719.4755 -4538.2564,6720.9959 C -4537.9351,6722.1206 -4537.3876,6723.168 -4536.9532,6724.2541 C -4533.3768,6733.1949 -4533.695,6743.4496 -4533.695,6752.9257 C -4533.695,6761.5316 -4535.5658,6768.964 -4538.2564,6777.0359 C -4540.2808,6783.1091 -4542.4625,6788.0546 -4545.4243,6793.9782 C -4546.0759,6795.2814 -4546.7276,6796.5847 -4547.3792,6797.888 C -4551.0994,6805.3283 -4561.5634,6807.5107 -4566.928,6812.8754 C -4573.845,6819.7924 -4588.8048,6818.0884 -4597.5545,6818.0884 C -4607.8336,6818.0884 -4618.396,6818.74 -4628.8326,6818.74 C -4634.7184,6818.74 -4640.8853,6820.1253 -4646.4265,6818.74 C -4649.7162,6817.9176 -4656.5001,6811.9246 -4658.1558,6810.2689 C -4664.557,6803.8677 -4667.6528,6798.9841 -4668.5818,6788.7652 C -4669.7308,6776.1265 -4673.7949,6764.1579 -4673.7949,6750.9708 C -4673.7949,6742.0652 -4673.7949,6733.1597 -4673.7949,6724.2541 C -4673.7949,6716.2667 -4669.9908,6708.7912 -4665.9753,6702.0988 C -4661.7774,6695.1023 -4658.3961,6686.3233 -4656.2009,6678.6402 C -4654.2923,6671.96 -4650.9455,6665.5016 -4648.3814,6659.0914 C -4646.1501,6653.513 -4643.4667,6648.4337 -4641.2135,6642.8007 C -4639.8177,6639.3113 -4639.9237,6635.008 -4638.607,6632.3747 C -4638.4127,6631.9861 -4638.607,6631.5058 -4638.607,6631.0714 C -4638.607,6628.5584 -4632.6533,6621.9318 -4631.5949,6619.2857 z"
         id="path38114"
         sodipodi:nodetypes="ccssssssssssssssssssssssssssc" />
      <path
         inkscape:export-ydpi="90"
         inkscape:export-xdpi="90"
         inkscape:export-filename="/home/brutkasten/Dokumente/naev/whichtraderlogo.png"
         sodipodi:nodetypes="csssssscccssssssc"
         style="fill:#e6e6e6;fill-rule:evenodd;stroke:none;stroke-width:9.10000038;stroke-linecap:butt;stroke-linejoin:miter;stroke-miterlimit:4;stroke-dasharray:none;stroke-opacity:1"
         d="M -4659.391,6696.1384 C -4654.4008,6695.1764 -4646.0702,6699.4961 -4639.1284,6700.8269 C -4632.2178,6702.1518 -4625.9512,6702.1665 -4618.8658,6702.1665 C -4612.9661,6702.1665 -4606.7346,6702.8363 -4600.6993,6702.8363 C -4594.1804,6702.8363 -4587.2113,6702.9986 -4581.1354,6702.1665 C -4577.0511,6701.6072 -4573.0182,6700.2212 -4569.956,6699.4874 C -4567.1129,6698.806 -4562.9503,6698.1442 -4559.4754,6697.478 C -4557.0354,6697.0102 -4552.8649,6698.1045 -4552.8649,6695.9387 C -4551.9853,6677.7738 -4573.7255,6654.3465 -4571.8243,6632.8708 C -4576.1947,6608.9002 -4614.9574,6617.1281 -4631.4426,6621.1223 C -4635.2399,6622.0324 -4636.0544,6624.6723 -4639.8271,6626.4806 C -4643.0744,6628.0371 -4642.6888,6634.1686 -4643.3207,6637.1972 C -4644.3852,6642.2994 -4644.7181,6648.019 -4644.7181,6653.2721 C -4644.7181,6658.1295 -4645.4168,6662.6974 -4645.4168,6666.6678 C -4645.4168,6671.2167 -4647.8698,6673.3944 -4648.9104,6677.3844 C -4649.7132,6680.4628 -4652.9737,6684.8105 -4654.5,6686.7614 C -4656.6755,6689.5419 -4657.0983,6692.4753 -4659.391,6696.1384 z"
         id="path38116" />
      <path
         inkscape:export-ydpi="90"
         inkscape:export-xdpi="90"
         inkscape:export-filename="/home/brutkasten/Dokumente/naev/whichtraderlogo.png"
         style="fill:#0066ff;fill-rule:evenodd;stroke:#000000;stroke-width:3.45577478;stroke-linecap:butt;stroke-linejoin:miter;stroke-miterlimit:4;stroke-dasharray:none;stroke-opacity:1"
         d="M -4642.6413,6842.0939 C -4641.5948,6846.0636 -4637.9346,6848.2288 -4636.0276,6851.6004 C -4634.5318,6855.6543 -4632.2631,6859.3176 -4629.3751,6862.532 C -4625.3309,6870.796 -4612.4478,6878.8814 -4605.6579,6883.0084 C -4596.732,6878.7807 -4587.4866,6866.5277 -4582.0175,6856.5265 C -4579.7069,6852.2542 -4576.4103,6848.3384 -4575.7218,6843.3904 C -4572.8372,6839.4051 -4574.2177,6834.8776 -4576.4175,6830.9237 C -4579.4647,6824.8894 -4578.9246,6817.9283 -4579.938,6811.4098 C -4580.666,6805.7768 -4580.9741,6800.0026 -4582.7699,6794.5809 C -4586.3675,6790.2018 -4590.309,6784.9929 -4596.3624,6784.1992 C -4600.8985,6783.6271 -4605.5871,6781.6481 -4610.1179,6782.8988 C -4616.797,6786.7731 -4623.4781,6790.946 -4628.6368,6796.795 C -4631.3778,6799.2733 -4635.2057,6801.2915 -4635.6933,6805.3695 C -4638.0059,6814.9326 -4638.6608,6824.8295 -4641.0159,6834.3695 C -4641.8017,6836.8788 -4642.6184,6839.439 -4642.6413,6842.0939 z"
         id="path38118"
         sodipodi:nodetypes="ccccccccccccccc" />
      <path
         inkscape:export-ydpi="90"
         inkscape:export-xdpi="90"
         inkscape:export-filename="/home/brutkasten/Dokumente/naev/whichtraderlogo.png"
         style="fill:#37abc8;fill-rule:evenodd;stroke:#000000;stroke-width:2.0965035;stroke-linecap:butt;stroke-linejoin:miter;stroke-miterlimit:4;stroke-dasharray:none;stroke-opacity:1"
         d="M -4617.1201,6792.4978 C -4616.8309,6799.5866 -4619.6999,6806.2736 -4620.5022,6813.2419 C -4621.0654,6817.2256 -4621.5811,6821.2334 -4621.948,6825.2311 C -4621.5392,6828.9476 -4621.938,6832.6107 -4622.4839,6836.2572 C -4622.8062,6840.1815 -4624.4456,6844.2197 -4623.1693,6848.115 C -4617.8143,6852.7629 -4612.8776,6863.36 -4606.1208,6865.6958 C -4598.3666,6863.0159 -4591.1985,6849.8313 -4587.1881,6841.7022 C -4585.3445,6837.9598 -4584.2429,6833.7095 -4585.1164,6829.5479 C -4585.6358,6824.4697 -4584.7804,6819.2926 -4586.1862,6814.3106 C -4587.4339,6808.9407 -4586.71,6802.7659 -4590.5146,6798.2778 C -4590.9724,6794.661 -4594.7183,6791.5678 -4598.3639,6792.8462 C -4602.6901,6793.3422 -4606.8809,6791.0353 -4611.2077,6791.9855 C -4613.1825,6792.0797 -4615.1863,6792.0211 -4617.1201,6792.4978 z"
         id="path38120"
         sodipodi:nodetypes="ccccccccccccc" />
      <path
         inkscape:export-ydpi="90"
         inkscape:export-xdpi="90"
         inkscape:export-filename="/home/brutkasten/Dokumente/naev/whichtraderlogo.png"
         style="fill:#003380;fill-opacity:1;fill-rule:evenodd;stroke:#000000;stroke-width:3.45577478;stroke-linecap:butt;stroke-linejoin:miter;stroke-miterlimit:4;stroke-dasharray:none;stroke-opacity:1"
         d="M -4638.607,6792.9775 C -4655.4905,6818.1479 -4659.0099,6792.0254 -4656.0963,6775.2473 C -4677.8629,6742.2386 -4641.5683,6661.1185 -4632.0102,6619.417 C -4719.658,6650.4426 -4717.23,6819.4325 -4647.534,6864.0838 C -4629.5922,6864.284 -4615.4166,6849.8656 -4609.5273,6833.9458 C -4604.8243,6822.0993 -4605.7171,6805.0929 -4615.7447,6795.0266 C -4623.0334,6790.9616 -4630.2425,6791.7095 -4638.607,6792.9775 z"
         id="path38122"
         sodipodi:nodetypes="ccccccc" />
      <path
         inkscape:export-ydpi="90"
         inkscape:export-xdpi="90"
         inkscape:export-filename="/home/brutkasten/Dokumente/naev/whichtraderlogo.png"
         style="fill:#002255;fill-opacity:1;fill-rule:evenodd;stroke:#000000;stroke-width:3.45577478;stroke-linecap:butt;stroke-linejoin:miter;stroke-miterlimit:4;stroke-dasharray:none;stroke-opacity:1"
         d="M -4569.1388,6793.2795 C -4552.2553,6818.4499 -4550.3487,6791.6362 -4553.2622,6774.8581 C -4531.4956,6741.8494 -4567.7903,6660.7293 -4577.3484,6619.0278 C -4489.7006,6650.0534 -4492.1286,6819.0433 -4561.8245,6863.6946 C -4579.7663,6863.8948 -4593.9419,6849.4764 -4599.8312,6833.5566 C -4604.5342,6821.7101 -4602.4009,6805.6253 -4592.3733,6795.559 C -4585.0846,6791.494 -4577.5033,6792.0115 -4569.1388,6793.2795 z"
         id="path38124"
         sodipodi:nodetypes="ccccccc" />
      <path
         inkscape:export-ydpi="90"
         inkscape:export-xdpi="90"
         inkscape:export-filename="/home/brutkasten/Dokumente/naev/whichtraderlogo.png"
         style="fill:#000000;fill-rule:evenodd;stroke:#4d4d4d;stroke-width:2.0965035;stroke-linecap:butt;stroke-linejoin:miter;stroke-miterlimit:4;stroke-dasharray:none;stroke-opacity:1"
         d="M -4636.6521,6794.9556 C -4636.9179,6812.0826 -4654.3241,6814.1849 -4658.2238,6800.4933 C -4655.8972,6784.6167 -4650.5643,6779.9967 -4650.253,6763.8901 C -4649.0879,6747.8301 -4647.9747,6713.3538 -4649.2071,6697.2561 C -4639.9462,6671.1782 -4625.5919,6642.476 -4603.0012,6623.6378 C -4584.0869,6645.6227 -4567.0905,6668.512 -4560.3063,6695.9225 C -4564.6376,6716.4306 -4559.9075,6755.1235 -4552.7659,6775.176 C -4550.0461,6785.7027 -4543.3541,6799.3262 -4552.8404,6806.8302 C -4568.6826,6813.6988 -4568.475,6793.8482 -4569.8101,6793.7814 C -4583.0258,6793.6061 -4604.397,6791.6918 -4618.2484,6792.2733 C -4622.3421,6793.1502 -4635.1067,6790.6343 -4636.6521,6794.9556 z"
         id="path38126"
         sodipodi:nodetypes="ccccccccccc" />
      <path
         inkscape:export-ydpi="90"
         inkscape:export-xdpi="90"
         inkscape:export-filename="/home/brutkasten/Dokumente/naev/whichtraderlogo.png"
         style="fill:#ffcc00;fill-opacity:1;fill-rule:evenodd;stroke:#000000;stroke-width:2.0965035;stroke-linecap:butt;stroke-linejoin:miter;stroke-miterlimit:4;stroke-dasharray:none;stroke-opacity:1"
         d="M -4587.5784,6795.6511 C -4601.531,6817.3026 -4599.3285,6827.8414 -4583.7458,6843.1207 C -4559.7466,6882.1716 -4563.6806,6827.1049 -4571.6463,6794.909 C -4575.7144,6794.5449 -4583.1687,6794.8179 -4587.5784,6795.6511 z"
         id="path38152"
         sodipodi:nodetypes="cccc" />
      <path
         inkscape:export-ydpi="90"
         inkscape:export-xdpi="90"
         inkscape:export-filename="/home/brutkasten/Dokumente/naev/whichtraderlogo.png"
         style="fill:#ffcc00;fill-opacity:1;fill-rule:evenodd;stroke:#000000;stroke-width:2.0965035;stroke-linecap:butt;stroke-linejoin:miter;stroke-miterlimit:4;stroke-dasharray:none;stroke-opacity:1"
         d="M -4619.0155,6795.1903 C -4605.0629,6816.8419 -4607.2655,6827.3806 -4622.8481,6842.66 C -4646.8473,6881.7109 -4642.9134,6826.6441 -4634.9477,6794.4483 C -4630.8795,6794.0841 -4623.4253,6794.3572 -4619.0155,6795.1903 z"
         id="path38154"
         sodipodi:nodetypes="cccc" />
      <path
         inkscape:export-ydpi="90"
         inkscape:export-xdpi="90"
         inkscape:export-filename="/home/brutkasten/Dokumente/naev/whichtraderlogo.png"
         sodipodi:nodetypes="cccc"
         id="path38166"
         d="M -4569.4304,6626.6207 C -4541.3277,6647.6029 -4521.5211,6682.7207 -4521.3971,6711.4196 C -4524.4518,6711.64 -4537.7462,6709.5916 -4541.0473,6707.8177 C -4548.6352,6677.2542 -4555.9196,6655.0629 -4569.4304,6626.6207 z"
         style="fill:#0044aa;fill-opacity:1;fill-rule:evenodd;stroke:none;stroke-width:1px;stroke-linecap:butt;stroke-linejoin:miter;stroke-opacity:1" />
      <path
         inkscape:export-ydpi="90"
         inkscape:export-xdpi="90"
         inkscape:export-filename="/home/brutkasten/Dokumente/naev/whichtraderlogo.png"
         sodipodi:nodetypes="cccc"
         id="path38168"
         d="M -4638.9584,6626.8702 C -4667.0611,6647.8524 -4686.8676,6682.9702 -4686.9916,6711.6692 C -4683.9369,6711.8895 -4670.6425,6709.8412 -4667.3415,6708.0672 C -4659.7535,6677.5038 -4652.4691,6655.3124 -4638.9584,6626.8702 z"
         style="fill:#0044aa;fill-opacity:1;fill-rule:evenodd;stroke:none;stroke-width:1px;stroke-linecap:butt;stroke-linejoin:miter;stroke-opacity:1" />
      <path
         inkscape:export-ydpi="90"
         inkscape:export-xdpi="90"
         inkscape:export-filename="/home/brutkasten/Dokumente/naev/whichtraderlogo.png"
         sodipodi:nodetypes="cssssssc"
         id="path38170"
         d="M -4617.2223,6815.1676 C -4618.2306,6815.7579 -4620.9317,6800.3152 -4623.4263,6800.3152 C -4626.8432,6800.3152 -4628.7415,6815.3815 -4628.7415,6818.8538 C -4628.7415,6821.3124 -4629.2023,6823.2471 -4629.2023,6825.7653 C -4629.2023,6828.8882 -4628.1073,6828.0692 -4624.1338,6828.0692 C -4621.7287,6828.0692 -4619.6581,6827.6756 -4619.0654,6825.3046 C -4618.4559,6822.8665 -4618.1889,6820.8771 -4617.6831,6818.8538 C -4617.2546,6817.14 -4617.2223,6818.0153 -4617.2223,6815.1676 z"
         style="fill:#eedd96;fill-opacity:1;fill-rule:evenodd;stroke:none;stroke-width:1px;stroke-linecap:butt;stroke-linejoin:miter;stroke-opacity:1" />
      <path
         inkscape:export-ydpi="90"
         inkscape:export-xdpi="90"
         inkscape:export-filename="/home/brutkasten/Dokumente/naev/whichtraderlogo.png"
         sodipodi:nodetypes="cssssssc"
         id="path38172"
         d="M -4588.1632,6815.1918 C -4587.1549,6815.7821 -4584.4538,6800.3394 -4581.9592,6800.3394 C -4578.5423,6800.3394 -4576.644,6815.4057 -4576.644,6818.878 C -4576.644,6821.3366 -4576.1832,6823.2713 -4576.1832,6825.7896 C -4576.1832,6828.9124 -4577.2782,6828.0934 -4581.2517,6828.0934 C -4583.6568,6828.0934 -4585.7274,6827.6998 -4586.3201,6825.3288 C -4586.9297,6822.8907 -4587.1966,6820.9013 -4587.7025,6818.878 C -4588.1309,6817.1642 -4588.1632,6818.0395 -4588.1632,6815.1918 z"
         style="fill:#eedd96;fill-opacity:1;fill-rule:evenodd;stroke:none;stroke-width:1px;stroke-linecap:butt;stroke-linejoin:miter;stroke-opacity:1" />
      <g
         transform="translate(175.125,-12.75)"
         id="g38446">
        <path
           sodipodi:nodetypes="csssssccsc"
           id="path38128"
           d="M -4792.5038,6803.2111 C -4791.0452,6802.9293 -4787.7123,6803.5369 -4785.3359,6803.5369 C -4783.9701,6803.5369 -4782.0333,6803.8627 -4780.4487,6803.8627 C -4778.6024,6803.8627 -4776.7561,6803.8627 -4774.9098,6803.8627 C -4773.1848,6803.8627 -4771.6843,6803.8708 -4770.3484,6803.5369 C -4767.8196,6802.9047 -4745.6705,6803.1421 -4745.6705,6805.4522 C -4745.6705,6808.2678 -4743.8763,6807.9913 -4746.6199,6807.9913 C -4755.0649,6807.0883 -4785.0475,6808.9842 -4791.6892,6807.7724 C -4793.9052,6807.7724 -4791.1737,6807.7168 -4791.6893,6805.6547 C -4791.8236,6805.1174 -4792.6124,6803.7541 -4792.5038,6803.2111 z"
           style="fill:#000000;fill-rule:evenodd;stroke:#000000;stroke-width:0.23038499px;stroke-linecap:butt;stroke-linejoin:miter;stroke-opacity:1"
           inkscape:export-filename="/home/brutkasten/Dokumente/naev/whichtraderlogo.png"
           inkscape:export-xdpi="90"
           inkscape:export-ydpi="90" />
        <rect
           style="fill:#0000ff;fill-opacity:1;stroke:#ffffff;stroke-width:1.8430804;stroke-linecap:round;stroke-miterlimit:4;stroke-dasharray:none;stroke-opacity:1"
           id="rect38132"
           width="47.61105"
           height="19.679234"
           x="-4815.085"
           y="6696.3711"
           ry="5.2150092"
           transform="matrix(0.9999985,-1.7454704e-3,1.7454704e-3,0.9999985,0,0)" />
        <path
           sodipodi:nodetypes="cccc"
           id="path38134"
           d="M -4800.5859,6697.9132 C -4790.6388,6697.9667 -4769.6189,6698.0499 -4759.6711,6698.0388 C -4751.4124,6703.7614 -4763.8343,6668.7122 -4779.0924,6653.7909 C -4797.4793,6668.4005 -4806.3669,6704.1618 -4800.5859,6697.9132 z"
           style="fill:#cccccc;fill-rule:evenodd;stroke:none;stroke-width:5;stroke-linecap:butt;stroke-linejoin:miter;stroke-miterlimit:4;stroke-dasharray:none;stroke-opacity:1" />
        <path
           style="fill:none;fill-rule:evenodd;stroke:#000000;stroke-width:0.23038501px;stroke-linecap:butt;stroke-linejoin:miter;stroke-opacity:1"
           d="M -4785.6373,6755.9967 C -4785.7067,6756.0315 -4785.4822,6755.9964 -4785.6373,6755.9967 z"
           id="path38136" />
        <rect
           style="fill:#ff00ff;fill-opacity:1;stroke:#ffeded;stroke-width:1.8430804;stroke-linecap:round;stroke-miterlimit:4;stroke-dasharray:none;stroke-opacity:1"
           id="rect38138"
           width="47.61105"
           height="19.679234"
           x="-4814.6826"
           y="6721.1626"
           ry="5.2150092"
           transform="matrix(0.9999985,-1.7454704e-3,1.7454704e-3,0.9999985,0,0)" />
        <rect
           style="fill:#000000;fill-opacity:1;stroke:#e6e6e6;stroke-width:1.8430804;stroke-linecap:round;stroke-miterlimit:4;stroke-dasharray:none;stroke-opacity:1"
           id="rect38140"
           width="47.61105"
           height="19.679234"
           x="-4815.0513"
           y="6745.8184"
           ry="5.2150092"
           transform="matrix(0.9999985,-1.7454704e-3,1.7454704e-3,0.9999985,0,0)" />
        <path
           sodipodi:nodetypes="cccc"
           id="path38144"
           d="M -4812.62,6805.9986 C -4805.989,6806.0939 -4799.3876,6806.3268 -4792.767,6806.2853 C -4797.1501,6797.4625 -4798.0414,6796.1974 -4802.0848,6785.887 C -4807.2289,6796.5207 -4807.9853,6798.1213 -4812.62,6805.9986 z"
           style="fill:#cccccc;fill-rule:evenodd;stroke:#000000;stroke-width:1.15192497;stroke-linecap:butt;stroke-linejoin:miter;stroke-miterlimit:4;stroke-dasharray:none;stroke-opacity:1" />
        <path
           sodipodi:nodetypes="cccc"
           id="path38146"
           d="M -4765.8428,6805.8639 C -4759.2118,6805.9591 -4752.6104,6806.1921 -4745.9898,6806.1506 C -4750.3729,6797.3278 -4751.2642,6796.0627 -4755.3076,6785.7522 C -4760.4517,6796.3859 -4761.208,6797.9866 -4765.8428,6805.8639 z"
           style="fill:#cccccc;fill-rule:evenodd;stroke:#000000;stroke-width:1.15192497;stroke-linecap:butt;stroke-linejoin:miter;stroke-miterlimit:4;stroke-dasharray:none;stroke-opacity:1" />
        <path
           sodipodi:nodetypes="cccc"
           id="path38148"
           d="M -4791.4192,6803.5505 C -4783.5367,6803.6637 -4775.6894,6803.9407 -4767.8193,6803.8913 C -4773.0296,6793.4034 -4774.0892,6791.8995 -4778.8956,6779.6432 C -4785.0106,6792.2838 -4785.9097,6794.1865 -4791.4192,6803.5505 z"
           style="fill:#cccccc;fill-rule:evenodd;stroke:#000000;stroke-width:1.15192497;stroke-linecap:butt;stroke-linejoin:miter;stroke-miterlimit:4;stroke-dasharray:none;stroke-opacity:1" />
        <path
           sodipodi:nodetypes="cccsccccccccc"
           id="path38150"
           d="M -4799.8238,6789.9519 C -4799.3966,6789.9278 -4800.048,6785.3 -4799.424,6785.4464 C -4786.0799,6785.3666 -4771.3339,6785.105 -4758.0818,6785.9433 C -4757.8772,6785.9433 -4757.9724,6789.2581 -4757.9724,6789.7395 C -4757.9724,6790.5083 -4754.8331,6790.2299 -4753.2004,6790.2299 C -4752.518,6790.0471 -4752.6469,6782.087 -4753.2522,6781.9364 C -4756.231,6781.8511 -4766.303,6781.467 -4773.9356,6782.6967 C -4775.9605,6782.6356 -4774.5838,6779.1632 -4775.4575,6779.2524 C -4775.7349,6779.2561 -4780.8109,6779.1184 -4783.5494,6779.2152 C -4783.713,6779.3596 -4782.85,6782.4937 -4784.8002,6782.514 C -4791.2373,6782.0301 -4804.393,6781.8719 -4805.1254,6782.3593 C -4804.2649,6785.0252 -4805.7301,6790.2815 -4804.2666,6790.0653 C -4801.9556,6789.9597 -4799.7134,6790.2974 -4799.8238,6789.9519 z"
           style="fill:#cccccc;fill-rule:evenodd;stroke:#000000;stroke-width:1.15192497;stroke-linecap:butt;stroke-linejoin:miter;stroke-miterlimit:4;stroke-dasharray:none;stroke-opacity:1" />
        <path
           style="fill:#e6e6e6;fill-rule:evenodd;stroke:none;stroke-width:5;stroke-linecap:butt;stroke-linejoin:miter;stroke-miterlimit:4;stroke-dasharray:none;stroke-opacity:1"
           d="M -4797.7825,6695.4468 C -4789.4541,6695.4917 -4771.8549,6695.5613 -4763.5259,6695.5521 C -4756.6112,6700.3434 -4767.0116,6670.9978 -4779.7867,6658.5047 C -4795.1815,6670.7369 -4802.6227,6700.6786 -4797.7825,6695.4468 z"
           id="path38156"
           sodipodi:nodetypes="cccc"
           inkscape:export-filename="/home/brutkasten/Dokumente/naev/whichtraderlogo.png"
           inkscape:export-xdpi="90"
           inkscape:export-ydpi="90" />
        <path
           id="path38158"
           d="M -4774.7535,6664.4236 C -4776.1471,6664.4196 -4780.0572,6665.1736 -4782.5866,6665.8059 C -4784.5218,6666.2897 -4784.8904,6669.2342 -4784.8904,6671.3352 C -4784.8904,6674.3029 -4783.4495,6675.0506 -4780.7435,6676.4037 C -4779.2913,6677.1297 -4775.4984,6676.4037 -4773.832,6676.4037 C -4770.9172,6676.4037 -4771.9889,6673.4559 -4771.9889,6670.8744 C -4771.9889,6668.5726 -4773.2804,6666.8789 -4774.7535,6664.4236 z"
           style="fill:#ffffff;fill-rule:evenodd;stroke:none;stroke-width:1px;stroke-linecap:butt;stroke-linejoin:miter;stroke-opacity:1"
           inkscape:export-filename="/home/brutkasten/Dokumente/naev/whichtraderlogo.png"
           inkscape:export-xdpi="90"
           inkscape:export-ydpi="90" />
        <path
           id="path38160"
           d="M -4800.1188,6707.5336 C -4798.6567,6707.5336 -4793.1332,6707.5336 -4789.6928,6707.5336 C -4786.2174,6707.5336 -4782.7421,6707.5336 -4779.2667,6707.5336 C -4775.7897,6707.5336 -4773.0537,6706.882 -4769.4923,6706.882 C -4765.7351,6706.882 -4763.1516,6707.12 -4761.0212,6708.1852 C -4760.9184,6708.2366 -4768.6507,6710.1401 -4770.1439,6710.1401 C -4773.4021,6710.1401 -4776.6602,6710.1401 -4779.9184,6710.1401 C -4782.9982,6710.1401 -4786.2878,6710.7917 -4789.6928,6710.7917 C -4794.3657,6710.7917 -4798.2616,6712.1767 -4800.1188,6707.5336 z"
           style="fill:#aaccff;fill-rule:evenodd;stroke:none;stroke-width:1px;stroke-linecap:butt;stroke-linejoin:miter;stroke-opacity:1"
           inkscape:export-filename="/home/brutkasten/Dokumente/naev/whichtraderlogo.png"
           inkscape:export-xdpi="90"
           inkscape:export-ydpi="90" />
        <path
           id="path38162"
           d="M -4798.0862,6733.285 C -4796.6241,6733.285 -4791.1006,6733.285 -4787.6602,6733.285 C -4784.1849,6733.285 -4780.7095,6733.285 -4777.2342,6733.285 C -4773.7571,6733.285 -4771.0211,6732.6334 -4767.4598,6732.6334 C -4763.7025,6732.6334 -4761.119,6732.8714 -4758.9886,6733.9366 C -4758.8858,6733.988 -4766.6182,6735.8915 -4768.1114,6735.8915 C -4771.3695,6735.8915 -4774.6277,6735.8915 -4777.8858,6735.8915 C -4780.9656,6735.8915 -4784.2552,6736.5431 -4787.6602,6736.5431 C -4792.3332,6736.5431 -4796.229,6737.9281 -4798.0862,6733.285 z"
           style="fill:#ff80e5;fill-rule:evenodd;stroke:none;stroke-width:1px;stroke-linecap:butt;stroke-linejoin:miter;stroke-opacity:1"
           inkscape:export-filename="/home/brutkasten/Dokumente/naev/whichtraderlogo.png"
           inkscape:export-xdpi="90"
           inkscape:export-ydpi="90" />
        <path
           id="path38164"
           d="M -4798.3306,6758.9751 C -4796.8685,6758.9751 -4791.345,6758.9751 -4787.9046,6758.9751 C -4784.4292,6758.9751 -4780.9539,6758.9751 -4777.4785,6758.9751 C -4774.0015,6758.9751 -4771.2655,6758.3235 -4767.7041,6758.3235 C -4763.9469,6758.3235 -4761.3634,6758.5615 -4759.233,6759.6267 C -4759.1302,6759.6781 -4766.8625,6761.5816 -4768.3558,6761.5816 C -4771.6139,6761.5816 -4774.872,6761.5816 -4778.1302,6761.5816 C -4781.21,6761.5816 -4784.4996,6762.2332 -4787.9046,6762.2332 C -4792.5775,6762.2332 -4796.4734,6763.6182 -4798.3306,6758.9751 z"
           style="fill:#53536c;fill-rule:evenodd;stroke:none;stroke-width:1px;stroke-linecap:butt;stroke-linejoin:miter;stroke-opacity:1"
           inkscape:export-filename="/home/brutkasten/Dokumente/naev/whichtraderlogo.png"
           inkscape:export-xdpi="90"
           inkscape:export-ydpi="90" />
        <path
           style="fill:#e6e6e6;fill-opacity:1;fill-rule:evenodd;stroke:none;stroke-width:1px;stroke-linecap:butt;stroke-linejoin:miter;stroke-opacity:1"
           d="M -4803.7677,6792.7444 C -4803.4518,6792.7018 -4802.4099,6792.7401 -4801.8927,6792.8694 C -4800.8829,6793.1218 -4800.8327,6793.5442 -4800.6427,6794.4944 C -4800.5145,6795.1354 -4800.3017,6795.7334 -4800.1427,6796.3694 C -4799.993,6796.9679 -4799.8138,6797.6848 -4799.6427,6798.3694 C -4799.4754,6799.0387 -4799.247,6799.5358 -4799.0177,6799.9944 C -4798.9014,6800.2269 -4801.2084,6800.2444 -4801.5177,6800.2444 C -4802.3094,6800.2444 -4803.101,6800.2444 -4803.8927,6800.2444 C -4804.4662,6800.2444 -4805.1472,6800.1194 -4805.7677,6800.1194 C -4806.3927,6800.1194 -4807.0177,6800.1194 -4807.6427,6800.1194 C -4808.3704,6800.1194 -4807.0931,6798.7702 -4806.7677,6798.1194 C -4806.44,6797.4639 -4806.3308,6796.9957 -4806.0177,6796.3694 C -4805.7658,6795.8657 -4805.3246,6795.3582 -4805.0177,6794.7444 C -4804.7432,6794.1954 -4804.378,6793.8547 -4804.0177,6793.4944 C -4803.8313,6793.308 -4803.851,6792.9944 -4803.7677,6792.7444 z"
           id="path38174" />
        <path
           style="fill:#e6e6e6;fill-rule:evenodd;stroke:none;stroke-width:1px;stroke-linecap:butt;stroke-linejoin:miter;stroke-opacity:1"
           d="M -4780.8927,6787.3694 C -4780.7821,6787.2587 -4779.4608,6787.4944 -4778.8927,6787.4944 C -4778.236,6787.4944 -4777.3979,6787.5868 -4777.2677,6787.6194 C -4777.1229,6787.6556 -4777.0177,6789.9718 -4777.0177,6790.2444 C -4777.0177,6790.8238 -4776.6311,6791.6426 -4776.3927,6792.1194 C -4776.1034,6792.6978 -4775.8728,6793.4091 -4775.6427,6793.8694 C -4775.3803,6794.3941 -4775.1064,6795.067 -4774.8927,6795.4944 C -4774.4578,6796.3642 -4774.7946,6796.1194 -4775.8927,6796.1194 C -4776.7798,6796.1194 -4777.5696,6795.9189 -4778.2677,6795.7444 C -4778.9001,6795.5863 -4779.5234,6795.3992 -4780.1427,6795.2444 C -4780.7191,6795.1003 -4781.5588,6795.1091 -4782.0177,6794.9944 C -4782.8358,6794.7898 -4783.4728,6795.2795 -4782.8927,6794.1194 C -4782.5593,6793.4526 -4782.5663,6792.4665 -4782.2677,6791.8694 C -4781.9427,6791.2194 -4781.8318,6790.4975 -4781.5177,6789.8694 C -4781.2441,6789.3223 -4781.2705,6788.7557 -4781.1427,6788.2444 C -4781.0679,6787.9454 -4780.9798,6787.8047 -4780.8927,6787.3694 z"
           id="path38176" />
        <path
           style="fill:#e6e6e6;fill-rule:evenodd;stroke:none;stroke-width:1px;stroke-linecap:butt;stroke-linejoin:miter;stroke-opacity:1"
           d="M -4757.3927,6792.8694 C -4757.3889,6792.8542 -4755.7095,6792.8694 -4754.8927,6792.8694 C -4753.9377,6792.8694 -4753.6414,6793.7493 -4753.3927,6794.7444 C -4753.2272,6795.4062 -4753.0177,6795.8654 -4753.0177,6796.6194 C -4753.0177,6797.3714 -4752.9386,6798.1857 -4752.7677,6798.8694 C -4752.6172,6799.4713 -4752.1986,6799.8826 -4752.0177,6800.2444 C -4751.5057,6801.2684 -4752.183,6801.0613 -4753.1427,6800.8694 C -4753.8916,6800.7196 -4754.6829,6800.9218 -4755.3927,6800.7444 C -4756.126,6800.561 -4756.9368,6800.6708 -4757.6427,6800.4944 C -4758.4538,6800.2916 -4758.6796,6800.5825 -4759.2677,6799.9944 C -4759.6484,6799.6137 -4758.7796,6798.7603 -4758.3927,6798.2444 C -4757.9949,6797.7139 -4757.7677,6797.2286 -4757.7677,6796.4944 C -4757.7677,6795.8451 -4757.7871,6795.1971 -4757.6427,6794.6194 C -4757.492,6794.0164 -4757.3927,6793.5586 -4757.3927,6792.8694 z"
           id="path38178" />
        <path
           style="fill:#666666;fill-rule:evenodd;stroke:#999999;stroke-width:1.89999998;stroke-linecap:butt;stroke-linejoin:miter;stroke-miterlimit:4;stroke-dasharray:none;stroke-opacity:1"
           d="M -4799.7336,6773.8272 C -4787.1769,6774.132 -4770.9909,6773.6823 -4760.4891,6773.8121"
           id="path38202"
           sodipodi:nodetypes="cc" />
        <path
           style="fill:none;fill-rule:evenodd;stroke:#999999;stroke-width:2.0999999;stroke-linecap:butt;stroke-linejoin:miter;stroke-miterlimit:4;stroke-dasharray:none;stroke-opacity:1"
           d="M -4803.2691,6767.2865 C -4803.3474,6771.5763 -4800.9633,6773.8953 -4798.0005,6773.879"
           id="path38208"
           sodipodi:nodetypes="cc" />
        <path
           style="fill:none;fill-rule:evenodd;stroke:#999999;stroke-width:2.0999999;stroke-linecap:butt;stroke-linejoin:miter;stroke-miterlimit:4;stroke-dasharray:none;stroke-opacity:1"
           d="M -4755.6104,6767.5624 C -4755.3133,6771.2272 -4757.7287,6773.7024 -4761.0352,6773.8737"
           id="path38210"
           sodipodi:nodetypes="cc" />
        <path
           style="fill:#666666;fill-rule:evenodd;stroke:#999999;stroke-width:1.89999998;stroke-linecap:butt;stroke-linejoin:miter;stroke-miterlimit:4;stroke-dasharray:none;stroke-opacity:1"
           d="M -4799.3559,6749.2508 C -4786.7992,6749.5556 -4770.6132,6749.1059 -4760.1114,6749.2357"
           id="path38212"
           sodipodi:nodetypes="cc" />
        <path
           style="fill:none;fill-rule:evenodd;stroke:#999999;stroke-width:2.0999999;stroke-linecap:butt;stroke-linejoin:miter;stroke-miterlimit:4;stroke-dasharray:none;stroke-opacity:1"
           d="M -4802.8914,6742.7101 C -4802.9697,6746.9999 -4800.5856,6749.3189 -4797.6228,6749.3026"
           id="path38214"
           sodipodi:nodetypes="cc" />
        <path
           style="fill:none;fill-rule:evenodd;stroke:#999999;stroke-width:2.0999999;stroke-linecap:butt;stroke-linejoin:miter;stroke-miterlimit:4;stroke-dasharray:none;stroke-opacity:1"
           d="M -4755.2327,6742.986 C -4754.9356,6746.6508 -4757.351,6749.126 -4760.6575,6749.2973"
           id="path38216"
           sodipodi:nodetypes="cc" />
        <path
           style="fill:#666666;fill-rule:evenodd;stroke:#999999;stroke-width:1.89999998;stroke-linecap:butt;stroke-linejoin:miter;stroke-miterlimit:4;stroke-dasharray:none;stroke-opacity:1"
           d="M -4800.1103,6724.343 C -4787.5536,6724.6478 -4771.3676,6724.1981 -4760.8658,6724.3279"
           id="path38218"
           sodipodi:nodetypes="cc" />
        <path
           style="fill:none;fill-rule:evenodd;stroke:#999999;stroke-width:2.0999999;stroke-linecap:butt;stroke-linejoin:miter;stroke-miterlimit:4;stroke-dasharray:none;stroke-opacity:1"
           d="M -4803.6458,6717.8023 C -4803.7241,6722.0921 -4801.34,6724.4111 -4798.3772,6724.3948"
           id="path38220"
           sodipodi:nodetypes="cc" />
        <path
           style="fill:none;fill-rule:evenodd;stroke:#999999;stroke-width:2.0999999;stroke-linecap:butt;stroke-linejoin:miter;stroke-miterlimit:4;stroke-dasharray:none;stroke-opacity:1"
           d="M -4755.9871,6718.0782 C -4755.69,6721.743 -4758.1054,6724.2182 -4761.4119,6724.3895"
           id="path38222"
           sodipodi:nodetypes="cc" />
        <path
           style="fill:#666666;fill-rule:evenodd;stroke:#999999;stroke-width:1.89999998;stroke-linecap:butt;stroke-linejoin:miter;stroke-miterlimit:4;stroke-dasharray:none;stroke-opacity:1"
           d="M -4800.1185,6695.4207 C -4787.5618,6695.7255 -4771.3758,6695.2758 -4760.874,6695.4056"
           id="path38224"
           sodipodi:nodetypes="cc" />
        <path
           style="fill:#e6e6e6;fill-rule:evenodd;stroke:none;stroke-width:1px;stroke-linecap:butt;stroke-linejoin:miter;stroke-opacity:1"
           d="M -4803.288,6783.2859 C -4802.1586,6783.2859 -4800.233,6783.2859 -4798.7802,6783.2859 C -4797.69,6783.2859 -4796.5999,6783.2859 -4795.5098,6783.2859 C -4794.7732,6783.2859 -4794.0367,6783.2859 -4793.3001,6783.2859 C -4792.534,6783.2859 -4791.768,6783.2859 -4791.002,6783.2859 C -4790.3538,6783.2859 -4789.7056,6783.2859 -4789.0574,6783.2859 C -4788.4387,6783.2859 -4787.82,6783.2859 -4787.2013,6783.2859 C -4787.054,6783.2859 -4786.9067,6783.2859 -4786.7593,6783.2859 C -4786.1661,6783.2859 -4785.5193,6783.1975 -4784.9032,6783.1975 C -4784.3057,6783.1975 -4783.7596,6783.1546 -4783.2238,6783.0207 C -4783.106,6782.9912 -4782.9881,6782.9618 -4782.8703,6782.9323 C -4782.5616,6782.8551 -4782.1908,6782.3274 -4781.8096,6782.1368 C -4781.3455,6781.9048 -4781.0372,6781.5296 -4780.6605,6781.3413 C -4780.182,6781.102 -4779.3514,6781.1245 -4778.8044,6780.9878 C -4778.2997,6780.8616 -4777.8609,6781.0618 -4777.4786,6781.2529 C -4776.9644,6781.51 -4776.813,6781.877 -4776.5947,6782.3136 C -4776.4034,6782.6961 -4776.1038,6782.8044 -4775.8876,6783.0207 C -4775.5283,6783.38 -4774.9138,6783.2861 -4774.385,6783.3742 C -4773.8017,6783.4715 -4773.1212,6783.3742 -4772.5288,6783.3742 C -4771.8265,6783.3742 -4771.1481,6783.2859 -4770.4075,6783.2859 C -4769.7299,6783.2859 -4769.0522,6783.2859 -4768.3746,6783.2859 C -4767.6675,6783.2859 -4766.9604,6783.2859 -4766.2532,6783.2859 C -4765.1042,6783.2859 -4763.9552,6783.2859 -4762.8061,6783.2859 C -4761.7496,6783.2859 -4760.5428,6783.3608 -4759.5357,6783.1091 C -4758.8476,6782.937 -4757.8684,6783.1091 -4757.1492,6783.1091 C -4756.5011,6783.1091 -4755.8529,6783.1091 -4755.2047,6783.1091 C -4754.6681,6783.1091 -4754.1857,6782.9426 -4754.0557,6783.4626 C -4753.9127,6784.0346 -4753.9947,6784.319 -4753.7021,6784.6117 C -4753.323,6784.9907 -4754.2325,6785.363 -4754.4092,6785.4956 C -4754.6774,6785.6967 -4755.2998,6785.584 -4755.6466,6785.584 C -4756.2123,6785.584 -4756.4368,6785.3215 -4756.7957,6785.142 C -4757.3822,6784.8487 -4757.5652,6784.6624 -4758.1215,6784.5233 C -4759.1007,6784.2785 -4760.6786,6784.7001 -4761.7454,6784.7001 C -4762.4511,6784.7001 -4763.0111,6784.7885 -4763.69,6784.7885 C -4764.6423,6784.7885 -4765.5705,6784.8768 -4766.5184,6784.8768 C -4767.4023,6784.8768 -4768.2862,6784.8768 -4769.1701,6784.8768 C -4770.1035,6784.8768 -4771.0554,6784.7885 -4771.9985,6784.7885 C -4772.6761,6784.7885 -4773.3538,6784.7885 -4774.0314,6784.7885 C -4775.1356,6784.7885 -4776.1935,6784.7001 -4777.3018,6784.7001 C -4778.2312,6784.7001 -4779.1312,6784.6117 -4780.0418,6784.6117 C -4780.917,6784.6117 -4781.7476,6784.5233 -4782.6051,6784.5233 C -4783.4419,6784.5233 -4784.2486,6784.4349 -4785.08,6784.4349 C -4785.7576,6784.4349 -4786.4353,6784.4349 -4787.1129,6784.4349 C -4787.7611,6784.4349 -4788.4093,6784.4349 -4789.0574,6784.4349 C -4790.1181,6784.4349 -4791.1788,6784.4349 -4792.2394,6784.4349 C -4793.2117,6784.4349 -4794.184,6784.4349 -4795.1562,6784.4349 C -4796.1285,6784.4349 -4797.1008,6784.4349 -4798.0731,6784.4349 C -4798.6034,6784.4349 -4799.1153,6784.3465 -4799.664,6784.3465 C -4800.3144,6784.3465 -4800.6897,6785.0905 -4800.8131,6785.584 C -4800.971,6786.2156 -4801.3432,6786.733 -4801.9621,6786.733 C -4802.3959,6786.733 -4802.9083,6786.8214 -4803.3764,6786.8214 C -4803.871,6786.8214 -4803.7299,6785.9946 -4803.7299,6785.584 C -4803.7299,6785.179 -4803.9067,6784.7291 -4803.9067,6784.2581 C -4803.9067,6783.7702 -4803.6622,6783.5852 -4803.288,6783.2859 z"
           id="path38436" />
      </g>
    </g>
  </g>
</svg>
