<?xml version="1.0" encoding="UTF-8" standalone="no"?>
<!-- Created with Inkscape (http://www.inkscape.org/) -->

<svg
   xmlns:dc="http://purl.org/dc/elements/1.1/"
   xmlns:cc="http://creativecommons.org/ns#"
   xmlns:rdf="http://www.w3.org/1999/02/22-rdf-syntax-ns#"
   xmlns:svg="http://www.w3.org/2000/svg"
   xmlns="http://www.w3.org/2000/svg"
   xmlns:xlink="http://www.w3.org/1999/xlink"
   xmlns:sodipodi="http://sodipodi.sourceforge.net/DTD/sodipodi-0.dtd"
   xmlns:inkscape="http://www.inkscape.org/namespaces/inkscape"
   width="210mm"
   height="297mm"
   id="svg20632"
   sodipodi:version="0.32"
   inkscape:version="0.92.4 5da689c313, 2019-01-14"
   sodipodi:docname="collective.svg"
   inkscape:output_extension="org.inkscape.output.svg.inkscape"
   inkscape:export-filename="/home/brutkasten/Dokumente/naev/FLF_logo.png"
   inkscape:export-xdpi="90"
   inkscape:export-ydpi="90"
   version="1.1">
  <defs
     id="defs20634">
    <linearGradient
       inkscape:collect="always"
       xlink:href="#linearGradient6288"
       id="linearGradient6770"
       gradientUnits="userSpaceOnUse"
       gradientTransform="translate(-2428.4674,-608.90056)"
       x1="-1578.8463"
       y1="750.07733"
       x2="-1662.8076"
       y2="932.7063" />
    <linearGradient
       id="linearGradient6288">
      <stop
         id="stop6298"
         offset="0"
         style="stop-color:#d9d9d9;stop-opacity:1;" />
      <stop
         style="stop-color:#444444;stop-opacity:1;"
         offset="1"
         id="stop6292" />
    </linearGradient>
    <linearGradient
       inkscape:collect="always"
       xlink:href="#linearGradient6288"
       id="linearGradient6768"
       gradientUnits="userSpaceOnUse"
       gradientTransform="translate(-2428.4674,-608.90056)"
       x1="-1588.0897"
       y1="749.22992"
       x2="-1664.6733"
       y2="918.88086" />
    <inkscape:perspective
       sodipodi:type="inkscape:persp3d"
       inkscape:vp_x="0 : 561.25983 : 1"
       inkscape:vp_y="0 : 1066.6667 : 0"
       inkscape:vp_z="793.70078 : 561.25983 : 1"
       inkscape:persp3d-origin="396.85039 : 374.17322 : 1"
       id="perspective20640" />
    <inkscape:perspective
       id="perspective2457"
       inkscape:persp3d-origin="64 : 14.933333 : 1"
       inkscape:vp_z="128 : 22.4 : 1"
       inkscape:vp_y="0 : 1066.6667 : 0"
       inkscape:vp_x="0 : 22.4 : 1"
       sodipodi:type="inkscape:persp3d" />
    <inkscape:perspective
       sodipodi:type="inkscape:persp3d"
       inkscape:vp_x="0 : 22.4 : 1"
       inkscape:vp_y="0 : 1066.6667 : 0"
       inkscape:vp_z="128 : 22.4 : 1"
       inkscape:persp3d-origin="64 : 14.933333 : 1"
       id="perspective38983" />
    <inkscape:perspective
       id="perspective22068"
       inkscape:persp3d-origin="396.85039 : 374.17322 : 1"
       inkscape:vp_z="793.70078 : 561.25983 : 1"
       inkscape:vp_y="0 : 1066.6667 : 0"
       inkscape:vp_x="0 : 561.25983 : 1"
       sodipodi:type="inkscape:persp3d" />
    <linearGradient
       inkscape:collect="always"
       xlink:href="#linearGradient6288"
       id="linearGradient4294"
       gradientUnits="userSpaceOnUse"
       gradientTransform="matrix(0.9999724,-7.4244406e-3,7.4244406e-3,0.9999724,1984.6428,-382.49451)"
       x1="-1578.8463"
       y1="750.07733"
       x2="-1662.8076"
       y2="932.7063" />
    <linearGradient
       inkscape:collect="always"
       xlink:href="#linearGradient6288"
       id="linearGradient4297"
       gradientUnits="userSpaceOnUse"
       gradientTransform="matrix(0.9999724,-7.4244406e-3,7.4244406e-3,0.9999724,1984.6428,-382.49451)"
       x1="-1588.0897"
       y1="749.22992"
       x2="-1664.6733"
       y2="918.88086" />
    <linearGradient
       inkscape:collect="always"
       xlink:href="#linearGradient6288"
       id="linearGradient4353"
       gradientUnits="userSpaceOnUse"
       x1="522.18475"
       y1="492.16702"
       x2="221.55882"
       y2="510.24921" />
  </defs>
  <sodipodi:namedview
     id="base"
     pagecolor="#ffffff"
     bordercolor="#666666"
     borderopacity="1.0"
     inkscape:pageopacity="0.0"
     inkscape:pageshadow="2"
     inkscape:zoom="1"
     inkscape:cx="646.13246"
     inkscape:cy="509.73467"
     inkscape:document-units="px"
     inkscape:current-layer="layer1"
     showgrid="false"
     inkscape:window-width="1916"
     inkscape:window-height="1014"
     inkscape:window-x="2"
     inkscape:window-y="64"
     inkscape:window-maximized="1" />
  <metadata
     id="metadata20637">
    <rdf:RDF>
      <cc:Work
         rdf:about="">
        <dc:format>image/svg+xml</dc:format>
        <dc:type
           rdf:resource="http://purl.org/dc/dcmitype/StillImage" />
        <dc:title></dc:title>
        <cc:license
           rdf:resource="https://creativecommons.org/licenses/by/3.0/" />
        <dc:creator>
          <cc:Agent>
            <dc:title>enigmatic</dc:title>
          </cc:Agent>
        </dc:creator>
      </cc:Work>
    </rdf:RDF>
  </metadata>
  <g
     inkscape:label="Ebene 1"
     inkscape:groupmode="layer"
     id="layer1">
    <g
       id="g2491">
      <g
         id="g4307">
        <path
           style="fill:url(#linearGradient4353);fill-opacity:1;fill-rule:evenodd;stroke:url(#linearGradient4297);stroke-width:11.48600006000000029;stroke-linecap:butt;stroke-linejoin:miter;marker-start:none;stroke-miterlimit:4;stroke-dasharray:68.91599735000001203, 11.48599955999999978;stroke-dashoffset:0;stroke-opacity:1"
           d="M 287.54312,591.29536 C 262.32123,575.25458 259.25242,524.04242 201.53253,507.50172 277.77541,487.24533 388.14082,385.3852 402.26239,353.58274 423.44558,393.60072 479.02812,462.17251 530.24836,488.0099 487.00143,503.53403 343.69917,588.46766 357.28175,591.19004"
           id="path6726"
           sodipodi:nodetypes="ccccc" />
        <path
           style="fill:none;fill-rule:evenodd;stroke:#808080;stroke-width:0.1;stroke-linecap:butt;stroke-linejoin:miter;stroke-miterlimit:4;stroke-dasharray:none;stroke-opacity:1"
           d="M 179.63276,506.6946 C 179.68148,506.69529 179.80409,506.69704 179.88685,506.69822 C 179.90158,506.69843 179.91631,506.69863 179.93104,506.69884"
           id="path7897" />
        <path
           style="fill:url(#linearGradient4294);fill-opacity:1;fill-rule:evenodd;stroke:none;stroke-width:11.48567581;stroke-linecap:butt;stroke-linejoin:miter;marker-start:none;stroke-miterlimit:4;stroke-dasharray:68.91405048, 11.48567509;stroke-dashoffset:0;stroke-opacity:1"
           d="M 290.85366,586.80407 C 266.84775,571.53661 264.21547,524.44849 210.36449,506.21115 C 282.91399,491.01849 387.81411,393.14331 402.18994,363.61068 C 422.35188,401.69943 474.48224,463.06722 523.23316,487.65902 C 482.07123,502.43475 345.67736,583.27382 358.60505,585.86492"
           id="path6728"
           sodipodi:nodetypes="ccccc" />
        <path
           style="fill:#4d4d4d;fill-opacity:1;fill-rule:evenodd;stroke:none;stroke-width:11.48567581;stroke-linecap:butt;stroke-linejoin:miter;marker-start:none;stroke-miterlimit:4;stroke-dasharray:68.91405048, 11.48567509;stroke-dashoffset:0;stroke-opacity:1"
           d="M 300.70988,579.86022 C 278.83448,565.94765 276.17284,521.53018 226.11105,507.18407 C 292.22198,493.33975 387.81243,404.15072 400.91249,377.23904 C 419.28508,411.9475 466.78908,467.86908 511.21348,490.27841 C 473.70451,503.74283 349.41521,577.40764 361.19567,579.76884"
           id="path6730"
           sodipodi:nodetypes="ccccc" />
        <path
           sodipodi:type="spiral"
           style="fill:#000000;fill-rule:evenodd;stroke:#ffffff;stroke-width:7.5;stroke-linecap:round;stroke-linejoin:miter;stroke-miterlimit:4;stroke-dasharray:none;stroke-opacity:1"
           id="path6732"
           sodipodi:cx="-1841.7922"
           sodipodi:cy="591.63794"
           sodipodi:expansion="1"
           sodipodi:revolution="1.5091813"
           sodipodi:radius="36.584259"
           sodipodi:argument="-18.750643"
           sodipodi:t0="0"
           d="M -1841.7922,591.63794 C -1838.1638,591.99801 -1840.4875,596.70661 -1842.3907,597.6686 C -1847.5483,600.27552 -1852.83,595.26102 -1853.8536,590.44101 C -1855.6845,581.81915 -1848.1342,574.44628 -1839.9968,573.54596 C -1828.0549,572.22471 -1818.3439,582.59957 -1817.6696,594.0318 C -1816.7708,609.26916 -1830.0625,621.3829 -1844.7846,621.79124 C -1863.3107,622.30509 -1877.8538,606.05725 -1877.9762,588.04715 C -1877.981,587.34191 -1877.9651,586.63653 -1877.9288,585.93221"
           transform="matrix(1.081431,-0.4011848,0.4011848,1.081431,2159.5443,-915.98438)" />
        <g
           id="g6734"
           transform="matrix(0.9060636,0.3613978,-0.3613978,0.9060636,2150.5334,295.01905)"
           style="fill:#e6e6e6">
          <rect
             transform="matrix(-0.8757396,-0.4827838,-0.4829096,0.8756702,0,0)"
             ry="1.7665977"
             rx="18.5219"
             y="1537.923"
             x="959.76172"
             height="22.774298"
             width="22.778187"
             id="rect6736"
             style="opacity:1;fill:#cccccc;fill-opacity:1;stroke:#000000;stroke-width:1.87299991;stroke-miterlimit:4;stroke-dasharray:none;stroke-dashoffset:0;stroke-opacity:1" />
          <rect
             transform="matrix(-0.9767069,-0.2145779,-0.2147181,0.9766761,0,0)"
             ry="1.766597"
             rx="18.5219"
             y="1137.0887"
             x="1322.7458"
             height="22.774286"
             width="22.778185"
             id="rect6738"
             style="opacity:1;fill:#cccccc;fill-opacity:1;stroke:#000000;stroke-width:1.87299991;stroke-miterlimit:4;stroke-dasharray:none;stroke-dashoffset:0;stroke-opacity:1" />
          <rect
             transform="matrix(-0.8757396,-0.4827838,-0.4829096,0.8756702,0,0)"
             ry="1.7665974"
             rx="18.5219"
             y="1515.5879"
             x="944.86554"
             height="22.774292"
             width="22.778185"
             id="rect6740"
             style="opacity:1;fill:#cccccc;fill-opacity:1;stroke:#000000;stroke-width:1.87299991;stroke-miterlimit:4;stroke-dasharray:none;stroke-dashoffset:0;stroke-opacity:1" />
          <rect
             transform="matrix(-0.8757396,-0.4827838,-0.4829096,0.8756702,0,0)"
             ry="1.7665977"
             rx="18.5219"
             y="1538.5865"
             x="985.13239"
             height="22.774298"
             width="22.778187"
             id="rect6742"
             style="opacity:1;fill:#cccccc;fill-opacity:1;stroke:#000000;stroke-width:1.87299991;stroke-miterlimit:4;stroke-dasharray:none;stroke-dashoffset:0;stroke-opacity:1" />
          <rect
             transform="matrix(-0.8757396,-0.4827838,-0.4829096,0.8756702,0,0)"
             ry="1.7665973"
             rx="18.5219"
             y="1491.7417"
             x="939.51782"
             height="22.77429"
             width="22.778185"
             id="rect6744"
             style="opacity:1;fill:#cccccc;fill-opacity:1;stroke:#000000;stroke-width:1.87299991;stroke-miterlimit:4;stroke-dasharray:none;stroke-dashoffset:0;stroke-opacity:1" />
          <rect
             transform="matrix(-0.8757396,-0.4827838,-0.4829096,0.8756702,0,0)"
             ry="1.7665977"
             rx="18.5219"
             y="1537.9703"
             x="1010.2406"
             height="22.774298"
             width="22.778187"
             id="rect6746"
             style="opacity:1;fill:#cccccc;fill-opacity:1;stroke:#000000;stroke-width:1.87299991;stroke-miterlimit:4;stroke-dasharray:none;stroke-dashoffset:0;stroke-opacity:1" />
          <rect
             transform="matrix(-0.8757396,-0.4827838,-0.4829096,0.8756702,0,0)"
             ry="1.7665972"
             rx="18.5219"
             y="1515.8278"
             x="1023.853"
             height="22.774288"
             width="22.778185"
             id="rect6748"
             style="opacity:1;fill:#cccccc;fill-opacity:1;stroke:#000000;stroke-width:1.87299991;stroke-miterlimit:4;stroke-dasharray:none;stroke-dashoffset:0;stroke-opacity:1" />
          <rect
             transform="matrix(-0.8757396,-0.4827838,-0.4829096,0.8756702,0,0)"
             ry="1.7665972"
             rx="18.5219"
             y="1492.6298"
             x="1029.5348"
             height="22.774288"
             width="22.778185"
             id="rect6750"
             style="opacity:1;fill:#cccccc;fill-opacity:1;stroke:#000000;stroke-width:1.87299991;stroke-miterlimit:4;stroke-dasharray:none;stroke-dashoffset:0;stroke-opacity:1" />
          <rect
             inkscape:transform-center-x="1.1048543"
             transform="matrix(-0.847359,-0.5310204,-0.5311422,0.8472827,0,0)"
             ry="1.7665973"
             rx="18.5219"
             y="1525.127"
             x="943.73608"
             height="22.77429"
             width="22.778185"
             id="rect6752"
             style="opacity:1;fill:#cccccc;fill-opacity:1;stroke:#000000;stroke-width:1.87300003;stroke-miterlimit:4;stroke-dasharray:none;stroke-dashoffset:0;stroke-opacity:1" />
          <rect
             transform="matrix(-0.8757396,-0.4827838,-0.4829096,0.8756702,0,0)"
             ry="1.7665977"
             rx="18.5219"
             y="1562.8785"
             x="998.59125"
             height="22.774298"
             width="22.778187"
             id="rect6754"
             style="opacity:1;fill:#cccccc;fill-opacity:1;stroke:#000000;stroke-width:1.87299991;stroke-miterlimit:4;stroke-dasharray:none;stroke-dashoffset:0;stroke-opacity:1" />
          <rect
             transform="matrix(-0.8757396,-0.4827838,-0.4829096,0.8756702,0,0)"
             ry="1.7665977"
             rx="18.5219"
             y="1562.4232"
             x="971.69916"
             height="22.774298"
             width="22.778187"
             id="rect6756"
             style="opacity:1;fill:#cccccc;fill-opacity:1;stroke:#000000;stroke-width:1.87299991;stroke-miterlimit:4;stroke-dasharray:none;stroke-dashoffset:0;stroke-opacity:1" />
          <rect
             transform="matrix(-0.7839127,-0.620871,-0.6209837,0.7838235,0,0)"
             ry="1.7665969"
             rx="18.521902"
             y="1729.3425"
             x="697.00159"
             height="22.774296"
             width="22.778193"
             id="rect6758"
             style="opacity:1;fill:#cccccc;fill-opacity:1;stroke:#000000;stroke-width:1.87300003;stroke-miterlimit:4;stroke-dasharray:none;stroke-dashoffset:0;stroke-opacity:1" />
          <rect
             transform="matrix(-0.7474145,-0.664358,-0.6644652,0.7473192,0,0)"
             ry="1.7665976"
             rx="18.5219"
             y="1773.9095"
             x="622.89343"
             height="22.774302"
             width="22.778193"
             id="rect6760"
             style="opacity:1;fill:#cccccc;fill-opacity:1;stroke:#000000;stroke-width:1.87299991;stroke-miterlimit:4;stroke-dasharray:none;stroke-dashoffset:0;stroke-opacity:1" />
          <rect
             transform="matrix(-0.6616868,-0.7497803,-0.7498753,0.6615792,0,0)"
             ry="1.7665977"
             rx="18.521902"
             y="1854.1626"
             x="374.98444"
             height="22.774303"
             width="22.778193"
             id="rect6762"
             style="opacity:1;fill:#cccccc;fill-opacity:1;stroke:#000000;stroke-width:1.87300003;stroke-miterlimit:4;stroke-dasharray:none;stroke-dashoffset:0;stroke-opacity:1" />
          <rect
             transform="matrix(-0.6874343,-0.7262466,-0.7263451,0.6873302,0,0)"
             ry="1.7665972"
             rx="18.521898"
             y="1846.7836"
             x="465.34448"
             height="22.774298"
             width="22.778189"
             id="rect6764"
             style="opacity:1;fill:#cccccc;fill-opacity:1;stroke:#000000;stroke-width:1.87299991;stroke-miterlimit:4;stroke-dasharray:none;stroke-dashoffset:0;stroke-opacity:1" />
        </g>
        <path
           style="fill:#444444;fill-opacity:1;fill-rule:evenodd;stroke:none;stroke-width:1px;stroke-linecap:butt;stroke-linejoin:miter;stroke-opacity:1"
           d="M 284.04678,595.80182 C 307.73707,596.25132 324.41744,595.37792 355.78406,596.63845 C 356.71987,596.86505 361.85435,593.43589 361.53969,592.21579 C 359.03378,584.27768 359.78341,586.08372 356.48358,585.90262 C 337.11725,585.0285 314.05486,587.64679 287.86876,584.44501 C 281.66354,585.07053 282.21197,591.28213 284.04678,595.80182 z"
           id="path6766"
           sodipodi:nodetypes="cccccc" />
        <rect
           transform="matrix(-0.6345586,-0.7728747,-0.7729659,0.6344476,0,0)"
           ry="1.014572"
           rx="10.637283"
           y="30.371572"
           x="-627.13953"
           height="13.079472"
           width="13.081702"
           id="rect6820"
           style="fill:#ececec;fill-opacity:1;stroke:none;stroke-width:1.87299991;stroke-miterlimit:4;stroke-dasharray:none;stroke-dashoffset:0;stroke-opacity:1" />
        <rect
           transform="matrix(-0.6345586,-0.7728747,-0.7729659,0.6344476,0,0)"
           ry="1.014572"
           rx="10.637283"
           y="29.577139"
           x="-602.58899"
           height="13.079472"
           width="13.081703"
           id="rect6822"
           style="fill:#ececec;fill-opacity:1;stroke:none;stroke-width:1.87299991;stroke-miterlimit:4;stroke-dasharray:none;stroke-dashoffset:0;stroke-opacity:1" />
        <rect
           transform="matrix(-0.6345586,-0.7728747,-0.7729659,0.6344476,0,0)"
           ry="1.014572"
           rx="10.637283"
           y="8.212636"
           x="-589.02234"
           height="13.079472"
           width="13.081703"
           id="rect6824"
           style="fill:#ececec;fill-opacity:1;stroke:none;stroke-width:1.87299991;stroke-miterlimit:4;stroke-dasharray:none;stroke-dashoffset:0;stroke-opacity:1" />
        <rect
           transform="matrix(-0.6345586,-0.7728747,-0.7729659,0.6344476,0,0)"
           ry="1.014572"
           rx="10.637283"
           y="-14.451915"
           x="-584.13123"
           height="13.079472"
           width="13.081703"
           id="rect6826"
           style="fill:#ececec;fill-opacity:1;stroke:none;stroke-width:1.87299991;stroke-miterlimit:4;stroke-dasharray:none;stroke-dashoffset:0;stroke-opacity:1" />
        <rect
           transform="matrix(-0.6345586,-0.7728747,-0.7729659,0.6344476,0,0)"
           ry="1.014572"
           rx="10.637283"
           y="-37.129894"
           x="-584.79456"
           height="13.079472"
           width="13.081703"
           id="rect6828"
           style="fill:#ececec;fill-opacity:1;stroke:none;stroke-width:1.87299991;stroke-miterlimit:4;stroke-dasharray:none;stroke-dashoffset:0;stroke-opacity:1" />
        <rect
           transform="matrix(-0.8373556,-0.5466586,-0.5467789,0.837277,0,0)"
           ry="1.014572"
           rx="10.637282"
           y="162.2399"
           x="-648.12555"
           height="13.079472"
           width="13.081704"
           id="rect6830"
           style="fill:#ececec;fill-opacity:1;stroke:none;stroke-width:1.87299991;stroke-miterlimit:4;stroke-dasharray:none;stroke-dashoffset:0;stroke-opacity:1" />
        <rect
           transform="matrix(-0.6345586,-0.7728747,-0.7729659,0.6344476,0,0)"
           ry="1.014572"
           rx="10.637283"
           y="-15.084971"
           x="-671.61902"
           height="13.079472"
           width="13.081703"
           id="rect6832"
           style="fill:#ececec;fill-opacity:1;stroke:none;stroke-width:1.87299991;stroke-miterlimit:4;stroke-dasharray:none;stroke-dashoffset:0;stroke-opacity:1" />
        <rect
           transform="matrix(-0.6345586,-0.7728747,-0.7729659,0.6344476,0,0)"
           ry="1.014572"
           rx="10.637283"
           y="8.07372"
           x="-666.40857"
           height="13.079472"
           width="13.081703"
           id="rect6834"
           style="fill:#ececec;fill-opacity:1;stroke:none;stroke-width:1.87299991;stroke-miterlimit:4;stroke-dasharray:none;stroke-dashoffset:0;stroke-opacity:1" />
        <rect
           transform="matrix(-0.6345586,-0.7728747,-0.7729659,0.6344476,0,0)"
           ry="1.014572"
           rx="10.637283"
           y="29.920645"
           x="-651.86292"
           height="13.079472"
           width="13.081703"
           id="rect6836"
           style="fill:#ececec;fill-opacity:1;stroke:none;stroke-width:1.87299991;stroke-miterlimit:4;stroke-dasharray:none;stroke-dashoffset:0;stroke-opacity:1" />
        <rect
           transform="matrix(-0.6345586,-0.7728747,-0.7729659,0.6344476,0,0)"
           ry="1.014572"
           rx="10.637283"
           y="54.043449"
           x="-613.99329"
           height="13.079472"
           width="13.081703"
           id="rect6838"
           style="fill:#ececec;fill-opacity:1;stroke:none;stroke-width:1.87299991;stroke-miterlimit:4;stroke-dasharray:none;stroke-dashoffset:0;stroke-opacity:1" />
        <rect
           transform="matrix(-0.6345586,-0.7728747,-0.7729659,0.6344476,0,0)"
           ry="1.014572"
           rx="10.637283"
           y="53.510979"
           x="-640.75891"
           height="13.079472"
           width="13.081703"
           id="rect6840"
           style="fill:#ececec;fill-opacity:1;stroke:none;stroke-width:1.87299991;stroke-miterlimit:4;stroke-dasharray:none;stroke-dashoffset:0;stroke-opacity:1" />
        <rect
           transform="matrix(-0.4577609,-0.8890753,-0.8891411,0.4576332,0,0)"
           ry="1.0145719"
           rx="10.637282"
           y="-49.066864"
           x="-615.66589"
           height="13.07947"
           width="13.081704"
           id="rect6842"
           style="fill:#ececec;fill-opacity:1;stroke:none;stroke-width:1.87299991;stroke-miterlimit:4;stroke-dasharray:none;stroke-dashoffset:0;stroke-opacity:1" />
        <rect
           transform="matrix(-0.4681376,-0.8836556,-0.8837228,0.4680106,0,0)"
           ry="1.014572"
           rx="10.637283"
           y="-48.39085"
           x="-641.65393"
           height="13.07947"
           width="13.081705"
           id="rect6844"
           style="fill:#ececec;fill-opacity:1;stroke:none;stroke-width:1.87299991;stroke-miterlimit:4;stroke-dasharray:none;stroke-dashoffset:0;stroke-opacity:1" />
        <rect
           transform="matrix(-0.2392959,-0.9709467,-0.970981,0.2391565,0,0)"
           ry="1.014572"
           rx="10.637283"
           y="-175.17026"
           x="-617.20587"
           height="13.079472"
           width="13.081706"
           id="rect6846"
           style="fill:#ececec;fill-opacity:1;stroke:none;stroke-width:1.87299991;stroke-miterlimit:4;stroke-dasharray:none;stroke-dashoffset:0;stroke-opacity:1" />
        <rect
           transform="matrix(-0.3440762,-0.9389417,-0.9389911,0.3439413,0,0)"
           ry="1.014572"
           rx="10.637283"
           y="-99.795937"
           x="-607.54272"
           height="13.079469"
           width="13.081705"
           id="rect6848"
           style="fill:#ececec;fill-opacity:1;stroke:none;stroke-width:1.87299991;stroke-miterlimit:4;stroke-dasharray:none;stroke-dashoffset:0;stroke-opacity:1" />
        <path
           style="fill:#d9d9d9;fill-opacity:1;fill-rule:evenodd;stroke:none;stroke-width:1px;stroke-linecap:butt;stroke-linejoin:miter;stroke-opacity:1"
           d="M 524.5181,484.99318 C 524.16119,485.46417 522.9898,486.42653 522.18969,487.06131 C 521.32199,486.57909 520.55562,486.23506 519.7881,485.85839 C 519.38562,485.66087 519.95679,484.67192 520.11865,484.34223 C 520.38197,483.80554 520.75921,483.45854 521.57688,483.45247 C 522.82113,483.72302 523.40819,484.36279 524.5181,484.99318 z"
           id="path6850"
           sodipodi:nodetypes="cccscc" />
        <path
           style="fill:none;fill-rule:evenodd;stroke:#ffffff;stroke-width:0.1;stroke-linecap:butt;stroke-linejoin:miter;stroke-miterlimit:4;stroke-dasharray:none;stroke-opacity:1"
           d="M 544.11452,488.8598 C 544.16324,488.86049 544.28585,488.86224 544.36861,488.86342 C 544.38334,488.86363 544.39807,488.86383 544.4128,488.86404"
           id="path7895" />
      </g>
      <path
         style="fill:#333333;fill-opacity:1;fill-rule:evenodd;stroke:none;stroke-width:1px;stroke-linecap:butt;stroke-linejoin:miter;stroke-opacity:1"
         d="M 282.68732,599.61793 C 306.13238,600.02139 322.64008,599.23745 353.68201,600.36887 C 354.60813,600.57226 359.68946,597.49433 359.37806,596.39919 C 361.39809,592.39914 365.76496,590.7702 361.37429,590.35765 C 342.20842,589.57306 312.38477,592.29817 286.46974,589.42433 C 270.95375,585.36078 280.8715,595.56116 282.68732,599.61793 z"
         id="path2489"
         sodipodi:nodetypes="cccccc" />
    </g>
  </g>
</svg>
