<?xml version="1.0" encoding="UTF-8" standalone="no"?>
<!-- Created with Inkscape (http://www.inkscape.org/) -->

<svg
   width="96.595688mm"
   height="68.880928mm"
   id="svg20632"
   sodipodi:version="0.32"
   inkscape:version="1.1 (c4e8f9ed74, 2021-05-24)"
   sodipodi:docname="collective.svg"
   inkscape:output_extension="org.inkscape.output.svg.inkscape"
   inkscape:export-filename="/home/brutkasten/Dokumente/naev/FLF_logo.png"
   inkscape:export-xdpi="90"
   inkscape:export-ydpi="90"
   version="1.1"
   xmlns:inkscape="http://www.inkscape.org/namespaces/inkscape"
   xmlns:sodipodi="http://sodipodi.sourceforge.net/DTD/sodipodi-0.dtd"
   xmlns:xlink="http://www.w3.org/1999/xlink"
   xmlns="http://www.w3.org/2000/svg"
   xmlns:svg="http://www.w3.org/2000/svg"
   xmlns:rdf="http://www.w3.org/1999/02/22-rdf-syntax-ns#"
   xmlns:cc="http://creativecommons.org/ns#"
   xmlns:dc="http://purl.org/dc/elements/1.1/">
  <defs
     id="defs20634">
    <linearGradient
       inkscape:collect="always"
       xlink:href="#linearGradient6288"
       id="linearGradient6770"
       gradientUnits="userSpaceOnUse"
       gradientTransform="translate(-2428.4674,-608.90056)"
       x1="-1578.8463"
       y1="750.07733"
       x2="-1662.8076"
       y2="932.7063" />
    <linearGradient
       id="linearGradient6288">
      <stop
         id="stop6298"
         offset="0"
         style="stop-color:#f4f4f4;stop-opacity:1;" />
      <stop
         style="stop-color:#444444;stop-opacity:1;"
         offset="1"
         id="stop6292" />
    </linearGradient>
    <linearGradient
       inkscape:collect="always"
       xlink:href="#linearGradient6288"
       id="linearGradient6768"
       gradientUnits="userSpaceOnUse"
       gradientTransform="translate(-2428.4674,-608.90056)"
       x1="-1588.0897"
       y1="749.22992"
       x2="-1664.6733"
       y2="918.88086" />
    <inkscape:perspective
       sodipodi:type="inkscape:persp3d"
       inkscape:vp_x="0 : -300.92249 : 1"
       inkscape:vp_y="0 : 1066.6667 : 0"
       inkscape:vp_z="793.70078 : -300.92249 : 1"
       inkscape:persp3d-origin="396.85039 : -488.0091 : 1"
       id="perspective20640" />
    <inkscape:perspective
       id="perspective2457"
       inkscape:persp3d-origin="64 : -847.24899 : 1"
       inkscape:vp_z="128 : -839.78232 : 1"
       inkscape:vp_y="0 : 1066.6667 : 0"
       inkscape:vp_x="0 : -839.78232 : 1"
       sodipodi:type="inkscape:persp3d" />
    <inkscape:perspective
       sodipodi:type="inkscape:persp3d"
       inkscape:vp_x="0 : -839.78232 : 1"
       inkscape:vp_y="0 : 1066.6667 : 0"
       inkscape:vp_z="128 : -839.78232 : 1"
       inkscape:persp3d-origin="64 : -847.24899 : 1"
       id="perspective38983" />
    <inkscape:perspective
       id="perspective22068"
       inkscape:persp3d-origin="396.85039 : -488.0091 : 1"
       inkscape:vp_z="793.70078 : -300.92249 : 1"
       inkscape:vp_y="0 : 1066.6667 : 0"
       inkscape:vp_x="0 : -300.92249 : 1"
       sodipodi:type="inkscape:persp3d" />
    <linearGradient
       inkscape:collect="always"
       xlink:href="#linearGradient6288"
       id="linearGradient4294"
       gradientUnits="userSpaceOnUse"
       gradientTransform="rotate(-0.42539304,-50523.875,-267499.92)"
       x1="-1578.8463"
       y1="750.07733"
       x2="-1662.8076"
       y2="932.7063" />
    <linearGradient
       inkscape:collect="always"
       xlink:href="#linearGradient6288"
       id="linearGradient4297"
       gradientUnits="userSpaceOnUse"
       gradientTransform="rotate(-0.42539304,-50523.875,-267499.92)"
       x1="-1588.0897"
       y1="749.22992"
       x2="-1664.6733"
       y2="918.88086" />
    <linearGradient
       inkscape:collect="always"
       xlink:href="#linearGradient6288"
       id="linearGradient4353"
       gradientUnits="userSpaceOnUse"
       x1="522.18475"
       y1="492.16702"
       x2="221.55882"
       y2="510.24921" />
  </defs>
  <sodipodi:namedview
     id="base"
     pagecolor="#ffffff"
     bordercolor="#666666"
     borderopacity="1.0"
     inkscape:pageopacity="0.0"
     inkscape:pageshadow="2"
     inkscape:zoom="3.7687381"
     inkscape:cx="136.2525"
     inkscape:cy="125.37353"
     inkscape:document-units="px"
     inkscape:current-layer="g4307"
     showgrid="false"
     inkscape:window-width="2128"
     inkscape:window-height="1128"
     inkscape:window-x="0"
     inkscape:window-y="0"
     inkscape:window-maximized="1"
     inkscape:pagecheckerboard="0" />
  <metadata
     id="metadata20637">
    <rdf:RDF>
      <cc:Work
         rdf:about="">
        <dc:format>image/svg+xml</dc:format>
        <dc:type
           rdf:resource="http://purl.org/dc/dcmitype/StillImage" />
        <dc:title />
        <cc:license
           rdf:resource="https://creativecommons.org/licenses/by/3.0/" />
        <dc:creator>
          <cc:Agent>
            <dc:title>enigmatic</dc:title>
          </cc:Agent>
        </dc:creator>
      </cc:Work>
    </rdf:RDF>
  </metadata>
  <g
     inkscape:label="Ebene 1"
     inkscape:groupmode="layer"
     id="layer1"
     transform="translate(-179.63205,-340.04111)">
    <g
       id="g2491">
      <g
         id="g4307">
        <path
           style="fill:#000000;fill-opacity:1;fill-rule:evenodd;stroke:url(#linearGradient4297);stroke-width:11.486;stroke-linecap:butt;stroke-linejoin:miter;stroke-miterlimit:4;stroke-dasharray:68.916, 11.486;stroke-dashoffset:0;stroke-opacity:1;marker-start:none"
           d="m 287.54312,591.29536 c -25.22189,-16.04078 -28.2907,-67.25294 -86.01059,-83.79364 76.24288,-20.25639 187.39706,-121.22618 200.72986,-153.91898 21.18319,40.01798 76.76573,108.58977 127.98597,134.42716 -43.24693,15.52413 -186.54919,100.45776 -172.96661,103.18014"
           id="path6726"
           sodipodi:nodetypes="ccccc" />
        <path
           style="fill:none;fill-rule:evenodd;stroke:#808080;stroke-width:0.1;stroke-linecap:butt;stroke-linejoin:miter;stroke-miterlimit:4;stroke-dasharray:none;stroke-opacity:1"
           d="m 179.63276,506.6946 c 0.0487,6.9e-4 0.17133,0.002 0.25409,0.004 0.0147,2.1e-4 0.0295,4.1e-4 0.0442,6.2e-4"
           id="path7897" />
        <path
           style="fill:url(#linearGradient4294);fill-opacity:1;fill-rule:evenodd;stroke:none;stroke-width:11.4857;stroke-linecap:butt;stroke-linejoin:miter;stroke-miterlimit:4;stroke-dasharray:68.914, 11.4857;stroke-dashoffset:0;stroke-opacity:1;marker-start:none"
           d="m 290.85366,586.80407 c -24.00591,-15.26746 -26.63819,-62.35558 -80.48917,-80.59292 72.5495,-15.19266 177.44962,-113.06784 191.82545,-142.60047 20.16194,38.08875 72.2923,99.45654 121.04322,124.04834 -41.16193,14.77573 -177.5558,95.6148 -164.62811,98.2059"
           id="path6728"
           sodipodi:nodetypes="ccccc" />
        <path
           style="fill:#4d4d4d;fill-opacity:1;fill-rule:evenodd;stroke:none;stroke-width:11.4857;stroke-linecap:butt;stroke-linejoin:miter;stroke-miterlimit:4;stroke-dasharray:68.914, 11.4857;stroke-dashoffset:0;stroke-opacity:1;marker-start:none"
           d="m 300.70988,579.86022 c -21.8754,-13.91257 -24.53704,-58.33004 -74.59883,-72.67615 66.11093,-13.84432 161.70138,-103.03335 174.80144,-129.94503 18.37259,34.70846 65.87659,90.63004 110.30099,113.03937 -37.50897,13.46442 -161.79827,87.12923 -150.01781,89.49043"
           id="path6730"
           sodipodi:nodetypes="ccccc" />
        <ellipse
           style="fill:#000000;stroke:#000000;stroke-width:18;stroke-linecap:square;paint-order:markers stroke fill"
           id="path1638"
           cx="403"
           cy="467.63913"
           rx="32.43211"
           ry="30.282972" />
        <path
           sodipodi:type="spiral"
           style="fill:none;fill-rule:evenodd;stroke:#ffffff;stroke-width:7.5;stroke-linecap:round;stroke-linejoin:miter;stroke-miterlimit:4;stroke-dasharray:none;stroke-opacity:1"
           id="path6732"
           sodipodi:cx="-1841.7922"
           sodipodi:cy="591.63794"
           sodipodi:expansion="1"
           sodipodi:revolution="1.5091813"
           sodipodi:radius="36.584259"
           sodipodi:argument="-18.750643"
           sodipodi:t0="0"
           d="m -1841.7922,591.63794 c 3.6284,0.36007 1.3047,5.06867 -0.5985,6.03066 -5.1576,2.60692 -10.4393,-2.40758 -11.4629,-7.22759 -1.8309,-8.62186 5.7194,-15.99473 13.8568,-16.89505 11.9419,-1.32125 21.6529,9.05361 22.3272,20.48584 0.8988,15.23736 -12.3929,27.3511 -27.115,27.75944 -18.5261,0.51385 -33.0692,-15.73399 -33.1916,-33.74409 -0,-0.70524 0.011,-1.41062 0.047,-2.11494"
           transform="matrix(1.081431,-0.4011848,0.4011848,1.081431,2159.5443,-915.98438)" />
        <g
           id="g6734"
           transform="matrix(0.9060636,0.3613978,-0.3613978,0.9060636,2150.5334,295.01905)"
           style="fill:#e6e6e6">
          <rect
             transform="matrix(-0.8757396,-0.4827838,-0.4829096,0.8756702,0,0)"
             ry="1.7665977"
             rx="18.5219"
             y="1537.923"
             x="959.76172"
             height="22.774298"
             width="22.778187"
             id="rect6736"
             style="opacity:1;fill:#cccccc;fill-opacity:1;stroke:#000000;stroke-width:3.5;stroke-miterlimit:4;stroke-dasharray:none;stroke-dashoffset:0;stroke-opacity:1" />
          <rect
             transform="matrix(-0.9767069,-0.2145779,-0.2147181,0.9766761,0,0)"
             ry="1.766597"
             rx="18.5219"
             y="1137.0887"
             x="1322.7458"
             height="22.774286"
             width="22.778185"
             id="rect6738"
             style="opacity:1;fill:#cccccc;fill-opacity:1;stroke:#000000;stroke-width:3.5;stroke-miterlimit:4;stroke-dasharray:none;stroke-dashoffset:0;stroke-opacity:1" />
          <rect
             transform="matrix(-0.8757396,-0.4827838,-0.4829096,0.8756702,0,0)"
             ry="1.7665974"
             rx="18.5219"
             y="1515.5879"
             x="944.86554"
             height="22.774292"
             width="22.778185"
             id="rect6740"
             style="opacity:1;fill:#cccccc;fill-opacity:1;stroke:#000000;stroke-width:3.5;stroke-miterlimit:4;stroke-dasharray:none;stroke-dashoffset:0;stroke-opacity:1" />
          <rect
             transform="matrix(-0.8757396,-0.4827838,-0.4829096,0.8756702,0,0)"
             ry="1.7665977"
             rx="18.5219"
             y="1538.5865"
             x="985.13239"
             height="22.774298"
             width="22.778187"
             id="rect6742"
             style="opacity:1;fill:#cccccc;fill-opacity:1;stroke:#000000;stroke-width:3.5;stroke-miterlimit:4;stroke-dasharray:none;stroke-dashoffset:0;stroke-opacity:1" />
          <rect
             transform="matrix(-0.8757396,-0.4827838,-0.4829096,0.8756702,0,0)"
             ry="1.7665973"
             rx="18.5219"
             y="1491.7417"
             x="939.51782"
             height="22.77429"
             width="22.778185"
             id="rect6744"
             style="opacity:1;fill:#cccccc;fill-opacity:1;stroke:#000000;stroke-width:3.5;stroke-miterlimit:4;stroke-dasharray:none;stroke-dashoffset:0;stroke-opacity:1" />
          <rect
             transform="matrix(-0.8757396,-0.4827838,-0.4829096,0.8756702,0,0)"
             ry="1.7665977"
             rx="18.5219"
             y="1537.9703"
             x="1010.2406"
             height="22.774298"
             width="22.778187"
             id="rect6746"
             style="opacity:1;fill:#cccccc;fill-opacity:1;stroke:#000000;stroke-width:3.5;stroke-miterlimit:4;stroke-dasharray:none;stroke-dashoffset:0;stroke-opacity:1" />
          <rect
             transform="matrix(-0.8757396,-0.4827838,-0.4829096,0.8756702,0,0)"
             ry="1.7665972"
             rx="18.5219"
             y="1515.8278"
             x="1023.853"
             height="22.774288"
             width="22.778185"
             id="rect6748"
             style="opacity:1;fill:#cccccc;fill-opacity:1;stroke:#000000;stroke-width:3.5;stroke-miterlimit:4;stroke-dasharray:none;stroke-dashoffset:0;stroke-opacity:1" />
          <rect
             transform="matrix(-0.8757396,-0.4827838,-0.4829096,0.8756702,0,0)"
             ry="1.7665972"
             rx="18.5219"
             y="1492.6298"
             x="1029.5348"
             height="22.774288"
             width="22.778185"
             id="rect6750"
             style="opacity:1;fill:#cccccc;fill-opacity:1;stroke:#000000;stroke-width:3.5;stroke-miterlimit:4;stroke-dasharray:none;stroke-dashoffset:0;stroke-opacity:1" />
          <rect
             inkscape:transform-center-x="1.1048543"
             transform="matrix(-0.847359,-0.5310204,-0.5311422,0.8472827,0,0)"
             ry="1.7665973"
             rx="18.5219"
             y="1525.127"
             x="943.73608"
             height="22.77429"
             width="22.778185"
             id="rect6752"
             style="opacity:1;fill:#cccccc;fill-opacity:1;stroke:#000000;stroke-width:3.5;stroke-miterlimit:4;stroke-dasharray:none;stroke-dashoffset:0;stroke-opacity:1" />
          <rect
             transform="matrix(-0.8757396,-0.4827838,-0.4829096,0.8756702,0,0)"
             ry="1.7665977"
             rx="18.5219"
             y="1562.8785"
             x="998.59125"
             height="22.774298"
             width="22.778187"
             id="rect6754"
             style="opacity:1;fill:#cccccc;fill-opacity:1;stroke:#000000;stroke-width:3.5;stroke-miterlimit:4;stroke-dasharray:none;stroke-dashoffset:0;stroke-opacity:1" />
          <rect
             transform="matrix(-0.8757396,-0.4827838,-0.4829096,0.8756702,0,0)"
             ry="1.7665977"
             rx="18.5219"
             y="1562.4232"
             x="971.69916"
             height="22.774298"
             width="22.778187"
             id="rect6756"
             style="opacity:1;fill:#cccccc;fill-opacity:1;stroke:#000000;stroke-width:3.5;stroke-miterlimit:4;stroke-dasharray:none;stroke-dashoffset:0;stroke-opacity:1" />
          <rect
             transform="matrix(-0.7839127,-0.620871,-0.6209837,0.7838235,0,0)"
             ry="1.7665969"
             rx="18.521902"
             y="1729.3425"
             x="697.00159"
             height="22.774296"
             width="22.778193"
             id="rect6758"
             style="opacity:1;fill:#cccccc;fill-opacity:1;stroke:#000000;stroke-width:3.5;stroke-miterlimit:4;stroke-dasharray:none;stroke-dashoffset:0;stroke-opacity:1" />
          <rect
             transform="matrix(-0.7474145,-0.664358,-0.6644652,0.7473192,0,0)"
             ry="1.7665976"
             rx="18.5219"
             y="1773.9095"
             x="622.89343"
             height="22.774302"
             width="22.778193"
             id="rect6760"
             style="opacity:1;fill:#cccccc;fill-opacity:1;stroke:#000000;stroke-width:3.5;stroke-miterlimit:4;stroke-dasharray:none;stroke-dashoffset:0;stroke-opacity:1" />
          <rect
             transform="matrix(-0.6616868,-0.7497803,-0.7498753,0.6615792,0,0)"
             ry="1.7665977"
             rx="18.521902"
             y="1854.1626"
             x="374.98444"
             height="22.774303"
             width="22.778193"
             id="rect6762"
             style="opacity:1;fill:#cccccc;fill-opacity:1;stroke:#000000;stroke-width:3.5;stroke-miterlimit:4;stroke-dasharray:none;stroke-dashoffset:0;stroke-opacity:1" />
          <rect
             transform="matrix(-0.6874343,-0.7262466,-0.7263451,0.6873302,0,0)"
             ry="1.7665972"
             rx="18.521898"
             y="1846.7836"
             x="465.34448"
             height="22.774298"
             width="22.778189"
             id="rect6764"
             style="opacity:1;fill:#cccccc;fill-opacity:1;stroke:#000000;stroke-width:3.5;stroke-miterlimit:4;stroke-dasharray:none;stroke-dashoffset:0;stroke-opacity:1" />
        </g>
        <path
           style="fill:#000000;fill-opacity:1;fill-rule:evenodd;stroke:none;stroke-width:1px;stroke-linecap:butt;stroke-linejoin:miter;stroke-opacity:1"
           d="m 282.68732,599.61793 c 23.44506,0.40346 39.95276,-0.38048 70.99469,0.75094 0.92612,0.20339 6.00745,-2.87454 5.69605,-3.96968 2.02003,-4.00005 6.3869,-5.62899 1.99623,-6.04154 -19.16587,-0.78459 -48.98952,1.94052 -74.90455,-0.93332 -15.51599,-4.06355 -5.59824,6.13683 -3.78242,10.1936 z"
           id="path2489"
           sodipodi:nodetypes="cccccc" />
        <path
           style="fill:#444444;fill-opacity:1;fill-rule:evenodd;stroke:none;stroke-width:1px;stroke-linecap:butt;stroke-linejoin:miter;stroke-opacity:1"
           d="m 284.04678,595.80182 c 23.69029,0.4495 40.37066,-0.4239 71.73728,0.83663 0.93581,0.2266 6.07029,-3.20256 5.75563,-4.42266 -2.50591,-7.93811 -1.75628,-6.13207 -5.05611,-6.31317 -19.36633,-0.87412 -42.42872,1.74417 -68.61482,-1.45761 -6.20522,0.62552 -5.65679,6.83712 -3.82198,11.35681 z"
           id="path6766"
           sodipodi:nodetypes="cccccc" />
        <rect
           transform="matrix(-0.6345586,-0.7728747,-0.7729659,0.6344476,0,0)"
           ry="1.014572"
           rx="10.637283"
           y="30.371572"
           x="-627.13953"
           height="13.079472"
           width="13.081702"
           id="rect6820"
           style="fill:#ececec;fill-opacity:1;stroke:none;stroke-width:1.873;stroke-miterlimit:4;stroke-dasharray:none;stroke-dashoffset:0;stroke-opacity:1" />
        <rect
           transform="matrix(-0.6345586,-0.7728747,-0.7729659,0.6344476,0,0)"
           ry="1.014572"
           rx="10.637283"
           y="29.577139"
           x="-602.58899"
           height="13.079472"
           width="13.081703"
           id="rect6822"
           style="fill:#ececec;fill-opacity:1;stroke:none;stroke-width:1.873;stroke-miterlimit:4;stroke-dasharray:none;stroke-dashoffset:0;stroke-opacity:1" />
        <rect
           transform="matrix(-0.6345586,-0.7728747,-0.7729659,0.6344476,0,0)"
           ry="1.014572"
           rx="10.637283"
           y="8.212636"
           x="-589.02234"
           height="13.079472"
           width="13.081703"
           id="rect6824"
           style="fill:#ececec;fill-opacity:1;stroke:none;stroke-width:1.873;stroke-miterlimit:4;stroke-dasharray:none;stroke-dashoffset:0;stroke-opacity:1" />
        <rect
           transform="matrix(-0.6345586,-0.7728747,-0.7729659,0.6344476,0,0)"
           ry="1.014572"
           rx="10.637283"
           y="-14.451915"
           x="-584.13123"
           height="13.079472"
           width="13.081703"
           id="rect6826"
           style="fill:#ececec;fill-opacity:1;stroke:none;stroke-width:1.873;stroke-miterlimit:4;stroke-dasharray:none;stroke-dashoffset:0;stroke-opacity:1" />
        <rect
           transform="matrix(-0.6345586,-0.7728747,-0.7729659,0.6344476,0,0)"
           ry="1.014572"
           rx="10.637283"
           y="-37.129894"
           x="-584.79456"
           height="13.079472"
           width="13.081703"
           id="rect6828"
           style="fill:#ececec;fill-opacity:1;stroke:none;stroke-width:1.873;stroke-miterlimit:4;stroke-dasharray:none;stroke-dashoffset:0;stroke-opacity:1" />
        <rect
           transform="matrix(-0.8373556,-0.5466586,-0.5467789,0.837277,0,0)"
           ry="1.014572"
           rx="10.637282"
           y="162.2399"
           x="-648.12555"
           height="13.079472"
           width="13.081704"
           id="rect6830"
           style="fill:#ececec;fill-opacity:1;stroke:none;stroke-width:1.873;stroke-miterlimit:4;stroke-dasharray:none;stroke-dashoffset:0;stroke-opacity:1" />
        <rect
           transform="matrix(-0.6345586,-0.7728747,-0.7729659,0.6344476,0,0)"
           ry="1.014572"
           rx="10.637283"
           y="-15.084971"
           x="-671.61902"
           height="13.079472"
           width="13.081703"
           id="rect6832"
           style="fill:#ececec;fill-opacity:1;stroke:none;stroke-width:1.873;stroke-miterlimit:4;stroke-dasharray:none;stroke-dashoffset:0;stroke-opacity:1" />
        <rect
           transform="matrix(-0.6345586,-0.7728747,-0.7729659,0.6344476,0,0)"
           ry="1.014572"
           rx="10.637283"
           y="8.07372"
           x="-666.40857"
           height="13.079472"
           width="13.081703"
           id="rect6834"
           style="fill:#ececec;fill-opacity:1;stroke:none;stroke-width:1.873;stroke-miterlimit:4;stroke-dasharray:none;stroke-dashoffset:0;stroke-opacity:1" />
        <rect
           transform="matrix(-0.6345586,-0.7728747,-0.7729659,0.6344476,0,0)"
           ry="1.014572"
           rx="10.637283"
           y="29.920645"
           x="-651.86292"
           height="13.079472"
           width="13.081703"
           id="rect6836"
           style="fill:#ececec;fill-opacity:1;stroke:none;stroke-width:1.873;stroke-miterlimit:4;stroke-dasharray:none;stroke-dashoffset:0;stroke-opacity:1" />
        <rect
           transform="matrix(-0.6345586,-0.7728747,-0.7729659,0.6344476,0,0)"
           ry="1.014572"
           rx="10.637283"
           y="54.043449"
           x="-613.99329"
           height="13.079472"
           width="13.081703"
           id="rect6838"
           style="fill:#ececec;fill-opacity:1;stroke:none;stroke-width:1.873;stroke-miterlimit:4;stroke-dasharray:none;stroke-dashoffset:0;stroke-opacity:1" />
        <rect
           transform="matrix(-0.6345586,-0.7728747,-0.7729659,0.6344476,0,0)"
           ry="1.014572"
           rx="10.637283"
           y="53.510979"
           x="-640.75891"
           height="13.079472"
           width="13.081703"
           id="rect6840"
           style="fill:#ececec;fill-opacity:1;stroke:none;stroke-width:1.873;stroke-miterlimit:4;stroke-dasharray:none;stroke-dashoffset:0;stroke-opacity:1" />
        <rect
           transform="matrix(-0.4577609,-0.8890753,-0.8891411,0.4576332,0,0)"
           ry="1.0145719"
           rx="10.637282"
           y="-49.066864"
           x="-615.66589"
           height="13.07947"
           width="13.081704"
           id="rect6842"
           style="fill:#ececec;fill-opacity:1;stroke:none;stroke-width:1.873;stroke-miterlimit:4;stroke-dasharray:none;stroke-dashoffset:0;stroke-opacity:1" />
        <rect
           transform="matrix(-0.4681376,-0.8836556,-0.8837228,0.4680106,0,0)"
           ry="1.014572"
           rx="10.637283"
           y="-48.39085"
           x="-641.65393"
           height="13.07947"
           width="13.081705"
           id="rect6844"
           style="fill:#ececec;fill-opacity:1;stroke:none;stroke-width:1.873;stroke-miterlimit:4;stroke-dasharray:none;stroke-dashoffset:0;stroke-opacity:1" />
        <rect
           transform="matrix(-0.2392959,-0.9709467,-0.970981,0.2391565,0,0)"
           ry="1.014572"
           rx="10.637283"
           y="-175.17026"
           x="-617.20587"
           height="13.079472"
           width="13.081706"
           id="rect6846"
           style="fill:#ececec;fill-opacity:1;stroke:none;stroke-width:1.873;stroke-miterlimit:4;stroke-dasharray:none;stroke-dashoffset:0;stroke-opacity:1" />
        <rect
           transform="matrix(-0.3440762,-0.9389417,-0.9389911,0.3439413,0,0)"
           ry="1.014572"
           rx="10.637283"
           y="-99.795937"
           x="-607.54272"
           height="13.079469"
           width="13.081705"
           id="rect6848"
           style="fill:#ececec;fill-opacity:1;stroke:none;stroke-width:1.873;stroke-miterlimit:4;stroke-dasharray:none;stroke-dashoffset:0;stroke-opacity:1" />
        <path
           style="fill:#d9d9d9;fill-opacity:1;fill-rule:evenodd;stroke:none;stroke-width:1px;stroke-linecap:butt;stroke-linejoin:miter;stroke-opacity:1"
           d="m 524.5181,484.99318 c -0.35691,0.47099 -1.5283,1.43335 -2.32841,2.06813 -0.8677,-0.48222 -1.63407,-0.82625 -2.40159,-1.20292 -0.40248,-0.19752 0.16869,-1.18647 0.33055,-1.51616 0.26332,-0.53669 0.64056,-0.88369 1.45823,-0.88976 1.24425,0.27055 1.83131,0.91032 2.94122,1.54071 z"
           id="path6850"
           sodipodi:nodetypes="cccscc" />
      </g>
    </g>
  </g>
</svg>
