<?xml version="1.0" encoding="UTF-8" standalone="no"?>
<!-- Created with Inkscape (http://www.inkscape.org/) -->

<svg
   width="77.254181mm"
   height="35.751514mm"
   id="svg22060"
   sodipodi:version="0.32"
   inkscape:version="1.1.1 (3bf5ae0d25, 2021-09-20)"
   sodipodi:docname="frontier.svg"
   inkscape:output_extension="org.inkscape.output.svg.inkscape"
   version="1.1"
   xmlns:inkscape="http://www.inkscape.org/namespaces/inkscape"
   xmlns:sodipodi="http://sodipodi.sourceforge.net/DTD/sodipodi-0.dtd"
   xmlns="http://www.w3.org/2000/svg"
   xmlns:svg="http://www.w3.org/2000/svg"
   xmlns:rdf="http://www.w3.org/1999/02/22-rdf-syntax-ns#"
   xmlns:cc="http://creativecommons.org/ns#"
   xmlns:dc="http://purl.org/dc/elements/1.1/">
  <defs
     id="defs22062">
    <filter
       inkscape:collect="always"
       id="filter34720"
       x="-0.055224098"
       y="-0.045187412"
       width="1.1104482"
       height="1.0903748">
      <feGaussianBlur
         inkscape:collect="always"
         stdDeviation="3.8786055"
         id="feGaussianBlur34722" />
    </filter>
    <filter
       inkscape:collect="always"
       id="filter34008"
       x="-0.090903872"
       y="-0.070276242"
       width="1.1818077"
       height="1.1405525">
      <feGaussianBlur
         inkscape:collect="always"
         stdDeviation="5.8654354"
         id="feGaussianBlur34010" />
    </filter>
    <filter
       height="1.2902261"
       y="-0.14511305"
       width="1.2225955"
       x="-0.11129773"
       id="filter15894"
       inkscape:collect="always">
      <feGaussianBlur
         id="feGaussianBlur15896"
         stdDeviation="3.6839064"
         inkscape:collect="always" />
    </filter>
    <filter
       id="filter15646"
       inkscape:collect="always"
       x="-0.052438559"
       y="-0.081790426"
       width="1.1048771"
       height="1.1635809">
      <feGaussianBlur
         id="feGaussianBlur15648"
         stdDeviation="2.8062822"
         inkscape:collect="always" />
    </filter>
    <inkscape:perspective
       sodipodi:type="inkscape:persp3d"
       inkscape:vp_x="0 : -426.13602 : 1"
       inkscape:vp_y="0 : 1066.6667 : 0"
       inkscape:vp_z="793.70078 : -426.13602 : 1"
       inkscape:persp3d-origin="396.85039 : -613.22263 : 1"
       id="perspective22068" />
  </defs>
  <sodipodi:namedview
     id="base"
     pagecolor="#ffffff"
     bordercolor="#666666"
     borderopacity="1.0"
     inkscape:pageopacity="0.0"
     inkscape:pageshadow="2"
     inkscape:zoom="0.7"
     inkscape:cx="-237.85714"
     inkscape:cy="120.71429"
     inkscape:document-units="px"
     inkscape:current-layer="g35013"
     showgrid="false"
     inkscape:window-width="2128"
     inkscape:window-height="1128"
     inkscape:window-x="0"
     inkscape:window-y="0"
     inkscape:window-maximized="1"
     inkscape:pagecheckerboard="0" />
  <metadata
     id="metadata22065">
    <rdf:RDF>
      <cc:Work
         rdf:about="">
        <dc:format>image/svg+xml</dc:format>
        <dc:type
           rdf:resource="http://purl.org/dc/dcmitype/StillImage" />
        <dc:title />
        <dc:creator>
          <cc:Agent>
            <dc:title>enigmatic</dc:title>
          </cc:Agent>
        </dc:creator>
        <cc:license
           rdf:resource="https://creativecommons.org/licenses/by/3.0/" />
      </cc:Work>
    </rdf:RDF>
  </metadata>
  <g
     inkscape:label="Ebene 1"
     inkscape:groupmode="layer"
     id="layer1"
     transform="translate(-237.63306,-396.21211)">
    <g
       id="g35013"
       transform="matrix(0.5886226,0,0,0.5886226,-64.829833,-1301.7646)"
       inkscape:export-filename="/home/brutkasten/Dokumente/naev/frontier_logo.png"
       inkscape:export-xdpi="90"
       inkscape:export-ydpi="90">
      <path
         sodipodi:nodetypes="cccc"
         id="path33904"
         d="m 745.93936,2890.0142 c -5.78174,6.1291 -167.35379,209.279 -169.5137,211.5235 5.61844,-0.01 241.44068,1.0942 331.00262,0.5231 -3.22723,-3.1736 -109.77686,-141.7609 -161.48892,-212.0466 z"
         style="fill:#c8ab37;fill-rule:evenodd;stroke:none;stroke-width:2.6;stroke-linecap:butt;stroke-linejoin:miter;stroke-miterlimit:4;stroke-dasharray:none;stroke-opacity:1" />
      <g
         id="g1085">
        <path
           transform="matrix(-2.3251458,0,0,-2.3251458,2831.3625,6437.1631)"
           sodipodi:nodetypes="cccc"
           id="path33906"
           d="m 833.63839,1437.1518 c 2.19808,2.6364 4.2483,5.3924 6.37476,8.0864 6.06115,7.8455 12.08498,15.72 18.12794,23.5795 9.73622,12.7676 19.43186,25.5661 29.0725,38.406 3.04381,4.0573 6.06822,8.129 9.08105,12.2094 3.95291,-4.7665 7.80267,-9.6175 11.6958,-14.4327 16.20287,-20.25 32.38021,-40.5205 48.5668,-60.7835 1.83234,-2.2983 3.67374,-4.5894 5.51865,-6.8776 -19.28325,-0.071 -38.56649,-0.1536 -57.84982,-0.1962 -19.55156,-0.02 -39.10319,-0.085 -58.65473,-0.04 -3.97765,0.016 -7.9553,0.032 -11.93295,0.048 z"
           style="opacity:0.883234;fill:#f2bf0b;fill-opacity:1;fill-rule:evenodd;stroke:none;stroke-width:1px;stroke-linecap:butt;stroke-linejoin:miter;stroke-opacity:1;filter:url(#filter15646)" />
        <path
           id="path33990"
           d="m 742.46212,2904.2749 c 2.99287,1.3605 6.78224,7.4893 9.8995,10.6066 0.7071,0.7071 1.41421,1.4142 2.12132,2.1213 2.13449,2.1345 4.34019,7.4613 4.94974,9.8995 0.87074,3.4829 3.18279,7.5435 4.94975,9.8995 2.62612,3.5015 3.45127,7.6939 6.36396,10.6066 3.5025,3.5025 5.21125,6.3284 7.77818,10.6066 2.36704,3.945 4.45037,6.7794 6.36396,10.6066 1.59894,3.1979 5.98373,5.2766 8.48528,7.7781 2.11137,2.1114 4.20724,4.1719 5.65685,7.0711 1.35827,2.7165 3.94195,5.0555 5.65686,8.4853 1.79359,3.5872 5.30053,6.3584 7.07107,9.8995 1.32018,2.6404 4.87855,5.5145 6.36396,8.4853 1.71513,3.4302 4.93974,7.051 6.36396,9.8995 2.46735,4.9347 5.78958,8.2351 8.48528,12.7279 2.044,3.4067 5.25258,6.532 7.77817,9.8995 2.5348,3.3797 4.9888,5.7349 7.07107,9.8995 1.8975,3.795 5.56867,6.9535 7.77818,9.8995 3.00959,4.0128 6.43351,6.4335 9.89949,9.8995 2.4248,2.4248 5.07811,6.4923 7.07107,8.4852 3.18373,3.1838 4.62634,6.6399 7.07107,9.8995 2.51375,3.3517 5.68198,6.3891 8.48528,9.1924 3.71606,-3.1696 5.79344,-1.2856 9.19239,-2.8284 -2.68031,-2.0102 -6.04836,-5.0116 -7.65686,-7.6924 -1.868,-3.1133 -3.65227,-7.3045 -4.94975,-9.8995 -1.89894,-3.7979 -3.68935,-8.6035 -7.19238,-12.1066 -4.00207,-4.002 -7.82247,-8.5295 -12.02082,-12.7279 -3.42668,-3.4267 -6.03841,-8.7583 -8.48528,-12.0208 -3.09055,-4.1208 -5.03554,-8.5711 -8.48528,-12.0208 -2.95374,-2.9538 -4.41091,-7.2394 -7.07107,-9.8995 -2.26488,-2.2649 -3.9804,-5.1324 -5.65685,-8.4853 -1.69145,-3.3829 -4.32887,-6.5364 -5.65686,-9.1924 -1.49756,-2.9951 -4.63898,-6.0532 -7.07107,-8.4853 -3.25888,-3.2589 -5.27024,-7.2627 -7.77817,-10.6066 -2.52419,-3.3656 -5.70132,-7.1155 -7.77818,-9.1924 -2.38142,-2.3814 -4.48458,-4.4241 -7.07106,-6.3639 -2.43633,-1.8273 -4.34545,-4.4483 -5.65686,-7.0711 -1.0915,-2.183 -4.36899,-5.7832 -6.36396,-7.7782 -2.73662,-2.7366 -4.24004,-6.3587 -5.65685,-9.1924 -1.40942,-2.8188 -3.46069,-5.582 -5.65686,-7.7781 -2.56172,-2.5618 -5.25487,-8.2868 -7.07106,-11.3137 -1.91163,-3.1861 -4.2124,-4.9195 -6.36397,-7.0711 -2.16659,-2.1666 -4.90446,-3.4903 -7.07106,-5.6569 -1.98233,-1.9823 -4.10804,-4.2988 -5.65686,-6.3639 -2.51257,-3.3501 -4.85655,-4.8566 -6.36396,-6.364 -1.11803,-1.118 -1.5341,2.7746 -2.12132,4.2427 z"
           style="fill:#ffe680;fill-rule:evenodd;stroke:none;stroke-width:1px;stroke-linecap:butt;stroke-linejoin:miter;stroke-opacity:1;filter:url(#filter34008)"
           sodipodi:nodetypes="cssssssssssssssssssssccssssssssssssssssssssssc" />
        <path
           sodipodi:nodetypes="csssssssssssssssssssssssssssssccssssssc"
           id="path34658"
           d="m 751.58579,2895.8475 c 4.58483,3.4438 4.64566,9.7086 2,15 -2.29399,4.5879 -4.12188,6.2437 -6,10 -1.51083,3.0216 -7.04224,8.0422 -9,10 -3.80047,3.8004 -6.18879,11.2517 -9,15 -3.14238,4.1898 -5.13419,7.1342 -8,10 -3.68055,3.6805 -5.58703,9.587 -9,13 -4.54755,4.5475 -6.75986,9.7598 -11,14 -3.4431,3.4431 -5.58118,6.5811 -9,10 -3.51818,3.5181 -6.46046,8.2806 -10,13 -2.45506,3.2734 -4.97984,10.9193 -6,15 -1.11303,4.4521 -6.0434,10.0578 -9,14 -3.52748,4.7033 -7.11687,8.2337 -10,14 -2.40262,4.8052 -7.87725,10.8772 -11,14 -3.86573,3.8657 -6.50646,8.3419 -10,13 -3.23559,4.3141 -10.19159,8.1916 -13,11 -3.99964,3.9996 -4.20421,8.1531 -8,11 -3.62214,2.7166 -7.82644,1.9566 -12,3 -4.29068,1.0726 -9.13282,1 -14,1 -5.94252,0 -0.66109,-8.6778 0,-10 2.26148,-4.523 5.13892,-9.1853 8,-13 2.69244,-3.5899 4.49067,-6.6543 7,-10 3.04905,-4.0654 5.98863,-7.9887 9,-11 3.25754,-3.2576 6.67645,-6.7574 11,-10 3.83352,-2.8752 5.41213,-6.8243 7,-10 2.96241,-5.9248 3.45096,-7.451 8,-12 3.39234,-3.3924 5.95444,-8.2726 8,-11 2.83088,-3.7745 4.04034,-7.0202 10,-10 4.76228,-2.3812 6.86767,-6.7354 9,-11 1.62577,-3.2516 6.24936,-4.4988 8,-8 1.75979,-3.5196 4.84954,-7.1328 7,-10 10.21897,-10.3028 5.18208,-7.6778 15.58579,-18.8284 1.75153,-3.5031 5.22907,-5.5221 7.64644,-7.9394 3.62461,-3.6246 5.54108,-5.6073 7.35356,-9.2322 2.34569,-4.6914 6.99144,-8.5773 9.41421,-11 3.42252,-3.4226 5.55319,-7.5532 8,-10 4.00723,-4.0073 4.96737,-5.2256 10,-9 4.38555,-3.2892 9.403,-5.403 12,-8 1.41421,-1.4142 0,-4 0,-6 z"
           style="fill:#ff7f2a;fill-rule:evenodd;stroke:none;stroke-width:1px;stroke-linecap:butt;stroke-linejoin:miter;stroke-opacity:1;filter:url(#filter34720)" />
        <path
           sodipodi:nodetypes="csssssccc"
           style="fill:#ffe680;fill-rule:evenodd;stroke:none;stroke-width:1px;stroke-linecap:butt;stroke-linejoin:miter;stroke-opacity:1;filter:url(#filter15894)"
           d="m 969.59934,1402.1489 c -2.29323,0 -20.05534,13.1725 -22.38135,13.1725 -2.02101,0 -31.43197,25.4244 -33.11085,26.6836 -1.85083,1.3881 -2.64616,3.7176 -4.28571,5.3571 -1.43408,1.4341 -3.48118,2.0752 -5,3.2143 -1.61215,1.2091 -11.38974,8.0132 -11.38974,10.2052 0,3.9961 8.58178,-0.5131 11.38974,2.2948 38.81222,-10.1743 58.18666,-21.2483 68.04921,-51.2736 -5.64661,-4.219 -0.62503,-4.0879 -3.2713,-9.6539 z"
           id="path34040"
           transform="matrix(-0.00974856,1.7436371,-1.6056351,-0.008977,3099.1056,1356.9357)" />
      </g>
      <path
         sodipodi:nodetypes="cccc"
         id="path33912"
         d="m 746.59826,2890.7421 c -5.78175,6.1292 -167.35379,209.2789 -169.5137,211.5234 5.61826,-0.01 241.44049,1.0943 331.00244,0.5231 -3.22705,-3.1735 -109.77667,-141.761 -161.48874,-212.0465 z"
         style="fill:none;fill-rule:evenodd;stroke:#000000;stroke-width:7.80545;stroke-linecap:butt;stroke-linejoin:miter;stroke-miterlimit:4;stroke-dasharray:none;stroke-opacity:1" />
      <path
         style="fill:#000000;fill-rule:evenodd;stroke:#000000;stroke-width:0.435338px;stroke-linecap:butt;stroke-linejoin:miter;stroke-opacity:1"
         d="m 645.56349,3004.229 c -17.71292,3.1651 -165.12266,54.4655 -124.42244,66.6562 345.53372,85.673 738.02765,-166.6591 282.1413,-119.9557 2.59135,4.8043 13.30062,18.6404 19.202,16.627 304.95585,47.7039 -376.85643,144.3023 -192.00612,55.9462"
         id="path29925"
         sodipodi:nodetypes="ccccc" />
      <path
         sodipodi:nodetypes="ccc"
         id="path34042"
         d="m 853.01341,2958.6215 c 103.52535,9.5979 126.5821,32.732 8.58622,87.7935 156.91717,-32.555 181.01897,-103.9532 -8.58622,-87.7935 z"
         style="fill:#333333;fill-rule:evenodd;stroke:#000000;stroke-width:1px;stroke-linecap:butt;stroke-linejoin:miter;stroke-opacity:1" />
      <path
         sodipodi:nodetypes="ccc"
         id="path34724"
         d="m 632.86057,3015.9978 c -136.52467,53.643 -4.06237,56.5685 7.15251,60.6165 -170.2727,-3.2018 -116.97708,-23.6426 -7.15251,-60.6165 z"
         style="fill:#333333;fill-rule:evenodd;stroke:#000000;stroke-width:1px;stroke-linecap:butt;stroke-linejoin:miter;stroke-opacity:1" />
    </g>
  </g>
</svg>
