<?xml version="1.0" encoding="UTF-8" standalone="no"?>
<!-- Created with Inkscape (http://www.inkscape.org/) -->

<svg
   xmlns:dc="http://purl.org/dc/elements/1.1/"
   xmlns:cc="http://creativecommons.org/ns#"
   xmlns:rdf="http://www.w3.org/1999/02/22-rdf-syntax-ns#"
   xmlns:svg="http://www.w3.org/2000/svg"
   xmlns="http://www.w3.org/2000/svg"
   xmlns:sodipodi="http://sodipodi.sourceforge.net/DTD/sodipodi-0.dtd"
   xmlns:inkscape="http://www.inkscape.org/namespaces/inkscape"
   width="210mm"
   height="297mm"
   id="svg14732"
   sodipodi:version="0.32"
   inkscape:version="0.92.4 5da689c313, 2019-01-14"
   sodipodi:docname="proteron.svg"
   inkscape:output_extension="org.inkscape.output.svg.inkscape"
   version="1.1">
  <defs
     id="defs14734">
    <filter
       height="2.6369298"
       y="-0.81846492"
       width="2.0440261"
       x="-0.52201306"
       id="filter7045"
       inkscape:collect="always">
      <feGaussianBlur
         id="feGaussianBlur7047"
         stdDeviation="19.730851"
         inkscape:collect="always" />
    </filter>
    <filter
       height="2.1743192"
       y="-0.58715962"
       width="1.7489753"
       x="-0.37448763"
       id="filter5357"
       inkscape:collect="always">
      <feGaussianBlur
         id="feGaussianBlur5359"
         stdDeviation="14.154741"
         inkscape:collect="always" />
    </filter>
    <filter
       y="-0.5"
       x="-0.5"
       width="2.0"
       height="2.0"
       id="filter">
      <feGaussianBlur
         id="feGaussianBlur7629"
         stdDeviation="5.0" />
    </filter>
    <clipPath
       id="clipPath">
      <path
         sodipodi:nodetypes="cccccccc"
         id="path7160"
         d="M 545.81179,784.32351 C 529.28629,781.50931 493.76062,794.79791 496.73455,766.13421 C 497.9559,743.65209 498.58593,721.44115 496.83226,698.8714 C 510.01777,695.52571 575.91109,699.63918 577.84372,700.24117 C 578.45423,700.15844 553.62298,728.64439 553.19375,727.95841 C 537.94937,723.48205 529.04436,729.88961 528.17218,729.43783 C 528.83886,742.45976 527.14814,770.60171 526.39118,770.13341 C 526.96784,769.89631 546.78726,784.25281 545.81179,784.32351 z"
         style="fill:#440055;fill-rule:evenodd;stroke:none;stroke-width:0.60021650999999998px;stroke-linecap:butt;stroke-linejoin:miter;stroke-opacity:1" />
    </clipPath>
    <filter
       inkscape:collect="always"
       id="filter14680"
       x="-0.29650929"
       width="1.5930186"
       y="-0.20158211"
       height="1.4031642">
      <feGaussianBlur
         inkscape:collect="always"
         stdDeviation="14.682033"
         id="feGaussianBlur14682" />
    </filter>
    <inkscape:path-effect
       prop_scale="1"
       id="path-effect4215"
       effect="skeletal" />
    <filter
       inkscape:collect="always"
       id="filter14670"
       x="-0.1347251"
       width="1.2694502"
       y="-0.31187538"
       height="1.6237508">
      <feGaussianBlur
         inkscape:collect="always"
         stdDeviation="4.2610319"
         id="feGaussianBlur14672" />
    </filter>
    <filter
       inkscape:collect="always"
       id="filter14575"
       x="-0.1455207"
       width="1.2910414"
       y="-0.11971244"
       height="1.2394249">
      <feGaussianBlur
         inkscape:collect="always"
         stdDeviation="7.0882876"
         id="feGaussianBlur14577" />
    </filter>
    <filter
       inkscape:collect="always"
       id="filter14728"
       x="-0.8115983"
       width="2.6231966"
       y="-0.33467305"
       height="1.6693461">
      <feGaussianBlur
         inkscape:collect="always"
         stdDeviation="30.676484"
         id="feGaussianBlur14730" />
    </filter>
    <inkscape:perspective
       sodipodi:type="inkscape:persp3d"
       inkscape:vp_x="0 : 561.25983 : 1"
       inkscape:vp_y="0 : 1066.6667 : 0"
       inkscape:vp_z="793.70078 : 561.25983 : 1"
       inkscape:persp3d-origin="396.85039 : 374.17322 : 1"
       id="perspective14740" />
    <inkscape:perspective
       id="perspective15336"
       inkscape:persp3d-origin="396.85039 : 374.17322 : 1"
       inkscape:vp_z="793.70078 : 561.25983 : 1"
       inkscape:vp_y="0 : 1066.6667 : 0"
       inkscape:vp_x="0 : 561.25983 : 1"
       sodipodi:type="inkscape:persp3d" />
    <inkscape:perspective
       id="perspective15357"
       inkscape:persp3d-origin="396.85039 : 374.17322 : 1"
       inkscape:vp_z="793.70078 : 561.25983 : 1"
       inkscape:vp_y="0 : 1066.6667 : 0"
       inkscape:vp_x="0 : 561.25983 : 1"
       sodipodi:type="inkscape:persp3d" />
  </defs>
  <sodipodi:namedview
     id="base"
     pagecolor="#ffffff"
     bordercolor="#666666"
     borderopacity="1.0"
     inkscape:pageopacity="0.0"
     inkscape:pageshadow="2"
     inkscape:zoom="0.7"
     inkscape:cx="554.83677"
     inkscape:cy="516.81295"
     inkscape:document-units="px"
     inkscape:current-layer="layer1"
     showgrid="false"
     inkscape:window-width="1916"
     inkscape:window-height="1014"
     inkscape:window-x="2"
     inkscape:window-y="64"
     inkscape:window-maximized="1" />
  <metadata
     id="metadata14737">
    <rdf:RDF>
      <cc:Work
         rdf:about="">
        <dc:format>image/svg+xml</dc:format>
        <dc:type
           rdf:resource="http://purl.org/dc/dcmitype/StillImage" />
        <dc:title></dc:title>
        <cc:license
           rdf:resource="https://creativecommons.org/licenses/by/3.0/" />
        <dc:creator>
          <cc:Agent>
            <dc:title>enigmatic</dc:title>
          </cc:Agent>
        </dc:creator>
      </cc:Work>
    </rdf:RDF>
  </metadata>
  <g
     inkscape:label="Ebene 1"
     inkscape:groupmode="layer"
     id="layer1">
    <rect
       inkscape:path-effect="#path-effect4215"
       transform="matrix(0,1,-1,0,0,0)"
       ry="15.659982"
       y="-371.71893"
       x="476.0325"
       height="61.806412"
       width="94.944572"
       id="rect4473"
       style="fill:#220b28;fill-opacity:1;stroke:none;stroke-width:3.19000006;stroke-miterlimit:4;stroke-dasharray:none;stroke-opacity:1"
       inkscape:export-filename="/home/brutkasten/Dokumente/naev/rect4653.png"
       inkscape:export-xdpi="90"
       inkscape:export-ydpi="90" />
    <path
       transform="matrix(0.2001094,0,0,0.4122241,211.7416,301.97545)"
       d="M 584.28573,532.7193 A 45.357143,109.99326 0 1 1 493.57145,532.7193 A 45.357143,109.99326 0 1 1 584.28573,532.7193 z"
       sodipodi:ry="109.99326"
       sodipodi:rx="45.357143"
       sodipodi:cy="532.7193"
       sodipodi:cx="538.92859"
       id="path5363"
       style="opacity:0.71257486;fill:#4d4d4d;fill-opacity:1;stroke:none;stroke-width:3.19000006;stroke-miterlimit:4;stroke-dasharray:none;stroke-opacity:1;filter:url(#filter7045)"
       sodipodi:type="arc"
       inkscape:export-filename="/home/brutkasten/Dokumente/naev/rect4653.png"
       inkscape:export-xdpi="90"
       inkscape:export-ydpi="90" />
    <rect
       inkscape:path-effect="#path-effect4215"
       transform="matrix(0,1,-1,0,0,0)"
       ry="15.659982"
       y="-371.43994"
       x="475.94785"
       height="61.806412"
       width="94.944572"
       id="rect6133"
       style="fill:none;fill-opacity:1;stroke:#000000;stroke-width:3.18999999999999995;stroke-miterlimit:4;stroke-dasharray:none;stroke-opacity:1"
       inkscape:export-filename="/home/brutkasten/Dokumente/naev/rect4653.png"
       inkscape:export-xdpi="90"
       inkscape:export-ydpi="90" />
    <rect
       inkscape:path-effect="#path-effect4215"
       transform="matrix(0,1,-1,0,0,0)"
       ry="15.659982"
       y="-443.70331"
       x="387.77902"
       height="61.806412"
       width="94.944572"
       id="rect4471"
       style="fill:#280b22;fill-opacity:1;stroke:none;stroke-width:3.19000006;stroke-miterlimit:4;stroke-dasharray:none;stroke-opacity:1"
       inkscape:export-filename="/home/brutkasten/Dokumente/naev/rect4653.png"
       inkscape:export-xdpi="90"
       inkscape:export-ydpi="90" />
    <rect
       inkscape:path-effect="#path-effect4215"
       transform="matrix(0,1,-1,0,0,0)"
       ry="15.659982"
       y="-444.65222"
       x="388.11758"
       height="61.806412"
       width="94.944572"
       id="rect5365"
       style="fill:none;fill-opacity:1;stroke:#000000;stroke-width:3.19000006;stroke-miterlimit:4;stroke-dasharray:none;stroke-opacity:1"
       inkscape:export-filename="/home/brutkasten/Dokumente/naev/rect4653.png"
       inkscape:export-xdpi="90"
       inkscape:export-ydpi="90" />
    <rect
       inkscape:path-effect="#path-effect4215"
       transform="matrix(0,1,-1,0,0,0)"
       ry="30.11042"
       y="-436.9433"
       x="395.00455"
       height="118.83904"
       width="174.80162"
       id="rect2518"
       style="fill:#aa00d4;fill-opacity:1;stroke:none;stroke-width:3.02840233;stroke-miterlimit:4;stroke-dasharray:none;stroke-opacity:1"
       inkscape:export-filename="/home/brutkasten/Dokumente/naev/rect4653.png"
       inkscape:export-xdpi="90"
       inkscape:export-ydpi="90" />
    <path
       transform="matrix(0.5106862,0,0,0.7473252,71.25998,20.012631)"
       d="M 584.28573,532.7193 A 45.357143,28.928572 0 1 1 493.57145,532.7193 A 45.357143,28.928572 0 1 1 584.28573,532.7193 z"
       sodipodi:ry="28.928572"
       sodipodi:rx="45.357143"
       sodipodi:cy="532.7193"
       sodipodi:cx="538.92859"
       id="path4655"
       style="opacity:0.53892212;fill:#ffffff;fill-opacity:1;stroke:none;stroke-width:3.19000006;stroke-miterlimit:4;stroke-dasharray:none;stroke-opacity:1;filter:url(#filter5357)"
       sodipodi:type="arc"
       inkscape:export-filename="/home/brutkasten/Dokumente/naev/rect4653.png"
       inkscape:export-xdpi="90"
       inkscape:export-ydpi="90" />
    <rect
       inkscape:path-effect="#path-effect4215"
       transform="matrix(0,0.869928,-0.5511994,0,100.10873,-203.73406)"
       ry="30.11042"
       y="-591.7699"
       x="705.35217"
       height="118.83904"
       width="174.80162"
       id="rect14674"
       style="opacity:1;fill:#cc00ff;fill-opacity:1;stroke:none;stroke-width:3.02840233;stroke-miterlimit:4;stroke-dasharray:none;stroke-opacity:1;filter:url(#filter14680)"
       inkscape:export-filename="/home/brutkasten/Dokumente/naev/rect4653.png"
       inkscape:export-xdpi="90"
       inkscape:export-ydpi="90" />
    <g
       id="g14704"
       transform="matrix(1.055186,0,0,1.055186,-173.06042,-319.11054)"
       inkscape:export-filename="/home/brutkasten/Dokumente/naev/rect4653.png"
       inkscape:export-xdpi="90"
       inkscape:export-ydpi="90">
      <path
         transform="matrix(5.2647079e-3,-0.3673456,0.3673456,5.2647079e-3,31.125723,991.34662)"
         style="fill:#220b28;fill-opacity:1;fill-rule:evenodd;stroke:none;stroke-width:0.60021651px;stroke-linecap:butt;stroke-linejoin:miter;stroke-opacity:1;filter:url(#filter14575)"
         d="M 532.55186,1443.0709 C 508.9988,1438.3321 461.02479,1458.8395 465.62038,1412.4191 C 467.63879,1375.9974 468.80988,1340.0093 466.58303,1303.4136 C 485.44416,1298.1337 579.4459,1305.5103 582.19705,1306.5067 C 583.06945,1306.3791 553.34927,1343.4266 552.74502,1342.3105 C 531.04087,1334.8918 501.57466,1345.0538 500.3353,1344.3123 C 501.12749,1365.423 503.60081,1425.0608 502.52614,1424.294 C 503.35212,1423.9158 533.94505,1442.9668 532.55186,1443.0709 z"
         id="path14684"
         sodipodi:nodetypes="cccccccc" />
      <path
         style="fill:#22002b;fill-opacity:1;fill-rule:evenodd;stroke:none;stroke-width:0.60021651px;stroke-linecap:butt;stroke-linejoin:miter;stroke-opacity:1"
         d="M 563.93641,803.75216 C 562.07169,812.37933 569.35245,830.11033 552.3243,828.17776 C 538.95559,827.24458 525.74172,826.62491 512.28677,827.25027 C 510.44648,820.29391 513.65108,785.80162 514.03163,784.79625 C 513.98933,784.47511 527.44206,795.58772 527.02892,795.80382 C 524.18944,803.73769 527.76723,814.61546 527.48832,815.06684 C 535.2475,814.88697 557.16817,814.29238 556.88074,814.68312 C 556.7462,814.37772 563.90555,803.23984 563.93641,803.75216 z"
         id="path14686"
         sodipodi:nodetypes="cccccccc" />
      <path
         transform="matrix(1.4330284e-2,-0.9998973,0.9998973,1.4330284e-2,-205.20134,1275.871)"
         id="path14688"
         d="M 495.83055,758.30685 C 495.07985,752.45675 496.61567,741.72165 496.08082,734.30165 C 495.70925,729.14665 495.79031,728.94755 499.61324,731.40625 C 501.43476,732.57775 502.94302,733.65215 504.69793,734.78075 C 506.44462,735.90425 507.42344,737.75565 508.97005,739.09425 C 510.60094,740.50595 512.04776,741.96635 513.47686,743.61085 C 514.6561,744.96775 515.68648,746.13915 517.04485,747.31485 C 517.32145,747.55435 517.52479,747.86715 517.76475,748.14335 C 519.08793,749.66575 520.71243,750.93275 522.03687,752.45675 C 522.86243,753.40675 523.79997,754.59845 524.43129,755.14505 C 526.63428,757.05165 533.92275,754.90095 537.16072,754.66765 C 537.74453,754.62545 538.32833,754.58335 538.91214,754.54135 C 541.14377,754.38055 543.30406,754.88495 545.52734,754.72465 C 546.78594,754.63385 547.98742,754.76735 549.2649,754.67535 C 550.45506,754.58955 547.25934,752.06535 546.32216,750.48625 C 545.40825,748.94615 543.40903,747.75945 542.08161,746.61065 C 540.82149,745.51985 540.39811,744.64055 539.01461,743.75075 C 538.92054,743.69025 543.34608,742.99825 543.58054,742.98135 C 546.41043,742.77745 549.14915,743.46025 551.96295,743.25745 C 554.0188,743.10925 554.65711,743.90735 556.07726,745.38165 C 557.43055,746.78655 558.76418,748.52835 560.13043,749.71085 C 561.41799,750.82535 562.74142,752.18705 563.47948,753.43065 C 564.23047,754.69605 565.00278,755.80515 565.71812,757.01045 C 566.31748,758.02025 567.39385,759.48725 568.14411,760.13655 C 569.10015,760.96395 571.15152,761.44725 569.38077,762.02795 C 567.3712,762.68715 565.27274,761.57155 563.17188,761.37525 C 560.71279,761.14545 557.80046,760.66205 555.43047,760.83295 C 552.92816,761.01335 550.25766,760.32555 547.70486,760.50955 C 545.17619,760.69185 542.55896,760.22025 539.99501,760.40515 C 537.209,760.60595 534.32588,760.37365 531.42523,760.58265 C 528.02879,760.82755 524.5449,760.85855 521.11981,761.10545 C 518.65688,761.28295 516.06203,761.02985 513.64468,761.20405 C 511.54587,761.35535 509.43241,761.28765 507.27996,761.44285 C 505.87521,761.54415 504.41801,761.53705 503.08876,761.30475 C 501.94079,761.10415 500.29924,761.50585 499.14805,761.58895 C 497.68853,761.69415 496.229,761.79935 494.76948,761.90445 C 494.08102,761.95405 495.7875,760.76265 495.73787,760.07415 C 495.63646,758.66725 495.06256,760.71645 495.83055,758.30685 z"
         style="fill:#22002b;fill-rule:evenodd;stroke:#000000;stroke-width:0.43458107px;stroke-linecap:butt;stroke-linejoin:miter;stroke-opacity:1;filter:url(#filter14670)" />
      <path
         id="path14690"
         d="M 558.98423,788.07051 C 553.47488,788.69736 543.4044,787.10905 536.42231,787.51185 C 531.57151,787.7917 531.38542,787.71281 533.74818,784.15231 C 534.87391,782.45584 535.90423,781.05251 536.98876,779.41807 C 538.06838,777.79128 539.82189,776.89612 541.1011,775.46032 C 542.45003,773.94626 543.84239,772.6059 545.40747,771.28468 C 546.69883,770.19444 547.81391,769.24166 548.93739,767.98061 C 549.16619,767.72382 549.463,767.53689 549.72581,767.31505 C 551.17478,766.09174 552.38765,764.58175 553.83804,763.35729 C 554.74218,762.59404 555.87509,761.72879 556.39734,761.14271 C 558.21934,759.09754 556.29584,752.21728 556.12007,749.17038 C 556.08835,748.62103 556.05662,748.07167 556.02499,747.52231 C 555.90387,745.42238 556.40712,743.39847 556.28639,741.30638 C 556.21806,740.12205 556.35974,738.99444 556.29045,737.79234 C 556.22579,736.67241 553.80998,739.64244 552.3129,740.50213 C 550.85295,741.34049 549.71043,743.20379 548.61265,744.43612 C 547.57038,745.60596 546.73806,745.99209 545.88301,747.28062 C 545.82485,747.36824 545.23404,743.19882 545.2213,742.9782 C 545.06773,740.31531 545.74647,737.75006 545.5937,735.10231 C 545.48211,733.16777 546.24093,732.5785 547.64592,731.2634 C 548.98482,730.01021 550.64012,728.78003 551.77011,727.51166 C 552.83505,726.31635 554.13294,725.09065 555.31187,724.41361 C 556.51147,723.72472 557.56446,723.01367 558.70708,722.35747 C 559.66446,721.80767 561.05792,720.81563 561.67836,720.11912 C 562.46906,719.23158 562.95095,717.30976 563.47304,718.98212 C 564.0656,720.88003 562.98864,722.8376 562.77576,724.80979 C 562.52665,727.11829 562.03307,729.84942 562.16172,732.07955 C 562.29759,734.4342 561.61507,736.93526 561.75367,739.33741 C 561.89098,741.71686 561.41237,744.17075 561.55161,746.58339 C 561.70286,749.205 561.44564,751.91205 561.60304,754.64153 C 561.78746,757.83755 561.76972,761.11288 561.95566,764.33586 C 562.08936,766.65345 561.81643,769.08924 561.94764,771.36394 C 562.06155,773.33891 561.96949,775.32467 562.08636,777.35011 C 562.16264,778.67197 562.13641,780.04165 561.90012,781.28806 C 561.69607,782.36446 562.05152,783.91297 562.1141,784.99622 C 562.19334,786.36961 562.27255,787.74301 562.35178,789.11641 C 562.3891,789.76423 561.2921,788.14406 560.64431,788.18145 C 559.32037,788.25782 561.23895,788.82491 558.98423,788.07051 z"
         style="fill:#220b28;fill-rule:evenodd;stroke:none;stroke-width:0.40855595px;stroke-linecap:butt;stroke-linejoin:miter;stroke-opacity:1" />
      <path
         transform="matrix(-5.2647079e-3,0.3673456,0.3673456,5.2647079e-3,39.462685,514.6019)"
         style="fill:#220b28;fill-opacity:1;fill-rule:evenodd;stroke:none;stroke-width:0.60021651px;stroke-linecap:butt;stroke-linejoin:miter;stroke-opacity:1;filter:url(#filter14575)"
         d="M 532.55186,1443.0709 C 508.9988,1438.3321 461.02479,1458.8395 465.62038,1412.4191 C 467.63879,1375.9974 468.80988,1340.0093 466.58303,1303.4136 C 485.44416,1298.1337 579.4459,1305.5103 582.19705,1306.5067 C 583.06945,1306.3791 553.34927,1343.4266 552.74502,1342.3105 C 531.04087,1334.8918 501.57466,1345.0538 500.3353,1344.3123 C 501.12749,1365.423 503.60081,1425.0608 502.52614,1424.294 C 503.35212,1423.9158 533.94505,1442.9668 532.55186,1443.0709 z"
         id="path14692"
         sodipodi:nodetypes="cccccccc" />
      <path
         style="fill:#22002b;fill-opacity:1;fill-rule:evenodd;stroke:none;stroke-width:0.60021651px;stroke-linecap:butt;stroke-linejoin:miter;stroke-opacity:1"
         d="M 566.67851,717.38841 C 565.06179,708.71135 572.84769,691.19626 555.77114,692.64005 C 542.38119,693.18975 529.15498,693.43048 515.72348,692.41979 C 513.68459,699.32055 515.89942,733.89051 516.251,734.90637 C 516.1995,735.22617 529.96517,724.50364 529.5584,724.2758 C 526.94745,716.26382 530.8355,705.49305 530.56964,705.03386 C 538.32049,705.43601 560.21511,706.65856 559.93899,706.25973 C 559.79575,706.56117 566.63297,717.89963 566.67851,717.38841 z"
         id="path14694"
         sodipodi:nodetypes="cccccccc" />
    </g>
    <path
       transform="matrix(0.2001094,0,0,0.6165629,223.80985,160.78603)"
       d="M 584.28573,532.7193 A 45.357143,109.99326 0 1 1 493.57145,532.7193 A 45.357143,109.99326 0 1 1 584.28573,532.7193 z"
       sodipodi:ry="109.99326"
       sodipodi:rx="45.357143"
       sodipodi:cy="532.7193"
       sodipodi:cx="538.92859"
       id="path14718"
       style="opacity:0.71257486;fill:#ffffff;fill-opacity:1;stroke:none;stroke-width:3.19000006;stroke-miterlimit:4;stroke-dasharray:none;stroke-opacity:1;filter:url(#filter14728)"
       sodipodi:type="arc"
       inkscape:export-filename="/home/brutkasten/Dokumente/naev/rect4653.png"
       inkscape:export-xdpi="90"
       inkscape:export-ydpi="90" />
    <rect
       inkscape:path-effect="#path-effect4215"
       transform="matrix(0,1,-1,0,0,0)"
       ry="30.170546"
       y="-437.25165"
       x="395.56076"
       height="119.07633"
       width="173.01862"
       id="rect4653"
       style="fill:none;fill-opacity:1;stroke:#000000;stroke-width:2.79110312;stroke-miterlimit:4;stroke-dasharray:none;stroke-opacity:1"
       inkscape:export-xdpi="90"
       inkscape:export-ydpi="90" />
  </g>
</svg>
