<?xml version="1.0" encoding="UTF-8" standalone="no"?>
<!-- Created with Inkscape (http://www.inkscape.org/) -->

<svg
   width="512"
   height="512"
   viewBox="0 0 135.46666 135.46667"
   version="1.1"
   id="svg5"
   inkscape:version="1.1 (c68e22c387, 2021-05-23)"
   sodipodi:docname="ravenclan.svg"
   inkscape:export-filename="/home/ess/naev/ravenclan.png"
   inkscape:export-xdpi="96"
   inkscape:export-ydpi="96"
   xmlns:inkscape="http://www.inkscape.org/namespaces/inkscape"
   xmlns:sodipodi="http://sodipodi.sourceforge.net/DTD/sodipodi-0.dtd"
   xmlns="http://www.w3.org/2000/svg"
   xmlns:svg="http://www.w3.org/2000/svg">
  <sodipodi:namedview
     id="namedview7"
     pagecolor="#000000"
     bordercolor="#ffffff"
     borderopacity="1"
     inkscape:pageshadow="0"
     inkscape:pageopacity="0"
     inkscape:pagecheckerboard="false"
     inkscape:document-units="px"
     showgrid="false"
     units="px"
     inkscape:showpageshadow="false"
     inkscape:zoom="3.3164062"
     inkscape:cx="216.65018"
     inkscape:cy="410.23322"
     inkscape:window-width="1920"
     inkscape:window-height="1057"
     inkscape:window-x="-8"
     inkscape:window-y="-8"
     inkscape:window-maximized="1"
     inkscape:current-layer="g23354"
     objecttolerance="5"
     gridtolerance="5"
     guidetolerance="4" />
  <defs
     id="defs2" />
  <g
     inkscape:label="512x512"
     inkscape:groupmode="layer"
     id="g910"
     style="display:none">
    <path
       style="fill:#000000;stroke:#ffffff;stroke-width:0.529167;stroke-linecap:round;stroke-linejoin:miter;stroke-miterlimit:4;stroke-dasharray:none;stroke-opacity:1"
       d="m 18.552396,74.391386 c 0,0 38.770283,-10.875988 40.282219,-28.105873 1.221916,-13.924842 -26.628198,-33.558629 -24.567726,-36.07289 2.405504,-2.9352829 17.70647,11.729222 17.70647,11.729222 0,0 -10.903726,-14.978368 -9.517228,-16.487302 1.689416,-1.8386025 14.386507,11.839874 14.386507,11.839874 0,0 -8.567051,-12.7428357 -6.418595,-14.1635877 2.047612,-1.3540656 14.386506,12.8357527 14.386506,12.8357527 0,0 -8.090971,-13.7349258 -5.975933,-15.04881353 2.927168,-1.818393 13.722513,16.37664853 13.722513,16.37664853 0,0 -6.621631,-15.8022362 -4.426617,-16.81926053 3.249876,-1.50577727 10.845213,19.03232153 10.845213,19.03232153 0,0 -0.33464,-10.0238437 1.327984,-9.9587717 3.846087,0.150525 6.197266,15.4914237 6.197266,15.4914237 0,0 3.360151,-2.071334 4.869279,-1.327837 1.88875,0.930525 3.762631,9.294855 3.762631,9.294855 4.905805,33.273827 -6.12394,55.648085 -55.647904,48.937398"
       id="path868"
       sodipodi:nodetypes="csscscscscscscscc" />
    <path
       style="fill:#000000;stroke:#000000;stroke-width:0.202141;stroke-linecap:butt;stroke-linejoin:round"
       d="m 33.918062,127.9655 c -0.862814,-0.0727 -1.724811,-0.32309 -2.573437,-0.74768 -0.269464,-0.13481 -0.481112,-0.25381 -0.470329,-0.26444 0.01079,-0.0106 0.28105,0.0157 0.600596,0.0584 0.926344,0.12384 2.1687,0.15994 2.734078,0.0794 0.394196,-0.0562 0.599525,-0.12356 1.023654,-0.33624 1.194747,-0.59913 1.60954,-1.40271 1.60954,-3.11819 0,-1.23314 -0.279472,-1.79786 -1.531927,-3.09556 -0.708777,-0.73437 -1.302301,-1.17269 -2.147697,-1.58606 -0.826239,-0.404 -1.223349,-0.50848 -1.917592,-0.50455 -1.318485,0.007 -2.567532,0.68005 -3.141229,1.69146 -0.331192,0.58389 -0.693832,2.44515 -0.696633,3.0989 -0.0018,0.38722 -0.113953,-0.0472 -0.292372,-0.47567 -0.280397,-0.67347 -0.401818,-1.18865 -0.434582,-1.84389 -0.03719,-0.74384 0.05924,-1.2637 0.3403,-1.83471 0.382115,-0.77626 1.314328,-1.45695 2.379483,-1.73746 0.941976,-0.24807 2.448033,-0.19374 3.419381,0.12335 0.76883,0.25098 1.665976,0.79796 2.513984,1.53272 0.480305,0.41617 0.694651,0.4958 0.762155,0.28313 0.0484,-0.15248 -0.130384,-0.36631 -1.087146,-1.3002 -1.499375,-1.46354 -2.511582,-2.16587 -3.395067,-2.35571 -0.440458,-0.0946 -1.47296,-0.0957 -1.853647,-0.002 -0.421454,0.10387 -0.919847,0.35462 -1.227184,0.61743 -0.318664,0.27249 -0.668389,0.78658 -0.795595,1.16952 -0.0591,0.17792 -0.161057,0.34136 -0.267512,0.42884 -0.272517,0.22395 -0.537177,0.60056 -0.705073,0.86343 -0.171691,0.26881 -0.122748,0.11782 -0.211402,-0.38516 -0.189719,-1.0764 0.108096,-1.98179 0.914559,-2.78033 0.315446,-0.31234 0.512327,-0.45101 0.918057,-0.64664 0.705209,-0.34002 1.054355,-0.42329 1.930044,-0.46024 1.249278,-0.0527 2.168048,0.16665 3.137314,0.74913 0.829491,0.49848 1.607588,1.2159 2.262824,2.08637 0.303141,0.4027 0.428076,0.47947 0.562164,0.3454 0.114331,-0.11433 0.07417,-0.2261 -0.224605,-0.6252 -0.890348,-1.18927 -2.189403,-2.22631 -3.292046,-2.62805 -0.442483,-0.16122 -0.907912,-0.26474 -1.645892,-0.36607 l -0.276664,-0.0379 0.331998,-0.10593 c 0.437445,-0.13957 1.23189,-0.1868 1.71814,-0.10212 1.117873,0.19464 2.441863,1.07593 3.918111,2.60802 0.408316,0.42375 0.760364,0.77047 0.78233,0.77047 0.04542,0 9.058807,-2.92521 9.078298,-2.94628 0.007,-0.007 -0.08363,-2.00545 -0.201327,-4.43982 -0.117701,-2.43437 -0.214764,-4.49037 -0.215693,-4.56891 l -0.09457,-0.3925 3.206841,0.44785 c 0,0 0.284166,10.29066 0.257103,10.31772 -0.01344,0.0135 -1.879257,0.62506 -4.146279,1.35917 -2.267024,0.73412 -4.613633,1.49743 -5.214685,1.69625 -1.24245,0.41098 -1.203591,0.37362 -0.954494,0.91766 0.538315,1.17571 0.536197,3.70419 0.143759,4.97062 -0.504641,1.6285 -2.15619,2.85167 -3.909465,3.33818 -0.564766,0.15671 -0.961747,0.18955 -1.620698,0.13406 z"
       id="path870"
       sodipodi:nodetypes="csscssssssscsssssssssssssssssssssssscsssssscccsssssscc" />
    <path
       style="fill:#000000;stroke:#000000;stroke-width:0.202141;stroke-linecap:butt;stroke-linejoin:round"
       d="m 29.804583,119.29809 -0.110619,-0.0737 0.07603,-0.0367 c 0.04182,-0.0201 0.07866,-0.0358 0.08189,-0.0348 0.0033,0.001 0.01897,0.0438 0.03502,0.095 0.01604,0.0512 0.03152,0.10016 0.03439,0.1087 0.0029,0.008 0.0025,0.0155 -3.66e-4,0.0154 -0.0029,-1.2e-4 -0.05543,-0.0334 -0.116274,-0.0739 z"
       id="path872" />
    <path
       style="fill:#000000;stroke:#000000;stroke-width:0.202141;stroke-linecap:butt;stroke-linejoin:round"
       d="m 28.752023,117.08431 c -0.01409,-0.11542 3.66e-4,-0.3749 0.02742,-0.48974 0.0075,-0.032 0.01351,-0.0399 0.05924,-0.0779 0.357177,-0.29738 0.815248,-0.487 1.337886,-0.55382 0.171259,-0.0219 0.164976,-0.0292 0.06639,0.0774 -0.22057,0.23843 -0.36442,0.46278 -0.469566,0.73233 l -0.03666,0.094 -0.06638,0.0116 c -0.253531,0.0445 -0.646391,0.15092 -0.866477,0.2347 l -0.04618,0.0176 z"
       id="path874" />
    <path
       style="fill:#000000;stroke:#ffffff;stroke-width:0.529167;stroke-linecap:round;stroke-linejoin:miter;stroke-miterlimit:4;stroke-dasharray:none;stroke-opacity:1"
       d="m 65.31639,107.59314 2.428979,9.3591 2.231403,8.74527 c 0,0 -5.957773,-0.77725 -6.99546,-0.81336 -1.747105,-0.0608 -2.23774,1.45261 -2.23774,1.45261 0,0 0.799198,-0.21314 1.770722,-0.0793 0.965264,0.133 6.561328,0.86757 6.561328,0.86757 0,0 -7.262153,0.76504 -9.104523,1.01027 -1.826791,0.24317 -1.989781,2.54041 -1.989781,2.54041 0,0 0.964611,-0.54081 2.087601,-0.70168 1.989234,-0.28494 9.616928,-1.24542 9.616928,-1.24542 0,0 -4.909264,2.63882 -6.447711,3.53404 -1.168714,0.68008 -0.157182,2.67779 -0.157182,2.67779 0,0 0.656108,-0.98139 1.702656,-1.52369 1.374499,-0.71224 7.08183,-3.36447 7.08183,-3.36447 l 2.191063,-1.27146 c 0,0 6.833392,-0.37696 8.587207,-0.40169 1.093225,-0.0154 1.909645,0.47942 1.909645,0.47942 0,0 -0.412635,-2.48372 -2.495555,-2.48372 -1.461885,0 -8.158924,0.36494 -8.158924,0.36494 l -4.927413,-18.82781"
       id="path876"
       sodipodi:nodetypes="cccscscscscscsccscscc" />
    <g
       id="g890"
       style="stroke:#ffffff;stroke-width:0.720953;stroke-linejoin:miter"
       transform="matrix(1.3871303,0,0,1.3869748,-35.809694,-3.6462971)">
      <path
         style="fill:none;stroke:#ffffff;stroke-width:0.381504;stroke-linecap:round;stroke-linejoin:miter;stroke-miterlimit:4;stroke-dasharray:none;stroke-opacity:1"
         d="m 58.986528,78.165037 0.323156,6.682308 -6.38241,2.074283"
         id="path878"
         sodipodi:nodetypes="ccc" />
      <path
         style="fill:none;stroke:#ffffff;stroke-width:0.381504;stroke-linecap:round;stroke-linejoin:miter;stroke-miterlimit:4;stroke-dasharray:none;stroke-opacity:1"
         d="m 61.499517,78.656473 0.262546,7.402164 -7.573035,2.454621"
         id="path880"
         sodipodi:nodetypes="ccc" />
      <path
         style="fill:none;stroke:#ffffff;stroke-width:0.381504;stroke-linecap:round;stroke-linejoin:miter;stroke-miterlimit:4;stroke-dasharray:none;stroke-opacity:1"
         d="m 52.927274,86.921628 c 0,0 -1.215592,-1.536716 -2.68197,-2.217664 -0.956772,-0.4443 -2.072797,-0.278186 -2.847189,0.258761 m -0.955629,1.638151 c -0.04503,0.219491 -0.0574,0.414579 -0.0027,0.628878 m 0.566955,1.354043 c 0.09162,0.116583 0.633062,0.421157 0.633062,0.421157 0,0 -0.183967,-0.498853 -0.202877,-0.645484 m -0.06425,-1.401826 c 0.05412,-0.154685 0.117873,-0.291775 0.216972,-0.421571 0.14997,-0.196424 0.299061,-0.326191 0.498762,-0.444299"
         id="path882"
         sodipodi:nodetypes="cscccccccsc" />
      <path
         style="fill:none;stroke:#ffffff;stroke-width:0.381504;stroke-linecap:round;stroke-linejoin:miter;stroke-miterlimit:4;stroke-dasharray:none;stroke-opacity:1"
         d="m 51.857086,87.319355 c 0,0 -1.190726,-1.877043 -3.023168,-2.25512 -1.269953,-0.262023 -2.932284,-0.08309 -3.766782,1.298841 -0.43959,0.72796 -0.351133,1.569869 -0.06095,2.345318 m 0.864053,1.520818 c 0.04229,0.04973 0.08327,0.09486 0.122351,0.134919 0,0 -0.02438,-0.153544 -0.05369,-0.396795 M 45.9,87.557189 c 0.03621,-0.212949 0.09097,-0.344998 0.170302,-0.4838 0.469721,-0.821792 1.345981,-1.1477 2.522274,-0.920776 1.176293,0.226924 3.102446,2.431747 3.102446,2.431747"
         id="path884"
         sodipodi:nodetypes="csscccccszc" />
      <path
         style="fill:none;stroke:#ffffff;stroke-width:0.381504;stroke-linecap:round;stroke-linejoin:miter;stroke-miterlimit:4;stroke-dasharray:none;stroke-opacity:1"
         d="m 51.695022,88.58436 c 0,0 -1.147413,-1.169547 -2.395544,-1.474435 -1.248131,-0.304889 -2.763089,-0.199748 -3.73724,0.738697 -0.974151,0.938446 -0.876428,2.804038 0.09922,4.130679 0,0 -0.04834,-2.484298 1.074866,-3.256302 0.90389,-0.621264 1.791082,-0.720956 2.707967,-0.302477 1.154973,0.527148 1.614209,1.122019 1.614209,1.122019"
         id="path886"
         sodipodi:nodetypes="czzcssc" />
      <path
         style="fill:none;stroke:#ffffff;stroke-width:0.381504;stroke-linecap:round;stroke-linejoin:miter;stroke-miterlimit:4;stroke-dasharray:none;stroke-opacity:1"
         d="m 51.0585,89.542541 c 0,0 0.830604,0.760085 1.052944,1.382418 0.222449,0.622641 0.115701,1.308665 0.02028,1.805304 -0.09542,0.496639 -0.409682,0.953071 -1.287898,1.295331 -0.878215,0.342261 -3.376936,-0.132593 -3.376936,-0.132593 0.78878,0.807756 2.698982,1.407234 3.892087,1.093393 1.939029,-0.510054 3.01003,-1.997744 3.174562,-3.024301 0.179972,-1.122894 0.141553,-2.597118 -0.344511,-3.448835"
         id="path888"
         sodipodi:nodetypes="cssscssc" />
    </g>
    <path
       style="fill:none;stroke:#000000;stroke-width:0.264583px;stroke-linecap:round;stroke-linejoin:miter;stroke-opacity:1"
       d="m 65.587941,107.56753 3.116003,0.32833"
       id="path892"
       sodipodi:nodetypes="cc" />
    <path
       style="fill:none;stroke:#ffffff;stroke-width:0.529167;stroke-linecap:butt;stroke-linejoin:miter;stroke-miterlimit:4;stroke-dasharray:none;stroke-opacity:1"
       d="m 65.31639,107.59314 0.205736,0.79924"
       id="path894"
       sodipodi:nodetypes="cc" />
    <path
       style="fill:#000000;stroke:none;stroke-width:0.264583px;stroke-linecap:round;stroke-linejoin:miter;stroke-opacity:1"
       d="m 49.498147,105.44825 c 5.184165,0.94748 10.533889,1.64228 15.818243,2.14489 l 3.655073,0.3188 c 22.421627,1.78337 42.669417,0.30674 42.669417,0.30674 0,0 -50.997915,-43.637611 -81.376894,-41.518444 -8.108157,0.565608 -21.368818,5.98373 -19.970242,13.989465 2.301637,13.175031 17.64095,20.300949 35.71856,24.076939 z"
       id="path896"
       sodipodi:nodetypes="ccccsscc" />
    <path
       style="fill:#000000;stroke:#ffffff;stroke-width:0.529167;stroke-linecap:round;stroke-linejoin:miter;stroke-miterlimit:4;stroke-dasharray:none;stroke-opacity:1"
       d="m 108.46788,108.40454 c 0,0 11.1037,3.10577 13.39377,3.85853 0.82377,0.27078 3.55194,1.10129 3.47058,2.41851 -0.0513,0.83215 -4.00091,1.1366 -4.00091,1.1366 0,0 2.07972,2.99686 1.55931,3.95667 -0.47442,0.87506 -4.44325,-0.39953 -4.44325,-0.39953 0,0 1.54705,4.22761 0.78741,4.62403 -0.92839,0.48448 -2.98465,-0.24397 -4.78491,-1.87414 -0.63669,-0.57654 -14.34538,-13.41986 -14.34538,-13.41986"
       id="path898"
       sodipodi:nodetypes="csscscssc" />
    <path
       style="fill:#000000;stroke:#ffffff;stroke-width:0.529167;stroke-linecap:round;stroke-linejoin:miter;stroke-miterlimit:4;stroke-dasharray:none;stroke-opacity:1"
       d="m 68.971463,107.91194 c 11.886116,0.94539 23.161327,0.97465 31.133037,0.79341 l 8.36338,-0.30081 c 2.03506,-0.10287 3.173,-0.18586 3.173,-0.18586 0,0 -50.997915,-43.637615 -81.376894,-41.518444 -0.282124,0.01968 -0.424446,0.0051 -0.718212,0.03634 M 10.517149,76.994638 c -0.482766,1.173843 -0.455078,2.368915 -0.223405,3.69506 2.301637,13.175031 17.64095,20.300952 35.71856,24.076942 m 3.485843,0.68161 c 5.184165,0.94748 10.533889,1.64228 15.818243,2.14489"
       id="path900"
       sodipodi:nodetypes="ccccsccsccc" />
    <path
       style="fill:#000000;stroke:#ffffff;stroke-width:0.529167;stroke-linecap:round;stroke-linejoin:miter;stroke-miterlimit:4;stroke-dasharray:none;stroke-opacity:1"
       d="m 29.545774,66.73658 c 0,0 -2.793941,-3.958472 -2.638918,-6.732074 0.155021,-2.773604 1.381166,-4.7448 5.531935,-7.193455 4.150765,-2.448657 12.590934,-4.322043 12.590934,-4.322043 0,0 13.730815,0.607251 18.399777,2.46618 -5.079248,-6.288013 -17.000266,-8.949326 -17.000266,-8.949326 -1.712985,-2.519728 -3.59275,-4.209071 -7.024098,-4.795568 -3.431353,-0.586499 -8.98143,-1.122202 -13.51888,0.7119 -4.537452,1.834101 -9.266911,7.154023 -10.937627,11.35849 -1.670717,4.204468 -1.791488,7.323963 -1.765332,11.035585 0.02614,3.71162 -2.66615,16.678369 -2.66615,16.678369"
       id="path902"
       sodipodi:nodetypes="czzccczzzzc" />
    <path
       style="fill:#000000;stroke:#ffffff;stroke-width:0.529167;stroke-linecap:round;stroke-linejoin:miter;stroke-miterlimit:4;stroke-dasharray:none;stroke-opacity:1"
       d="m 32.138882,79.786089 c 0,0 40.639915,-4.868789 46.258155,-22.130602 C 87.445654,29.853975 57.520282,10.215862 60.801233,7.8616185 62.547287,6.6087377 78.397037,21.803901 78.397037,21.803901 c 0,0 -10.120902,-16.9740946 -8.742571,-18.2577509 1.763582,-1.6424443 16.157154,19.9175459 16.157154,19.9175459 0,0 -8.151287,-19.7215087 -6.086598,-20.9134235 1.620771,-0.9356482 13.722514,24.5649735 13.722514,24.5649735 0,0 -8.370363,-22.8386342 -5.643937,-23.5690959 2.129824,-0.5706208 11.619868,26.5567279 11.619868,26.5567279 0,0 -5.221238,-24.6226114 -2.545307,-25.3395446 3.22181,-0.8631837 7.24861,26.8333586 7.24861,26.8333586 0,0 2.73523,-12.02898 4.26501,-12.06789 1.60227,-0.04075 1.14463,13.54455 1.14463,13.54455 0,0 4.51085,-3.519592 6.04422,-2.306556 1.24074,0.981555 -1.60464,7.247776 -1.60464,7.247776 0,0 3.38421,0.313064 3.65196,2.876976 0.19936,1.909073 -3.37532,4.094163 -3.37532,4.094163 0,0 2.49744,2.313599 2.04732,5.034715 -0.28954,1.750284 -4.26063,2.655671 -4.26063,2.655671 0,0 1.8197,2.727613 1.45649,4.850225 -0.40473,2.365192 -3.28246,3.50408 -3.28246,3.50408 0,0 1.19971,3.08138 -0.0553,4.481448 -1.59525,1.779577 -5.47794,1.272509 -5.47794,1.272509 0,0 -0.15394,3.160076 -2.02114,4.933553 -1.90542,1.809777 -4.784795,1.428998 -4.784795,1.428998 0,0 -0.375875,3.45359 -2.21331,4.979386 -1.979845,1.644056 -5.9206,1.936427 -5.9206,1.936427 0,0 0.254495,2.40133 -2.711305,4.149491 -2.692024,1.586786 -6.086599,0.442611 -6.086599,0.442611 0,0 -1.529234,2.805248 -4.537282,4.315468 -2.841976,1.426844 -7.857247,-0.110652 -7.857247,-0.110652"
       id="path904"
       sodipodi:nodetypes="csscscscscscscscscscscscscscscsc" />
  </g>
  <g
     inkscape:label="64x64"
     inkscape:groupmode="layer"
     id="layer1"
     style="display:none">
    <path
       style="fill:#000000;stroke:#ffffff;stroke-width:1.19062;stroke-linecap:round;stroke-linejoin:miter;stroke-miterlimit:4;stroke-dasharray:none;stroke-opacity:1"
       d="m 19.121518,74.085998 c 0,0 38.321284,-10.749953 39.81571,-27.780173 1.207765,-13.763476 -26.319816,-33.16974 -24.283207,-35.654865 2.377646,-2.9012683 17.501412,11.5933 17.501412,11.5933 0,0 -10.77745,-14.8047942 -9.407009,-16.2962422 1.669851,-1.8172962 14.219896,11.7026702 14.219896,11.7026702 0,0 -8.467835,-12.5951681 -6.344261,-13.9994559 2.023899,-1.3383743 14.219896,12.6870079 14.219896,12.6870079 0,0 -7.997269,-13.5757611 -5.906726,-14.874423 2.893269,-1.79732088 13.563593,16.186871 13.563593,16.186871 0,0 -6.544946,-15.6191152 -4.375352,-16.6243539 3.212239,-1.48832783 10.719614,18.8117689 10.719614,18.8117689 0,0 -0.330765,-9.9076848 1.312605,-9.8433668 3.801545,0.1487818 6.125495,15.3119048 6.125495,15.3119048 0,0 3.321237,-2.047331 4.812888,-1.312449 1.866876,0.919741 3.719056,9.187143 3.719056,9.187143 4.848992,32.888238 -6.053019,55.003216 -55.003445,48.370295"
       id="path51243"
       sodipodi:nodetypes="csscscscscscscscc" />
    <path
       style="fill:#000000;stroke:#000000;stroke-width:0.202141;stroke-linecap:butt;stroke-linejoin:round"
       d="m 34.309234,127.03927 c -0.852822,-0.0718 -1.704836,-0.31934 -2.543634,-0.73901 -0.266343,-0.13325 -0.47554,-0.25087 -0.464882,-0.26138 0.01066,-0.0105 0.277795,0.0155 0.593641,0.0577 0.915616,0.1224 2.143584,0.15808 2.702414,0.0785 0.389631,-0.0555 0.592582,-0.12213 1.011799,-0.33235 1.180911,-0.59218 1.5909,-1.38645 1.5909,-3.08205 0,-1.21885 -0.276235,-1.77703 -1.514186,-3.05969 -0.700568,-0.72586 -1.287219,-1.1591 -2.122824,-1.56768 -0.81667,-0.39932 -1.209181,-0.50259 -1.895384,-0.4987 -1.303216,0.007 -2.537798,0.67217 -3.104851,1.67186 -0.327356,0.57712 -0.685797,2.41681 -0.688565,3.06298 -0.0018,0.38274 -0.112633,-0.0466 -0.288986,-0.47015 -0.27715,-0.66567 -0.397165,-1.17488 -0.429549,-1.82253 -0.03676,-0.73522 0.05855,-1.24905 0.336359,-1.81344 0.377689,-0.76727 1.299106,-1.44007 2.351926,-1.71733 0.931067,-0.2452 2.419682,-0.1915 3.379781,0.12192 0.759926,0.24807 1.646682,0.78871 2.48487,1.51496 0.474742,0.41135 0.686606,0.49005 0.753328,0.27985 0.04784,-0.15072 -0.128874,-0.36207 -1.074556,-1.28514 -1.48201,-1.44658 -2.482495,-2.14077 -3.355748,-2.32841 -0.435357,-0.0935 -1.455902,-0.0946 -1.83218,-0.002 -0.416573,0.10266 -0.909195,0.35051 -1.212972,0.61027 -0.314974,0.26933 -0.660649,0.77747 -0.786382,1.15597 -0.05842,0.17586 -0.159191,0.3374 -0.264413,0.42387 -0.269361,0.22135 -0.530956,0.5936 -0.696908,0.85342 -0.169703,0.2657 -0.121326,0.11646 -0.208954,-0.38069 -0.187522,-1.06393 0.106844,-1.95883 0.903968,-2.74811 0.311793,-0.30872 0.506393,-0.44579 0.907425,-0.63915 0.697042,-0.33608 1.042144,-0.41838 1.907692,-0.45491 1.23481,-0.0521 2.14294,0.16472 3.100981,0.74045 0.819884,0.49271 1.58897,1.20181 2.236618,2.06219 0.29963,0.39804 0.423118,0.47392 0.555653,0.3414 0.113007,-0.113 0.07331,-0.22348 -0.222003,-0.61795 -0.880037,-1.17549 -2.164048,-2.20051 -3.253921,-2.5976 -0.437359,-0.15935 -0.897398,-0.26167 -1.626831,-0.36183 l -0.27346,-0.0375 0.328153,-0.1047 c 0.432379,-0.13795 1.217623,-0.18463 1.698242,-0.10094 1.104927,0.19239 2.413584,1.06347 3.872736,2.5778 0.403587,0.41884 0.751558,0.76154 0.773269,0.76154 0.04489,0 8.953897,-2.89131 8.973163,-2.91213 0.0069,-0.007 -0.08266,-1.98221 -0.198996,-4.38837 -0.116338,-2.40616 -0.212277,-4.43834 -0.213195,-4.51597 l -0.09347,-0.38795 3.169703,0.44266 c 0,0 0.280875,10.17141 0.254125,10.19816 -0.01328,0.0133 -1.857493,0.61781 -4.098261,1.34342 -2.240769,0.72561 -4.560202,1.48007 -5.154293,1.67659 -1.228062,0.40622 -1.189653,0.36929 -0.94344,0.90702 0.53208,1.16209 0.529987,3.66127 0.142094,4.91302 -0.498797,1.60963 -2.131219,2.81863 -3.86419,3.2995 -0.558225,0.15489 -0.950609,0.18735 -1.601928,0.13251 z"
       id="path61357"
       sodipodi:nodetypes="csscssssssscsssssssssssssssssssssssscsssssscccsssssscc" />
    <path
       style="fill:#000000;stroke:#000000;stroke-width:0.202141;stroke-linecap:butt;stroke-linejoin:round"
       d="m 30.243393,118.47231 -0.109337,-0.0728 0.07515,-0.0363 c 0.04134,-0.0199 0.07775,-0.0354 0.08094,-0.0344 0.0033,10e-4 0.01875,0.0433 0.03461,0.0939 0.01585,0.0506 0.03116,0.099 0.03399,0.10744 0.0029,0.008 0.0025,0.0153 -3.62e-4,0.0152 -0.0029,-1.2e-4 -0.05479,-0.033 -0.114927,-0.073 z"
       id="path63053" />
    <path
       style="fill:#000000;stroke:#000000;stroke-width:0.202141;stroke-linecap:butt;stroke-linejoin:round"
       d="m 29.203023,116.28418 c -0.01393,-0.11408 3.62e-4,-0.37056 0.0271,-0.48407 0.0074,-0.0316 0.01335,-0.0394 0.05855,-0.077 0.35304,-0.29394 0.805806,-0.48136 1.322392,-0.5474 0.169275,-0.0216 0.163065,-0.0289 0.06562,0.0765 -0.218016,0.23567 -0.3602,0.45742 -0.464128,0.72384 l -0.03624,0.0929 -0.06561,0.0115 c -0.250595,0.044 -0.638905,0.14917 -0.856442,0.23198 l -0.04565,0.0174 z"
       id="path63092" />
    <path
       style="fill:#000000;stroke:#ffffff;stroke-width:1.19062;stroke-linecap:round;stroke-linejoin:miter;stroke-miterlimit:4;stroke-dasharray:none;stroke-opacity:1"
       d="m 65.343938,106.903 2.400849,9.25064 2.205561,8.64393 c 0,0 -5.888776,-0.76825 -6.914446,-0.80394 -1.726871,-0.0601 -2.211824,1.43578 -2.211824,1.43578 0,0 0.789942,-0.21067 1.750215,-0.0784 0.954085,0.13146 6.485341,0.85751 6.485341,0.85751 0,0 -7.17805,0.75618 -8.999083,0.99857 -1.805635,0.24035 -1.966738,2.51097 -1.966738,2.51097 0,0 0.95344,-0.53455 2.063425,-0.69355 1.966197,-0.28164 9.505554,-1.23099 9.505554,-1.23099 0,0 -4.85241,2.60824 -6.37304,3.49309 -1.155179,0.6722 -0.155362,2.64676 -0.155362,2.64676 0,0 0.64851,-0.97002 1.682938,-1.50604 1.358581,-0.70398 6.999815,-3.32548 6.999815,-3.32548 l 2.165689,-1.25672 c 0,0 6.754254,-0.3726 8.487758,-0.39704 1.080564,-0.0152 1.887529,0.47387 1.887529,0.47387 0,0 -0.407856,-2.45494 -2.466654,-2.45494 -1.444954,0 -8.064435,0.36071 -8.064435,0.36071 L 68.956681,107.2181"
       id="path5270"
       sodipodi:nodetypes="cccscscscscscsccscscc" />
    <g
       id="g57146"
       style="stroke:#ffffff;stroke-width:0.729403;stroke-linejoin:miter"
       transform="matrix(1.3710659,0,0,1.3709021,-34.611004,-3.0473589)">
      <path
         style="fill:none;stroke:#ffffff;stroke-width:0.868446;stroke-linecap:round;stroke-linejoin:miter;stroke-miterlimit:4;stroke-dasharray:none;stroke-opacity:1"
         d="m 58.986528,78.165037 0.323156,6.682308 -6.38241,2.074283"
         id="path5272"
         sodipodi:nodetypes="ccc" />
      <path
         style="fill:none;stroke:#ffffff;stroke-width:0.868446;stroke-linecap:round;stroke-linejoin:miter;stroke-miterlimit:4;stroke-dasharray:none;stroke-opacity:1"
         d="m 61.499517,78.656473 0.262546,7.402164 -7.573035,2.454621"
         id="path5356"
         sodipodi:nodetypes="ccc" />
      <path
         style="fill:none;stroke:#ffffff;stroke-width:0.868446;stroke-linecap:round;stroke-linejoin:miter;stroke-miterlimit:4;stroke-dasharray:none;stroke-opacity:1"
         d="m 52.927274,86.921628 c 0,0 -1.215592,-1.536716 -2.68197,-2.217664 -0.956772,-0.4443 -2.072797,-0.278186 -2.847189,0.258761 m -0.955629,1.638151 c -0.04503,0.219491 -0.0574,0.414579 -0.0027,0.628878 m 0.566955,1.354043 c 0.09162,0.116583 0.633062,0.421157 0.633062,0.421157 0,0 -0.183967,-0.498853 -0.202877,-0.645484 m -0.06425,-1.401826 c 0.05412,-0.154685 0.117873,-0.291775 0.216972,-0.421571 0.14997,-0.196424 0.299061,-0.326191 0.498762,-0.444299"
         id="path26840"
         sodipodi:nodetypes="cscccccccsc" />
      <path
         style="fill:none;stroke:#ffffff;stroke-width:0.868446;stroke-linecap:round;stroke-linejoin:miter;stroke-miterlimit:4;stroke-dasharray:none;stroke-opacity:1"
         d="m 51.857086,87.319355 c 0,0 -1.190726,-1.877043 -3.023168,-2.25512 -1.269953,-0.262023 -2.932284,-0.08309 -3.766782,1.298841 -0.43959,0.72796 -0.351133,1.569869 -0.06095,2.345318 m 0.864053,1.520818 c 0.04229,0.04973 0.08327,0.09486 0.122351,0.134919 0,0 -0.02438,-0.153544 -0.05369,-0.396795 M 45.9,87.557189 c 0.03621,-0.212949 0.09097,-0.344998 0.170302,-0.4838 0.469721,-0.821792 1.345981,-1.1477 2.522274,-0.920776 1.176293,0.226924 3.102446,2.431747 3.102446,2.431747"
         id="path27062"
         sodipodi:nodetypes="csscccccszc" />
      <path
         style="fill:none;stroke:#ffffff;stroke-width:0.868446;stroke-linecap:round;stroke-linejoin:miter;stroke-miterlimit:4;stroke-dasharray:none;stroke-opacity:1"
         d="m 51.695022,88.58436 c 0,0 -1.147413,-1.169547 -2.395544,-1.474435 -1.248131,-0.304889 -2.763089,-0.199748 -3.73724,0.738697 -0.974151,0.938446 -0.876428,2.804038 0.09922,4.130679 0,0 -0.04834,-2.484298 1.074866,-3.256302 0.90389,-0.621264 1.791082,-0.720956 2.707967,-0.302477 1.154973,0.527148 1.614209,1.122019 1.614209,1.122019"
         id="path31165"
         sodipodi:nodetypes="czzcssc" />
      <path
         style="fill:none;stroke:#ffffff;stroke-width:0.868446;stroke-linecap:round;stroke-linejoin:miter;stroke-miterlimit:4;stroke-dasharray:none;stroke-opacity:1"
         d="m 51.0585,89.542541 c 0,0 0.830604,0.760085 1.052944,1.382418 0.222449,0.622641 0.115701,1.308665 0.02028,1.805304 -0.09542,0.496639 -0.409682,0.953071 -1.287898,1.295331 -0.878215,0.342261 -3.376936,-0.132593 -3.376936,-0.132593 0.78878,0.807756 2.698982,1.407234 3.892087,1.093393 1.939029,-0.510054 3.01003,-1.997744 3.174562,-3.024301 0.179972,-1.122894 0.141553,-2.597118 -0.344511,-3.448835"
         id="path35311"
         sodipodi:nodetypes="cssscssc" />
    </g>
    <path
       style="fill:none;stroke:#000000;stroke-width:0.264583px;stroke-linecap:round;stroke-linejoin:miter;stroke-opacity:1"
       d="m 65.612344,106.87768 3.079917,0.32453"
       id="path64682"
       sodipodi:nodetypes="cc" />
    <path
       style="fill:none;stroke:#ffffff;stroke-width:1.19062;stroke-linecap:butt;stroke-linejoin:miter;stroke-miterlimit:4;stroke-dasharray:none;stroke-opacity:1"
       d="m 65.343938,106.903 0.203353,0.78997"
       id="path64959"
       sodipodi:nodetypes="cc" />
    <path
       style="fill:#000000;stroke:none;stroke-width:0.264583px;stroke-linecap:round;stroke-linejoin:miter;stroke-opacity:1"
       d="m 49.708886,104.78296 c 5.124127,0.9365 10.411896,1.62325 15.635052,2.12004 l 3.612743,0.3151 c 22.161962,1.76271 42.175259,0.30319 42.175259,0.30319 0,0 -50.407304,-43.131924 -80.434464,-41.037314 -8.014256,0.559053 -21.1213461,5.914388 -19.738966,13.82735 2.274981,13.022355 17.43665,20.065694 35.304903,23.797924 z"
       id="path69193"
       sodipodi:nodetypes="ccccsscc" />
    <path
       style="fill:#000000;stroke:#ffffff;stroke-width:1.19062;stroke-linecap:round;stroke-linejoin:miter;stroke-miterlimit:4;stroke-dasharray:none;stroke-opacity:1"
       d="m 107.99569,107.70499 c 0,0 10.9751,3.06978 13.23865,3.81382 0.81423,0.26764 3.51081,1.08853 3.43039,2.39048 -0.0507,0.82251 -3.95458,1.12343 -3.95458,1.12343 0,0 2.05564,2.96213 1.54126,3.91082 -0.46893,0.86492 -4.3918,-0.3949 -4.3918,-0.3949 0,0 1.52914,4.17862 0.77829,4.57045 -0.91763,0.47886 -2.95008,-0.24115 -4.72949,-1.85243 -0.62932,-0.56986 -14.179244,-13.26434 -14.179244,-13.26434"
       id="path995"
       sodipodi:nodetypes="csscscssc" />
    <path
       style="fill:#000000;stroke:#ffffff;stroke-width:1.19062;stroke-linecap:round;stroke-linejoin:miter;stroke-miterlimit:4;stroke-dasharray:none;stroke-opacity:1"
       d="m 68.956681,107.2181 c 11.748463,0.93444 22.893096,0.96336 30.772485,0.78422 l 8.266524,-0.29733 c 2.01149,-0.10167 3.13625,-0.1837 3.13625,-0.1837 0,0 -50.407304,-43.131928 -80.434464,-41.037314 -0.278857,0.01945 -0.41953,0.005 -0.709894,0.03592 M 11.179327,76.659083 c -0.477175,1.16024 -0.449807,2.341463 -0.220817,3.65224 2.274981,13.022355 17.43665,20.065697 35.304903,23.797927 m 3.445473,0.67371 c 5.124127,0.9365 10.411896,1.62325 15.635052,2.12004"
       id="path861"
       sodipodi:nodetypes="ccccsccsccc" />
    <path
       style="fill:#000000;stroke:#ffffff;stroke-width:1.19062;stroke-linecap:round;stroke-linejoin:miter;stroke-miterlimit:4;stroke-dasharray:none;stroke-opacity:1"
       d="m 29.987582,66.519899 c 0,0 -2.761585,-3.9126 -2.608357,-6.654061 0.153226,-2.741462 1.365171,-4.689815 5.46787,-7.110095 4.102695,-2.420281 12.445118,-4.271957 12.445118,-4.271957 0,0 13.571798,0.600214 18.186689,2.437601 -5.020425,-6.215146 -16.803386,-8.845618 -16.803386,-8.845618 -1.693147,-2.490529 -3.551142,-4.160295 -6.942752,-4.739996 -3.391614,-0.579702 -8.877416,-1.109197 -13.362317,0.70365 -4.484904,1.812847 -9.159591,7.07112 -10.810959,11.226864 -1.651368,4.155746 -1.77074,7.239091 -1.744887,10.907701 0.02584,3.668609 -2.635274,16.485095 -2.635274,16.485095"
       id="path997"
       sodipodi:nodetypes="czzccczzzzc" />
    <path
       style="fill:#000000;stroke:#ffffff;stroke-width:1.19062;stroke-linecap:round;stroke-linejoin:miter;stroke-miterlimit:4;stroke-dasharray:none;stroke-opacity:1"
       d="m 32.550659,79.418186 c 0,0 40.169264,-4.812368 45.722439,-21.874146 C 87.216923,30.064702 57.638117,10.654162 60.881071,8.3271993 62.606904,7.0888373 78.273098,22.107915 78.273098,22.107915 c 0,0 -10.003692,-16.7773942 -8.641323,-18.046175 1.743158,-1.6234111 15.970037,19.686735 15.970037,19.686735 0,0 -8.056886,-19.4929696 -6.016109,-20.671072 1.602001,-0.9248056 13.563594,24.280307 13.563594,24.280307 0,0 -8.273426,-22.5739731 -5.578575,-23.29597 2.105159,-0.5640083 11.485301,26.24898 11.485301,26.24898 0,0 -5.160773,-24.3372767 -2.515832,-25.0459018 3.184495,-0.8531809 7.164659,26.5224048 7.164659,26.5224048 0,0 2.70355,-11.889584 4.21562,-11.928043 1.58371,-0.04028 1.13137,13.387591 1.13137,13.387591 0,0 4.45861,-3.478805 5.97422,-2.279826 1.22637,0.97018 -1.58605,7.163786 -1.58605,7.163786 0,0 3.34501,0.309436 3.60966,2.843637 0.19705,1.88695 -3.33623,4.046718 -3.33623,4.046718 0,0 2.46852,2.286788 2.02361,4.976371 -0.28618,1.730001 -4.21128,2.624896 -4.21128,2.624896 0,0 1.79862,2.696005 1.43962,4.794019 -0.40005,2.337784 -3.24445,3.463474 -3.24445,3.463474 0,0 1.18582,3.045672 -0.0547,4.429515 -1.57677,1.758955 -5.4145,1.257763 -5.4145,1.257763 0,0 -0.15215,3.123456 -1.99773,4.876381 -1.88335,1.788805 -4.729379,1.412439 -4.729379,1.412439 0,0 -0.371522,3.413568 -2.187677,4.921683 -1.956917,1.625004 -5.852034,1.913987 -5.852034,1.913987 0,0 0.251548,2.373502 -2.679905,4.101405 -2.660848,1.568398 -6.01611,0.437482 -6.01611,0.437482 0,0 -1.511524,2.77274 -4.484736,4.265459 -2.809063,1.410309 -7.766252,-0.10937 -7.766252,-0.10937"
       id="path42271"
       sodipodi:nodetypes="csscscscscscscscscscscscscscscsc" />
    <path
       style="fill:none;stroke:#ffffff;stroke-width:0.79375;stroke-linecap:butt;stroke-linejoin:round;stroke-miterlimit:4;stroke-dasharray:none;stroke-opacity:1"
       d="m 67.409033,129.21076 3.376888,-1.77638 -4.90004,0.63402"
       id="path73012" />
    <path
       style="fill:none;stroke:#ffffff;stroke-width:0.79375;stroke-linecap:butt;stroke-linejoin:round;stroke-miterlimit:4;stroke-dasharray:none;stroke-opacity:1"
       d="m 66.723107,125.7056 4.043021,0.51702 -4.127641,0.44201"
       id="path73187" />
  </g>
  <g
     inkscape:label="oversimplified"
     inkscape:groupmode="layer"
     id="g948"
     style="display:none">
    <path
       style="fill:#000000;stroke:#ffffff;stroke-width:1.19062;stroke-linecap:butt;stroke-linejoin:miter;stroke-miterlimit:4;stroke-dasharray:none;stroke-opacity:1"
       d="M 9.3986184,74.792315 C 67.780818,67.347766 55.749261,34.306515 40.70756,3.2719584 94.711543,26.64868 89.347743,61.709551 59.037842,93.463767"
       id="path4946"
       sodipodi:nodetypes="ccc" />
    <path
       style="fill:#000000;stroke:#ffffff;stroke-width:1.19062;stroke-linecap:round;stroke-linejoin:miter;stroke-miterlimit:4;stroke-dasharray:none;stroke-opacity:1"
       d="m 65.343938,106.903 2.400849,9.25064 1.697843,6.50023 c -5.31908,-0.92787 -8.99243,-0.69763 -10.253122,1.23041 l 10.208604,1.47804 c -5.286969,0.0227 -10.263773,0.36898 -12.146147,3.94426 l 12.410827,-1.51306 c -3.571976,1.59397 -8.199058,2.48454 -8.822585,6.04414 l 10.807697,-3.72037 2.588787,-1.08749 9.982705,-1.01758 c -3.043397,-3.17387 -7.04636,-4.40068 -10.053888,-4.49743 L 68.956681,107.2181"
       id="path914"
       sodipodi:nodetypes="ccccccccccccc" />
    <path
       style="fill:#000000;stroke:#ffffff;stroke-width:1.19063;stroke-linecap:round;stroke-linejoin:miter;stroke-miterlimit:4;stroke-dasharray:none;stroke-opacity:1"
       d="m 46.263413,104.10925 0.443068,9.16079 -8.750704,2.84364 c -6.080835,-5.78768 -11.922312,-1.14087 -11.889016,3.24713 3.016825,-3.74039 5.572966,-3.19173 9.763571,-0.95223 -0.128289,3.72139 0.361914,4.97987 -5.349825,6.53962 6.624787,3.20185 8.903048,-1.74382 9.205217,-6.65255 l 10.38313,-3.36504 -0.359968,-10.14765"
       id="path916"
       sodipodi:nodetypes="ccccccc" />
    <path
       style="fill:none;stroke:#000000;stroke-width:0.264583px;stroke-linecap:round;stroke-linejoin:miter;stroke-opacity:1"
       d="m 65.612344,106.87768 3.079917,0.32453"
       id="path930"
       sodipodi:nodetypes="cc" />
    <path
       style="fill:none;stroke:#ffffff;stroke-width:1.19062;stroke-linecap:butt;stroke-linejoin:miter;stroke-miterlimit:4;stroke-dasharray:none;stroke-opacity:1"
       d="m 65.343938,106.903 0.203353,0.78997"
       id="path932"
       sodipodi:nodetypes="cc" />
    <path
       style="fill:#000000;stroke:none;stroke-width:0.264583px;stroke-linecap:round;stroke-linejoin:miter;stroke-opacity:1"
       d="m 49.708886,104.78296 c 5.124127,0.9365 10.411896,1.62325 15.635052,2.12004 l 3.612743,0.3151 c 22.161962,1.76271 42.175259,0.30319 42.175259,0.30319 0,0 -50.407304,-43.131924 -80.434464,-41.037314 -8.014256,0.559053 -21.1213461,5.914388 -19.738966,13.82735 2.274981,13.022355 17.43665,20.065694 35.304903,23.797924 z"
       id="path934"
       sodipodi:nodetypes="ccccsscc" />
    <path
       style="fill:#000000;stroke:#ffffff;stroke-width:1.19062;stroke-linecap:round;stroke-linejoin:miter;stroke-miterlimit:4;stroke-dasharray:none;stroke-opacity:1"
       d="m 107.99569,107.70499 c 0,0 16.74946,4.90235 16.66904,6.2043 -0.0507,0.82251 -5.27598,8.81797 -6.02683,9.2098 -0.91763,0.47886 -18.908734,-15.11677 -18.908734,-15.11677"
       id="path936"
       sodipodi:nodetypes="cssc" />
    <path
       style="fill:#000000;stroke:#ffffff;stroke-width:1.19062;stroke-linecap:round;stroke-linejoin:miter;stroke-miterlimit:4;stroke-dasharray:none;stroke-opacity:1"
       d="m 68.956681,107.2181 c 11.748463,0.93444 22.893096,0.96336 30.772485,0.78422 l 8.266524,-0.29733 c 2.01149,-0.10167 3.13625,-0.1837 3.13625,-0.1837 0,0 -50.407304,-43.131928 -80.434464,-41.037314 -0.278857,0.01945 -0.41953,0.005 -0.709894,0.03592 M 11.179327,76.659083 c -0.477175,1.16024 -0.449807,2.341463 -0.220817,3.65224 2.274981,13.022355 17.43665,20.065697 35.304903,23.797927 m 3.445473,0.67371 c 5.124127,0.9365 10.411896,1.62325 15.635052,2.12004"
       id="path938"
       sodipodi:nodetypes="ccccsccsccc" />
    <path
       style="fill:#000000;stroke:#ffffff;stroke-width:1.19062;stroke-linecap:round;stroke-linejoin:miter;stroke-miterlimit:4;stroke-dasharray:none;stroke-opacity:1"
       d="M 29.987582,66.519899 C 18.371563,52.354022 51.082558,45.323026 63.478902,50.921387 57.029273,39.95401 39.18958,35.394033 26.546248,40.799394 9.5648768,48.059383 -0.35154974,72.288749 17.322397,91.577968"
       id="path940"
       sodipodi:nodetypes="ccsc" />
    <path
       style="fill:#000000;stroke:#ffffff;stroke-width:1.19062;stroke-linecap:butt;stroke-linejoin:miter;stroke-miterlimit:4;stroke-dasharray:none;stroke-opacity:1"
       d="M 29.391526,74.002532 C 87.773725,66.557983 75.742168,33.516732 60.700467,2.4821753 114.70445,25.858897 109.34065,60.919768 79.030749,92.673984"
       id="path3735"
       sodipodi:nodetypes="ccc" />
  </g>
  <g
     inkscape:label="oversimplified 24px"
     inkscape:groupmode="layer"
     id="g21266"
     style="display:none">
    <path
       style="fill:#000000;stroke:#ffffff;stroke-width:2.11667;stroke-linecap:butt;stroke-linejoin:miter;stroke-miterlimit:4;stroke-dasharray:none;stroke-opacity:1"
       d="M 9.3986184,74.792315 C 67.780818,67.347766 55.749261,34.306515 40.70756,3.2719584 94.711543,26.64868 89.347743,61.709551 59.037842,93.463767"
       id="path21246"
       sodipodi:nodetypes="ccc" />
    <path
       style="fill:#000000;stroke:#ffffff;stroke-width:2.11667;stroke-linecap:round;stroke-linejoin:miter;stroke-miterlimit:4;stroke-dasharray:none;stroke-opacity:1"
       d="m 65.343938,106.903 1.723892,9.02499 1.585017,5.82327 c -5.444948,-1.93481 -8.999947,-0.75777 -10.253122,1.23041 l 10.716322,1.98576 c -5.286969,0.0227 -10.150947,0.0869 -12.033321,3.66219 l 12.580066,-0.8361 c -4.304545,0.96605 -8.303979,2.75726 -8.653346,6.55186 l 10.29998,-4.11526 3.152917,-0.91825 9.757053,-1.29965 c -3.043397,-3.17387 -7.04636,-4.40068 -10.053888,-4.49743 l -3.347196,-16.01462"
       id="path21248"
       sodipodi:nodetypes="ccccccccccccc" />
    <path
       style="fill:#000000;stroke:#ffffff;stroke-width:2.11667;stroke-linecap:round;stroke-linejoin:miter;stroke-miterlimit:4;stroke-dasharray:none;stroke-opacity:1"
       d="m 44.74759,103.63057 0.602629,8.12365 -8.750704,2.84364 c -6.550261,-4.49676 -10.639673,0.57741 -10.532754,4.76295 3.016825,-3.74039 5.572966,-3.19173 9.763571,-0.95223 -0.154656,3.48409 0.249362,3.9669 -5.349825,6.53962 6.624787,3.20185 8.903048,-1.74382 9.205217,-6.65255 l 10.38313,-3.36504 -0.359968,-10.14765"
       id="path21250"
       sodipodi:nodetypes="ccccccccc" />
    <path
       style="fill:none;stroke:#000000;stroke-width:0.264583px;stroke-linecap:round;stroke-linejoin:miter;stroke-opacity:1"
       d="m 65.612344,106.87768 3.079917,0.32453"
       id="path21252"
       sodipodi:nodetypes="cc" />
    <path
       style="fill:none;stroke:#ffffff;stroke-width:2.11667;stroke-linecap:butt;stroke-linejoin:miter;stroke-miterlimit:4;stroke-dasharray:none;stroke-opacity:1"
       d="m 65.343938,106.903 0.203353,0.78997"
       id="path21254"
       sodipodi:nodetypes="cc" />
    <path
       style="fill:#000000;stroke:none;stroke-width:0.264583px;stroke-linecap:round;stroke-linejoin:miter;stroke-opacity:1"
       d="m 49.708886,104.78296 c 5.124127,0.9365 10.411896,1.62325 15.635052,2.12004 l 3.612743,0.3151 c 22.161962,1.76271 42.175259,0.30319 42.175259,0.30319 0,0 -50.407304,-43.131924 -80.434464,-41.037314 -8.014256,0.559053 -21.1213461,5.914388 -19.738966,13.82735 2.274981,13.022355 17.43665,20.065694 35.304903,23.797924 z"
       id="path21256"
       sodipodi:nodetypes="ccccsscc" />
    <path
       style="fill:#000000;stroke:#ffffff;stroke-width:2.11667;stroke-linecap:round;stroke-linejoin:miter;stroke-miterlimit:4;stroke-dasharray:none;stroke-opacity:1"
       d="m 107.99569,107.70499 c 0,0 16.74946,4.90235 16.66904,6.2043 -0.0507,0.82251 -5.27598,8.81797 -6.02683,9.2098 -0.91763,0.47886 -18.908734,-15.11677 -18.908734,-15.11677"
       id="path21258"
       sodipodi:nodetypes="cssc" />
    <path
       style="fill:#000000;stroke:#ffffff;stroke-width:2.11667;stroke-linecap:round;stroke-linejoin:miter;stroke-miterlimit:4;stroke-dasharray:none;stroke-opacity:1"
       d="m 70.818312,107.50017 c 11.748463,0.93444 21.031465,0.68129 28.910854,0.50215 l 8.266524,-0.29733 c 2.01149,-0.10167 3.13625,-0.1837 3.13625,-0.1837 0,0 -50.407304,-43.131928 -80.434464,-41.037314 -0.278857,0.01945 -0.41953,0.005 -0.709894,0.03592 M 11.179327,76.659083 c -0.477175,1.16024 -0.449807,2.341463 -0.220817,3.65224 2.274981,13.022355 15.920827,19.587017 33.78908,23.319247 m 4.961296,1.15239 c 5.124127,0.9365 10.411896,1.62325 15.635052,2.12004"
       id="path21260"
       sodipodi:nodetypes="ccccsccsccc"
       inkscape:export-filename="C:\Users\ljsto\Documents\Inkscape\Naev\raven-oversimplified-24px.webp"
       inkscape:export-xdpi="96"
       inkscape:export-ydpi="96" />
    <path
       style="fill:#000000;stroke:#ffffff;stroke-width:2.11667;stroke-linecap:round;stroke-linejoin:miter;stroke-miterlimit:4;stroke-dasharray:none;stroke-opacity:1"
       d="M 29.987582,66.519899 C 18.371563,52.354022 51.082558,45.323026 63.478902,50.921387 57.029273,39.95401 39.18958,35.394033 26.546248,40.799394 9.5648768,48.059383 -0.35154974,72.288749 17.322397,91.577968"
       id="path21262"
       sodipodi:nodetypes="ccsc" />
    <path
       style="fill:#000000;stroke:#ffffff;stroke-width:2.11667;stroke-linecap:butt;stroke-linejoin:miter;stroke-miterlimit:4;stroke-dasharray:none;stroke-opacity:1"
       d="M 29.391526,74.002532 C 87.773725,66.557983 75.742168,33.516732 60.700467,2.4821753 114.70445,25.858897 109.34065,60.919768 79.030749,92.673984"
       id="path21264"
       sodipodi:nodetypes="ccc" />
  </g>
  <g
     inkscape:label="oversimplified 24px final?"
     inkscape:groupmode="layer"
     id="g23354"
     style="display:inline">
    <path
       style="fill:#3e1282;fill-opacity:1;stroke:#0e0e0e;stroke-width:2.11667;stroke-linecap:round;stroke-linejoin:miter;stroke-miterlimit:4;stroke-dasharray:none;stroke-opacity:1"
       d="M 36.886373,68.56405 C 86.06687,66.846702 79.407806,35.067223 69.856087,4.6522507 72.756994,6.9493229 78.644006,13.721159 80.462282,15.642723 L 78.932802,5.2569153 c 2.538311,2.8688318 7.282024,11.3306497 9.158166,14.1443117 0.0086,-3.612201 -1.298623,-7.087632 -1.685452,-11.4268961 2.52387,3.4103101 8.143818,14.6144751 9.179791,17.4306781 10.221923,27.787231 4.058976,47.10101 -20.979064,68.091112"
       id="path37648"
       sodipodi:nodetypes="ccccccsc" />
    <path
       style="fill:#160037;fill-opacity:1;stroke:#0e0e0e;stroke-width:2.11667;stroke-linecap:round;stroke-linejoin:miter;stroke-miterlimit:4;stroke-dasharray:none;stroke-opacity:1"
       d="m 50.120728,114.31651 c -3.100139,-5.12516 -9.068073,-2.84052 -9.7165,-0.0229 4.008044,-2.03027 6.00873,-0.47306 7.394208,1.37925"
       id="path25818"
       sodipodi:nodetypes="ccc" />
    <path
       style="fill:#160037;fill-opacity:1;stroke:#0e0e0e;stroke-width:2.11667;stroke-linecap:round;stroke-linejoin:miter;stroke-miterlimit:4;stroke-dasharray:none;stroke-opacity:1"
       d="m 50.28627,110.45464 c -3.100139,-5.12517 -11.054576,-3.06121 -11.703003,-0.24357 4.008043,-2.03027 5.291381,1.45789 7.67011,1.6551"
       id="path24796"
       sodipodi:nodetypes="ccc" />
    <path
       style="fill:#5b2ca0;fill-opacity:1;stroke:#0e0e0e;stroke-width:2.11667;stroke-linecap:round;stroke-linejoin:miter;stroke-miterlimit:4;stroke-dasharray:none;stroke-opacity:1"
       d="m 78.308309,106.34019 0.317738,7.63543 0.824418,6.92339 c -5.888803,-3.13319 -10.146398,-2.39004 -11.913383,-0.33011 l 11.898129,4.08408 c -6.039589,-0.86937 -11.6033,-1.61966 -14.357074,2.14753 l 14.503184,1.17478 c -5.077605,0.37508 -9.946475,1.74486 -10.987227,6.02226 l 12.454888,-2.95882 3.754789,-0.51548 11.358773,0.16699 c -2.937525,-4.14255 -7.299887,-6.22244 -10.716998,-6.84231 l -0.914475,-15.51465"
       id="path23336"
       sodipodi:nodetypes="ccccccccccccc" />
    <path
       style="fill:#5b2ca0;fill-opacity:1;stroke:#0e0e0e;stroke-width:2.11667;stroke-linecap:round;stroke-linejoin:miter;stroke-miterlimit:4;stroke-dasharray:none;stroke-opacity:1"
       d="m 59.281844,100.4757 -0.575846,7.91288 -12.075693,2.04842 c -6.911197,-4.41291 -14.120549,-0.71186 -14.87227,3.47623 4.853466,-2.68019 8.035824,-2.36887 13.116168,1.4187 -0.883313,4.583 -0.445581,5.30159 -8.319218,7.60959 8.097378,5.53947 12.061705,-0.56221 13.417153,-7.00267 l 14.326618,-2.41851 1.153202,-10.3449"
       id="path23338"
       sodipodi:nodetypes="ccccccccc" />
    <path
       style="fill:#3e1282;fill-opacity:1;stroke:#0e0e0e;stroke-width:2.11667;stroke-linecap:round;stroke-linejoin:miter;stroke-miterlimit:4;stroke-dasharray:none;stroke-opacity:1"
       d="m 119.06709,113.53426 c 0,0 15.32678,7.06121 15.06532,8.29483 -0.16509,0.77934 -6.29656,7.68466 -7.07032,7.95295 -0.94563,0.3279 -15.94445,-17.13479 -15.94445,-17.13479"
       id="path23346"
       sodipodi:nodetypes="cssc" />
    <path
       style="fill:#5b2ca0;fill-opacity:1;stroke:#0e0e0e;stroke-width:0.264583px;stroke-linecap:round;stroke-linejoin:miter;stroke-opacity:1"
       d="m 63.727236,102.48109 c 4.768726,1.6216 9.729382,3.02755 14.655159,4.24271 l 3.411094,0.81323 c 20.949101,4.82584 40.299601,6.26595 40.299601,6.26595 0,0 -42.103474,-48.387674 -71.122726,-50.639392 -7.745244,-0.600982 -21.041837,2.662884 -20.841093,10.425586 0.330361,12.775074 13.83489,21.658652 30.3977,27.759476 z"
       id="path23344"
       sodipodi:nodetypes="ccccsscc" />
    <path
       style="fill:#5b2ca0;fill-opacity:1;stroke:#0e0e0e;stroke-width:2.11667;stroke-linecap:round;stroke-linejoin:miter;stroke-miterlimit:4;stroke-dasharray:none;stroke-opacity:1"
       d="m 84.531071,108.33328 c 10.523092,2.35387 19.312279,3.40481 26.586569,4.31397 l 7.94945,0.88701 c 1.93848,0.18779 3.026,0.26872 3.026,0.26872 0,0 -42.103473,-48.387678 -71.122726,-50.639392 -0.269497,-0.02091 -0.402008,-0.05467 -0.684137,-0.06624 m -19.428073,7.030633 c -0.62089,1.041876 -0.762136,2.175306 -0.728883,3.461192 0.330361,12.775074 12.452782,20.986129 29.015593,27.086947 m 6.307094,2.49932 c 4.174088,1.35607 8.661072,2.49513 12.930437,3.54836"
       id="path23348"
       sodipodi:nodetypes="ccccsccsccc"
       inkscape:export-filename="C:\Users\ljsto\Documents\Inkscape\Naev\raven-oversimplified-24px.webp"
       inkscape:export-xdpi="96"
       inkscape:export-ydpi="96" />
    <path
       style="fill:#5b2ca0;fill-opacity:1;stroke:#0e0e0e;stroke-width:2.11667;stroke-linecap:round;stroke-linejoin:miter;stroke-miterlimit:4;stroke-dasharray:none;stroke-opacity:1"
       d="M 30.858154,70.127981 C 33.616658,60.763292 12.321539,54.747326 2.5173441,61.183992 7.1322174,49.782478 18.600488,43.634076 31.503792,46.84249 c 8.87334,2.206362 15.881694,7.75049 18.43304,16.174126"
       id="path23350"
       sodipodi:nodetypes="ccsc"
       inkscape:export-filename="/home/ess/naev/ravenclan.png"
       inkscape:export-xdpi="96"
       inkscape:export-ydpi="96" />
    <path
       style="fill:#5b2ca0;fill-opacity:1;stroke:#0e0e0e;stroke-width:2.11667;stroke-linecap:round;stroke-linejoin:miter;stroke-miterlimit:4;stroke-dasharray:none;stroke-opacity:1"
       d="m 48.655498,70.168214 c 56.900442,1.153572 50.074905,-32.147172 40.0856,-63.9555244 2.900907,2.2970722 8.787919,9.0689084 10.606195,10.9904734 L 97.817813,6.8173542 c 2.538307,2.8688318 7.282027,11.3306498 9.158167,14.1443118 0.009,-3.612201 -1.29862,-7.087632 -1.68545,-11.4268962 2.52387,3.4103102 8.14382,14.6144752 9.17979,17.4306782 10.22192,27.787232 4.05897,47.10101 -20.979066,68.091112"
       id="path23352"
       sodipodi:nodetypes="ccccccsc" />
    <path
       style="fill:#160037;fill-opacity:1;stroke:#5b2ca0;stroke-width:0.529167;stroke-linecap:round;stroke-linejoin:miter;stroke-miterlimit:4;stroke-dasharray:none;stroke-opacity:1"
       d="m 79.949463,107.03584 2.93022,0.781"
       id="path23340"
       sodipodi:nodetypes="cc" />
    <path
       style="fill:#160037;fill-opacity:1;stroke:#5b2ca0;stroke-width:0.529167;stroke-linecap:round;stroke-linejoin:miter;stroke-miterlimit:4;stroke-dasharray:none;stroke-opacity:1"
       d="m 83.888607,107.08571 c -0.351864,0.36228 -0.629179,0.63213 -0.664872,1.24471"
       id="path6982"
       sodipodi:nodetypes="cc" />
    <path
       style="fill:#160037;fill-opacity:1;stroke:#5b2ca0;stroke-width:0.529167;stroke-linecap:round;stroke-linejoin:miter;stroke-miterlimit:4;stroke-dasharray:none;stroke-opacity:1"
       d="m 79.750013,106.11837 c -0.104752,0.77866 -0.09046,1.24979 -0.0366,1.6187"
       id="path7364"
       sodipodi:nodetypes="cc" />
    <path
       style="fill:none;stroke:#5b2ca0;stroke-width:0.529167;stroke-linecap:round;stroke-linejoin:miter;stroke-miterlimit:4;stroke-dasharray:none;stroke-opacity:1"
       d="m 64.080648,103.46553 c 0.06158,-0.82308 0.39161,-1.32389 0.750303,-1.47956"
       id="path10954"
       sodipodi:nodetypes="cc" />
    <path
       style="fill:none;stroke:#5b2ca0;stroke-width:0.529167;stroke-linecap:round;stroke-linejoin:miter;stroke-miterlimit:4;stroke-dasharray:none;stroke-opacity:1"
       d="m 60.389118,101.81192 c 0.0372,-0.54908 -0.03068,-0.48753 0.05219,-0.94011"
       id="path11469"
       sodipodi:nodetypes="cc" />
    <path
       style="fill:none;stroke:#5b2ca0;stroke-width:0.529167;stroke-linecap:round;stroke-linejoin:miter;stroke-miterlimit:4;stroke-dasharray:none;stroke-opacity:1"
       d="m 60.66465,101.35381 3.348312,1.25271"
       id="path8822"
       sodipodi:nodetypes="cc" />
  </g>
  <g
     inkscape:label="24x24"
     inkscape:groupmode="layer"
     id="g927"
     style="display:none">
    <path
       style="fill:#000000;stroke:#ffffff;stroke-width:2.11667;stroke-linecap:round;stroke-linejoin:miter;stroke-miterlimit:4;stroke-dasharray:none;stroke-opacity:1"
       d="m 19.41263,73.883498 c 0,0 38.091546,-10.685224 39.577013,-27.6129 1.200525,-13.680601 -26.162027,-32.970014 -24.137628,-35.440175 2.363392,-2.8837983 17.39649,11.523493 17.39649,11.523493 0,0 -10.712838,-14.7156492 -9.350613,-16.1981167 1.65984,-1.8063537 14.134647,11.6322047 14.134647,11.6322047 0,0 -8.41707,-12.5193286 -6.306227,-13.9151607 2.011766,-1.3303155 14.134647,12.6106147 14.134647,12.6106147 0,0 -7.949325,-13.4940164 -5.871315,-14.7848587 2.875924,-1.78649855 13.482279,16.0894047 13.482279,16.0894047 0,0 -6.505709,-15.5250675 -4.349122,-16.5242533 3.192982,-1.47936612 10.65535,18.6984963 10.65535,18.6984963 0,0 -0.328782,-9.848027 1.304735,-9.784096 3.778755,0.147886 6.088773,15.219707 6.088773,15.219707 0,0 3.301326,-2.035004 4.784034,-1.304547 1.855684,0.914203 3.69676,9.131824 3.69676,9.131824 4.819922,32.690207 -6.016731,54.672024 -54.673696,48.079042"
       id="path885"
       sodipodi:nodetypes="csscscscscscscscc" />
    <path
       style="fill:#000000;stroke:#000000;stroke-width:0.202141;stroke-linecap:butt;stroke-linejoin:round"
       d="m 34.509295,126.51792 c -0.847709,-0.0714 -1.694615,-0.31741 -2.528385,-0.73456 -0.264746,-0.13244 -0.472689,-0.24935 -0.462095,-0.2598 0.0106,-0.0104 0.27613,0.0154 0.590083,0.0573 0.910126,0.12166 2.130733,0.15713 2.686212,0.078 0.387296,-0.0552 0.58903,-0.1214 1.005734,-0.33035 1.173831,-0.58861 1.581362,-1.3781 1.581362,-3.06349 0,-1.21151 -0.274579,-1.76633 -1.505108,-3.04127 -0.696368,-0.72149 -1.279502,-1.15212 -2.110098,-1.55824 -0.811774,-0.39692 -1.201932,-0.49956 -1.884021,-0.4957 -1.295403,0.007 -2.522584,0.66813 -3.086237,1.6618 -0.325394,0.57364 -0.681686,2.40225 -0.684437,3.04453 -0.0018,0.38044 -0.111958,-0.0463 -0.287254,-0.46732 -0.275488,-0.66166 -0.394784,-1.1678 -0.426974,-1.81155 -0.03654,-0.73079 0.0582,-1.24153 0.334343,-1.80252 0.375425,-0.76265 1.291318,-1.4314 2.337826,-1.70699 0.925485,-0.24373 2.405176,-0.19035 3.359519,0.12118 0.75537,0.24658 1.63681,0.78397 2.469973,1.50584 0.471896,0.40888 0.68249,0.4871 0.748812,0.27817 0.04755,-0.14982 -0.128101,-0.35989 -1.068114,-1.2774 -1.473125,-1.43787 -2.467612,-2.12788 -3.33563,-2.31439 -0.432747,-0.0929 -1.447174,-0.094 -1.821196,-0.002 -0.414076,0.10204 -0.903745,0.3484 -1.2057,0.60659 -0.313086,0.26771 -0.656689,0.77279 -0.781668,1.14901 -0.05807,0.1748 -0.158237,0.33537 -0.262828,0.42132 -0.267746,0.22002 -0.527773,0.59003 -0.69273,0.84828 -0.168685,0.2641 -0.120598,0.11576 -0.207701,-0.3784 -0.186398,-1.05752 0.106203,-1.94703 0.898549,-2.73156 0.309923,-0.30686 0.503357,-0.4431 0.901985,-0.6353 0.692863,-0.33406 1.035896,-0.41586 1.896255,-0.45217 1.227407,-0.0518 2.130093,0.16373 3.08239,0.73599 0.814969,0.48974 1.579444,1.19457 2.22321,2.04977 0.297833,0.39565 0.420581,0.47107 0.552321,0.33935 0.11233,-0.11232 0.07287,-0.22214 -0.220672,-0.61423 -0.874761,-1.16841 -2.151074,-2.18726 -3.234413,-2.58196 -0.434737,-0.15839 -0.892018,-0.2601 -1.617078,-0.35965 l -0.271821,-0.0373 0.326186,-0.10407 c 0.429787,-0.13712 1.210323,-0.18351 1.688061,-0.10033 1.098303,0.19123 2.399114,1.05707 3.849519,2.56228 0.401167,0.41632 0.747052,0.75695 0.768633,0.75695 0.04462,0 8.900218,-2.8739 8.919368,-2.89459 0.0069,-0.007 -0.08216,-1.97028 -0.197803,-4.36195 -0.11564,-2.39167 -0.211004,-4.41161 -0.211917,-4.48877 l -0.09291,-0.38562 3.1507,0.44 c 0,0 0.279191,10.11016 0.252602,10.13675 -0.0132,0.0132 -1.846358,0.61409 -4.073692,1.33533 -2.227336,0.72124 -4.532863,1.47116 -5.123393,1.6665 -1.2207,0.40377 -1.182521,0.36706 -0.937784,0.90155 0.52889,1.1551 0.52681,3.63923 0.141242,4.88344 -0.495806,1.59994 -2.118442,2.80166 -3.841024,3.27963 -0.554878,0.15396 -0.94491,0.18623 -1.592324,0.13172 z"
       id="path887"
       sodipodi:nodetypes="csscssssssscsssssssssssssssssssssssscsssssscccsssssscc" />
    <path
       style="fill:#000000;stroke:#000000;stroke-width:0.202141;stroke-linecap:butt;stroke-linejoin:round"
       d="m 30.467829,118.00255 -0.108681,-0.0724 0.0747,-0.0361 c 0.04109,-0.0198 0.07728,-0.0352 0.08046,-0.0342 0.0033,0.001 0.01864,0.043 0.0344,0.0933 0.01575,0.0503 0.03097,0.0984 0.03379,0.10679 0.0029,0.008 0.0025,0.0152 -3.6e-4,0.0151 -0.0029,-1.2e-4 -0.05446,-0.0328 -0.114238,-0.0726 z"
       id="path889" />
    <path
       style="fill:#000000;stroke:#000000;stroke-width:0.202141;stroke-linecap:butt;stroke-linejoin:round"
       d="m 29.433696,115.82759 c -0.01385,-0.11339 3.6e-4,-0.36832 0.02694,-0.48115 0.0074,-0.0314 0.01327,-0.0392 0.0582,-0.0765 0.350923,-0.29217 0.800975,-0.47846 1.314464,-0.5441 0.16826,-0.0215 0.162087,-0.0287 0.06523,0.076 -0.216709,0.23425 -0.358041,0.45466 -0.461346,0.71948 l -0.03602,0.0923 -0.06522,0.0114 c -0.249093,0.0437 -0.635075,0.14827 -0.851308,0.23058 l -0.04538,0.0173 z"
       id="path891" />
    <path
       style="fill:#000000;stroke:#ffffff;stroke-width:2.11667;stroke-linecap:round;stroke-linejoin:miter;stroke-miterlimit:4;stroke-dasharray:none;stroke-opacity:1"
       d="m 65.357945,106.5029 2.386455,9.19494 2.192339,8.59188 c 0,0 -5.853473,-0.76362 -6.872994,-0.7991 -1.716518,-0.0597 -2.198564,1.42714 -2.198564,1.42714 0,0 0.785207,-0.2094 1.739723,-0.0779 0.948365,0.13067 6.446461,0.85235 6.446461,0.85235 0,0 -7.135017,0.75162 -8.945133,0.99255 -1.79481,0.23891 -1.954948,2.49585 -1.954948,2.49585 0,0 0.947725,-0.53133 2.051055,-0.68937 1.95441,-0.27994 9.448568,-1.22358 9.448568,-1.22358 0,0 -4.82332,2.59254 -6.334833,3.47206 -1.148254,0.66815 -0.154431,2.63082 -0.154431,2.63082 0,0 0.644622,-0.96418 1.672849,-1.49697 1.350436,-0.69974 6.95785,-3.30545 6.95785,-3.30545 l 2.152706,-1.24916 c 0,0 6.713762,-0.37035 8.436873,-0.39465 1.074086,-0.0151 1.876214,0.47102 1.876214,0.47102 0,0 -0.405411,-2.44016 -2.451867,-2.44016 -1.436291,0 -8.016088,0.35854 -8.016088,0.35854 l -4.841151,-18.49758"
       id="path893"
       sodipodi:nodetypes="cccscscscscscsccscscc" />
    <g
       id="g907"
       style="stroke:#ffffff;stroke-width:0.733812;stroke-linejoin:miter"
       transform="matrix(1.3628463,0,0,1.3626474,-33.997762,-2.7854133)">
      <path
         style="fill:none;stroke:#ffffff;stroke-width:1.55324;stroke-linecap:round;stroke-linejoin:miter;stroke-miterlimit:4;stroke-dasharray:none;stroke-opacity:1"
         d="m 58.986528,78.165037 0.323156,6.682308 -6.38241,2.074283"
         id="path895"
         sodipodi:nodetypes="ccc" />
      <path
         style="fill:none;stroke:#ffffff;stroke-width:1.55324;stroke-linecap:round;stroke-linejoin:miter;stroke-miterlimit:4;stroke-dasharray:none;stroke-opacity:1"
         d="m 61.499517,78.656473 0.262546,7.402164 -7.573035,2.454621"
         id="path897"
         sodipodi:nodetypes="ccc" />
      <path
         style="fill:none;stroke:#ffffff;stroke-width:1.55324;stroke-linecap:round;stroke-linejoin:miter;stroke-miterlimit:4;stroke-dasharray:none;stroke-opacity:1"
         d="m 52.927274,86.921628 c 0,0 -1.215592,-1.536716 -2.68197,-2.217664 -0.956772,-0.4443 -2.072797,-0.278186 -2.847189,0.258761 m -0.955629,1.638151 c -0.04503,0.219491 -0.0574,0.414579 -0.0027,0.628878 m 0.566955,1.354043 c 0.09162,0.116583 0.633062,0.421157 0.633062,0.421157 0,0 -0.183967,-0.498853 -0.202877,-0.645484 m -0.06425,-1.401826 c 0.05412,-0.154685 0.117873,-0.291775 0.216972,-0.421571 0.14997,-0.196424 0.299061,-0.326191 0.498762,-0.444299"
         id="path899"
         sodipodi:nodetypes="cscccccccsc" />
      <path
         style="fill:none;stroke:#ffffff;stroke-width:1.55324;stroke-linecap:round;stroke-linejoin:miter;stroke-miterlimit:4;stroke-dasharray:none;stroke-opacity:1"
         d="m 51.857086,87.319355 c 0,0 -1.190726,-1.877043 -3.023168,-2.25512 -1.269953,-0.262023 -2.932284,-0.08309 -3.766782,1.298841 -0.43959,0.72796 -0.351133,1.569869 -0.06095,2.345318 m 0.864053,1.520818 c 0.04229,0.04973 0.08327,0.09486 0.122351,0.134919 0,0 -0.02438,-0.153544 -0.05369,-0.396795 M 45.9,87.557189 c 0.03621,-0.212949 0.09097,-0.344998 0.170302,-0.4838 0.469721,-0.821792 1.345981,-1.1477 2.522274,-0.920776 1.176293,0.226924 3.102446,2.431747 3.102446,2.431747"
         id="path901"
         sodipodi:nodetypes="csscccccszc" />
      <path
         style="fill:none;stroke:#ffffff;stroke-width:1.55324;stroke-linecap:round;stroke-linejoin:miter;stroke-miterlimit:4;stroke-dasharray:none;stroke-opacity:1"
         d="m 51.695022,88.58436 c 0,0 -1.147413,-1.169547 -2.395544,-1.474435 -1.248131,-0.304889 -2.763089,-0.199748 -3.73724,0.738697 -0.974151,0.938446 -0.876428,2.804038 0.09922,4.130679 0,0 -0.04834,-2.484298 1.074866,-3.256302 0.90389,-0.621264 1.791082,-0.720956 2.707967,-0.302477 1.154973,0.527148 1.614209,1.122019 1.614209,1.122019"
         id="path903"
         sodipodi:nodetypes="czzcssc" />
      <path
         style="fill:none;stroke:#ffffff;stroke-width:1.55324;stroke-linecap:round;stroke-linejoin:miter;stroke-miterlimit:4;stroke-dasharray:none;stroke-opacity:1"
         d="m 51.0585,89.542541 c 0,0 0.830604,0.760085 1.052944,1.382418 0.222449,0.622641 0.115701,1.308665 0.02028,1.805304 -0.09542,0.496639 -0.409682,0.953071 -1.287898,1.295331 -0.878215,0.342261 -3.376936,-0.132593 -3.376936,-0.132593 0.78878,0.807756 2.698982,1.407234 3.892087,1.093393 1.939029,-0.510054 3.01003,-1.997744 3.174562,-3.024301 0.179972,-1.122894 0.141553,-2.597118 -0.344511,-3.448835"
         id="path905"
         sodipodi:nodetypes="cssscssc" />
    </g>
    <path
       style="fill:none;stroke:#000000;stroke-width:0.264583px;stroke-linecap:round;stroke-linejoin:miter;stroke-opacity:1"
       d="m 65.624741,106.47773 3.061453,0.32258"
       id="path909"
       sodipodi:nodetypes="cc" />
    <path
       style="fill:none;stroke:#ffffff;stroke-width:2.11667;stroke-linecap:butt;stroke-linejoin:miter;stroke-miterlimit:4;stroke-dasharray:none;stroke-opacity:1"
       d="m 65.357945,106.5029 0.202133,0.78522"
       id="path911"
       sodipodi:nodetypes="cc" />
    <path
       style="fill:#000000;stroke:none;stroke-width:0.264583px;stroke-linecap:round;stroke-linejoin:miter;stroke-opacity:1"
       d="m 49.816626,104.39563 c 5.093407,0.93086 10.349476,1.61347 15.541319,2.10727 l 3.591084,0.3132 c 22.0291,1.7521 41.922421,0.30137 41.922421,0.30137 0,0 -50.105114,-42.872217 -79.95226,-40.79022 -7.96621,0.555687 -20.9947226,5.878776 -19.62063,13.744091 2.261342,12.943943 17.332116,19.944869 35.093248,23.654629 z"
       id="path913"
       sodipodi:nodetypes="ccccsscc" />
    <path
       style="fill:#000000;stroke:#ffffff;stroke-width:2.11667;stroke-linecap:round;stroke-linejoin:miter;stroke-miterlimit:4;stroke-dasharray:none;stroke-opacity:1"
       d="m 107.754,107.30006 c 0,0 10.9093,3.0513 13.15928,3.79086 0.80935,0.26603 3.48977,1.08197 3.40983,2.37608 -0.0504,0.81756 -3.93087,1.11667 -3.93087,1.11667 0,0 2.04331,2.94429 1.53202,3.88727 -0.46612,0.85971 -4.36547,-0.39252 -4.36547,-0.39252 0,0 1.51997,4.15346 0.77362,4.54293 -0.91213,0.47598 -2.93239,-0.2397 -4.70114,-1.84128 -0.62554,-0.56643 -14.094239,-13.18447 -14.094239,-13.18447"
       id="path915"
       sodipodi:nodetypes="csscscssc" />
    <path
       style="fill:#000000;stroke:#ffffff;stroke-width:2.11667;stroke-linecap:round;stroke-linejoin:miter;stroke-miterlimit:4;stroke-dasharray:none;stroke-opacity:1"
       d="m 68.949029,106.8161 c 11.67803,0.92882 22.755851,0.95756 30.588002,0.7795 l 8.216969,-0.29554 c 1.99943,-0.10105 3.11745,-0.18259 3.11745,-0.18259 0,0 -50.105114,-42.872221 -79.95226,-40.79022 -0.277185,0.01933 -0.417015,0.005 -0.705638,0.0357 M 11.518053,76.44109 c -0.474314,1.153253 -0.44711,2.327364 -0.219493,3.630248 2.261342,12.943943 17.332116,19.944872 35.093248,23.654632 m 3.424818,0.66966 c 5.093407,0.93086 10.349476,1.61347 15.541319,2.10727"
       id="path917"
       sodipodi:nodetypes="ccccsccsccc" />
    <path
       style="fill:#000000;stroke:#ffffff;stroke-width:2.11667;stroke-linecap:round;stroke-linejoin:miter;stroke-miterlimit:4;stroke-dasharray:none;stroke-opacity:1"
       d="m 30.213552,66.362957 c 0,0 -2.745029,-3.889041 -2.59272,-6.613995 0.152307,-2.724955 1.356987,-4.661576 5.43509,-7.067283 4.078099,-2.405707 12.370509,-4.246234 12.370509,-4.246234 0,0 13.490434,0.5966 18.077659,2.422924 -4.990328,-6.177723 -16.702649,-8.792356 -16.702649,-8.792356 -1.682997,-2.475533 -3.529853,-4.135244 -6.90113,-4.711455 -3.371281,-0.576211 -8.824196,-1.102518 -13.282209,0.699413 -4.458017,1.801931 -9.104679,7.028543 -10.746147,11.159264 -1.641468,4.130722 -1.760124,7.195502 -1.734426,10.842022 0.02568,3.646519 -2.619476,16.385833 -2.619476,16.385833"
       id="path919"
       sodipodi:nodetypes="czzccczzzzc" />
    <path
       style="fill:#000000;stroke:#ffffff;stroke-width:2.11667;stroke-linecap:round;stroke-linejoin:miter;stroke-miterlimit:4;stroke-dasharray:none;stroke-opacity:1"
       d="m 32.761263,79.183579 c 0,0 39.928447,-4.783391 45.448331,-21.742435 C 87.0998,30.127269 57.69832,10.833606 60.921833,8.5206549 62.637319,7.2897495 78.209594,22.218392 78.209594,22.218392 c 0,0 -9.94372,-16.6763716 -8.589518,-17.9375126 1.732707,-1.613636 15.874296,19.5681946 15.874296,19.5681946 0,0 -8.008585,-19.375596 -5.980042,-20.5466046 1.592396,-0.919237 13.482279,24.1341066 13.482279,24.1341066 0,0 -8.223826,-22.4380471 -5.545131,-23.1556966 2.092538,-0.5606122 11.416446,26.0909256 11.416446,26.0909256 0,0 -5.129834,-24.1907333 -2.500749,-24.8950916 3.165403,-0.8480436 7.121715,26.3627046 7.121715,26.3627046 0,0 2.68734,-11.817993 4.19034,-11.856221 1.57422,-0.04004 1.12459,13.30698 1.12459,13.30698 0,0 4.43188,-3.457858 5.9384,-2.266098 1.21902,0.964338 -1.57654,7.12065 -1.57654,7.12065 0,0 3.32496,0.307573 3.58802,2.826515 0.19587,1.875588 -3.31623,4.022351 -3.31623,4.022351 0,0 2.45372,2.273019 2.01148,4.946407 -0.28446,1.719584 -4.18603,2.609091 -4.18603,2.609091 0,0 1.78784,2.679771 1.43099,4.765152 -0.39765,2.323708 -3.225,3.44262 -3.225,3.44262 0,0 1.17871,3.027333 -0.0544,4.402843 -1.56732,1.748364 -5.38204,1.25019 -5.38204,1.25019 0,0 -0.15124,3.104648 -1.98576,4.847018 -1.87206,1.778034 -4.701027,1.403934 -4.701027,1.403934 0,0 -0.369295,3.393014 -2.174562,4.892048 -1.945185,1.61522 -5.816951,1.902463 -5.816951,1.902463 0,0 0.25004,2.35921 -2.663839,4.076709 -2.644896,1.558954 -5.980043,0.434848 -5.980043,0.434848 0,0 -1.502462,2.756044 -4.45785,4.239775 -2.792222,1.401817 -7.719692,-0.108712 -7.719692,-0.108712"
       id="path921"
       sodipodi:nodetypes="csscscscscscscscscscscscscscscsc" />
    <path
       style="fill:none;stroke:#ffffff;stroke-width:1.85208;stroke-linecap:butt;stroke-linejoin:round;stroke-miterlimit:4;stroke-dasharray:none;stroke-opacity:1"
       d="m 67.410659,128.67634 3.356644,-1.76568 -4.870664,0.6302"
       id="path923" />
    <path
       style="fill:none;stroke:#ffffff;stroke-width:1.85208;stroke-linecap:butt;stroke-linejoin:round;stroke-miterlimit:4;stroke-dasharray:none;stroke-opacity:1"
       d="m 66.728845,125.19229 4.018783,0.5139 -4.102895,0.43935"
       id="path925" />
  </g>
  <g
     inkscape:label="20x20"
     inkscape:groupmode="layer"
     id="g5293"
     style="display:none">
    <path
       style="fill:#000000;stroke:#ffffff;stroke-width:2.64583;stroke-linecap:round;stroke-linejoin:miter;stroke-miterlimit:4;stroke-dasharray:none;stroke-opacity:1"
       d="m 19.840376,73.629627 c 0,0 37.75405,-10.589841 39.226355,-27.36641 C 60.256619,32.704736 33.136503,13.587512 35.142966,11.1394 c 2.342452,-2.8580561 17.242355,11.420628 17.242355,11.420628 0,0 -10.617922,-14.5842894 -9.267766,-16.0535236 1.645134,-1.7902291 14.009412,11.5283686 14.009412,11.5283686 0,0 -8.342493,-12.4075735 -6.250353,-13.7909456 1.993941,-1.3184403 14.009412,12.4980456 14.009412,12.4980456 0,0 -7.878892,-13.3735616 -5.819294,-14.652881 2.850443,-1.77055131 13.362824,15.945781 13.362824,15.945781 0,0 -6.448067,-15.3864814 -4.310588,-16.376748 3.164691,-1.46616041 10.560942,18.531584 10.560942,18.531584 0,0 -0.325869,-9.760119 1.293175,-9.696759 3.745275,0.146566 6.034825,15.083848 6.034825,15.083848 0,0 3.272076,-2.016838 4.741648,-1.292902 1.839242,0.906043 3.664006,9.050309 3.664006,9.050309 4.777217,32.398395 -5.963422,54.183989 -54.18928,47.64986"
       id="path5250"
       sodipodi:nodetypes="csscscscscscscscc" />
    <path
       style="fill:#000000;stroke:#000000;stroke-width:0.202141;stroke-linecap:butt;stroke-linejoin:round"
       d="m 34.803282,125.7942 c -0.840198,-0.0707 -1.6796,-0.31458 -2.505982,-0.728 -0.262401,-0.13127 -0.468502,-0.24713 -0.458001,-0.25749 0.0105,-0.0103 0.273683,0.0153 0.584854,0.0568 0.902063,0.12058 2.111854,0.15573 2.662412,0.0773 0.383864,-0.0547 0.583811,-0.12031 0.996823,-0.3274 1.163431,-0.58336 1.567351,-1.3658 1.567351,-3.03614 0,-1.2007 -0.272146,-1.75056 -1.491773,-3.01412 -0.690198,-0.71505 -1.268165,-1.14184 -2.091402,-1.54433 -0.804581,-0.39337 -1.191282,-0.49511 -1.867328,-0.49127 -1.283926,0.007 -2.500234,0.66216 -3.058893,1.64696 -0.32251,0.56852 -0.675646,2.38081 -0.678373,3.01736 -0.0018,0.37703 -0.110966,-0.0459 -0.284708,-0.46315 -0.273048,-0.65576 -0.391286,-1.15738 -0.423191,-1.79539 -0.03622,-0.72427 0.05768,-1.23044 0.33138,-1.78643 0.372099,-0.75584 1.279877,-1.41862 2.317113,-1.69175 0.917285,-0.24155 2.383866,-0.18865 3.329753,0.1201 0.748678,0.24438 1.622308,0.77697 2.448089,1.4924 0.467715,0.40522 0.676443,0.48275 0.742177,0.27568 0.04713,-0.14847 -0.126966,-0.35667 -1.05865,-1.266 -1.460073,-1.42503 -2.445749,-2.10888 -3.306076,-2.29373 -0.428913,-0.0921 -1.434352,-0.0932 -1.80506,-0.002 -0.410407,0.10113 -0.895737,0.34529 -1.195018,0.60118 -0.310311,0.26532 -0.65087,0.76589 -0.774742,1.13876 -0.05755,0.17324 -0.156834,0.33237 -0.260499,0.41755 -0.265374,0.21806 -0.523097,0.58476 -0.686592,0.84071 -0.167191,0.26175 -0.11953,0.11473 -0.205861,-0.37502 -0.184746,-1.04808 0.105262,-1.92965 0.890587,-2.70718 0.307178,-0.30412 0.498898,-0.43915 0.893994,-0.62963 0.686724,-0.33107 1.026718,-0.41215 1.879454,-0.44813 1.216532,-0.0513 2.11122,0.16227 3.05508,0.72942 0.807748,0.48537 1.56545,1.18391 2.203511,2.03148 0.295195,0.39211 0.416855,0.46686 0.547428,0.33631 0.111335,-0.11132 0.07222,-0.22015 -0.218717,-0.60875 -0.86701,-1.15798 -2.132015,-2.16773 -3.205756,-2.55891 -0.430885,-0.15697 -0.884114,-0.25777 -1.60275,-0.35644 l -0.269413,-0.0369 0.323296,-0.10314 c 0.425979,-0.13589 1.1996,-0.18188 1.673105,-0.0994 1.088571,0.18953 2.377858,1.04763 3.815411,2.53941 0.397613,0.4126 0.740434,0.7502 0.761823,0.7502 0.04423,0 8.821361,-2.84825 8.840342,-2.86876 0.0068,-0.007 -0.08144,-1.95269 -0.196051,-4.32301 -0.114616,-2.37032 -0.209135,-4.37223 -0.210039,-4.44871 l -0.09209,-0.38217 3.122784,0.43607 c 0,0 0.276718,10.01991 0.250364,10.04627 -0.01308,0.0131 -1.829998,0.6086 -4.037598,1.32341 -2.207601,0.7148 -4.492702,1.45802 -5.077999,1.65162 -1.209884,0.40017 -1.172044,0.36379 -0.929475,0.89351 0.524204,1.14478 0.522142,3.60673 0.13999,4.83984 -0.491413,1.58566 -2.099672,2.77665 -3.806992,3.25036 -0.549962,0.15258 -0.936538,0.18456 -1.578216,0.13053 z"
       id="path5252"
       sodipodi:nodetypes="csscssssssscsssssssssssssssssssssssscsssssscccsssssscc" />
    <path
       style="fill:#000000;stroke:#000000;stroke-width:0.202141;stroke-linecap:butt;stroke-linejoin:round"
       d="m 30.797624,117.35484 -0.107718,-0.0717 0.07404,-0.0358 c 0.04073,-0.0196 0.0766,-0.0349 0.07974,-0.0339 0.0033,9.8e-4 0.01847,0.0427 0.0341,0.0925 0.01561,0.0499 0.0307,0.0975 0.03349,0.10584 0.0029,0.008 0.0025,0.0151 -3.57e-4,0.015 -0.0029,-1.2e-4 -0.05398,-0.0325 -0.113226,-0.0719 z"
       id="path5254" />
    <path
       style="fill:#000000;stroke:#000000;stroke-width:0.202141;stroke-linecap:butt;stroke-linejoin:round"
       d="m 29.772654,115.1993 c -0.01372,-0.11238 3.57e-4,-0.36504 0.0267,-0.47686 0.0073,-0.0311 0.01315,-0.0388 0.05768,-0.0759 0.347814,-0.28956 0.793879,-0.47419 1.302818,-0.53925 0.166769,-0.0213 0.160651,-0.0285 0.06465,0.0754 -0.214789,0.23216 -0.354869,0.45061 -0.457258,0.71306 l -0.0357,0.0915 -0.06464,0.0113 c -0.246885,0.0434 -0.629448,0.14695 -0.843765,0.22853 l -0.04497,0.0171 z"
       id="path5256" />
    <path
       style="fill:#000000;stroke:#ffffff;stroke-width:2.64583;stroke-linecap:round;stroke-linejoin:miter;stroke-miterlimit:4;stroke-dasharray:none;stroke-opacity:1"
       d="m 65.378609,105.95785 2.365311,9.11285 2.172914,8.51519 c 0,0 -5.80161,-0.75681 -6.812098,-0.79197 -1.701309,-0.0592 -2.179084,1.4144 -2.179084,1.4144 0,0 0.778249,-0.20753 1.724308,-0.0772 0.939963,0.1295 6.389345,0.84474 6.389345,0.84474 0,0 -7.0718,0.74491 -8.865878,0.98369 -1.778908,0.23677 -1.937627,2.47357 -1.937627,2.47357 0,0 0.939328,-0.52658 2.032882,-0.68322 1.937094,-0.27744 9.364853,-1.21265 9.364853,-1.21265 0,0 -4.780585,2.56939 -6.278706,3.44106 -1.13808,0.66219 -0.153063,2.60734 -0.153063,2.60734 0,0 0.638911,-0.95557 1.658028,-1.48361 1.338471,-0.69349 6.896203,-3.27595 6.896203,-3.27595 l 2.133632,-1.238 c 0,0 6.654277,-0.36705 8.362122,-0.39113 1.064569,-0.015 1.859589,0.46682 1.859589,0.46682 0,0 -0.401819,-2.41838 -2.430142,-2.41838 -1.423566,0 -7.945065,0.35534 -7.945065,0.35534 l -4.798257,-18.33249"
       id="path5258"
       sodipodi:nodetypes="cccscscscscscsccscscc" />
    <g
       id="g5273"
       style="stroke:#ffffff;stroke-width:0.740396;stroke-linejoin:miter"
       transform="matrix(1.3507713,0,0,1.3504837,-33.096793,-2.3548938)">
      <path
         style="fill:none;stroke:#ffffff;stroke-width:1.95897;stroke-linecap:round;stroke-linejoin:miter;stroke-miterlimit:4;stroke-dasharray:none;stroke-opacity:1"
         d="m 58.986528,78.165037 0.323156,6.682308 -6.38241,2.074283"
         id="path5260"
         sodipodi:nodetypes="ccc" />
      <path
         style="fill:none;stroke:#ffffff;stroke-width:1.95897;stroke-linecap:round;stroke-linejoin:miter;stroke-miterlimit:4;stroke-dasharray:none;stroke-opacity:1"
         d="m 61.499517,78.656473 0.262546,7.402164 -7.573035,2.454621"
         id="path5262"
         sodipodi:nodetypes="ccc" />
      <path
         style="fill:none;stroke:#ffffff;stroke-width:1.95897;stroke-linecap:round;stroke-linejoin:miter;stroke-miterlimit:4;stroke-dasharray:none;stroke-opacity:1"
         d="m 52.927274,86.921628 c 0,0 -1.215592,-1.536716 -2.68197,-2.217664 -0.956772,-0.4443 -2.072797,-0.278186 -2.847189,0.258761 m -0.955629,1.638151 c -0.04503,0.219491 -0.0574,0.414579 -0.0027,0.628878 m 0.566955,1.354043 c 0.09162,0.116583 0.633062,0.421157 0.633062,0.421157 0,0 -0.183967,-0.498853 -0.202877,-0.645484 m -0.06425,-1.401826 c 0.05412,-0.154685 0.117873,-0.291775 0.216972,-0.421571 0.14997,-0.196424 0.299061,-0.326191 0.498762,-0.444299"
         id="path5264"
         sodipodi:nodetypes="cscccccccsc" />
      <path
         style="fill:none;stroke:#ffffff;stroke-width:1.95897;stroke-linecap:round;stroke-linejoin:miter;stroke-miterlimit:4;stroke-dasharray:none;stroke-opacity:1"
         d="m 51.857086,87.319355 c 0,0 -1.190726,-1.877043 -3.023168,-2.25512 -1.269953,-0.262023 -2.932284,-0.08309 -3.766782,1.298841 -0.43959,0.72796 -0.351133,1.569869 -0.06095,2.345318 m 0.864053,1.520818 c 0.04229,0.04973 0.08327,0.09486 0.122351,0.134919 0,0 -0.02438,-0.153544 -0.05369,-0.396795 M 45.9,87.557189 c 0.03621,-0.212949 0.09097,-0.344998 0.170302,-0.4838 0.469721,-0.821792 1.345981,-1.1477 2.522274,-0.920776 1.176293,0.226924 3.102446,2.431747 3.102446,2.431747"
         id="path5266"
         sodipodi:nodetypes="csscccccszc" />
      <path
         style="fill:none;stroke:#ffffff;stroke-width:1.95897;stroke-linecap:round;stroke-linejoin:miter;stroke-miterlimit:4;stroke-dasharray:none;stroke-opacity:1"
         d="m 51.695022,88.58436 c 0,0 -1.147413,-1.169547 -2.395544,-1.474435 -1.248131,-0.304889 -2.763089,-0.199748 -3.73724,0.738697 -0.974151,0.938446 -0.876428,2.804038 0.09922,4.130679 0,0 -0.04834,-2.484298 1.074866,-3.256302 0.90389,-0.621264 1.791082,-0.720956 2.707967,-0.302477 1.154973,0.527148 1.614209,1.122019 1.614209,1.122019"
         id="path5268"
         sodipodi:nodetypes="czzcssc" />
      <path
         style="fill:none;stroke:#ffffff;stroke-width:1.95897;stroke-linecap:round;stroke-linejoin:miter;stroke-miterlimit:4;stroke-dasharray:none;stroke-opacity:1"
         d="m 51.0585,89.542541 c 0,0 0.830604,0.760085 1.052944,1.382418 0.222449,0.622641 0.115701,1.308665 0.02028,1.805304 -0.09542,0.496639 -0.409682,0.953071 -1.287898,1.295331 -0.878215,0.342261 -3.376936,-0.132593 -3.376936,-0.132593 0.78878,0.807756 2.698982,1.407234 3.892087,1.093393 1.939029,-0.510054 3.01003,-1.997744 3.174562,-3.024301 0.179972,-1.122894 0.141553,-2.597118 -0.344511,-3.448835"
         id="path5271"
         sodipodi:nodetypes="cssscssc" />
    </g>
    <path
       style="fill:none;stroke:#000000;stroke-width:0.264583px;stroke-linecap:round;stroke-linejoin:miter;stroke-opacity:1"
       d="m 65.643042,105.9329 3.034327,0.3197"
       id="path5275"
       sodipodi:nodetypes="cc" />
    <path
       style="fill:none;stroke:#ffffff;stroke-width:2.64583;stroke-linecap:butt;stroke-linejoin:miter;stroke-miterlimit:4;stroke-dasharray:none;stroke-opacity:1"
       d="m 65.378609,105.95785 0.200343,0.7782"
       id="path5277"
       sodipodi:nodetypes="cc" />
    <path
       style="fill:#000000;stroke:none;stroke-width:0.264583px;stroke-linecap:round;stroke-linejoin:miter;stroke-opacity:1"
       d="m 49.974988,103.86938 c 5.048279,0.92255 10.257778,1.59907 15.403621,2.08847 l 3.559267,0.3104 c 21.833919,1.73646 41.550984,0.29868 41.550984,0.29868 0,0 -49.661178,-42.489511 -79.243874,-40.426099 -7.895628,0.550726 -20.808706,5.826298 -19.446788,13.621403 2.241306,12.828399 17.178551,19.766835 34.782317,23.443476 z"
       id="path5279"
       sodipodi:nodetypes="ccccsscc" />
    <path
       style="fill:#000000;stroke:#ffffff;stroke-width:2.64583;stroke-linecap:round;stroke-linejoin:miter;stroke-miterlimit:4;stroke-dasharray:none;stroke-opacity:1"
       d="m 107.39903,106.74789 c 0,0 10.81264,3.02406 13.04269,3.75702 0.80218,0.26365 3.45884,1.07231 3.37961,2.35487 -0.05,0.81026 -3.89604,1.1067 -3.89604,1.1067 0,0 2.02521,2.91801 1.51844,3.85257 -0.46198,0.85204 -4.32679,-0.38902 -4.32679,-0.38902 0,0 1.50651,4.11639 0.76677,4.50238 -0.90405,0.47173 -2.90641,-0.23756 -4.65948,-1.82484 -0.62001,-0.56137 -13.969366,-13.06678 -13.969366,-13.06678"
       id="path5281"
       sodipodi:nodetypes="csscscssc" />
    <path
       style="fill:#000000;stroke:#ffffff;stroke-width:2.64583;stroke-linecap:round;stroke-linejoin:miter;stroke-miterlimit:4;stroke-dasharray:none;stroke-opacity:1"
       d="m 68.937876,106.26825 c 11.574561,0.92052 22.55423,0.94901 30.316988,0.77254 l 8.144166,-0.2929 c 1.98171,-0.10016 3.08983,-0.18096 3.08983,-0.18096 0,0 -49.661178,-42.489515 -79.243874,-40.426099 -0.274729,0.01916 -0.41332,0.0049 -0.699386,0.03539 m -18.529854,9.988173 c -0.470112,1.142959 -0.443149,2.306588 -0.217548,3.597843 2.241306,12.828398 17.178551,19.766837 34.782317,23.443483 m 3.394473,0.66367 c 5.048279,0.92255 10.257778,1.59907 15.403621,2.08847"
       id="path5283"
       sodipodi:nodetypes="ccccsccsccc" />
    <path
       style="fill:#000000;stroke:#ffffff;stroke-width:2.64583;stroke-linecap:round;stroke-linejoin:miter;stroke-miterlimit:4;stroke-dasharray:none;stroke-opacity:1"
       d="m 30.5456,66.176219 c 0,0 -2.720708,-3.854325 -2.569748,-6.554954 0.150958,-2.700631 1.344964,-4.619965 5.386934,-7.004197 4.041967,-2.384233 12.260905,-4.208329 12.260905,-4.208329 0,0 13.370907,0.591274 17.917488,2.401295 -4.946112,-6.122577 -16.554661,-8.71387 -16.554661,-8.71387 -1.668085,-2.453435 -3.498578,-4.098331 -6.839985,-4.669398 -3.341411,-0.571068 -8.746012,-1.092677 -13.164527,0.69317 -4.418518,1.785846 -9.02401,6.965801 -10.650934,11.059649 -1.626925,4.09385 -1.74453,7.131271 -1.71906,10.74524 0.02546,3.613968 -2.596266,16.239564 -2.596266,16.239564"
       id="path5285"
       sodipodi:nodetypes="czzccczzzzc" />
    <path
       style="fill:#000000;stroke:#ffffff;stroke-width:2.64583;stroke-linecap:round;stroke-linejoin:miter;stroke-miterlimit:4;stroke-dasharray:none;stroke-opacity:1"
       d="m 33.070738,78.882397 c 0,0 39.574676,-4.740692 45.045652,-21.548349 C 86.927828,30.263991 57.78685,11.142555 60.981801,8.8502501 62.682088,7.6303324 78.11639,22.425714 78.11639,22.425714 c 0,0 -9.855616,-16.5275095 -8.513413,-17.7773929 1.717355,-1.5992317 15.733647,19.3935179 15.733647,19.3935179 0,0 -7.937627,-19.2026384 -5.927058,-20.363194 1.578288,-0.9110314 13.362825,23.918673 13.362825,23.918673 0,0 -8.150962,-22.2377535 -5.496001,-22.9489969 2.073998,-0.5556078 11.315295,25.8580239 11.315295,25.8580239 0,0 -5.084383,-23.9747937 -2.478593,-24.6728645 3.137358,-0.8404735 7.058608,26.1273765 7.058608,26.1273765 0,0 2.66353,-11.712499 4.15322,-11.750385 1.56027,-0.03968 1.11463,13.188194 1.11463,13.188194 0,0 4.39261,-3.426991 5.88578,-2.24587 1.20822,0.95573 -1.56257,7.057088 -1.56257,7.057088 0,0 3.2955,0.304827 3.55623,2.801283 0.19413,1.858846 -3.28685,3.986446 -3.28685,3.986446 0,0 2.43198,2.252728 1.99366,4.902252 -0.28194,1.704234 -4.14894,2.5858 -4.14894,2.5858 0,0 1.77199,2.65585 1.41831,4.722616 -0.39413,2.302965 -3.19643,3.411889 -3.19643,3.411889 0,0 1.16827,3.000309 -0.0539,4.363541 -1.55343,1.732757 -5.33435,1.23903 -5.33435,1.23903 0,0 -0.1499,3.076934 -1.96816,4.803751 -1.855476,1.762162 -4.659379,1.391402 -4.659379,1.391402 0,0 -0.366023,3.362726 -2.155295,4.848379 -1.927951,1.600801 -5.765412,1.88548 -5.765412,1.88548 0,0 0.247825,2.33815 -2.640237,4.040318 -2.621462,1.545038 -5.927059,0.430966 -5.927059,0.430966 0,0 -1.48915,2.731442 -4.418353,4.201928 C 73.409112,89.214269 68.5253,87.717224 68.5253,87.717224"
       id="path5287"
       sodipodi:nodetypes="csscscscscscscscscscscscscscscsc" />
    <path
       style="fill:none;stroke:#ffffff;stroke-width:1.85209;stroke-linecap:butt;stroke-linejoin:round;stroke-miterlimit:4;stroke-dasharray:none;stroke-opacity:1"
       d="m 67.413136,127.93335 3.326903,-1.74992 -4.827509,0.62457"
       id="path5289" />
    <path
       style="fill:none;stroke:#ffffff;stroke-width:1.85209;stroke-linecap:butt;stroke-linejoin:round;stroke-miterlimit:4;stroke-dasharray:none;stroke-opacity:1"
       d="m 66.737363,124.4804 3.983176,0.50932 -4.066543,0.43542"
       id="path5291" />
  </g>
</svg>
