<?xml version="1.0" encoding="UTF-8" standalone="no"?>
<!-- Created with Inkscape (http://www.inkscape.org/) -->
<svg
   xmlns:dc="http://purl.org/dc/elements/1.1/"
   xmlns:cc="http://creativecommons.org/ns#"
   xmlns:rdf="http://www.w3.org/1999/02/22-rdf-syntax-ns#"
   xmlns:svg="http://www.w3.org/2000/svg"
   xmlns="http://www.w3.org/2000/svg"
   xmlns:xlink="http://www.w3.org/1999/xlink"
   xmlns:sodipodi="http://sodipodi.sourceforge.net/DTD/sodipodi-0.dtd"
   xmlns:inkscape="http://www.inkscape.org/namespaces/inkscape"
   id="svg2"
   sodipodi:version="0.32"
   inkscape:version="0.46"
   width="316"
   height="316"
   version="1.0"
   sodipodi:docname="kestrel.svg"
   inkscape:export-filename="/home/swh/icon8.png"
   inkscape:export-xdpi="145.82001"
   inkscape:export-ydpi="145.82001"
   inkscape:output_extension="org.inkscape.output.svg.inkscape">
  <metadata
     id="metadata7">
    <rdf:RDF>
      <cc:Work
         rdf:about="">
        <dc:format>image/svg+xml</dc:format>
        <dc:type
           rdf:resource="http://purl.org/dc/dcmitype/StillImage" />
      </cc:Work>
    </rdf:RDF>
  </metadata>
  <defs
     id="defs5">
    <inkscape:perspective
       sodipodi:type="inkscape:persp3d"
       inkscape:vp_x="0 : 526.18109 : 1"
       inkscape:vp_y="0 : 1000 : 0"
       inkscape:vp_z="744.09448 : 526.18109 : 1"
       inkscape:persp3d-origin="372.04724 : 350.78739 : 1"
       id="perspective9" />
  </defs>
  <sodipodi:namedview
     inkscape:window-height="979"
     inkscape:window-width="1280"
     inkscape:pageshadow="2"
     inkscape:pageopacity="0.0"
     guidetolerance="10.0"
     gridtolerance="10.0"
     objecttolerance="10.0"
     borderopacity="1.0"
     bordercolor="#666666"
     pagecolor="#ffffff"
     id="base"
     showgrid="false"
     inkscape:zoom="2"
     inkscape:cx="183.24188"
     inkscape:cy="179.7224"
     inkscape:window-x="1280"
     inkscape:window-y="0"
     inkscape:current-layer="svg2" />
  <image
     xlink:href="icon6.png"
     sodipodi:absref="icon6.png"
     width="316"
     height="316"
     id="image11"
     x="0"
     y="0" />
  <path
     id="path2834"
     d="M 7.2,294.8 C 6.54,294.14 5.9975805,291.1025 5.9946233,288.05 C 5.9876147,280.81555 10.558083,269.34134 16.423506,261.86819 C 21.134335,255.8661 36.362912,243.85638 44.5,239.7262 C 47.48006,238.2136 56.56979,230.57478 67,220.81767 C 76.625,211.81381 85.512283,204.00893 86.749519,203.47351 C 87.986754,202.93808 101.15758,189.26963 116.01802,173.09918 C 140.71711,146.22276 142.90662,143.55429 141.5185,142.02044 C 140.68332,141.09758 140,139.74252 140,139.0092 C 140,138.27587 149.05896,128.49276 160.13102,117.26896 C 172.62943,104.59925 179.90727,96.507268 179.32634,95.926337 C 178.7454,95.345405 167.22654,95.994427 148.94532,97.638134 L 119.5,100.28563 L 112.7591,104.71356 C 105.16061,109.70482 101.68403,110.0787 101.20348,105.95628 C 100.97858,104.02693 102.00171,102.38649 105.43959,99.164243 L 109.97222,94.915922 L 109.35016,86.152254 L 108.7281,77.388585 L 113.04405,73.694293 C 115.41782,71.662432 117.88425,70 118.52501,70 C 120.13939,70 122.3784,72.727281 124.93057,77.802459 L 127.09417,82.104917 L 130.79709,79.892423 C 132.83369,78.675552 134.9275,77.301945 135.45,76.839965 C 135.9725,76.377984 137.70213,76 139.29362,76 C 141.37276,76 142.33862,76.578867 142.72504,78.056558 C 143.02083,79.187664 143.82324,79.898069 144.50818,79.635235 C 145.19311,79.372401 160.99647,74.328391 179.62676,68.426324 C 212.16429,58.118447 226.69163,52.341822 230.0878,48.361093 C 230.96108,47.337492 234.98997,40.987085 239.04087,34.249078 C 245.70586,23.162959 247.15753,21.422736 254.30888,15.946129 C 258.65538,12.617515 262.95149,10.034739 263.8558,10.206628 C 265.61275,10.540583 266.64831,17.217963 266.88312,29.726947 C 266.98927,35.382123 267.25251,36.109996 269.75,37.653945 C 274.40467,40.531464 281,47.318181 281,49.230405 C 281,50.2281 279.23174,54.561287 277.07054,58.85971 C 273.37621,66.207355 273.07083,67.507551 271.96726,80.587513 L 270.79345,94.5 L 282.40861,142.92855 C 288.79695,169.56426 294.23428,191.56761 294.49156,191.82489 C 294.74884,192.08217 296.80926,191.06846 299.07027,189.5722 C 304.53036,185.95888 308.38116,185.67713 308.83268,188.85792 C 309.29771,192.13395 305.93426,195.4474 289.99628,207.41423 C 274.8784,218.76531 270.83972,220.94179 268.4991,218.99925 C 266.13098,217.03389 266.70499,215.14389 271.0011,210.76121 L 275.0022,206.67948 L 272.32161,202.08974 C 241.99816,150.16966 229.45698,129.10483 227.81279,127.33041 C 221.01256,119.9915 215.21987,122.22498 188.43453,142.51347 C 175.08707,152.62348 167.18477,157.98691 166.1314,157.65099 C 165.23413,157.36486 163.57852,156.84765 162.45226,156.50164 C 160.79003,155.99096 154.76561,161.0713 130.45226,183.48696 C 113.53597,199.08291 100.35566,211.98998 100.16835,213.14305 C 99.985939,214.26595 92.263355,222.93431 83.007049,232.40607 C 68.747793,246.99724 65.997729,250.30501 65.000985,254.06373 C 63.167591,260.97745 51.947841,277.08604 45.283429,282.37292 C 38.773987,287.53686 25.324299,293.43369 16.566341,294.96352 C 9.1001343,296.2677 8.66002,296.26002 7.2,294.8 z"
     style="fill:#d2d0d0" />
  <path
     id="path2832"
     d="M 7.3534725,293.47875 C 7.0324057,292.64206 6.9657017,289.15456 7.2052414,285.72875 C 7.7762448,277.56246 13.338287,265.83891 19.777156,259.22994 C 25.583967,253.26973 37.793317,244.1519 44.557456,240.72425 C 47.606419,239.17923 56.832311,231.41998 67.90884,221.08506 C 77.979906,211.68828 86.787345,204 87.480927,204 C 88.174508,204 101.17829,190.46243 116.37821,173.91651 L 144.01444,143.83303 L 142.30591,140.94072 L 140.59738,138.04841 L 160.79869,117.62991 C 171.90941,106.39974 181,96.699724 181,96.074323 C 181,95.448922 180.4375,94.740382 179.75,94.499789 C 179.0625,94.259196 165,95.305019 148.5,96.823841 L 118.5,99.585335 L 112.37869,103.79267 C 105.90915,108.23934 102.61172,109.03649 101.59943,106.39851 C 101.18215,105.31111 102.51154,103.39531 105.74082,100.43032 L 110.49676,96.063613 L 110.16768,86.990595 L 109.8386,77.917577 L 113.61472,74.458789 C 115.69158,72.556455 117.96026,71 118.65621,71 C 119.35217,71 121.40174,73.694661 123.2108,76.988135 C 125.01986,80.281609 126.81494,82.981609 127.19987,82.988135 C 127.5848,82.994661 129.90006,81.65 132.34489,80 C 137.71072,76.378647 142,75.981927 142,79.106989 C 142,80.485198 142.4762,81.031242 143.37676,80.685666 C 144.13397,80.395095 159.99647,75.380944 178.62676,69.543108 C 199.71151,62.936161 215.89786,57.258818 221.5,54.505371 L 230.5,50.081881 L 239,36.066326 C 246.83156,23.152962 248.08576,21.616251 254.94857,16.525385 C 259.04528,13.486423 262.9201,11 263.55928,11 C 264.93604,11 265.9791,18.590886 265.99131,28.699109 C 265.99995,35.860245 266.01978,35.912681 269.75,38.640235 C 276.10155,43.284515 280,47.307769 280,49.218364 C 280,50.222681 278.24074,54.543388 276.09054,58.819934 C 272.45508,66.050496 272.09892,67.538326 271.00892,80.047737 L 269.83677,93.5 L 281.49789,142.5 C 287.9115,169.45 293.51816,191.87243 293.95712,192.32762 C 294.39608,192.78281 297.31949,191.70806 300.45358,189.93929 C 305.44762,187.12083 306.33225,186.90368 307.61093,188.18236 C 308.88961,189.46104 308.80754,189.97496 306.94692,192.34035 C 304.4187,195.55447 281.91891,213.01924 275.79842,216.51843 C 270.77489,219.39046 269.16228,219.58648 268.33317,217.42586 C 267.94086,216.4035 269.22578,214.32673 271.99876,211.50126 L 276.2684,207.15082 L 253.8842,168.8604 C 241.57289,147.80068 230.4339,129.30058 229.13088,127.74908 C 227.82787,126.19758 225.45163,124.25067 223.85034,123.42261 C 221.22001,122.06241 220.39016,122.09002 215.25508,123.70853 C 210.89151,125.08387 204.69072,129.17186 188.56016,141.30767 C 175.93875,150.80337 166.94033,156.91877 166.02453,156.62305 C 165.18604,156.35229 163.53729,155.83687 162.36065,155.47768 C 160.57783,154.93345 155.16158,159.50507 129.86065,182.90951 C 113.16229,198.3562 99.275,211.8794 99,212.96106 C 98.725,214.04271 90.990381,222.77984 81.811958,232.3769 C 68.358296,246.44419 64.906942,250.63187 64.004424,253.98357 C 61.941918,261.64313 51.846538,275.94157 44.20553,282.02543 C 33.706704,290.38472 9.1007388,298.03205 7.3534725,293.47875 z"
     style="fill:#cfa3a3" />
  <path
     id="path2830"
     d="M 7.3534725,293.47875 C 7.0324057,292.64206 6.9657017,289.15456 7.2052414,285.72875 C 7.7762448,277.56246 13.338287,265.83891 19.777156,259.22994 C 25.583967,253.26973 37.793317,244.1519 44.557456,240.72425 C 47.606419,239.17923 56.832311,231.41998 67.90884,221.08506 C 77.979906,211.68828 86.977534,204 87.903568,204 C 89.29411,204 136.31167,154.23986 142.31857,146.41092 C 144.06256,144.13794 144.06456,143.91787 142.36726,141.04457 L 140.59738,138.04841 L 160.88738,117.54027 C 172.04688,106.26079 180.98295,96.462402 180.74532,95.766066 C 180.48526,95.004014 178.75805,94.548137 176.40663,94.620918 C 162.11334,95.063324 158.76156,95.275853 152.5,96.136785 C 148.65,96.666139 139.72846,97.489881 132.67435,97.967322 L 119.8487,98.835397 L 113.0189,103.4177 C 105.85091,108.2269 102.62425,109.06915 101.59943,106.39851 C 101.18215,105.31111 102.51154,103.39531 105.74082,100.43032 L 110.49676,96.063613 L 110.16768,86.990595 L 109.8386,77.917577 L 113.61472,74.458789 C 115.69158,72.556455 117.96634,71 118.66974,71 C 119.94695,71 123.59474,76.830517 123.2056,78.25 C 123.09252,78.6625 123.41968,79 123.93261,79 C 124.44555,79 125.15087,79.9 125.5,81 C 126.34138,83.650939 127.09929,83.540211 132.34489,80 C 137.82555,76.301147 141.73185,76.019984 142.18358,79.291842 C 142.49391,81.539578 143.19283,81.361559 178.5,70.041842 C 202.60274,62.314341 217.14592,57.100537 222.50629,54.265356 L 230.51259,50.030711 L 239.00629,36.040741 C 246.82568,23.161436 248.09134,21.61211 254.94857,16.525385 C 259.04528,13.486423 262.9201,11 263.55928,11 C 264.93604,11 265.9791,18.590886 265.99131,28.699109 C 265.99995,35.860245 266.01978,35.912681 269.75,38.640235 C 276.10155,43.284515 280,47.307769 280,49.218364 C 280,50.222681 278.25179,54.521906 276.11509,58.772197 C 272.58328,65.797616 272.1146,67.681577 270.95857,79.5 C 270.25919,86.65 269.74464,93.4 269.81513,94.5 C 269.88562,95.6 275.13105,118.29791 281.47165,144.9398 C 287.81224,171.58169 293,193.54121 293,193.73874 C 293,193.93627 295.962,192.44144 299.58223,190.41689 C 305.33793,187.19812 306.34689,186.91831 307.6172,188.18863 C 308.88752,189.45895 308.80335,189.98028 306.94692,192.34035 C 304.4187,195.55447 281.91891,213.01924 275.79842,216.51843 C 270.77489,219.39046 269.16228,219.58648 268.33317,217.42586 C 267.94097,216.40379 269.22264,214.32992 271.9876,211.51263 L 276.24608,207.17356 L 272.90661,201.33678 C 271.06991,198.12655 269.70297,195.32531 269.86898,195.1118 C 270.03499,194.8983 269.75185,194.4483 269.23978,194.1118 C 268.72771,193.77531 267.67678,192.31114 266.90437,190.85809 C 266.13197,189.40504 262.57729,183.33004 259.0051,177.35809 C 255.4329,171.38614 252.5079,166.25159 252.5051,165.94798 C 252.50229,165.64436 250.34706,161.81936 247.71569,157.44798 C 228.98471,126.33095 228.73098,125.97054 223.71946,123.36351 C 221.24893,122.07833 220.3052,122.11679 215.25508,123.70853 C 210.89151,125.08387 204.69072,129.17186 188.56016,141.30767 C 172.32849,153.51955 167.08854,156.97012 165.52453,156.47694 C 164.41104,156.12581 162.56559,155.61233 161.42354,155.33586 C 159.78561,154.93936 153.0273,160.66237 129.42354,182.43381 C 109.79771,200.53611 99.327933,210.87752 99,212.48434 C 98.717685,213.86764 91.234519,222.5297 81.811958,232.38018 C 68.356917,246.44627 64.907035,250.63153 64.004424,253.98357 C 61.941918,261.64313 51.846538,275.94157 44.20553,282.02543 C 33.706704,290.38472 9.1007388,298.03205 7.3534725,293.47875 z"
     style="fill:#b0afaf" />
  <path
     id="path2828"
     d="M 8,287.6579 C 8,279.46453 11.433699,270.49982 17.563253,262.69014 C 22.1827,256.80448 36.144275,245.80273 44.970907,241.09284 C 48.284238,239.32485 57.312681,231.78607 67.5,222.28098 C 76.85,213.55713 85.97639,205.53756 87.780866,204.45972 C 91.718707,202.10758 144,145.38108 144,143.46056 C 144,142.72217 143.55,141.83992 143,141.5 C 142.45,141.16008 142,140.15352 142,139.2632 C 142,138.37287 150.775,128.7705 161.5,117.92458 C 182.58879,96.598027 184.27042,94 176.98576,94 C 174.77794,94 160.73627,95.142357 145.78206,96.538571 L 118.59259,99.077142 L 111.71635,103.47651 C 101.65744,109.91211 98.331278,107.76397 106.5,100.10763 L 111,95.889887 L 111,86.495835 L 111,77.101783 L 114.34439,74.550891 C 116.18381,73.147901 118.20123,72 118.82755,72 C 119.45386,72 121.06379,74.165766 122.40515,76.812814 C 126.14491,84.192888 126.69879,84.382443 132.96987,80.428414 C 135.96047,78.542786 138.77681,77 139.22841,77 C 139.68001,77 140.45908,78.077264 140.95967,79.393921 L 141.86984,81.787841 L 165.18492,74.340743 C 178.00821,70.244839 195.025,64.861124 203,62.376931 C 216.41113,58.199398 225.84659,53.968546 230.31957,50.126864 C 231.32034,49.267342 235.67587,42.699676 239.99853,35.532049 C 247.07351,23.800675 248.57182,21.968477 255.01083,17.174427 C 258.98464,14.215795 262.79402,12.090718 263.58187,12.393043 C 264.68868,12.817765 265,15.384226 265,24.083789 L 265,35.230347 L 268.10294,37.865173 C 269.80955,39.314328 273.29705,42.405476 275.85294,44.734392 L 280.5,48.968784 L 276.14717,57.177158 C 272.00418,64.989814 271.72848,66.043239 270.42841,79.028288 L 269.06249,92.671043 L 281.01692,142.98786 C 287.59185,170.66211 293.22098,193.55432 293.5261,193.85943 C 293.83121,194.16454 295.30016,193.62728 296.79042,192.66552 C 302.94062,188.69641 305.97207,187.57207 307.20342,188.80342 C 308.11461,189.71461 307.70978,190.69761 305.44341,193.077 C 302.16439,196.51953 281.51187,212.40122 275.88197,215.80961 C 268.76036,220.12109 266.61477,217.70419 272.5,212 C 274.425,210.13422 276,207.81687 276,206.85034 C 276,205.88382 273.3636,200.68459 270.14134,195.29651 C 266.91908,189.90843 256.92359,172.9 247.92914,157.5 C 238.93469,142.1 230.16761,128.06403 228.44674,126.30894 C 220.78346,118.49331 215.30426,120.45526 188.60964,140.57352 L 167.98154,156.11978 L 163.66814,155.47294 L 159.35475,154.82611 L 129.42737,182.42093 C 110.99325,199.41828 98.996937,211.21854 98.190071,213.14771 C 97.46961,214.8703 89.48211,223.83135 80.440071,233.06117 C 70.388638,243.32135 64,250.61098 64,251.81979 C 64,257.33329 51.205483,276.10694 43.515163,281.87759 C 36.2924,287.2974 22.875459,292.75946 14.75,293.58795 L 8,294.27619 L 8,287.6579 z"
     style="fill:#8f8e8e" />
  <path
     id="path2826"
     d="M 8.6666667,293.33333 C 7.0038602,291.67053 8.1218034,282.16077 10.742353,275.67656 C 15.688794,263.43722 27.078019,252.04144 43.989702,242.41007 C 48.448978,239.87047 56.864225,232.89205 67.999191,222.5 C 77.428291,213.7 85.982655,206.10631 87.008889,205.62513 C 88.614314,204.87237 138.1536,151.78961 143.3609,145.24233 C 145.14172,143.00326 145.14574,142.81852 143.45445,140.94966 C 141.73461,139.04926 142.2121,138.46421 161.21626,119.18709 C 186.75329,93.283274 187.28027,91.724949 169.76451,93.908755 C 164.11903,94.612614 154.325,95.600418 148,96.103876 C 115.97961,98.652636 119.02634,98.092027 111.88051,102.75 C 108.29454,105.0875 104.82944,107 104.18028,107 C 101.82528,107 103.09453,104.32364 107.5,100 L 112,95.583584 L 112,86.364372 C 112,77.595783 112.12879,77.043855 114.63486,75.07258 C 118.51598,72.019692 119.69477,72.464136 122.52381,78.046986 C 123.93044,80.822828 125.72846,83.342306 126.51942,83.645826 C 127.31038,83.949346 130.26944,82.775148 133.09511,81.036497 C 138.26082,77.858001 141.47268,77.60464 140.37615,80.462146 C 140.05158,81.307966 140.09652,82 140.47603,82 C 140.85553,82 157.42723,76.825 177.30204,70.5 C 197.17685,64.175 214.13107,59 214.9781,59 C 215.82513,59 219.88907,57.0875 224.00908,54.75 L 231.5,50.5 L 239.87007,36.683418 C 247.50515,24.080097 248.89047,22.377362 255.64604,17.292715 C 259.71928,14.226948 263.265,11.931663 263.52541,12.192081 C 263.78583,12.452499 264.29505,18.173287 264.65701,24.904944 C 265.27627,36.421971 265.45997,37.243344 267.76951,38.82216 C 272.67227,42.173705 279,48.288353 279,49.674464 C 279,50.455323 277.22116,54.335511 275.04701,58.297104 C 271.27518,65.169917 271.04282,66.118656 269.97659,79 L 268.85915,92.5 L 280.92564,142.94606 C 287.5622,170.69139 293.43326,193.83326 293.97243,194.37243 C 294.61285,195.01285 295.5677,194.81332 296.72637,193.79696 C 298.85809,191.92707 304.48649,189 305.95034,189 C 307.80954,189 307.07256,191.02737 304.25,193.67752 C 300.41982,197.27373 278.72081,213.64216 274.41863,216.18051 C 268.97537,219.39211 268.22697,217.19675 272.97156,211.93567 C 275.17167,209.49605 276.97812,207.11347 276.98588,206.64104 C 276.99365,206.16861 274.12095,200.99361 270.60212,195.14104 C 267.08328,189.28847 261.57078,180.05873 258.35212,174.63051 C 255.13345,169.20229 251.20246,162.67729 249.61659,160.13051 C 248.03071,157.58373 245.16407,152.575 243.24628,149 C 234.95206,133.53853 230.34885,126.58286 226.59996,123.84659 C 224.45494,122.28097 221.95277,121 221.03958,121 C 215.70589,121 206.012,126.63151 188.78853,139.73575 C 167.1495,156.19949 167.34251,156.08072 164.18129,154.87883 C 162.37328,154.19142 161.06816,154.40736 159.04516,155.72862 C 154.14852,158.92672 98,211.40518 98,212.78365 C 98,213.52386 90.417976,221.94143 81.151059,231.48938 C 66.822468,246.25251 64.108618,249.54041 63.008542,253.46949 C 61.232012,259.81463 50.853181,275.09944 44.985051,280.01252 C 38.714355,285.26264 25.256058,291.42504 16.918087,292.86405 C 9.1730373,294.20074 9.5146462,294.18131 8.6666667,293.33333 z"
     style="fill:#c37373" />
  <path
     id="path2824"
     d="M 8.6666667,293.33333 C 7.0038602,291.67053 8.1218034,282.16077 10.742353,275.67656 C 15.688794,263.43722 27.078019,252.04144 43.989702,242.41007 C 48.440115,239.87551 56.892168,232.8714 68.015712,222.5 C 77.453899,213.7 86.417822,205.825 87.935542,205 C 90.631012,203.5348 143.65765,146.7609 144.71063,144.21275 C 145.00319,143.50477 144.44258,142.04154 143.46483,140.96114 C 141.73116,139.04546 142.17122,138.50568 161.21626,119.18709 C 171.95731,108.29178 181.07241,98.347206 181.47205,97.088049 C 182.81216,92.865738 181.19503,92.621013 163.31198,94.339834 C 154.06539,95.228565 140.25223,96.501852 132.61606,97.16936 C 118.7779,98.379009 118.71031,98.397145 112.11606,102.67011 C 108.47723,105.02801 104.9375,106.96683 104.25,106.9786 C 101.81754,107.02024 103.05555,104.36189 107.5,100 L 112,95.583584 L 112,86.364372 C 112,77.595783 112.12879,77.043855 114.63486,75.07258 C 118.51598,72.019692 119.69477,72.464136 122.52381,78.046986 C 123.93044,80.822828 125.72846,83.342306 126.51942,83.645826 C 127.31038,83.949346 130.26944,82.775148 133.09511,81.036497 C 138.26082,77.858001 141.47268,77.60464 140.37615,80.462146 C 139.98851,81.472314 140.36625,82 141.47701,82 C 142.40705,82 160.05792,76.624579 180.70117,70.05462 C 207.30259,61.588399 220.16619,56.998049 224.86717,54.294069 C 231.29209,50.598489 231.76237,50.046139 239.87007,36.672868 C 247.50126,24.085596 248.89392,22.374768 255.64604,17.292715 C 259.71928,14.226948 263.265,11.931663 263.52541,12.192081 C 263.78583,12.452499 264.29505,18.173287 264.65701,24.904944 C 265.27627,36.421971 265.45997,37.243344 267.76951,38.82216 C 272.67227,42.173705 279,48.288353 279,49.674464 C 279,50.455323 277.20637,54.362296 275.01415,58.356626 C 271.14255,65.410895 270.99605,66.032922 269.90267,80.059521 L 268.77703,94.5 L 280.43129,143.27969 C 286.84114,170.10852 292.33945,192.72102 292.64977,193.52969 C 293.29692,195.21614 295.58153,195.48611 296.50883,193.98571 C 297.24276,192.79819 304.44293,189 305.96016,189 C 307.81014,189 307.067,191.03259 304.25,193.67752 C 300.41982,197.27373 278.72081,213.64216 274.41863,216.18051 C 268.97537,219.39211 268.22697,217.19675 272.97156,211.93567 C 275.17167,209.49605 276.97812,207.11484 276.98588,206.64408 C 276.99365,206.17333 274.14413,200.99833 270.65363,195.14408 C 264.66367,185.09778 245.20429,151.95896 235.09966,134.59659 C 230.56273,126.80096 224.56402,121 221.03958,121 C 215.70589,121 206.012,126.63151 188.78853,139.73575 C 178.72984,147.38876 169.65192,154.11828 168.61539,154.69024 C 167.32779,155.40074 165.68402,155.40891 163.42645,154.71605 C 159.58499,153.53707 162.97628,150.78934 123.58117,187 C 109.25814,200.16525 98.804019,210.5322 98.3831,211.98797 C 97.987447,213.35636 90.157367,222.20995 80.982924,231.66262 C 66.809285,246.26609 64.10769,249.54372 63.008542,253.46949 C 61.232012,259.81463 50.853181,275.09944 44.985051,280.01252 C 38.714355,285.26264 25.256058,291.42504 16.918087,292.86405 C 9.1730373,294.20074 9.5146462,294.18131 8.6666667,293.33333 z"
     style="fill:#ad5b5b" />
  <path
     id="path2822"
     d="M 8.6666667,293.33333 C 7.0038602,291.67053 8.1218034,282.16077 10.742353,275.67656 C 15.688794,263.43722 27.078019,252.04144 43.989702,242.41007 C 48.439621,239.87579 56.893724,232.87025 68.016631,222.5 C 83.130875,208.4085 90,202.76623 90,204.44298 C 90,204.72174 100.0125,194.0678 112.25,180.76754 C 124.4875,167.46728 136.8625,154.03092 139.75,150.90897 C 145.44833,144.74795 145.85535,143.60263 143.33584,140.81861 C 141.75347,139.0701 142.6056,138.03417 160.67459,119.73987 C 186.86933,93.21849 187.1641,92.450467 170.75061,93.486904 C 165.11278,93.842908 157.125,94.543879 153,95.044618 C 148.875,95.545357 141.675,96.188377 137,96.473551 C 121.47321,97.420683 119.44967,97.919525 112.27271,102.56932 C 108.54772,104.98265 104.9375,106.96683 104.25,106.9786 C 101.81754,107.02024 103.05555,104.36189 107.5,100 L 112,95.583584 L 112,86.44678 C 112,78.860798 112.31081,77.028698 113.83115,75.652806 C 114.83828,74.741363 115.96328,74.296618 116.33115,74.664485 C 116.69902,75.032352 117,74.808333 117,74.166667 C 117,71.142761 119.74007,73.588687 121.87357,78.517066 C 124.70432,85.056083 126.08519,85.349745 133.25575,80.937657 C 138.7439,77.56076 141.82901,77.582466 140.00794,80.985163 C 139.13748,82.611632 139.23561,83 140.51705,83 C 143.50746,83 213.76525,60.152647 219.12183,57.438262 C 230.50113,51.671935 231.43338,50.737025 239.99926,36.50123 C 247.46794,24.088884 248.81426,22.434725 255.61233,17.318081 C 259.70411,14.238363 263.265,11.931663 263.52541,12.192081 C 263.78583,12.452499 264.29505,18.173287 264.65701,24.904944 C 265.27627,36.421971 265.45997,37.243344 267.76951,38.82216 C 272.67227,42.173705 279,48.288353 279,49.674464 C 279,50.455323 277.22222,54.335511 275.04938,58.297104 C 271.26508,65.196782 271.04377,66.110402 269.79235,80 L 268.48592,94.5 L 280.23008,143.99525 C 286.68937,171.21763 292.21057,194.10635 292.49941,194.85906 C 292.93041,195.98223 293.42581,195.93871 295.26229,194.61635 C 298.51325,192.27549 304.75231,189 305.96016,189 C 307.81014,189 307.067,191.03259 304.25,193.67752 C 300.41982,197.27373 278.72081,213.64216 274.41863,216.18051 C 268.97537,219.39211 268.22697,217.19675 272.97156,211.93567 C 277.39574,207.02987 277.61479,206.33409 275.63602,203.47251 C 274.88583,202.38763 272.37326,197.90334 270.05254,193.50743 C 267.73183,189.11151 265.49966,185.28651 265.09217,185.00743 C 264.37487,184.51615 254.71268,168.06784 252.1644,163 C 251.47301,161.625 248.94349,157.35 246.54326,153.5 C 244.14302,149.65 240.00137,142.69298 237.3396,138.03997 C 231.98848,128.68575 226.37745,122.38382 222.54299,121.42143 C 217.26258,120.09614 207.97828,125.13492 188.81702,139.72524 C 178.74266,147.39635 169.59369,154.15536 168.48597,154.74525 C 166.99337,155.54011 165.6155,155.45769 163.16396,154.42689 L 159.85599,153.03599 L 147.67799,164.28965 C 140.9801,170.47916 127.0625,183.34752 116.75,192.88602 C 104.75373,203.98191 98,210.93126 98,212.17911 C 98,213.34888 91.256522,221.07746 81.151059,231.48938 C 66.822468,246.25251 64.108618,249.54041 63.008542,253.46949 C 61.232012,259.81463 50.853181,275.09944 44.985051,280.01252 C 38.714355,285.26264 25.256058,291.42504 16.918087,292.86405 C 9.1730373,294.20074 9.5146462,294.18131 8.6666667,293.33333 z"
     style="fill:#6e6e6e" />
  <path
     id="path2820"
     d="M 9,287.09327 C 9,282.42686 9.7107597,279.38854 11.965827,274.41509 C 14.599985,268.60558 19.440164,261.34176 22.570695,258.5 C 26.733744,254.72097 41.248842,244.40086 45.259263,242.36862 C 48.072357,240.94312 57.557561,232.95486 67.807488,223.37892 C 77.538369,214.28791 86.615842,206.40544 87.979648,205.86234 C 89.343454,205.31924 90.693454,204.5123 90.979648,204.06916 C 91.265842,203.62601 103.425,190.32839 118,174.51888 C 132.575,158.70937 144.87797,145.11774 145.33992,144.31526 C 145.88362,143.37079 145.55855,142.16968 144.4182,140.90962 C 142.70631,139.01799 143.15039,138.46229 160.14387,121.23151 C 177.59004,103.54172 183,97.363796 183,95.130858 C 183,92.921451 178.44139,92.139443 170.89303,93.053963 C 166.82686,93.546599 157.875,94.40371 151,94.958654 C 118.38529,97.591286 118.35652,97.596441 111.78274,101.98625 C 108.47688,104.19381 105.37337,106 104.88605,106 C 103.57324,106 103.81216,104.221 105.25,103.29005 C 105.9375,102.84492 107.80794,101.03691 109.40653,99.27226 C 112.15004,96.243753 112.3183,95.550694 112.40653,86.91549 C 112.49911,77.853975 112.53029,77.743767 115.69307,75.299332 L 118.88614,72.831485 L 121.95747,78.915742 C 123.64669,82.262084 125.68168,85 126.47967,85 C 127.27765,85 130.05927,83.65 132.66105,82 C 138.21998,78.474632 140.02121,78.202901 139.28975,81 C 138.92216,82.40565 139.25907,83 140.42344,83 C 141.33462,83 159.23793,77.534856 180.20858,70.855236 C 205.98352,62.64534 220.4694,57.509324 224.91851,55.003192 C 231.29454,51.411647 231.76536,50.863237 240,37.43629 C 247.42555,25.328598 249.36595,22.90859 255.35055,18.291459 C 259.11835,15.384594 262.60585,13.256401 263.10055,13.562142 C 263.59525,13.867883 264,19.057556 264,25.09475 C 264,37.316514 263.0203,35.298686 273.25,44.146416 C 275.8625,46.405983 278,48.895273 278,49.67817 C 278,50.461068 276.23416,54.566256 274.07591,58.80081 C 270.45316,65.908752 270.06509,67.483017 269.02257,79.300776 L 267.89334,92.101552 L 280.0477,143.30078 C 286.7326,171.46035 292.40816,194.8375 292.66005,195.25 C 293.44644,196.5378 294.75595,196.09704 299.34489,193 C 303.86214,189.95134 306,189.27685 306,190.90031 C 306,191.85781 285.20693,208.24498 276.90895,213.82718 C 274.18872,215.65713 271.53647,217.00713 271.01506,216.82718 C 270.49365,216.64723 271.86515,214.49642 274.06284,212.0476 C 276.54458,209.28226 277.83556,207.00879 277.46992,206.0476 C 276.84388,204.4019 267.79126,188.85922 255.01841,167.5 C 250.7427,160.35 244.21393,149.1 240.51004,142.5 C 231.97655,127.2941 229.8208,124.45939 224.86946,121.9334 L 220.85478,119.88527 L 214.58701,121.97105 C 209.61701,123.62495 204.09333,127.26725 187.90962,139.56202 C 167.24589,155.26027 166.9097,155.43752 161.63712,153.41424 C 160.59105,153.01283 155.93615,156.65688 147.29422,164.64248 C 104.01053,204.63884 97,211.3393 97,212.71221 C 97,213.55001 89.655358,221.77748 80.678572,230.99547 C 66.295272,245.76526 64.099496,248.46209 62.187427,253.70612 C 58.963877,262.54701 49.47257,275.67299 42.441878,281.01318 C 35.491833,286.29211 22.915823,291.51939 14.75,292.52344 L 9,293.23045 L 9,287.09327 z"
     style="fill:#ac2d2d" />
  <path
     id="path2818"
     d="M 9,287.09327 C 9,282.42686 9.7107597,279.38854 11.965827,274.41509 C 14.599985,268.60558 19.440164,261.34176 22.570695,258.5 C 26.733744,254.72097 41.248842,244.40086 45.259263,242.36862 C 48.065067,240.94681 57.584124,232.93779 67.807488,223.39729 C 77.538369,214.31638 86.90195,206.28533 88.615443,205.55052 C 91.948232,204.12129 145.24711,147.19144 145.83765,144.43006 C 146.02336,143.56168 145.39432,141.98821 144.43978,140.93346 C 142.76251,139.08009 143.3385,138.36879 161.60213,119.73938 C 188.42134,92.383038 188.46434,92.216205 168.5,92.977551 C 164.65,93.124371 156.57861,93.864486 150.56358,94.622249 C 144.54855,95.380012 136.89855,96.01603 133.56358,96.035622 C 124.81872,96.086995 117.27108,98.220599 111.14951,102.37174 C 108.20674,104.36728 105.39424,106 104.89951,106 C 103.57568,106 103.80518,104.22552 105.25,103.29005 C 105.9375,102.84492 107.82367,101.02049 109.44149,99.235767 C 112.28551,96.098342 112.3745,95.696797 112.12704,87.118326 L 111.87109,78.245841 L 115.18555,75.63487 C 118.22931,73.237133 118.60209,73.161036 119.75,74.70308 C 120.4375,75.626628 121,77.196251 121,78.19113 C 121,79.186008 121.37777,80 121.83948,80 C 122.3012,80 123.19155,81.125 123.81805,82.5 C 125.29543,85.74251 126.90306,85.651611 132.66105,82 C 138.61172,78.226201 140.29518,78.093414 139,81.5 C 138.23818,83.503749 138.35882,84 139.60777,84 C 140.46481,84 157.32468,78.857637 177.07415,72.572526 C 209.53817,62.241108 223.02312,57.003625 229.85192,52.07393 C 231.14547,51.140116 235.87047,44.343285 240.35192,36.969861 C 247.46883,25.260243 249.36696,22.895599 255.35055,18.284943 C 259.11835,15.381662 262.60585,13.256401 263.10055,13.562142 C 263.59525,13.867883 264,19.057556 264,25.09475 C 264,37.316514 263.0203,35.298686 273.25,44.146416 C 275.8625,46.405983 278,48.895273 278,49.67817 C 278,50.461068 276.22493,54.566256 274.05539,58.80081 C 270.29166,66.146973 270.0559,67.166709 268.91382,81.040297 L 267.71686,95.580595 L 270.8209,108.5403 C 272.52812,115.66813 277.56027,136.8 282.00346,155.5 C 286.44665,174.2 290.52581,191.16867 291.06827,193.20815 C 292.18937,197.42319 292.83608,197.3922 299.64502,192.79724 C 303.88721,189.93443 306,189.30377 306,190.90031 C 306,191.85781 285.20693,208.24498 276.90895,213.82718 C 274.18872,215.65713 271.53647,217.00713 271.01506,216.82718 C 270.49365,216.64723 271.85196,214.51114 274.03352,212.08031 C 276.21508,209.64949 278,207.52619 278,207.36187 C 278,206.25938 269.13847,189.75463 266.7991,186.5 C 263.26778,181.58709 254,165.96327 254,164.92302 C 254,163.99473 245.02728,148.69719 244.07386,148 C 243.69779,147.725 241.22073,143.675 238.56928,139 C 231.94371,127.31788 229.53005,124.31106 224.86946,121.9334 L 220.85478,119.88527 L 214.58701,121.97105 C 209.61598,123.6253 204.09668,127.26539 187.90962,139.56532 C 172.66619,151.14822 166.99375,154.93181 165.5,154.51283 C 158.51073,152.55241 160.23836,151.32498 128,181.15566 C 105.93969,201.56843 97.406931,210.07444 97.163661,211.89531 C 96.942587,213.55004 91.263458,220.12617 80.592233,231.08413 C 66.292712,245.76788 64.098468,248.46491 62.187427,253.70612 C 58.963877,262.54701 49.47257,275.67299 42.441878,281.01318 C 35.491833,286.29211 22.915823,291.51939 14.75,292.52344 L 9,293.23045 L 9,287.09327 z"
     style="fill:#4c4b4b" />
  <path
     id="path2816"
     d="M 9.6069888,290.41821 C 7.1288439,283.96027 15.128427,265.7483 23.627016,258.5 C 29.270692,253.68661 41.541648,244.95666 46.09952,242.51235 C 49.48908,240.69459 58.522874,233.15499 68.879726,223.5 C 78.319438,214.7 87.0457,207.12808 88.271419,206.67352 C 91.274633,205.55976 145.41307,146.56128 145.82676,143.95139 C 146.00648,142.81758 145.60326,141.22688 144.93071,140.41651 C 143.90943,139.18595 146.82361,135.77499 162.61164,119.72155 C 173.00871,109.1497 182.14227,99.27784 182.90844,97.784089 C 185.83822,92.072084 181.55615,90.985121 164,92.984366 C 159.325,93.516742 152.8,94.154924 149.5,94.40255 C 128.96728,95.943283 117.22789,97.384811 115.25,98.608247 C 114.0125,99.373711 111.7625,100.76151 110.25,101.69223 L 107.5,103.38447 L 110.43577,100.19362 C 113.30323,97.076999 113.36562,96.780923 113.11731,87.467109 C 112.87983,78.559503 113.01579,77.804174 115.18154,75.998995 C 118.42193,73.298098 118.82461,73.454148 120.99008,78.25 C 122.04553,80.5875 123.60274,83.371051 124.45055,84.435669 C 125.97108,86.345055 126.06362,86.34166 131.26533,84.185669 C 136.95915,81.825713 139.4812,81.412381 138.5,83 C 137.25285,85.01793 141.87526,83.800793 172.37511,74.080275 C 189.4938,68.624426 206.83667,63.158066 210.91483,61.932808 C 217.33709,60.003278 228.174,54.75578 231.59816,51.917428 C 232.20215,51.416771 236.4115,44.910156 240.95227,37.458282 C 248.15798,25.632962 250.05364,23.268887 255.85411,18.87414 L 262.5,13.838859 L 263.24547,25.588039 C 263.98417,37.230639 265.43191,41.964403 268.27305,42.027058 C 268.94787,42.041939 271.27077,43.699311 273.43505,45.710105 L 277.37011,49.366095 L 273.74759,56.433047 C 271.7552,60.319871 269.61089,65.190955 268.98245,67.257677 C 268.35401,69.324399 266.97587,71.477732 265.91991,72.042861 C 264.86396,72.607989 264,73.729535 264,74.535184 C 264,76.486021 264.96555,76.384374 266.70896,74.25 C 267.96228,72.715621 268.06984,73.727673 267.58194,82.463918 C 266.96348,93.538052 265.49204,86.093106 282.11575,156 C 292.15002,198.19662 291.87626,197.19451 293.1538,196.40494 C 293.85612,195.97089 293.97126,196.55172 293.49474,198.12477 C 292.63121,200.97536 293.31569,200.29678 283.62812,207.90629 C 275.97947,213.91424 272.43209,215.36232 276.82939,210.68161 C 279.69645,207.62976 279.59454,206.75862 275.65813,200.66947 C 270.67457,192.96049 266.96339,186.55835 262.41577,177.82514 C 260.16944,173.5113 257.35694,168.94439 256.16577,167.67645 C 254.97459,166.40851 254,165.09978 254,164.76818 C 254,164.43657 251.90121,160.64057 249.33603,156.33263 C 246.77085,152.02468 242.76535,144.7906 240.43492,140.25689 C 235.28649,130.24092 228.75175,122.21205 224.20033,120.31034 C 221.14741,119.03475 220.19427,119.10507 214.39977,121.03336 C 209.29906,122.73076 203.79844,126.3124 187.61231,138.47558 C 167.53744,153.56098 167.18055,153.77541 162.87181,153.33956 L 158.5,152.89734 L 128,181.12149 C 110.37431,197.43199 96.77554,210.79619 95.783712,212.78207 C 94.839753,214.67211 87.135922,223.30159 78.664087,231.95869 C 65.447075,245.46474 63.012816,248.44534 61.513975,252.95793 C 58.882037,260.88195 48.749244,275.37693 42.664811,279.9217 C 30.535672,288.98157 11.388642,295.06113 9.6069888,290.41821 z M 259,96 C 259,95.45 258.325,95 257.5,95 C 256.675,95 256,95.45 256,96 C 256,96.55 256.675,97 257.5,97 C 258.325,97 259,96.55 259,96 z M 120,82.452028 C 120,80.573141 118.02696,79.573043 116.78009,80.819915 C 115.28676,82.313244 116.6004,85.090571 118.46215,84.376152 C 119.30797,84.051581 120,83.185725 120,82.452028 z M 249,70 C 249,69.45 248.55,69 248,69 C 247.45,69 247,69.45 247,70 C 247,70.55 247.45,71 248,71 C 248.55,71 249,70.55 249,70 z M 267.46899,61.050173 C 267.79186,60.527769 267.173,59.627769 266.09375,59.050173 C 263.37535,57.595328 263,57.710564 263,60 C 263,62.090943 266.3406,62.875953 267.46899,61.050173 z M 263,53.440983 C 263,52.648442 262.325,52 261.5,52 C 259.99377,52 259.44432,54.110991 260.63948,55.306147 C 261.57272,56.239389 263,55.111627 263,53.440983 z M 266,49.5 C 266,48.675 265.325,48 264.5,48 C 261.89754,48 262.74091,49.970813 265.75,50.921053 C 265.8875,50.964474 266,50.325 266,49.5 z"
     style="fill:#b20000" />
  <path
     id="path2814"
     d="M 9.6069888,290.41821 C 7.1288439,283.96027 15.128427,265.7483 23.627016,258.5 C 29.270692,253.68661 41.541648,244.95666 46.09952,242.51235 C 49.48908,240.69459 58.522874,233.15499 68.879726,223.5 C 78.319438,214.7 87.0457,207.12808 88.271419,206.67352 C 91.274633,205.55976 145.41307,146.56128 145.82676,143.95139 C 146.00648,142.81758 145.60326,141.22688 144.93071,140.41651 C 143.90943,139.18595 146.82361,135.77499 162.61164,119.72155 C 173.00871,109.1497 182.14227,99.27784 182.90844,97.784089 C 185.83822,92.072084 181.55615,90.985121 164,92.984366 C 159.325,93.516742 152.8,94.154924 149.5,94.40255 C 128.96728,95.943283 117.22789,97.384811 115.25,98.608247 C 114.0125,99.373711 111.7625,100.76151 110.25,101.69223 L 107.5,103.38447 L 110.43577,100.19362 C 113.30323,97.076999 113.36562,96.780923 113.11731,87.467109 C 112.87983,78.559503 113.01579,77.804174 115.18154,75.998995 C 118.42193,73.298098 118.82461,73.454148 120.99008,78.25 C 122.04553,80.5875 123.60274,83.371051 124.45055,84.435669 C 125.97108,86.345055 126.06362,86.34166 131.26533,84.185669 C 136.95915,81.825713 139.4812,81.412381 138.5,83 C 137.25285,85.01793 141.87526,83.800793 172.37511,74.080275 C 189.4938,68.624426 206.83667,63.158066 210.91483,61.932808 C 217.33709,60.003278 228.174,54.75578 231.59816,51.917428 C 232.20215,51.416771 236.4115,44.910156 240.95227,37.458282 C 248.15798,25.632962 250.05364,23.268887 255.85411,18.87414 L 262.5,13.838859 L 263.24547,25.588039 C 263.98417,37.230639 265.43191,41.964403 268.27305,42.027058 C 268.94787,42.041939 271.27077,43.699311 273.43505,45.710105 L 277.37011,49.366095 L 273.74759,56.433047 C 271.7552,60.319871 269.61089,65.190955 268.98245,67.257677 C 268.35401,69.324399 266.97587,71.477732 265.91991,72.042861 C 264.86396,72.607989 264,73.729535 264,74.535184 C 264,76.491616 264.98587,76.384187 266.6171,74.25 C 267.75078,72.766778 267.9069,74.46174 267.64121,85.368546 C 267.37935,96.117858 267.05371,98.390438 265.66384,99.168248 C 264.7487,99.680384 263.31341,101.42704 262.4743,103.0497 C 261.63519,104.67237 260.25487,106 259.40693,106 C 258.32389,106 258.05276,106.59088 258.4956,107.98614 C 258.99456,109.55822 258.3853,110.32549 255.57313,111.66652 C 253.61906,112.59835 251.76039,114.17959 251.44275,115.18038 C 251.12511,116.18117 250.1613,117 249.30094,117 C 247.2007,117 248.02941,123.36358 250.90256,129.29872 C 252.11734,131.80811 253,135.60273 253,138.31572 C 253,141.90988 253.36614,143 254.57332,143 C 255.53697,143 256.01247,143.67814 255.80039,144.75 C 255.55015,146.01475 254.48999,146.5 251.97707,146.5 C 248.8603,146.5 248.51722,146.76824 248.66618,149.0887 C 248.90985,152.8846 252.28523,159.5 253.97834,159.5 C 254.78277,159.5 255.99236,158.39394 256.66633,157.0421 C 258.06097,154.24474 261.41099,152.67828 264.14383,153.54565 C 265.36271,153.93251 266.2121,155.47419 266.62337,158.04612 C 266.96742,160.19775 267.78888,162.6966 268.44883,163.59913 C 269.88086,165.55755 277.72118,166.43671 281.37288,165.04833 C 284.31304,163.93049 283.85861,162.93225 287.49649,178.5 C 291.43673,195.36169 291.99303,197.12234 293.1538,196.40494 C 293.85612,195.97089 293.97126,196.55172 293.49474,198.12477 C 292.63121,200.97536 293.31569,200.29678 283.62812,207.90629 C 275.97947,213.91424 272.43209,215.36232 276.82939,210.68161 C 279.69645,207.62976 279.59454,206.75862 275.65813,200.66947 C 270.67457,192.96049 266.96339,186.55835 262.41577,177.82514 C 260.16944,173.5113 257.35694,168.94439 256.16577,167.67645 C 254.97459,166.40851 254,165.09978 254,164.76818 C 254,164.43657 251.90121,160.64057 249.33603,156.33263 C 246.77085,152.02468 242.76535,144.7906 240.43492,140.25689 C 235.28649,130.24092 228.75175,122.21205 224.20033,120.31034 C 221.14741,119.03475 220.19427,119.10507 214.39977,121.03336 C 209.29794,122.73113 203.79498,126.315 187.57811,138.50128 C 167.24743,153.77892 167.15986,153.83116 162.83761,153.26134 C 160.45192,152.94683 157.14183,151.66052 155.48184,150.40289 L 152.46367,148.11628 L 142.73184,158.47975 C 137.37933,164.17966 133,169.30614 133,169.87192 C 133,170.43771 133.7875,171.36073 134.75,171.92308 C 136.74268,173.08733 137.19486,172.60884 112,195.99696 C 104.025,203.40007 96.72767,210.97847 95.783712,212.83784 C 94.839753,214.69721 87.135922,223.30159 78.664087,231.95869 C 65.447075,245.46474 63.012816,248.44534 61.513975,252.95793 C 58.882037,260.88195 48.749244,275.37693 42.664811,279.9217 C 30.535672,288.98157 11.388642,295.06113 9.6069888,290.41821 z M 286.80686,189.72637 C 287.974,188.38728 288.07032,187.67032 287.2,186.8 C 286.32968,185.92968 285.55147,186.09594 284.02363,187.47862 C 281.69857,189.58277 281.47907,191.07907 283.2375,192.8375 C 284.22083,193.82083 284.55571,193.81056 284.86799,192.7875 C 285.08413,192.07937 285.95662,190.70187 286.80686,189.72637 z M 285.10382,181.40604 C 287.37404,179.35152 286.46098,177 283.39301,177 C 281.93256,177 281,176.41545 281,175.5 C 281,174.66667 281.88889,174 283,174 C 286.61123,174 285.09445,172.43667 279.95228,170.85875 C 275.2313,169.41007 274.84316,169.42455 273.95587,171.08246 C 272.87693,173.09847 273.71079,176.11483 275.67459,177.29969 C 276.40356,177.73952 277,178.90202 277,179.88302 C 277,180.86403 277.3,181.96667 277.66667,182.33333 C 278.89943,183.5661 283.32699,183.01405 285.10382,181.40604 z M 259,96 C 259,95.45 258.325,95 257.5,95 C 256.675,95 256,95.45 256,96 C 256,96.55 256.675,97 257.5,97 C 258.325,97 259,96.55 259,96 z M 120,82.452028 C 120,80.573141 118.02696,79.573043 116.78009,80.819915 C 115.28676,82.313244 116.6004,85.090571 118.46215,84.376152 C 119.30797,84.051581 120,83.185725 120,82.452028 z M 249,70 C 249,69.45 248.55,69 248,69 C 247.45,69 247,69.45 247,70 C 247,70.55 247.45,71 248,71 C 248.55,71 249,70.55 249,70 z M 267.46899,61.050173 C 267.79186,60.527769 267.173,59.627769 266.09375,59.050173 C 263.37535,57.595328 263,57.710564 263,60 C 263,62.090943 266.3406,62.875953 267.46899,61.050173 z M 263,53.440983 C 263,52.648442 262.325,52 261.5,52 C 259.99377,52 259.44432,54.110991 260.63948,55.306147 C 261.57272,56.239389 263,55.111627 263,53.440983 z M 266,49.5 C 266,48.675 265.325,48 264.5,48 C 261.89754,48 262.74091,49.970813 265.75,50.921053 C 265.8875,50.964474 266,50.325 266,49.5 z M 277.51155,163.01868 C 277.13275,162.40577 276.07519,162.01775 275.16141,162.15641 C 273.04946,162.47689 269,159.9157 269,158.25945 C 269,156.04848 272.39249,156.96088 275.84547,160.10052 C 277.68547,161.77355 278.96803,163.3653 278.6956,163.63773 C 278.42317,163.91016 277.89034,163.63159 277.51155,163.01868 z M 278.45888,155.93347 C 278.09635,155.34688 278.0539,154.61276 278.36456,154.30211 C 278.67522,153.99145 278.27028,152.79626 277.46469,151.64613 C 275.49654,148.8362 275.61931,148 278,148 C 279.7037,148 280,148.66667 280,152.5 C 280,157.06641 279.64621,157.85461 278.45888,155.93347 z M 267.19443,154.79443 C 265.35919,152.95919 265.77513,151 268,151 C 270.06507,151 270.55962,152.57053 269.17911,154.74443 C 268.56652,155.70909 268.12033,155.72033 267.19443,154.79443 z M 262,149.01334 C 261.175,148.53537 259.7125,147.90096 258.75,147.60354 C 256.13775,146.79633 256.63796,145 259.475,145 C 261.71186,145 261.89007,144.70034 261.32714,141.88568 C 260.73262,138.91308 260.80591,138.82576 262.93778,139.9667 C 265.76,141.47711 266.26151,140.94298 266.39346,136.28627 C 266.46731,133.67971 266.99457,132.43107 268.11206,132.2163 C 269.32754,131.9827 269.86562,132.96352 270.29932,136.20324 C 270.67174,138.98517 271.60175,140.98369 272.93727,141.87197 C 275.91474,143.85236 275.47507,145.65499 271.83711,146.38258 C 269.56398,146.8372 268.10907,146.52073 266.66522,145.25758 C 265.56026,144.29091 264.98761,144.06653 265.39265,144.75895 C 266.19571,146.13178 265.28407,150.03608 264.18261,149.94119 C 263.80718,149.90885 262.825,149.49132 262,149.01334 z M 273.51008,127.98369 C 273.85554,127.42472 274.5571,127.22627 275.0691,127.54271 C 276.45614,128.39994 276.19751,129 274.44098,129 C 273.58352,129 273.16462,128.54266 273.51008,127.98369 z M 265,123 C 265,122.45 265.45,122 266,122 C 266.55,122 267,122.45 267,123 C 267,123.55 266.55,124 266,124 C 265.45,124 265,123.55 265,123 z M 271.63837,119.5 C 271.95496,118.675 272.34269,118 272.5,118 C 272.65731,118 273.04504,118.675 273.36163,119.5 C 273.70873,120.40455 273.3667,121 272.5,121 C 271.6333,121 271.29127,120.40455 271.63837,119.5 z"
     style="fill:#a90000" />
  <path
     id="path2812"
     d="M 9.6069888,290.41821 C 7.1288439,283.96027 15.128427,265.7483 23.627016,258.5 C 29.270692,253.68661 41.541648,244.95666 46.09952,242.51235 C 49.48908,240.69459 58.522874,233.15499 68.879726,223.5 C 78.319438,214.7 87.0457,207.13003 88.271419,206.67784 C 89.497139,206.22565 99.95,195.52074 111.5,182.88916 C 134.90044,157.29742 138.64661,153.53312 131.42568,162.86704 C 125.65801,170.32245 118.42838,178.5396 104.19224,193.82036 C 94.035132,204.72278 93.912486,204.91249 95.800477,206.80048 C 97.666593,208.66659 97.668975,208.81411 95.891946,212.46749 C 94.888459,214.53055 87.135922,223.30159 78.664087,231.95869 C 65.447075,245.46474 63.012816,248.44534 61.513975,252.95793 C 58.882037,260.88195 48.749244,275.37693 42.664811,279.9217 C 30.535672,288.98157 11.388642,295.06113 9.6069888,290.41821 z M 275,213.15499 C 275,212.69023 275.9,211.49549 277,210.5 C 279.72501,208.0339 279.53926,206.6731 275.65813,200.66947 C 270.67457,192.96049 266.96339,186.55835 262.41577,177.82514 C 260.16944,173.5113 257.46944,168.9734 256.41577,167.7409 C 253.80258,164.68421 251.55896,160.60939 252.96892,161.48079 C 253.58303,161.86034 256.08877,160.52933 258.53723,158.52301 C 263.20066,154.70167 264.99748,154.64221 265.00374,158.30902 C 265.00579,159.51406 265.99994,162.075 267.21294,164 C 272.31634,172.09893 274.18226,178.15129 271.99289,179.5044 C 271.43898,179.84673 270.29097,181.47044 269.44175,183.11264 C 268.00134,185.89809 268.04085,186.33002 270.03042,189.54923 C 271.20341,191.44715 272.39294,193 272.67383,193 C 272.95472,193 274.29674,192.12514 275.65609,191.05588 C 278.79238,188.58887 279.84585,189.06799 283.3251,194.54375 C 285.88025,198.56513 286.35801,198.88061 288.3251,197.84529 C 289.52129,197.21571 290.83061,196.20546 291.23469,195.6003 C 291.73441,194.85189 291.97427,194.91864 291.98469,195.80902 C 291.99311,196.52898 292.49821,196.81012 293.10713,196.43379 C 293.86552,195.96508 293.98762,196.49774 293.49474,198.12477 C 292.63152,200.97434 293.30793,200.30299 283.68449,207.8615 C 275.6047,214.20757 275,214.57615 275,213.15499 z M 162.38612,153.28676 C 160.62189,153.064 158.04857,151.61635 156.44902,149.94679 C 154.20633,147.60593 152.7675,147 149.45158,147 C 145.53573,147 145.30699,146.84489 145.75635,144.49425 C 146.0198,143.11609 145.66667,141.30329 144.97162,140.4658 C 143.89593,139.16967 146.52074,136.08295 162.61164,119.72155 C 173.00871,109.1497 182.14227,99.27784 182.90844,97.784089 C 185.83822,92.072084 181.55615,90.985121 164,92.984366 C 159.325,93.516742 152.8,94.154924 149.5,94.40255 C 128.96728,95.943283 117.22789,97.384811 115.25,98.608247 C 114.0125,99.373711 111.7625,100.76151 110.25,101.69223 L 107.5,103.38447 L 110.43577,100.19362 C 113.30323,97.076999 113.36562,96.780923 113.11731,87.467109 C 112.87983,78.559503 113.01579,77.804174 115.18154,75.998995 C 118.42193,73.298098 118.82461,73.454148 120.99008,78.25 C 122.04553,80.5875 123.60274,83.371051 124.45055,84.435669 C 125.97108,86.345055 126.06362,86.34166 131.26533,84.185669 C 136.95915,81.825713 139.4812,81.412381 138.5,83 C 137.42063,84.746452 141.35873,84.089944 150.50281,80.999051 C 156.74881,78.887767 159.58766,78.332826 160.07859,79.127166 C 160.46238,79.748152 161.28405,79.942484 161.90451,79.559017 C 162.52497,79.17555 162.81718,78.513213 162.55387,78.087157 C 162.29055,77.661102 163.66024,76.826021 165.59762,76.231423 C 168.70623,75.277362 168.97181,75.329037 167.85791,76.671209 C 166.77929,77.970861 166.95238,78.141679 169.04785,77.845558 C 170.56697,77.630883 171.45522,76.881739 171.38231,75.876691 C 171.30888,74.864543 172.50029,73.875111 174.54994,73.246054 L 177.83527,72.237758 L 176.16763,75.547884 C 174.51557,78.827112 168.04324,83 164.60908,83 C 162.891,83 162.60888,83.489396 161.55042,88.306002 L 160.93378,91.112004 L 166.67116,86.873556 C 171.4896,83.313969 173.6972,82.414654 180.45427,81.258716 C 187.9208,79.981408 188.84327,79.546013 193.26849,75.210541 C 195.89116,72.64106 197.81778,69.967537 197.54988,69.269379 C 197.262,68.519199 197.83659,68 198.95466,68 C 199.9952,68 202.13562,66.915321 203.71114,65.589603 C 205.28667,64.263885 209.1735,62.424015 212.34855,61.501004 C 217.40448,60.031204 228.43457,54.539785 231.59816,51.917428 C 232.20215,51.416771 236.4115,44.910156 240.95227,37.458282 C 248.15798,25.632962 250.05364,23.268887 255.85411,18.87414 L 262.5,13.838859 L 263.24547,25.588039 C 263.98417,37.230639 265.43191,41.964403 268.27305,42.027058 C 268.94787,42.041939 271.27077,43.699311 273.43505,45.710105 L 277.37011,49.366095 L 273.74759,56.433047 C 271.7552,60.319871 269.61089,65.190955 268.98245,67.257677 C 268.35401,69.324399 266.97587,71.477732 265.91991,72.042861 C 264.86396,72.607989 264,73.729535 264,74.535184 C 264,76.490735 264.98274,76.384222 266.63123,74.25 C 267.78378,72.757855 267.93163,74.282502 267.63466,84.597418 L 267.28638,96.694835 L 262.39319,101.09742 C 259.70194,103.51884 257.3263,105.9086 257.114,106.40801 C 256.90169,106.90742 254.08434,109.90284 250.8532,113.06451 C 244.29563,119.48109 244.37834,118.5384 249.42886,129.29893 C 253.63436,138.25908 253.63757,139.28852 249.47449,143.89656 C 247.17308,146.44394 246.006,148.57326 246.37876,149.54466 C 246.70784,150.40223 246.59396,150.86709 246.12569,150.57768 C 245.65743,150.28828 243.3877,146.22561 241.08185,141.54953 C 235.9796,131.20255 228.90079,122.27432 224.26296,120.33651 C 221.13158,119.02814 220.23512,119.09147 214.39977,121.03336 C 209.29433,122.73234 203.78375,126.32344 187.46712,138.58469 C 176.18448,147.06311 166.62625,153.92798 166.22661,153.83996 C 165.82698,153.75194 164.09875,153.503 162.38612,153.28676 z M 259,96 C 259,95.45 258.325,95 257.5,95 C 256.675,95 256,95.45 256,96 C 256,96.55 256.675,97 257.5,97 C 258.325,97 259,96.55 259,96 z M 160.8455,83.551966 C 161.0665,82.41195 160.70613,81.931122 159.8455,82.217698 C 159.10548,82.464117 158.34452,83.467768 158.1545,84.448034 C 157.9335,85.58805 158.29387,86.068878 159.1545,85.782302 C 159.89452,85.535883 160.65548,84.532232 160.8455,83.551966 z M 120,82.452028 C 120,80.573141 118.02696,79.573043 116.78009,80.819915 C 115.28676,82.313244 116.6004,85.090571 118.46215,84.376152 C 119.30797,84.051581 120,83.185725 120,82.452028 z M 249,70 C 249,69.45 248.55,69 248,69 C 247.45,69 247,69.45 247,70 C 247,70.55 247.45,71 248,71 C 248.55,71 249,70.55 249,70 z M 267.46899,61.050173 C 267.79186,60.527769 267.173,59.627769 266.09375,59.050173 C 263.37535,57.595328 263,57.710564 263,60 C 263,62.090943 266.3406,62.875953 267.46899,61.050173 z M 263,53.440983 C 263,52.648442 262.325,52 261.5,52 C 259.99377,52 259.44432,54.110991 260.63948,55.306147 C 261.57272,56.239389 263,55.111627 263,53.440983 z M 266,49.5 C 266,48.675 265.325,48 264.5,48 C 261.89754,48 262.74091,49.970813 265.75,50.921053 C 265.8875,50.964474 266,50.325 266,49.5 z M 187,76 C 187,75.45 187.45,75 188,75 C 188.55,75 189,75.45 189,76 C 189,76.55 188.55,77 188,77 C 187.45,77 187,76.55 187,76 z"
     style="fill:#363636"
     inkscape:export-xdpi="145.82001"
     inkscape:export-ydpi="145.82001" />
  <path
     id="path2810"
     d="M 10.54241,291.20908 C 9.1239236,289.79059 10.267089,281.38923 12.677113,275.5207 C 15.965314,267.51377 22.438345,260.07938 33.148267,252.00921 C 40.959454,246.1233 48.795759,241.46243 49.573276,242.23994 C 49.781982,242.44865 44.572345,246.99286 37.996304,252.3382 C 31.420264,257.68353 25.576267,262.92324 25.009644,263.98198 C 24.175832,265.53997 24.555174,266.56272 26.999376,269.34651 C 28.875319,271.48309 29.785732,273.3948 29.402677,274.39302 C 29.063517,275.27686 29.284167,276 29.893011,276 C 30.501855,276 31,275.35796 31,274.57324 C 31,273.10829 36.223272,270 38.685023,270 C 39.442784,270 40.353323,269.2125 40.708443,268.25 C 41.885018,265.06107 46,263.6738 46,266.46607 C 46,270.81104 39.450758,280 36.353977,280 C 35.60929,280 35,280.89242 35,281.98315 C 35,283.36388 33.449261,284.75213 29.895039,286.55319 C 24.896234,289.08627 11.614863,292.28153 10.54241,291.20908 z M 93.174314,208.68555 C 91.978441,207.4126 91,206.0569 91,205.67288 C 91,204.95194 135.02249,157 135.68435,157 C 137.07858,157 121.20554,175.55864 104.19224,193.82036 C 94.122837,204.62864 93.927731,204.92773 95.754742,206.75474 C 97.519722,208.51972 97.716168,211 96.090981,211 C 95.682687,211 94.370187,209.9585 93.174314,208.68555 z M 279.38061,200.45814 C 278.49476,199.10616 276.93211,198 275.90804,198 C 274.88398,198 273.30013,196.7625 272.38838,195.25 C 271.47663,193.7375 269.44126,190.57434 267.86533,188.22076 C 264.82534,183.68067 264.23637,180.16363 266.18909,178.21091 C 267.10787,177.29213 266.72509,175.65542 264.50522,171.01091 C 261.6644,165.06724 260.37694,164.02306 258.36722,166.03278 C 256.89945,167.50055 254.69367,166.38007 253.34351,163.48088 C 252.70743,162.11504 252.61417,161.26154 253.13625,161.58421 C 253.65833,161.90687 256.08877,160.52933 258.53723,158.52301 C 263.20066,154.70167 264.99748,154.64221 265.00374,158.30902 C 265.00579,159.51406 265.99994,162.075 267.21294,164 C 272.31634,172.09893 274.18226,178.15129 271.99289,179.5044 C 271.43898,179.84673 270.29097,181.47044 269.44175,183.11264 C 268.00134,185.89809 268.04085,186.33002 270.03042,189.54923 C 271.20341,191.44715 272.39294,193 272.67383,193 C 272.95472,193 274.29674,192.12514 275.65609,191.05588 C 278.79238,188.58887 279.84585,189.06799 283.3251,194.54375 C 285.88025,198.56513 286.35801,198.88061 288.3251,197.84529 C 289.52129,197.21571 290.83061,196.20546 291.23469,195.6003 C 291.73441,194.85189 291.97427,194.91864 291.98469,195.80902 C 291.99311,196.52898 292.45,196.83992 293,196.5 C 295.55822,194.91894 293.63074,198.12675 290.8199,200.12824 C 286.19894,203.41866 281.4109,203.55674 279.38061,200.45814 z M 156.5,150 C 154.19569,147.59481 152.78925,147 149.40653,147 C 145.67957,147 145.24827,146.76663 145.71025,145 C 146.08664,143.56067 147.07427,143 149.23326,143 C 151.76869,143 152.14996,142.68144 151.69532,140.9429 C 151.35344,139.63555 151.58429,139.02627 152.32869,139.27122 C 152.97291,139.48321 153.64817,140.66731 153.82928,141.90255 C 154.01038,143.1378 155.92288,145.74241 158.07928,147.69059 C 160.23567,149.63876 162,151.63036 162,152.11636 C 162,153.94387 159.27323,152.89463 156.5,150 z M 244.7605,148.75 C 243.19404,146.35156 243.44685,145.05075 246.29431,140.8579 C 248.05704,138.26231 248.03268,138.09069 244.91042,131.1079 C 241.59508,123.69328 240.21121,122.76931 236.55887,125.5318 C 234.2231,127.29849 233,127.40557 233,125.84336 C 233,123.89463 265.00868,94 267.09522,94 C 268.68784,94 268.06285,96.894278 266.25,97.914116 C 265.2875,98.455583 262.8455,100.60892 260.82333,102.6993 C 258.80116,104.78969 254.4088,109.27042 251.06253,112.6565 C 244.27346,119.52632 244.3718,118.52447 249.42886,129.29893 C 253.63436,138.25908 253.63757,139.28852 249.47449,143.89656 C 247.25357,146.35485 246.01109,148.58652 246.35883,149.49272 C 247.20065,151.68645 246.45077,151.338 244.7605,148.75 z M 156.92421,136.14162 C 157.47123,135.11951 159.06206,133.53413 160.45939,132.61856 C 161.85673,131.703 163,130.08538 163,129.02386 C 163,127.14197 169.4388,123.10547 170.59553,124.2622 C 171.30481,124.97148 158.45534,138 157.04652,138 C 156.26788,138 156.23084,137.43719 156.92421,136.14162 z M 157,128.12244 C 157,126.84369 159.94038,124.60704 160.66667,125.33333 C 161.39296,126.05962 159.15631,129 157.87756,129 C 157.3949,129 157,128.6051 157,128.12244 z M 174,119.58272 C 174,117.62541 184.98873,106.41662 187.74371,105.56378 C 189.50175,105.01956 189.86055,105.19982 189.40133,106.39654 C 189.07898,107.23657 187.97983,108.18901 186.95877,108.51309 C 185.93771,108.83716 184.85254,109.86679 184.54727,110.80115 C 183.86814,112.8798 176.20685,121 174.92481,121 C 174.41616,121 174,120.36223 174,119.58272 z M 190,103.11355 C 190,102.5511 191.0125,101.01343 192.25,99.696505 C 197.80526,93.784707 202,88.704564 202,87.888521 C 202,87.399834 201.1,87 200,87 C 197.7596,87 197.17951,83.625122 199.20477,82.373444 C 201.24879,81.110174 206.33036,80.916501 207.0461,82.074588 C 207.45646,82.738568 209.16256,81.417839 211.36235,78.733295 C 215.56541,73.604009 215.73463,73 212.96862,73 C 209.8979,73 209.27165,70.008198 211.89732,67.882059 C 213.4357,66.636361 215.0395,66.257899 217.06408,66.662817 C 218.92013,67.034026 220,66.83621 220,66.125 C 220,65.50625 219.55,65 219,65 C 218.45,65 218,64.582143 218,64.071429 C 218,62.652754 221.05226,59.914264 221.98853,60.492913 C 223.83728,61.635501 234.47588,49.566568 241.44667,38.418676 C 246.93625,29.63957 250.3856,25.328175 255.14216,21.300491 L 261.5,15.91689 L 262.12393,19.708445 C 262.46709,21.7938 262.98059,27.450288 263.26504,32.278417 L 263.78222,41.056834 L 259.64111,45.076669 C 257.3635,47.287579 253.475,50.271113 251,51.706746 C 245.66745,54.799912 238,61.878419 238,63.708208 C 238,64.418694 237.17844,65 236.17431,65 C 235.17019,65 233.32922,66.085112 232.08327,67.41136 L 229.81792,69.82272 L 235.05065,76.66136 C 244.6371,89.189856 246.44181,90.582431 249.03788,87.454355 C 250.11251,86.159503 249.80786,85.18121 247.16033,81.425119 C 245.42215,78.959143 244,76.682144 244,76.36512 C 244,76.048095 242.875,74.451725 241.5,72.817631 C 238.98456,69.828194 238.21483,67 239.91667,67 C 240.42083,67 240.98333,67.427835 241.16667,67.950745 C 241.35,68.473655 243.975,72.092198 247,75.991951 C 251.41939,81.68931 252.94207,83.003323 254.75,82.679877 C 257.90899,82.114722 257.56797,83.111892 253.25,87.066001 C 249.08352,90.88138 246.04751,92.911051 244.42683,92.964565 C 243.47722,92.99592 239.81457,88.822282 232.71894,79.623293 C 231.49852,78.041104 229.6,75.658201 228.5,74.327953 L 226.5,71.90932 L 218.5,78.045635 C 214.1,81.420608 210.09356,84.928511 209.59679,85.840975 C 208.54048,87.781228 196.7494,99.169787 192.75,102.11266 C 191.2375,103.2256 190,103.676 190,103.11355 z M 250,37.116631 C 250,35.961957 246.14305,34.95953 245.52818,35.9544 C 245.26759,36.376052 245.34214,37.008806 245.69385,37.36052 C 246.65315,38.319812 250,38.130256 250,37.116631 z M 187,97.583333 C 187,96.7125 187.7125,96 188.58333,96 C 189.45417,96 189.98854,96.534375 189.77083,97.1875 C 189.15276,99.041723 187,99.34926 187,97.583333 z M 122.25,96.207894 C 120.81352,95.98636 120,95.162916 120,93.930449 C 120,91.914557 117.57008,91.26858 116.5,93 C 116.16008,93.55 115.23352,94 114.44098,94 C 113.30509,94 113,92.287222 113,85.910293 C 113,78.743788 113.25677,77.606378 115.25,75.943562 C 118.41508,73.303147 118.83208,73.470702 120.99008,78.25 C 122.04553,80.5875 123.59108,83.355102 124.42463,84.400228 C 125.90999,86.262597 126.05213,86.257617 131.55908,84.150228 C 137.76762,81.774355 139.42749,81.499285 138.5,83 C 137.42063,84.746452 141.35873,84.089944 150.50281,80.999051 C 156.74881,78.887767 159.58766,78.332826 160.07859,79.127166 C 160.46238,79.748152 161.28405,79.942484 161.90451,79.559017 C 162.52497,79.17555 162.81718,78.513213 162.55387,78.087157 C 162.29055,77.661102 163.66024,76.826021 165.59762,76.231423 C 168.70623,75.277362 168.97181,75.329037 167.85791,76.671209 C 166.77929,77.970861 166.95238,78.141679 169.04785,77.845558 C 170.56697,77.630883 171.45522,76.881739 171.38231,75.876691 C 171.30888,74.864543 172.50029,73.875111 174.54994,73.246054 L 177.83527,72.237758 L 176.16763,75.547884 C 174.51557,78.827112 168.04324,83 164.60908,83 C 162.891,83 162.60888,83.489396 161.55042,88.306002 L 160.93378,91.112004 L 166.67116,86.873556 C 171.4896,83.313969 173.6972,82.414654 180.45427,81.258716 C 187.9208,79.981408 188.84327,79.546013 193.26849,75.210541 C 195.89116,72.64106 197.81778,69.967537 197.54988,69.269379 C 197.262,68.519199 197.83659,68 198.95466,68 C 199.9952,68 202.11858,66.94019 203.67327,65.644867 C 206.54472,63.252477 213.72953,60.396198 214.62458,61.291244 C 214.89439,61.561059 213.84942,62.683098 212.30241,63.784663 C 209.63304,65.685426 204.04498,71.079708 194,81.452396 C 188.08701,87.558294 186.56408,88.316444 179.82627,88.508393 C 176.29484,88.608999 173.12137,89.345678 171.42156,90.459441 C 168.17469,92.586868 150.098,95.230165 148.34565,93.833756 C 147.21534,92.93303 145.0426,93.17947 138,95.007197 C 133.92364,96.065111 125.49208,96.707889 122.25,96.207894 z M 160.8455,83.551966 C 161.0665,82.41195 160.70613,81.931122 159.8455,82.217698 C 159.10548,82.464117 158.34452,83.467768 158.1545,84.448034 C 157.9335,85.58805 158.29387,86.068878 159.1545,85.782302 C 159.89452,85.535883 160.65548,84.532232 160.8455,83.551966 z M 120,82.452028 C 120,80.573141 118.02696,79.573043 116.78009,80.819915 C 115.28676,82.313244 116.6004,85.090571 118.46215,84.376152 C 119.30797,84.051581 120,83.185725 120,82.452028 z M 187,76 C 187,75.45 187.45,75 188,75 C 188.55,75 189,75.45 189,76 C 189,76.55 188.55,77 188,77 C 187.45,77 187,76.55 187,76 z"
     style="fill:#960303" />
  <path
     id="path2808"
     d="M 10.54241,291.20908 C 9.1239236,289.79059 10.267089,281.38923 12.677113,275.5207 C 15.965314,267.51377 22.438345,260.07938 33.148267,252.00921 C 40.959454,246.1233 48.795759,241.46243 49.573276,242.23994 C 49.781982,242.44865 44.572345,246.99286 37.996304,252.3382 C 31.420264,257.68353 25.576267,262.92324 25.009644,263.98198 C 24.175832,265.53997 24.555174,266.56272 26.999376,269.34651 C 28.875319,271.48309 29.785732,273.3948 29.402677,274.39302 C 29.063517,275.27686 29.284167,276 29.893011,276 C 30.501855,276 31,275.35796 31,274.57324 C 31,273.10829 36.223272,270 38.685023,270 C 39.442784,270 40.353323,269.2125 40.708443,268.25 C 41.885018,265.06107 46,263.6738 46,266.46607 C 46,270.81104 39.450758,280 36.353977,280 C 35.60929,280 35,280.89242 35,281.98315 C 35,283.36388 33.449261,284.75213 29.895039,286.55319 C 24.896234,289.08627 11.614863,292.28153 10.54241,291.20908 z M 93.174314,208.68555 C 91.978441,207.4126 91,205.79001 91,205.07979 C 91,204.36958 92.35,205.23367 94,207 C 95.65,208.76633 97,210.38892 97,210.60576 C 97,211.69474 95.110194,210.7462 93.174314,208.68555 z M 279.38061,200.45814 C 278.49476,199.10616 277.01173,198 276.08499,198 C 272.47617,198 272.02562,195.84932 275.09362,193.26777 C 278.56882,190.34358 279.77129,190.94881 282.49741,196.99425 C 283.49089,199.19741 284.80594,201 285.41974,201 C 286.03353,201 288.21519,199.85878 290.26787,198.46395 C 294.79705,195.38629 295.30954,196.93134 290.8199,200.12824 C 286.19894,203.41866 281.4109,203.55674 279.38061,200.45814 z M 265.68332,185.34999 C 264.56919,184.23585 264.90505,179.49495 266.18909,178.21091 C 267.10787,177.29213 266.72509,175.65542 264.50522,171.01091 C 261.6644,165.06724 260.37694,164.02306 258.36722,166.03278 C 257.34246,167.05754 253.99997,166.37654 254.00003,165.14301 C 254.00009,163.92865 261.07213,158.85738 262.22817,159.24272 C 262.86408,159.45469 265.30309,163.42429 267.64818,168.06405 C 271.54737,175.7786 271.78517,176.671 270.42911,178.49999 C 269.61354,179.59999 268.36584,181.74499 267.65644,183.26665 C 266.94705,184.78831 266.05914,185.72581 265.68332,185.34999 z M 156.8531,148.86673 C 153.93051,145.76797 152.49058,145 149.6031,145 C 147.62139,145 146,144.55 146,144 C 146,143.45 147.40248,143 149.11663,143 C 151.76977,143 152.15326,142.69408 151.69532,140.9429 C 151.35344,139.63555 151.58429,139.02627 152.32869,139.27122 C 152.97291,139.48321 153.64817,140.66731 153.82928,141.90255 C 154.01038,143.1378 155.92288,145.74241 158.07928,147.69059 C 161.69878,150.96059 163.06385,153.18904 161.25,152.86673 C 160.8375,152.79343 158.85889,150.99343 156.8531,148.86673 z M 243.64937,147.31604 C 242.94295,146.60962 244.00609,143.99247 246.25089,140.91182 C 248.1271,138.33701 248.1203,138.28665 244.93453,131.16182 C 241.59453,123.69205 240.21619,122.76555 236.55887,125.5318 C 234.2231,127.29849 233,127.40557 233,125.84336 C 233,123.78626 265.0482,94 267.26151,94 C 267.8506,94 264.56193,97.4875 259.95336,101.75 C 255.3448,106.0125 249.65295,111.37854 247.30481,113.67453 L 243.03547,117.84907 L 244.41031,121.74578 C 245.16647,123.88898 246.95849,127.95798 248.39257,130.788 C 249.82666,133.61803 251,136.90643 251,138.09556 C 251,140.26277 244.61071,148.27738 243.64937,147.31604 z M 156.92421,136.14162 C 157.47123,135.11951 159.06206,133.53413 160.45939,132.61856 C 161.85673,131.703 163,130.08538 163,129.02386 C 163,127.14197 169.4388,123.10547 170.59553,124.2622 C 171.30481,124.97148 158.45534,138 157.04652,138 C 156.26788,138 156.23084,137.43719 156.92421,136.14162 z M 157,128.12244 C 157,126.84369 159.94038,124.60704 160.66667,125.33333 C 161.39296,126.05962 159.15631,129 157.87756,129 C 157.3949,129 157,128.6051 157,128.12244 z M 174,119.58272 C 174,117.62541 184.98873,106.41662 187.74371,105.56378 C 189.50175,105.01956 189.86055,105.19982 189.40133,106.39654 C 189.07898,107.23657 187.97983,108.18901 186.95877,108.51309 C 185.93771,108.83716 184.85254,109.86679 184.54727,110.80115 C 183.86814,112.8798 176.20685,121 174.92481,121 C 174.41616,121 174,120.36223 174,119.58272 z M 190,103.11355 C 190,102.5511 191.0125,101.01343 192.25,99.696505 C 197.80526,93.784707 202,88.704564 202,87.888521 C 202,87.399834 201.1,87 200,87 C 197.7596,87 197.17951,83.625122 199.20477,82.373444 C 201.24879,81.110174 206.33036,80.916501 207.0461,82.074588 C 207.45646,82.738568 209.16256,81.417839 211.36235,78.733295 C 215.56541,73.604009 215.73463,73 212.96862,73 C 209.8979,73 209.27165,70.008198 211.89732,67.882059 C 213.4357,66.636361 215.0395,66.257899 217.06408,66.662817 C 218.92013,67.034026 220,66.83621 220,66.125 C 220,65.50625 219.55,65 219,65 C 218.45,65 218,64.582143 218,64.071429 C 218,62.652754 221.05226,59.914264 221.98853,60.492913 C 223.83728,61.635501 234.47588,49.566568 241.44667,38.418676 C 246.93625,29.63957 250.3856,25.328175 255.14216,21.300491 L 261.5,15.91689 L 262.12393,19.708445 C 262.46709,21.7938 262.98059,27.450288 263.26504,32.278417 L 263.78222,41.056834 L 259.64111,45.076669 C 257.3635,47.287579 253.475,50.271113 251,51.706746 C 245.66745,54.799912 238,61.878419 238,63.708208 C 238,64.418694 237.17844,65 236.17431,65 C 235.17019,65 233.32922,66.085112 232.08327,67.41136 L 229.81792,69.82272 L 235.05065,76.66136 C 244.6371,89.189856 246.44181,90.582431 249.03788,87.454355 C 250.11251,86.159503 249.80786,85.18121 247.16033,81.425119 C 245.42215,78.959143 244,76.682144 244,76.36512 C 244,76.048095 242.875,74.451725 241.5,72.817631 C 238.98456,69.828194 238.21483,67 239.91667,67 C 240.42083,67 240.98333,67.427835 241.16667,67.950745 C 241.35,68.473655 243.975,72.092198 247,75.991951 C 251.41939,81.68931 252.94207,83.003323 254.75,82.679877 C 257.90899,82.114722 257.56797,83.111892 253.25,87.066001 C 249.08352,90.88138 246.04751,92.911051 244.42683,92.964565 C 243.47722,92.99592 239.81457,88.822282 232.71894,79.623293 C 231.49852,78.041104 229.6,75.658201 228.5,74.327953 L 226.5,71.90932 L 218.5,78.045635 C 214.1,81.420608 210.09356,84.928511 209.59679,85.840975 C 208.54048,87.781228 196.7494,99.169787 192.75,102.11266 C 191.2375,103.2256 190,103.676 190,103.11355 z M 250,37.116631 C 250,35.961957 246.14305,34.95953 245.52818,35.9544 C 245.26759,36.376052 245.34214,37.008806 245.69385,37.36052 C 246.65315,38.319812 250,38.130256 250,37.116631 z M 187,97.583333 C 187,96.7125 187.7125,96 188.58333,96 C 189.45417,96 189.98854,96.534375 189.77083,97.1875 C 189.15276,99.041723 187,99.34926 187,97.583333 z M 122.25,96.294267 C 120.84335,96.023334 120,95.137324 120,93.930449 C 120,91.914557 117.57008,91.26858 116.5,93 C 116.16008,93.55 115.23352,94 114.44098,94 C 113.30509,94 113,92.287222 113,85.910293 C 113,78.743788 113.25677,77.606378 115.25,75.943562 C 118.41508,73.303147 118.83208,73.470702 120.99008,78.25 C 122.04553,80.5875 123.59108,83.355102 124.42463,84.400228 C 125.90999,86.262597 126.05213,86.257617 131.55908,84.150228 C 137.53113,81.864853 140.05057,81.399368 138.45,82.877079 C 137.9275,83.359473 135.20213,84.49917 132.39363,85.409739 C 129.58513,86.320309 126.24419,88.175623 124.96932,89.53266 L 122.65137,92 L 124.82569,92 C 126.02156,92 127,92.413196 127,92.918213 C 127,94.493014 125.81701,97.006562 125.14301,96.863818 C 124.78936,96.788918 123.4875,96.53262 122.25,96.294267 z M 120,82.452028 C 120,80.573141 118.02696,79.573043 116.78009,80.819915 C 115.28676,82.313244 116.6004,85.090571 118.46215,84.376152 C 119.30797,84.051581 120,83.185725 120,82.452028 z M 137.35651,93.238378 C 139.5914,90.836328 141.56776,89.932296 146.43842,89.084107 C 149.8624,88.487848 152.96447,88 153.33191,88 C 154.62367,88 153.91257,90.52508 151.96108,92.867758 C 150.44723,94.685076 149.67621,94.976168 148.64449,94.119914 C 147.31458,93.01619 141.11841,93.736249 136.5,95.531227 C 134.90457,96.151304 135.07782,95.687499 137.35651,93.238378 z M 167.96055,89.035701 C 171.27062,86.040133 173.46011,84.92836 176.92053,84.486038 C 188.85351,82.960723 189.80602,82.448834 201.2066,71.434449 C 207.14677,65.695502 212.79286,61.025 213.75346,61.055556 C 215.11051,61.098722 214.86978,61.600489 212.67402,63.305556 C 209.88026,65.474971 202.73357,72.417817 194,81.446929 C 188.11724,87.528763 186.56347,88.313574 180,88.518375 C 176.5445,88.626197 173.01859,89.491066 170.51481,90.844996 C 164.3022,94.204483 163.15053,93.388706 167.96055,89.035701 z"
     style="fill:#5f1d1d" />
  <path
     id="path2806"
     d="M 10.54241,291.20908 C 9.1239236,289.79059 10.267089,281.38923 12.677113,275.5207 C 15.965314,267.51377 22.438345,260.07938 33.148267,252.00921 C 40.959454,246.1233 48.795759,241.46243 49.573276,242.23994 C 49.781982,242.44865 44.572345,246.99286 37.996304,252.3382 C 31.420264,257.68353 25.576267,262.92324 25.009644,263.98198 C 24.175832,265.53997 24.555174,266.56272 26.999376,269.34651 C 28.875319,271.48309 29.785732,273.3948 29.402677,274.39302 C 29.063517,275.27686 29.284167,276 29.893011,276 C 30.501855,276 31,275.35796 31,274.57324 C 31,273.10829 36.223272,270 38.685023,270 C 39.442784,270 40.353323,269.2125 40.708443,268.25 C 41.885018,265.06107 46,263.6738 46,266.46607 C 46,270.81104 39.450758,280 36.353977,280 C 35.60929,280 35,280.89242 35,281.98315 C 35,283.36388 33.449261,284.75213 29.895039,286.55319 C 24.896234,289.08627 11.614863,292.28153 10.54241,291.20908 z M 279.40804,200.5 C 278.50711,199.125 276.92173,198 275.88499,198 C 274.84825,198 274,197.61974 274,197.15499 C 274,196.11253 277.87075,192.52232 278.38321,193.08946 C 279.00696,193.77978 283,201.88445 283,202.46016 C 283,203.89205 280.86843,202.72883 279.40804,200.5 z M 265,181.27673 C 265,180.24453 265.53509,178.86491 266.18909,178.21091 C 267.10787,177.29213 266.72509,175.65542 264.50522,171.01091 C 261.63469,165.00509 260.38182,164.01818 258.28713,166.11287 C 257.67506,166.72494 256.68335,166.92233 256.08333,166.5515 C 255.40696,166.13348 256.14147,164.91039 258.01628,163.33285 C 261.78536,160.16138 262.48982,160.67699 266.9313,169.85799 L 270.31024,176.84259 L 267.65512,179.99802 C 265.51237,182.54454 265,182.79129 265,181.27673 z M 244,144.6145 C 244,144.23198 244.93079,142.66006 246.06842,141.12133 L 248.13684,138.32364 L 244.93453,131.16182 C 241.59453,123.69205 240.21619,122.76555 236.55887,125.5318 C 235.49125,126.33931 234.25375,127 233.80887,127 C 231.86924,127 233.364,124.55328 238.26455,119.70664 C 241.16005,116.84299 243.18505,114.9275 242.76455,115.45 C 241.34409,117.21501 241.98653,120.00621 245.93198,129.21166 C 248.55936,135.34179 249.58547,138.90604 249.02461,139.95402 C 247.99873,141.87088 244,145.57983 244,144.6145 z M 151.74767,141.46037 C 151.44129,139.85764 151.67497,139.05648 152.3811,139.28869 C 153.76911,139.74516 154.49615,144 153.18613,144 C 152.66199,144 152.01469,142.85716 151.74767,141.46037 z M 156.92421,136.14162 C 157.47123,135.11951 159.06206,133.53413 160.45939,132.61856 C 161.85673,131.703 163,130.08538 163,129.02386 C 163,127.14197 169.4388,123.10547 170.59553,124.2622 C 171.30481,124.97148 158.45534,138 157.04652,138 C 156.26788,138 156.23084,137.43719 156.92421,136.14162 z M 157,128.12244 C 157,126.84369 159.94038,124.60704 160.66667,125.33333 C 161.39296,126.05962 159.15631,129 157.87756,129 C 157.3949,129 157,128.6051 157,128.12244 z M 174,119.58272 C 174,117.62541 184.98873,106.41662 187.74371,105.56378 C 189.50175,105.01956 189.86055,105.19982 189.40133,106.39654 C 189.07898,107.23657 187.97983,108.18901 186.95877,108.51309 C 185.93771,108.83716 184.85254,109.86679 184.54727,110.80115 C 183.86814,112.8798 176.20685,121 174.92481,121 C 174.41616,121 174,120.36223 174,119.58272 z M 190,103.11355 C 190,102.5511 191.0125,101.01343 192.25,99.696505 C 197.80526,93.784707 202,88.704564 202,87.888521 C 202,87.399834 201.1,87 200,87 C 197.7596,87 197.17951,83.625122 199.20477,82.373444 C 201.24879,81.110174 206.33036,80.916501 207.0461,82.074588 C 207.45646,82.738568 209.16256,81.417839 211.36235,78.733295 C 215.56541,73.604009 215.73463,73 212.96862,73 C 209.8979,73 209.27165,70.008198 211.89732,67.882059 C 213.4357,66.636361 215.0395,66.257899 217.06408,66.662817 C 218.92013,67.034026 220,66.83621 220,66.125 C 220,65.50625 219.55,65 219,65 C 218.45,65 218,64.582143 218,64.071429 C 218,62.652754 221.05226,59.914264 221.98853,60.492913 C 223.83728,61.635501 234.47588,49.566568 241.44667,38.418676 C 246.93625,29.63957 250.3856,25.328175 255.14216,21.300491 L 261.5,15.91689 L 262.12393,19.708445 C 262.46709,21.7938 262.98059,27.450288 263.26504,32.278417 L 263.78222,41.056834 L 259.64111,45.076669 C 257.3635,47.287579 253.475,50.271113 251,51.706746 C 245.66745,54.799912 238,61.878419 238,63.708208 C 238,64.418694 237.17844,65 236.17431,65 C 235.17019,65 233.32922,66.085112 232.08327,67.41136 L 229.81792,69.82272 L 235.05065,76.66136 C 244.6371,89.189856 246.44181,90.582431 249.03788,87.454355 C 250.11251,86.159503 249.80786,85.18121 247.16033,81.425119 C 245.42215,78.959143 244,76.682144 244,76.36512 C 244,76.048095 242.875,74.451725 241.5,72.817631 C 238.98456,69.828194 238.21483,67 239.91667,67 C 240.42083,67 240.98333,67.427835 241.16667,67.950745 C 241.35,68.473655 243.975,72.092198 247,75.991951 C 251.41939,81.68931 252.94207,83.003323 254.75,82.679877 C 257.90899,82.114722 257.56797,83.111892 253.25,87.066001 C 249.08352,90.88138 246.04751,92.911051 244.42683,92.964565 C 243.47722,92.99592 239.81457,88.822282 232.71894,79.623293 C 231.49852,78.041104 229.6,75.658201 228.5,74.327953 L 226.5,71.90932 L 218.5,78.045635 C 214.1,81.420608 210.09356,84.928511 209.59679,85.840975 C 208.54048,87.781228 196.7494,99.169787 192.75,102.11266 C 191.2375,103.2256 190,103.676 190,103.11355 z M 250,37.116631 C 250,35.961957 246.14305,34.95953 245.52818,35.9544 C 245.26759,36.376052 245.34214,37.008806 245.69385,37.36052 C 246.65315,38.319812 250,38.130256 250,37.116631 z M 187,97.583333 C 187,96.7125 187.7125,96 188.58333,96 C 189.45417,96 189.98854,96.534375 189.77083,97.1875 C 189.15276,99.041723 187,99.34926 187,97.583333 z M 120,95.09362 C 120,94.59511 120.9,94.422595 122,94.710251 C 123.1,94.997907 124,95.405779 124,95.616631 C 124,95.827484 123.1,96 122,96 C 120.9,96 120,95.592129 120,95.09362 z M 138.55962,93.903534 C 139.15519,92.939872 145.65133,91.013736 148.33333,91.005577 C 149.37919,91.002395 149.9698,91.536914 149.70833,92.25 C 149.45625,92.9375 148.76988,93.39621 148.18307,93.269356 C 147.59625,93.142501 145.07557,93.419929 142.58155,93.885863 C 140.08753,94.351796 138.27766,94.359748 138.55962,93.903534 z M 169.46593,90.037645 C 171.46222,87.831774 177.46755,85.545191 180.5,85.836323 C 184.50191,86.220528 190.59903,83.571181 194.89445,79.581581 C 197.3114,77.336712 198.9505,76.097851 198.53689,76.828558 C 197.60095,78.482027 189.34571,86.173276 187.16221,87.42613 C 186.27446,87.935502 182.98412,88.423758 179.85034,88.511145 C 176.46154,88.605642 173.12278,89.344755 171.61146,90.335015 C 168.20804,92.565016 167.29342,92.438249 169.46593,90.037645 z M 205,69.5 C 206.29175,68.125 207.57363,67 207.84863,67 C 208.12363,67 207.29175,68.125 206,69.5 C 204.70825,70.875 203.42637,72 203.15137,72 C 202.87637,72 203.70825,70.875 205,69.5 z"
     style="fill:#2b2b2b" />
  <path
     style="fill:#000000;stroke:#000000;stroke-opacity:1;stroke-width:1;stroke-miterlimit:4;stroke-dasharray:none"
     d="M 7,287.96987 C 7,278.54769 9.7033513,270.95608 16.053662,262.54515 C 21.486412,255.34952 35.873381,243.98955 44.5,240.08387 C 46.74944,239.06544 56.465913,230.77329 66.701973,221.13644 C 76.713058,211.7114 85.524914,204 86.283874,204 C 87.476476,204 138.07578,150.04351 141.89653,144.69753 C 143.11253,142.9961 143.08022,142.6244 141.64653,141.82206 C 140.74094,141.31527 140,140.16731 140,139.27104 C 140,138.37477 149,128.5447 160,117.42644 C 171,106.30818 180,96.713848 180,96.105708 C 180,94.600583 179.36879,94.628883 147.26052,97.573587 L 119.02105,100.16348 L 112.35829,104.63134 C 104.88921,109.63991 101.67403,110.00022 101.19634,105.88222 C 100.95905,103.83661 101.88797,102.38835 105.44634,99.256151 L 110,95.247857 L 110.02135,85.373928 L 110.0427,75.5 L 113.93113,72.75 C 119.0632,69.120458 120.36762,69.274573 122.39507,73.75 C 123.32942,75.8125 124.91071,78.576812 125.90905,79.892916 L 127.72421,82.285832 L 132.38553,79.078755 C 137.90405,75.281918 142.54658,75.102395 142.427,78.690458 C 142.37077,80.377572 142.71545,80.689898 143.927,80.04964 C 144.79215,79.592438 161.475,74.158561 181,67.974358 C 204.10605,60.65592 218.88379,55.424738 223.32791,52.990679 C 230.07927,49.292927 230.24839,49.096788 238.41498,35.493517 C 246.11216,22.672163 247.20731,21.336735 254.50943,15.868014 C 258.81883,12.640606 263.11282,10 264.05163,10 C 265.54893,10 265.8104,11.557272 266.18071,22.68048 C 266.60172,35.32668 266.61069,35.366554 269.49855,37.43048 C 275.84253,41.964472 280.99952,47.32774 280.98593,49.37736 C 280.9782,50.544812 279.18742,54.773531 277.00642,58.774513 C 273.3204,65.536412 272.94581,66.980988 271.69056,79.274513 L 270.34016,92.5 L 278.16105,125.5 C 282.46254,143.65 287.82446,166.25766 290.07644,175.73924 L 294.17094,192.97847 L 298.61032,189.9241 C 304.31129,186.00173 308.36658,185.57472 308.83136,188.84786 C 309.2942,192.10734 306.74189,194.60636 290.5,206.79646 C 275.06924,218.37779 270.66495,220.79675 268.41262,218.92748 C 266.06695,216.98075 266.78833,214.88819 271.21343,210.80296 C 274.65291,207.62765 275.23326,206.59968 274.37291,205.20658 C 273.79323,204.26796 263.96573,187.525 252.53401,168 C 229.47785,128.62083 228.19338,126.66848 223.87095,124.43327 C 221.07173,122.98573 220.40054,123.01883 214.90251,124.87555 C 209.25968,126.78116 205.54761,129.37383 172.10576,154.76667 C 169.68892,156.6018 167.05962,157.85312 166.26285,157.54737 C 160.65642,155.39598 161.41612,154.84725 130.40773,183.44559 C 113.3071,199.21711 100.35922,211.90913 100.17125,213.08457 C 99.990444,214.21524 92.292373,222.87126 83.06443,232.32017 C 70.319217,245.37057 65.984899,250.46146 65.03221,253.5 C 62.162826,262.65171 51.908535,277.31875 44.434284,282.96187 C 37.866829,287.92034 26.455441,292.78167 17.162032,294.58003 C 6.295796,296.68275 7,297.14082 7,287.96987 z M 15.566341,291.95352 C 26.962183,289.94371 43.316249,281.58447 48.734274,275 C 53.269278,269.48866 60.971198,256.72231 62.123244,252.80706 C 63.278348,248.88141 66.196687,245.31532 80.25,230.6569 C 89.4625,221.04773 97,212.49379 97,211.64815 C 97,209.41355 157.72866,153.569 160.57264,153.18835 C 161.85329,153.01694 163.77347,153.34358 164.8397,153.91421 C 166.4953,154.80026 169.82374,152.65315 187.63915,139.20674 C 204.83397,126.22875 209.58929,123.13251 214.69839,121.58818 C 225.56472,118.30362 228.33125,120.60546 242.23561,144.5 C 258.50753,172.46315 272.63449,196.46074 275.44329,200.91016 C 278.51494,205.77597 278.65568,208.09664 276.02358,210.47866 C 274.93655,211.46241 274.2749,212.63579 274.55325,213.08616 C 274.8316,213.53654 273.80849,214.63004 272.27967,215.51617 C 270.75085,216.40229 270.36847,216.85671 271.42993,216.52599 C 274.38494,215.60529 296.66772,199.12318 302.40842,193.61185 C 305.20879,190.92337 306.6,189.35149 305.5,190.1188 C 301.1189,193.17482 294.18619,196.28517 292.88132,195.78016 C 292.09497,195.47582 290.70772,191.63915 289.66061,186.87278 C 288.64894,182.26775 283.36144,159.7687 277.91061,136.87488 C 272.45977,113.98106 268,93.40969 268,91.16072 C 268,88.91175 268.47519,82.443055 269.05598,76.785842 C 269.95564,68.022544 270.73276,65.188786 274.30598,57.641841 L 278.5,48.783681 L 274.12139,44.891841 C 271.71316,42.751328 268.91649,41 267.90658,41 C 265.04389,41 264.29303,38.389451 263.5208,25.751675 L 262.80291,14.003351 L 259.84118,15.751675 C 252.91593,19.83969 247.68828,25.877884 240.16578,38.477728 C 232.65455,51.058699 232.21194,51.573641 225.68833,55.321209 C 220.86166,58.09395 207.9507,62.694808 180.02496,71.593481 C 158.61124,78.417066 140.39547,84 139.54546,84 C 137.70659,84 137.51437,81.885632 139.2,80.2 C 141.86582,77.534175 137.36598,79.104232 132.25822,82.62208 C 126.11225,86.854975 125.58134,86.654169 121.47836,78.544781 L 118.75926,73.170567 L 115.32128,76.299058 L 111.8833,79.42755 L 112.51322,87.963775 L 113.14314,96.5 L 108.45291,101.25 C 105.87328,103.8625 104.14759,106 104.61804,106 C 105.08849,106 108.40438,104.01635 111.9867,101.59189 C 117.52839,97.841346 119.46963,97.097197 125,96.603401 C 176.5699,91.998822 181.77985,91.77761 183.29019,94.128434 C 184.68791,96.30398 183.65166,97.566462 161.79844,120.31221 C 148.28986,134.37251 144.01182,139.41182 144.86221,140.26221 C 145.48799,140.88799 145.98328,142.3225 145.96284,143.45 C 145.92028,145.79743 92.88723,203.74932 89.014901,205.67989 C 87.680161,206.34533 78.693278,214.25619 69.044051,223.25959 C 58.567473,233.03496 49.188451,240.89632 45.761892,242.77437 C 34.350607,249.02873 20.904439,260.20354 16.742857,266.89145 C 12.456391,273.78005 9,283.30158 9,288.22115 C 9,290.84952 9.1423532,293 9.3163405,293 C 9.4903278,293 12.302828,292.52908 15.566341,291.95352 z"
     id="path3628" />
</svg>
